<svg width="18" height="18" viewBox="0 0 18 18" fill="none" xmlns="http://www.w3.org/2000/svg">
<path d="M9.00001 0.692322C4.41077 0.692322 0.692322 4.41077 0.692322 9.00001C0.692322 13.5893 4.41077 17.3077 9.00001 17.3077C13.5893 17.3077 17.3077 13.5893 17.3077 9.00001C17.3077 4.41077 13.5893 0.692322 9.00001 0.692322ZM9.00001 14.3032C8.35098 14.3032 7.90747 13.8029 7.90747 13.1539C7.90747 12.4859 8.36991 12.0045 9.00001 12.0045C9.66798 12.0045 10.0926 12.4859 10.0926 13.1539C10.0926 13.8029 9.66798 14.3032 9.00001 14.3032ZM9.43 9.91408C9.26504 10.4793 8.7431 10.4874 8.57003 9.91408C8.36991 9.25152 7.65867 6.7392 7.65867 5.10849C7.65867 2.95584 10.3522 2.94503 10.3522 5.10849C10.3522 6.75001 9.60308 9.32724 9.43 9.91408Z" fill="#EB0E0E"/>
</svg>
