<svg width="938" height="535" viewBox="0 0 938 535" fill="none" xmlns="http://www.w3.org/2000/svg">
<path d="M15.5 0H887.488C888.462 0 889.403 0.355826 890.134 1.00065L913.146 21.3057C914.007 22.065 914.5 23.1574 914.5 24.3051V242.658C914.5 243.827 915.011 244.938 915.9 245.697L935.6 262.553C936.489 263.312 937 264.423 937 265.592V509.894C937 510.925 936.602 511.916 935.889 512.66L915.681 533.766C914.927 534.554 913.883 535 912.792 535H10C4.47716 535 0 530.523 0 525V511.5V21.5V10C0 4.47715 4.47715 0 10 0H15.5Z" fill="white"/>
<rect x="930.5" y="263" width="7" height="249" rx="3.5" fill="#04B5D2"/>
</svg>
