<svg width="1126" height="737" viewBox="0 0 1126 737" fill="none" xmlns="http://www.w3.org/2000/svg">
<path d="M0 44.5L0 38.5C0 32.9772 4.47715 28.5 10 28.5H560.363C561.412 28.5 562.419 28.0881 563.167 27.3529L589.833 1.14709C590.581 0.411936 591.588 0 592.637 0L1097 0C1099.21 0 1101 1.79086 1101 4V366.745C1101 367.863 1101.47 368.931 1102.29 369.688L1124.71 390.312C1125.53 391.069 1126 392.137 1126 393.255V712.719C1126 713.852 1125.52 714.933 1124.68 715.692L1102.14 735.973C1101.41 736.634 1100.45 737 1099.47 737H10C4.47718 737 0 732.523 0 727V691.5V44.5Z" fill="white"/>
<path d="M590.316 1.25351C591.072 0.453416 592.124 0 593.224 0H1097C1099.21 0 1101 1.79086 1101 4V5C1101 7.20914 1099.21 9 1097 9H592.28C588.771 9 586.962 4.80445 589.372 2.25351L590.316 1.25351Z" fill="#01ACC8"/>
</svg>
