<svg width="49" height="49" viewBox="0 0 49 49" fill="none" xmlns="http://www.w3.org/2000/svg">
<path d="M49 0L47.9375 0.03125C47.9375 0.03125 40.5859 0.128906 33.5 3.65625C31.2227 4.79297 28.9336 6.35156 26.875 8.40625C24.3398 10.9414 20.7617 15.1016 17.5 19.0312H8.96875C8.9375 19.0312 8.90625 19.0312 8.875 19.0312C8.60547 19.0586 8.35547 19.1914 8.1875 19.4062L3.1875 25.4062C2.97656 25.6719 2.91016 26.0273 3.01953 26.3477C3.125 26.668 3.39062 26.9141 3.71875 27L9.8125 28.5312C9.76562 28.5898 9.46875 28.9688 9.46875 28.9688L9.34375 29.0938L9.28125 29.2812C9.28125 29.2812 9.19531 29.6328 9.21875 29.9688C9.22656 30.0938 9.25 30.2578 9.28125 30.4062L7.125 34.0312C7.125 34.0312 7.02734 34.2266 7 34.3438C6.97266 34.4609 6.96484 34.6055 6.96875 34.75C6.97656 35.0391 7.04688 35.3633 7.21875 35.75C7.5625 36.5234 8.29688 37.5469 9.875 39.125C11.4531 40.6992 12.4727 41.4375 13.25 41.7812C13.6367 41.9531 13.9609 42.0234 14.25 42.0312C14.3945 42.0352 14.5391 42.0273 14.6562 42C14.7734 41.9727 14.9688 41.875 14.9688 41.875L18.625 39.7188C18.7617 39.7461 18.918 39.7734 19.0312 39.7812C19.3672 39.8047 19.7188 39.7188 19.7188 39.7188L19.9062 39.6562L20.0625 39.5312C20.0625 39.5312 20.418 39.2578 20.4688 39.2188L22 45.2812C22.0859 45.6094 22.332 45.875 22.6523 45.9805C22.9727 46.0898 23.3281 46.0234 23.5938 45.8125L29.5938 40.8125C29.832 40.6211 29.9688 40.3359 29.9688 40.0312V31.4688C33.9258 28.1797 38.1133 24.6055 40.5938 22.125C42.6406 20.0742 44.1758 17.7812 45.3125 15.5C48.8242 8.42578 48.9688 1.0625 48.9688 1.0625L49 0ZM46.8438 2.15625C46.7617 3.66016 46.3672 8.90625 43.5312 14.625C42.4766 16.7461 41.0625 18.8438 39.1875 20.7188C36.75 23.1562 32.4609 26.8125 28.4688 30.125C28.3867 30.1758 28.3125 30.2383 28.25 30.3125C23.5742 34.1875 19.3555 37.543 19.0938 37.75C18.9766 37.7383 18.793 37.7266 18.4688 37.5938C17.7227 37.2891 16.4141 36.5078 14.4688 34.5625C12.5234 32.6172 11.7109 31.2773 11.4062 30.5312C11.2734 30.207 11.2617 30.0234 11.25 29.9062C11.457 29.6445 14.7656 25.4727 18.625 20.8125C18.7305 20.7266 18.8125 20.6211 18.875 20.5C22.1523 16.5469 25.7852 12.3086 28.2812 9.8125C30.1641 7.92969 32.2578 6.52734 34.375 5.46875C40.1016 2.62109 45.3438 2.23438 46.8438 2.15625ZM33.9688 10.0312C31.2188 10.0312 28.9688 12.2812 28.9688 15.0312C28.9688 17.7812 31.2188 20.0312 33.9688 20.0312C36.7188 20.0312 38.9688 17.7812 38.9688 15.0312C38.9688 12.2812 36.7188 10.0312 33.9688 10.0312ZM33.9688 12.0312C35.6367 12.0312 36.9688 13.3633 36.9688 15.0312C36.9688 16.6992 35.6367 18.0312 33.9688 18.0312C32.3008 18.0312 30.9688 16.6992 30.9688 15.0312C30.9688 13.3633 32.3008 12.0312 33.9688 12.0312ZM9.4375 21.0312H15.8438C13.9258 23.3711 12.3477 25.3594 11.1875 26.8125L5.75 25.4375L9.4375 21.0312ZM10.2812 32.625C10.8516 33.5391 11.6875 34.625 13.0312 35.9688C14.3711 37.3086 15.4609 38.1484 16.375 38.7188L14.2188 40C14.1875 39.9922 14.1914 39.9961 14.0625 39.9375C13.6523 39.7578 12.7578 39.1914 11.2812 37.7188C9.80859 36.2422 9.24219 35.3477 9.0625 34.9375C9.00391 34.8086 9.00781 34.8125 9 34.7812L10.2812 32.625ZM27.9688 33.1562V39.5625L23.5625 43.25L22.1875 37.8438C23.6367 36.6836 25.6055 35.1016 27.9688 33.1562ZM6.375 37.25C4.74219 38.5039 3.26562 38.6641 1.9375 39.9688C1.27344 40.6211 0.746094 41.5469 0.4375 42.8125C0.128906 44.0781 0 45.7109 0 48V49H1C5.59375 49 7.83984 48.2734 9.1875 46.9062C10.5352 45.5391 10.7578 44.0156 11.7812 42.625L10.1562 41.4375C8.85938 43.2031 8.57031 44.668 7.75 45.5C7.02734 46.2344 5.41797 46.7734 2.09375 46.9062C2.14453 45.4531 2.21484 44.0586 2.40625 43.2812C2.65625 42.2695 2.96094 41.7812 3.34375 41.4062C4.10547 40.6562 5.59766 40.3203 7.5625 38.8125L6.375 37.25ZM14.0625 40.0938L13.9688 40.1562V40.125C13.9688 40.125 14.0234 40.1094 14.0625 40.0938Z" fill="white"/>
</svg>
