<?xml version="1.0" encoding="UTF-8"?>
<svg width="34px" height="34px" viewBox="0 0 34 34" version="1.1" xmlns="http://www.w3.org/2000/svg" xmlns:xlink="http://www.w3.org/1999/xlink">
    <!-- Generator: Sketch 64 (93537) - https://sketch.com -->
    <title>Group 8</title>
    <desc>Created with Sketch.</desc>
    <defs>
        <linearGradient x1="50%" y1="0%" x2="50%" y2="98.1260557%" id="linearGradient-1">
            <stop stop-color="#00C4E4" offset="0%"></stop>
            <stop stop-color="#04C7E7" offset="49.0551098%"></stop>
            <stop stop-color="#0CB4D0" offset="81.1127534%"></stop>
            <stop stop-color="#02ACC8" offset="100%"></stop>
        </linearGradient>
        <linearGradient x1="50%" y1="0.672325764%" x2="50%" y2="99.8944257%" id="linearGradient-2">
            <stop stop-color="#03ADC9" offset="0%"></stop>
            <stop stop-color="#02C5E5" offset="100%"></stop>
        </linearGradient>
    </defs>
    <g id="Page-1" stroke="none" stroke-width="1" fill="none" fill-rule="evenodd">
        <g id="MW_building_chat" transform="translate(-1196.000000, -55.000000)">
            <g id="upgrade_but" transform="translate(1198.000000, 57.000000)">
                <g id="Group-8">
                    <path d="M29,-0.75 L1,-0.75 C0.516750844,-0.75 0.0792508439,-0.554124578 -0.237436867,-0.237436867 C-0.554124578,0.0792508439 -0.75,0.516750844 -0.75,1 L-0.75,29 C-0.75,29.4832492 -0.554124578,29.9207492 -0.237436867,30.2374369 C0.0792508439,30.5541246 0.516750844,30.75 1,30.75 L29,30.75 C29.4832492,30.75 29.9207492,30.5541246 30.2374369,30.2374369 C30.5541246,29.9207492 30.75,29.4832492 30.75,29 L30.75,1 C30.75,0.516750844 30.5541246,0.0792508439 30.2374369,-0.237436867 C29.9207492,-0.554124578 29.4832492,-0.75 29,-0.75 Z" id="Mask-Copy-2" stroke="url(#linearGradient-2)" stroke-width="1.5" fill="url(#linearGradient-1)"></path>
                    <path d="M29,-0.75 L1,-0.75 C0.516750844,-0.75 0.0792508439,-0.554124578 -0.237436867,-0.237436867 C-0.554124578,0.0792508439 -0.75,0.516750844 -0.75,1 L-0.75,29 C-0.75,29.4832492 -0.554124578,29.9207492 -0.237436867,30.2374369 C0.0792508439,30.5541246 0.516750844,30.75 1,30.75 L29,30.75 C29.4832492,30.75 29.9207492,30.5541246 30.2374369,30.2374369 C30.5541246,29.9207492 30.75,29.4832492 30.75,29 L30.75,1 C30.75,0.516750844 30.5541246,0.0792508439 30.2374369,-0.237436867 C29.9207492,-0.554124578 29.4832492,-0.75 29,-0.75 Z" id="Mask-Copy-2" stroke="url(#linearGradient-2)" stroke-width="1.5" fill="url(#linearGradient-1)"></path>
                    <rect id="Rectangle" fill="#FFFFFF" x="10.875" y="19.5" width="8.25" height="2.25" rx="0.45"></rect>
                    <rect id="Rectangle-Copy" fill="#FFFFFF" x="10.875" y="23.25" width="8.25" height="2.25" rx="0.45"></rect>
                    <path d="M23.9670118,8.89172615 C23.9000892,8.73254376 23.7439232,8.62867016 23.5706244,8.62867016 L18.8697576,8.62867016 L18.8697576,4.17567025 C18.8697576,3.94070761 18.6775564,3.75 18.4407535,3.75 L11.5768888,3.75 C11.3400859,3.75 11.1478846,3.94070761 11.1478846,4.17567025 L11.1478846,8.62871007 L6.42900026,8.62871007 C6.25570142,8.62871007 6.09953539,8.73258366 6.03261284,8.89092805 C5.96653487,9.05011044 6.00257009,9.23315623 6.12527484,9.35490742 L14.6836395,17.8748569 C14.7642763,17.9548671 14.8732668,18 14.9873649,18 C15.101463,18 15.2104535,17.9548671 15.2910903,17.8756949 L23.8743498,9.35574543 C23.9970545,9.23395434 24.0339343,9.05094845 23.9670118,8.89172615 Z" id="Path" fill="#FFFFFF" fill-rule="nonzero" transform="translate(15.000000, 10.875000) scale(1, -1) translate(-15.000000, -10.875000) "></path>
                </g>
            </g>
        </g>
    </g>
</svg>