<svg width="auto" height="auto" viewBox="0 0 536 354" preserveAspectRatio="none" fill="none" xmlns="http://www.w3.org/2000/svg">
<path fill-rule="evenodd" clip-rule="evenodd" d="M0.5 78.3816L0.5 343.992C0.5 349.515 4.97715 353.992 10.5 353.992H511.864C512.925 353.992 513.942 353.571 514.692 352.821L534.328 333.195C535.078 332.445 535.5 331.427 535.5 330.366V98.2523C535.5 97.0523 534.961 95.9156 534.032 95.1559L514.988 79.582C514.059 78.8223 513.521 77.6856 513.521 76.4855V22.6414C513.521 21.5676 513.089 20.539 512.323 19.7868L493.706 1.51236C492.959 0.778955 491.954 0.367712 490.907 0.366913L10.5076 2.98052e-06C4.98181 -0.00421743 0.5 4.47417 0.5 10L0.5 78.3816Z" fill="white"/>
</svg>
