<svg width="163" height="98" viewBox="0 0 163 98" fill="none" xmlns="http://www.w3.org/2000/svg">
<path d="M0 27.5C0 19.2157 6.71573 12.5 15 12.5H72.8663C74.2293 12.5 75.5332 11.9436 76.4763 10.9595L83.5474 3.58095C85.4335 1.61284 88.0414 0.5 90.7673 0.5L158 0.5C160.761 0.5 163 2.73858 163 5.5V83C163 91.2843 156.284 98 148 98H15C6.71573 98 0 91.2843 0 83V27.5Z" fill="white"/>
<path d="M85 4C85 1.79086 86.7909 0 89 0H159C161.209 0 163 1.79086 163 4C163 6.20914 161.209 8 159 8H89C86.7909 8 85 6.20914 85 4Z" fill="#02ADC9"/>
</svg>
