<svg width="13" height="10" viewBox="0 0 13 10" fill="none" xmlns="http://www.w3.org/2000/svg">
<path d="M9.87999 1.28414C10.1076 1.04717 10.4175 0.909136 10.744 0.899295C10.9972 0.891744 11.2467 0.961727 11.4598 1.10007C11.673 1.23842 11.8399 1.43868 11.9386 1.6746C12.0373 1.91053 12.0632 2.17111 12.013 2.4222C11.9628 2.6733 11.8387 2.90319 11.6571 3.08175L5.3733 9.43795C5.1376 9.67626 4.81798 9.81013 4.48472 9.81013C4.15146 9.81013 3.83184 9.67626 3.59614 9.43795L1.08261 6.89547C0.961989 6.77833 0.865691 6.63803 0.799351 6.48277C0.733012 6.32752 0.697964 6.16043 0.696263 5.9913C0.694561 5.82218 0.726238 5.65441 0.78944 5.49782C0.852642 5.34123 0.946097 5.19897 1.06433 5.07938C1.18257 4.95978 1.32321 4.86525 1.47801 4.80132C1.63282 4.73739 1.79868 4.70535 1.96588 4.70707C2.13309 4.70879 2.29827 4.74424 2.45176 4.81134C2.60524 4.87845 2.74395 4.97585 2.85976 5.09786L4.48472 6.74153L9.87999 1.28414Z" fill="#02ADC9"/>
</svg>
