<svg width="98" height="119" viewBox="0 0 98 119" fill="none" xmlns="http://www.w3.org/2000/svg">
<g filter="url(#filter0_d)">
<path d="M10 16C10 10.4771 14.4772 6 20 6H78C83.5228 6 88 10.4772 88 16V77.7596C88 81.2711 86.1582 84.5252 83.1477 86.3328L55.3615 103.017C52.2884 104.862 48.4629 104.921 45.3342 103.172L15.1204 86.2818C11.9587 84.5143 10 81.1753 10 77.5531V16Z" fill="white"/>
</g>
<path d="M53.8106 56.0794L56.4286 26.2765H41.5715L44.1895 56.0794H53.8106ZM55.7087 66.7471C55.7087 62.2133 53.287 60.2798 49.0328 60.2798C44.7785 60.2798 42.2914 62.2133 42.2914 66.7471C42.2914 71.2809 44.7785 73.2811 49.0328 73.2811C53.287 73.2811 55.7087 71.2809 55.7087 66.7471Z" fill="#F7B100"/>
<defs>
<filter id="filter0_d" x="0" y="0" width="98" height="118.443" filterUnits="userSpaceOnUse" color-interpolation-filters="sRGB">
<feFlood flood-opacity="0" result="BackgroundImageFix"/>
<feColorMatrix in="SourceAlpha" type="matrix" values="0 0 0 0 0 0 0 0 0 0 0 0 0 0 0 0 0 0 127 0"/>
<feOffset dy="4"/>
<feGaussianBlur stdDeviation="5"/>
<feColorMatrix type="matrix" values="0 0 0 0 0 0 0 0 0 0 0 0 0 0 0 0 0 0 0.15 0"/>
<feBlend mode="normal" in2="BackgroundImageFix" result="effect1_dropShadow"/>
<feBlend mode="normal" in="SourceGraphic" in2="effect1_dropShadow" result="shape"/>
</filter>
</defs>
</svg>
