<svg width="98" height="119" viewBox="0 0 98 119" fill="none" xmlns="http://www.w3.org/2000/svg">
<g filter="url(#filter0_d)">
<path d="M10 16C10 10.4771 14.4772 6 20 6H78C83.5228 6 88 10.4772 88 16V77.7596C88 81.2711 86.1582 84.5252 83.1477 86.3328L55.3615 103.017C52.2884 104.862 48.4629 104.921 45.3342 103.172L15.1204 86.2818C11.9587 84.5143 10 81.1753 10 77.5531V16Z" fill="white"/>
</g>
<path d="M68.4776 35.2809L64.8959 33.068C63.9049 32.4581 62.5471 32.6921 61.8838 33.5858L44.3263 57.1193L36.2577 49.7855C35.4149 49.0194 34.0415 49.0194 33.1988 49.7855L30.1321 52.5729C29.2893 53.3389 29.2893 54.5872 30.1321 55.3603L42.5394 66.6376C43.2339 67.2689 44.3263 67.7512 45.3095 67.7512C46.2928 67.7512 47.2838 67.1909 47.9237 66.3468L69.0551 38.0116C69.7261 37.1179 69.4686 35.8909 68.4776 35.2809Z" fill="#33B505"/>
<path fill-rule="evenodd" clip-rule="evenodd" d="M64.8959 33.068L68.4776 35.2809C69.4686 35.8909 69.7261 37.1179 69.0551 38.0116L47.9237 66.3468C47.2838 67.1908 46.2928 67.7512 45.3095 67.7512C44.3263 67.7512 43.2339 67.2689 42.5394 66.6376L30.1321 55.3603C29.2893 54.5872 29.2893 53.3389 30.1321 52.5729L33.1988 49.7854C34.0415 49.0194 35.4149 49.0194 36.2577 49.7854L44.3263 57.1193L61.8838 33.5858C62.5471 32.6921 63.9049 32.458 64.8959 33.068ZM61.0808 32.9898C61.0811 32.9894 61.0814 32.989 61.0817 32.9886C62.0756 31.6508 64.0187 31.3539 65.4201 32.2164L65.4215 32.2173L69.0018 34.4293C69.0019 34.4294 69.0016 34.4292 69.0018 34.4293C70.4585 35.3262 70.9029 37.2142 69.856 38.6104C69.8556 38.6109 69.8551 38.6115 69.8547 38.6121L48.7206 66.951C47.927 67.9977 46.66 68.7512 45.3095 68.7512C44.0458 68.7512 42.7203 68.1535 41.8667 67.3776L29.4595 56.1003L29.4561 56.0972C28.1833 54.9296 28.1782 52.9974 29.4595 51.8329L32.5262 49.0454C33.7503 47.9328 35.7061 47.9328 36.9303 49.0454L44.1836 55.6382L61.0808 32.9898Z" fill="#33B505"/>
<defs>
<filter id="filter0_d" x="0" y="0" width="98" height="118.443" filterUnits="userSpaceOnUse" color-interpolation-filters="sRGB">
<feFlood flood-opacity="0" result="BackgroundImageFix"/>
<feColorMatrix in="SourceAlpha" type="matrix" values="0 0 0 0 0 0 0 0 0 0 0 0 0 0 0 0 0 0 127 0"/>
<feOffset dy="4"/>
<feGaussianBlur stdDeviation="5"/>
<feColorMatrix type="matrix" values="0 0 0 0 0 0 0 0 0 0 0 0 0 0 0 0 0 0 0.15 0"/>
<feBlend mode="normal" in2="BackgroundImageFix" result="effect1_dropShadow"/>
<feBlend mode="normal" in="SourceGraphic" in2="effect1_dropShadow" result="shape"/>
</filter>
</defs>
</svg>
