<svg width="98" height="119" viewBox="0 0 98 119" fill="none" xmlns="http://www.w3.org/2000/svg">
<g filter="url(#filter0_d)">
<path d="M10 16C10 10.4771 14.4772 6 20 6H78C83.5228 6 88 10.4772 88 16V77.7596C88 81.2711 86.1582 84.5252 83.1477 86.3328L55.3615 103.017C52.2884 104.862 48.4629 104.921 45.3342 103.172L15.1204 86.2818C11.9587 84.5143 10 81.1753 10 77.5531V16Z" fill="white"/>
</g>
<path d="M44.255 56.3788L61.4823 33.2878C61.4824 33.2877 61.4825 33.2876 61.4825 33.2875C62.3111 32.1715 63.9617 31.9059 65.158 32.6422L65.1587 32.6427L68.7397 34.8551C68.7398 34.8552 68.7399 34.8552 68.7399 34.8553L68.7404 34.8556L44.255 56.3788ZM44.255 56.3788L36.594 49.4155C35.5605 48.4761 33.8959 48.4761 32.8625 49.4155L29.7958 52.2029C28.7337 53.1682 28.7363 54.7584 29.7941 55.7288L29.7958 55.7303L42.2031 67.0076C42.9771 67.7112 44.1861 68.2512 45.3095 68.2512C46.4764 68.2512 47.6054 67.5943 48.3221 66.6489L48.3245 66.6458L69.4549 38.3119L44.255 56.3788Z" fill="#33B505" stroke="#33B505"/>
<defs>
<filter id="filter0_d" x="0" y="0" width="98" height="118.443" filterUnits="userSpaceOnUse" color-interpolation-filters="sRGB">
<feFlood flood-opacity="0" result="BackgroundImageFix"/>
<feColorMatrix in="SourceAlpha" type="matrix" values="0 0 0 0 0 0 0 0 0 0 0 0 0 0 0 0 0 0 127 0"/>
<feOffset dy="4"/>
<feGaussianBlur stdDeviation="5"/>
<feColorMatrix type="matrix" values="0 0 0 0 0 0 0 0 0 0 0 0 0 0 0 0 0 0 0.15 0"/>
<feBlend mode="normal" in2="BackgroundImageFix" result="effect1_dropShadow"/>
<feBlend mode="normal" in="SourceGraphic" in2="effect1_dropShadow" result="shape"/>
</filter>
</defs>
</svg>
