<svg xmlns="http://www.w3.org/2000/svg" xmlns:xlink="http://www.w3.org/1999/xlink" width="91" height="98" viewBox="0 0 91 98">
    <defs>
        <linearGradient id="prefix__c" x1="50%" x2="50%" y1=".224%" y2="100%">
            <stop offset="0%" stop-color="#FDFDFD"/>
            <stop offset="56.058%" stop-color="#F6F6F6"/>
            <stop offset="100%" stop-color="#F2F2F2"/>
        </linearGradient>
        <filter id="prefix__a" width="122.8%" height="120.7%" x="-11.4%" y="-10.3%" filterUnits="objectBoundingBox">
            <feOffset in="SourceAlpha" result="shadowOffsetOuter1"/>
            <feGaussianBlur in="shadowOffsetOuter1" result="shadowBlurOuter1" stdDeviation="3"/>
            <feColorMatrix in="shadowBlurOuter1" values="0 0 0 0 0.101960784 0 0 0 0 0.11372549 0 0 0 0 0.133333333 0 0 0 0.6 0"/>
        </filter>
        <path id="prefix__b" d="M76.628 0c1.31 0 2.37 1.061 2.37 2.37 0 .063-.002.125-.007.187L73.47 72.472c-.098 1.233-1.127 2.183-2.363 2.183h-23.89L39.5 87l-7.718-12.345H7.893c-1.236 0-2.265-.95-2.363-2.183L.01 2.557C-.095 1.252.88.11 2.184.007 2.248.002 2.31 0 2.372 0h74.256z"/>
    </defs>
    <g fill="none" fill-rule="evenodd" transform="translate(6 6)">
        <use fill="#000" filter="url(#prefix__a)" xlink:href="#prefix__b"/>
        <use fill="url(#prefix__c)" xlink:href="#prefix__b"/>
        <path fill="#26CD58" fill-rule="nonzero" stroke="#26CD58" stroke-width="3" d="M51.61 25L35.76 41.57c-.427.446-1.12.446-1.547 0l-6.822-7.133L22 40.073l10.291 10.76c.715.747 1.685 1.167 2.696 1.167h0c1.01 0 1.98-.42 2.695-1.167L57 30.636 51.61 25z"/>
    </g>
</svg>
