<svg width="194" height="35" viewBox="0 0 194 35" fill="none" xmlns="http://www.w3.org/2000/svg">
<path d="M3.91662 0.959999H0.652622V12H2.55662V2.56L5.42062 12H7.16462L10.0286 2.56V12H12.0606V0.959999H8.86062L6.39662 9.104L3.91662 0.959999ZM13.9239 12H17.7319C19.6999 12 20.6919 10.992 20.6919 9.168C20.6919 7.456 19.6999 6.448 17.7319 6.448H15.8759V3.936H13.9239V12ZM18.6439 8.976V9.408C18.6439 10.144 18.2279 10.544 17.3959 10.544H15.8759V7.92H17.3959C18.1959 7.92 18.6439 8.272 18.6439 8.976ZM23.6679 12V3.936H21.7159V12H23.6679ZM28.7707 3.936V12H30.7227V5.488H34.5307V3.936H28.7707ZM38.9891 12.176C41.8051 12.176 43.0051 10.768 43.0051 7.968C43.0051 5.184 41.8051 3.76 38.9891 3.76C36.1731 3.76 34.9731 5.184 34.9731 7.968C34.9731 10.768 36.1731 12.176 38.9891 12.176ZM38.9891 10.72C37.6611 10.72 37.0051 10.032 37.0051 8.544V7.36C37.0051 5.952 37.6611 5.216 38.9891 5.216C40.3171 5.216 40.9731 5.952 40.9731 7.36V8.544C40.9731 10.032 40.3171 10.72 38.9891 10.72ZM50.3595 5.488V3.936H43.2075V5.488H45.8155V12H47.7675V5.488H50.3595ZM54.8204 12.176C57.6364 12.176 58.8364 10.768 58.8364 7.968C58.8364 5.184 57.6364 3.76 54.8204 3.76C52.0044 3.76 50.8044 5.184 50.8044 7.968C50.8044 10.768 52.0044 12.176 54.8204 12.176ZM54.8204 10.72C53.4924 10.72 52.8364 10.032 52.8364 8.544V7.36C52.8364 5.952 53.4924 5.216 54.8204 5.216C56.1484 5.216 56.8044 5.952 56.8044 7.36V8.544C56.8044 10.032 56.1484 10.72 54.8204 10.72ZM67.1771 9.696C67.1771 8.768 66.6491 8.032 65.1771 7.776C66.5211 7.472 66.8571 6.672 66.8571 5.92C66.8571 4.688 65.9931 3.936 63.8011 3.936H60.1051V12H64.1531C66.2331 12 67.1771 11.232 67.1771 9.696ZM65.1451 9.728C65.1451 10.416 64.7131 10.656 63.8651 10.656H62.0411V8.464H63.8651C64.7131 8.464 65.1451 8.752 65.1451 9.424V9.728ZM64.8411 6.16V6.416C64.8411 6.992 64.5051 7.248 63.7051 7.248H62.0411V5.28H63.7051C64.5691 5.28 64.8411 5.6 64.8411 6.16ZM75.8986 12V3.936H73.6266L70.3946 9.808V3.936H68.4426V12H70.7306L73.9466 6.128V12H75.8986ZM80.5522 3.936H77.6082V12H79.3842V5.568L81.6242 12H83.0322L85.2722 5.472V12H87.1762V3.936H84.2962L82.4402 9.36L80.5522 3.936ZM91.2752 14.24H93.0672V12H98.8112V14.24H100.603V10.448H99.3872V3.936H92.9232V6.384C92.9232 8.256 92.6992 9.488 92.2192 10.448H91.2752V14.24ZM97.4352 5.488V10.448H94.0752C94.5232 9.488 94.6992 8.256 94.6992 6.4V5.488H97.4352ZM100.742 12H101.174C103.382 12 103.974 11.072 103.974 7.808V5.488H106.502V12H108.47V3.936H102.198V7.808C102.198 9.792 101.99 10.272 101.062 10.272H100.742V12ZM111.793 12L113.505 9.088H114.865V12H116.817V3.936H112.737C110.897 3.936 109.873 4.88 109.873 6.496C109.873 7.664 110.481 8.448 111.601 8.784L109.729 12H111.793ZM111.921 6.704V6.304C111.921 5.632 112.337 5.312 113.185 5.312H114.865V7.696H113.185C112.401 7.696 111.921 7.36 111.921 6.704ZM128.986 9.696C128.986 8.768 128.458 8.032 126.986 7.776C128.33 7.472 128.666 6.672 128.666 5.92C128.666 4.688 127.802 3.936 125.61 3.936H121.914V12H125.962C128.042 12 128.986 11.232 128.986 9.696ZM126.954 9.728C126.954 10.416 126.522 10.656 125.674 10.656H123.85V8.464H125.674C126.522 8.464 126.954 8.752 126.954 9.424V9.728ZM126.65 6.16V6.416C126.65 6.992 126.314 7.248 125.514 7.248H123.85V5.28H125.514C126.378 5.28 126.65 5.6 126.65 6.16ZM129.836 9.808C129.836 11.168 130.748 12.176 132.604 12.176C133.788 12.176 134.668 11.776 135.244 10.976V12H137.116V6.72C137.116 4.656 135.868 3.76 133.66 3.76C131.436 3.76 130.236 4.704 130.124 6.432H132.108C132.204 5.568 132.748 5.2 133.676 5.2C134.62 5.2 135.148 5.584 135.148 6.688V7.056L133.052 7.248C130.86 7.456 129.836 8.16 129.836 9.808ZM133.196 10.8C132.316 10.8 131.82 10.48 131.82 9.856V9.52C131.82 8.8 132.284 8.544 133.228 8.448L135.148 8.256V8.96C135.148 10.176 134.348 10.8 133.196 10.8ZM145.626 9.424H143.658C143.53 10.416 142.954 10.72 142.042 10.72C140.874 10.72 140.33 10 140.33 8.576V7.312C140.33 5.904 140.874 5.216 142.042 5.216C142.954 5.216 143.514 5.584 143.61 6.56H145.578C145.402 4.432 144.058 3.76 142.042 3.76C139.466 3.76 138.298 5.216 138.298 7.968C138.298 10.72 139.45 12.176 142.042 12.176C144.122 12.176 145.37 11.36 145.626 9.424ZM153.162 3.936H150.218V12H151.994V5.568L154.234 12H155.642L157.882 5.472V12H159.786V3.936H156.906L155.05 9.36L153.162 3.936ZM168.741 12V3.936H166.789V7.104H163.445V3.936H161.493V12H163.445V8.656H166.789V12H168.741ZM174.023 12.176C176.839 12.176 178.039 10.768 178.039 7.968C178.039 5.184 176.839 3.76 174.023 3.76C171.207 3.76 170.007 5.184 170.007 7.968C170.007 10.768 171.207 12.176 174.023 12.176ZM174.023 10.72C172.695 10.72 172.039 10.032 172.039 8.544V7.36C172.039 5.952 172.695 5.216 174.023 5.216C175.351 5.216 176.007 5.952 176.007 7.36V8.544C176.007 10.032 175.351 10.72 174.023 10.72ZM179.308 3.936V12H181.26V5.488H185.068V3.936H179.308ZM189.527 12.176C192.343 12.176 193.543 10.768 193.543 7.968C193.543 5.184 192.343 3.76 189.527 3.76C186.711 3.76 185.511 5.184 185.511 7.968C185.511 10.768 186.711 12.176 189.527 12.176ZM189.527 10.72C188.199 10.72 187.543 10.032 187.543 8.544V7.36C187.543 5.952 188.199 5.216 189.527 5.216C190.855 5.216 191.511 5.952 191.511 7.36V8.544C191.511 10.032 190.855 10.72 189.527 10.72ZM22.8453 31V22.936H20.8933V26.104H17.5493V22.936H15.5973V31H17.5493V27.656H20.8933V31H22.8453ZM28.1282 31.176C30.9442 31.176 32.1442 29.768 32.1442 26.968C32.1442 24.184 30.9442 22.76 28.1282 22.76C25.3122 22.76 24.1122 24.184 24.1122 26.968C24.1122 29.768 25.3122 31.176 28.1282 31.176ZM28.1282 29.72C26.8002 29.72 26.1442 29.032 26.1442 27.544V26.36C26.1442 24.952 26.8002 24.216 28.1282 24.216C29.4562 24.216 30.1122 24.952 30.1122 26.36V27.544C30.1122 29.032 29.4562 29.72 28.1282 29.72ZM40.4849 28.696C40.4849 27.768 39.9569 27.032 38.4849 26.776C39.8289 26.472 40.1649 25.672 40.1649 24.92C40.1649 23.688 39.3009 22.936 37.1089 22.936H33.4129V31H37.4609C39.5409 31 40.4849 30.232 40.4849 28.696ZM38.4529 28.728C38.4529 29.416 38.0209 29.656 37.1729 29.656H35.3489V27.464H37.1729C38.0209 27.464 38.4529 27.752 38.4529 28.424V28.728ZM38.1489 25.16V25.416C38.1489 25.992 37.8129 26.248 37.0129 26.248H35.3489V24.28H37.0129C37.8769 24.28 38.1489 24.6 38.1489 25.16ZM45.2563 31.176C48.0723 31.176 49.2723 29.768 49.2723 26.968C49.2723 24.184 48.0723 22.76 45.2563 22.76C42.4403 22.76 41.2403 24.184 41.2403 26.968C41.2403 29.768 42.4403 31.176 45.2563 31.176ZM45.2563 29.72C43.9283 29.72 43.2723 29.032 43.2723 27.544V26.36C43.2723 24.952 43.9283 24.216 45.2563 24.216C46.5843 24.216 47.2403 24.952 47.2403 26.36V27.544C47.2403 29.032 46.5843 29.72 45.2563 29.72ZM50.5411 22.936V31H52.4931V24.488H56.3011V22.936H50.5411ZM60.7594 31.176C63.5754 31.176 64.7754 29.768 64.7754 26.968C64.7754 24.184 63.5754 22.76 60.7594 22.76C57.9434 22.76 56.7434 24.184 56.7434 26.968C56.7434 29.768 57.9434 31.176 60.7594 31.176ZM60.7594 29.72C59.4314 29.72 58.7754 29.032 58.7754 27.544V26.36C58.7754 24.952 59.4314 24.216 60.7594 24.216C62.0874 24.216 62.7434 24.952 62.7434 26.36V27.544C62.7434 29.032 62.0874 29.72 60.7594 29.72ZM76.9002 31V22.936H74.6282L71.3962 28.808V22.936H69.4442V31H71.7322L74.9482 25.128V31H76.9002ZM89.4658 31V22.936H87.1938L83.9618 28.808V22.936H82.0098V31H84.2978L87.5138 25.128V31H89.4658ZM98.4234 31V22.936H96.4714V26.104H93.1274V22.936H91.1754V31H93.1274V27.656H96.4714V31H98.4234ZM106.442 24.488V22.936H99.2903V24.488H101.898V31H103.85V24.488H106.442ZM110.775 29.736C109.543 29.736 108.871 28.952 108.871 27.544V26.936H114.471V26.52C114.471 23.944 113.175 22.76 110.775 22.76C108.135 22.76 106.887 24.264 106.887 26.984C106.887 29.672 108.103 31.176 110.775 31.176C112.887 31.176 114.247 30.328 114.503 28.392H112.551C112.423 29.432 111.687 29.736 110.775 29.736ZM110.759 24.2C111.847 24.2 112.343 24.696 112.439 25.688H108.903C109.031 24.68 109.607 24.2 110.759 24.2ZM117.718 34.2V30.04C118.246 30.776 119.062 31.176 120.214 31.176C122.598 31.176 123.734 29.592 123.734 26.984C123.734 24.328 122.582 22.76 120.214 22.76C119.014 22.76 118.166 23.224 117.638 24.056V22.936H115.766V34.2H117.718ZM119.702 29.72C118.374 29.72 117.718 28.968 117.718 27.56V26.248C117.75 24.984 118.39 24.216 119.718 24.216C121.046 24.216 121.686 25.016 121.686 26.344V27.56C121.686 28.968 121.046 29.72 119.702 29.72ZM128.45 29.736C127.218 29.736 126.546 28.952 126.546 27.544V26.936H132.146V26.52C132.146 23.944 130.85 22.76 128.45 22.76C125.81 22.76 124.562 24.264 124.562 26.984C124.562 29.672 125.778 31.176 128.45 31.176C130.562 31.176 131.922 30.328 132.178 28.392H130.226C130.098 29.432 129.362 29.736 128.45 29.736ZM128.434 24.2C129.522 24.2 130.018 24.696 130.114 25.688H126.578C126.706 24.68 127.282 24.2 128.434 24.2ZM140.337 28.424H138.369C138.241 29.416 137.665 29.72 136.753 29.72C135.585 29.72 135.041 29 135.041 27.576V26.312C135.041 24.904 135.585 24.216 136.753 24.216C137.665 24.216 138.225 24.584 138.321 25.56H140.289C140.113 23.432 138.769 22.76 136.753 22.76C134.177 22.76 133.009 24.216 133.009 26.968C133.009 29.72 134.161 31.176 136.753 31.176C138.833 31.176 140.081 30.36 140.337 28.424ZM148.777 31V22.936H146.825V26.104H143.481V22.936H141.529V31H143.481V27.656H146.825V31H148.777ZM154.059 31.176C156.875 31.176 158.075 29.768 158.075 26.968C158.075 24.184 156.875 22.76 154.059 22.76C151.243 22.76 150.043 24.184 150.043 26.968C150.043 29.768 151.243 31.176 154.059 31.176ZM154.059 29.72C152.731 29.72 152.075 29.032 152.075 27.544V26.36C152.075 24.952 152.731 24.216 154.059 24.216C155.387 24.216 156.043 24.952 156.043 26.36V27.544C156.043 29.032 155.387 29.72 154.059 29.72ZM159.344 22.936V31H161.296V24.488H165.104V22.936H159.344ZM169.563 31.176C172.379 31.176 173.579 29.768 173.579 26.968C173.579 24.184 172.379 22.76 169.563 22.76C166.747 22.76 165.547 24.184 165.547 26.968C165.547 29.768 166.747 31.176 169.563 31.176ZM169.563 29.72C168.235 29.72 167.579 29.032 167.579 27.544V26.36C167.579 24.952 168.235 24.216 169.563 24.216C170.891 24.216 171.547 24.952 171.547 26.36V27.544C171.547 29.032 170.891 29.72 169.563 29.72ZM176.911 27.512L177.263 19.96H174.991L175.343 27.512H176.911ZM177.343 29.992C177.343 29.208 176.927 28.824 176.127 28.824C175.343 28.824 174.927 29.208 174.927 29.992C174.927 30.792 175.343 31.176 176.127 31.176C176.927 31.176 177.343 30.792 177.343 29.992Z" fill="#D8D8D8"/>
</svg>
