<svg width="104" height="104" viewBox="0 0 104 104" fill="none" xmlns="http://www.w3.org/2000/svg">
<g clip-path="url(#clip0)">
<path d="M52.065 12.48C51.5044 12.4637 50.96 12.675 50.5537 13.065C50.1475 13.455 49.92 13.9994 49.92 14.56V30.2169C49.8875 30.4362 49.8875 30.6637 49.92 30.8831V49.0587L31.2 67.7787L22.2706 58.8494C21.8725 58.4512 21.3281 58.2319 20.7675 58.24C20.2231 58.2481 19.7113 58.4675 19.3294 58.8494L0.609381 77.5694C0.0650058 78.0894 -0.154369 78.8694 0.0406309 79.5925C0.227506 80.3237 0.796257 80.8925 1.52751 81.0794C2.25063 81.2744 3.03063 81.055 3.55063 80.5106L20.8 63.2612L28.2588 70.72L0.609381 98.3694C0.113756 98.8487 -0.113744 99.5394 5.7891e-06 100.214V104H104V100.206C104.114 99.5312 103.886 98.8406 103.391 98.3694L75.7412 70.72L83.2 63.2612L100.449 80.5106C100.969 81.055 101.749 81.2744 102.472 81.0794C103.204 80.8925 103.772 80.3237 103.959 79.5925C104.154 78.8694 103.935 78.0894 103.391 77.5694L84.6706 58.8494C84.2725 58.4512 83.7281 58.2319 83.1675 58.24C82.6231 58.2481 82.1112 58.4675 81.7294 58.8494L72.8 67.7787L54.08 49.0587V31.9556L71.4837 25.0981C72.2637 24.7894 72.7756 24.05 72.8 23.2213C72.8244 22.3844 72.345 21.6206 71.5894 21.2713L52.8694 12.675C52.6175 12.5531 52.3412 12.4881 52.065 12.48ZM52 52.8612L71.0369 71.89C71.1912 72.1337 71.3944 72.3369 71.63 72.4994L74.8394 75.6925L68.8594 78.6825L60.32 72.28L52 78.52L43.68 72.28L35.1406 78.6825L29.1606 75.6925L32.37 72.4831C32.6138 72.3287 32.8169 72.1256 32.9794 71.89L52 52.8612Z" fill="#D8D8D8"/>
</g>
<defs>
<clipPath id="clip0">
<rect width="104" height="104" fill="white"/>
</clipPath>
</defs>
</svg>
