<svg width="200" height="20" viewBox="0 0 200 20" fill="none" xmlns="http://www.w3.org/2000/svg">
<path d="M7.80884 2.44H0.104841V19H4.54484V6.592L7.06484 19H12.1768L14.6968 6.544V19H19.4968V2.44H12.2968L10.0648 13.624L7.80884 2.44ZM34.7305 19V6.64H29.5225L26.2105 13.696V6.64H21.5305V19H26.7385L30.0505 11.944V19H34.7305ZM48.4678 14.896H43.6678C43.6198 15.64 43.3078 16.12 42.2518 16.12C41.3158 16.12 40.8598 15.64 40.8598 14.272V11.176C40.8598 9.928 41.2918 9.52 42.2518 9.52C43.2838 9.52 43.5718 10 43.5958 10.672H48.3958C48.1798 7.432 45.9238 6.28 42.2758 6.28C38.0278 6.28 36.0598 7.888 36.0598 12.808C36.0598 17.824 38.0518 19.36 42.2518 19.36C46.2838 19.36 48.1318 17.824 48.4678 14.896ZM61.6022 14.896H56.8022C56.7542 15.64 56.4422 16.12 55.3862 16.12C54.4502 16.12 53.9942 15.64 53.9942 14.272V11.176C53.9942 9.928 54.4262 9.52 55.3862 9.52C56.4182 9.52 56.7062 10 56.7302 10.672H61.5302C61.3142 7.432 59.0582 6.28 55.4102 6.28C51.1622 6.28 49.1942 7.888 49.1942 12.808C49.1942 17.824 51.1862 19.36 55.3862 19.36C59.4182 19.36 61.2662 17.824 61.6022 14.896ZM76.0086 19V6.64H70.8006L67.4886 13.696V6.64H62.8086V19H68.0166L71.3286 11.944V19H76.0086ZM91.018 19V6.64H85.81L82.498 13.696V6.64H77.818V19H83.026L86.338 11.944V19H91.018ZM85.45 0.831999C85.45 2.32 85.114 2.656 84.418 2.656C83.722 2.656 83.386 2.32 83.386 0.831999H79.69C79.69 3.664 81.178 5.056 84.418 5.056C87.658 5.056 89.146 3.664 89.146 0.831999H85.45ZM110.707 19V6.64H98.2273V19H102.907V10.36H106.027V19H110.707ZM118.798 19.36C123.31 19.36 125.566 17.968 125.566 12.808C125.566 7.72 123.31 6.28 118.798 6.28C114.286 6.28 112.03 7.72 112.03 12.808C112.03 17.968 114.286 19.36 118.798 19.36ZM118.798 16.12C117.478 16.12 116.83 15.688 116.83 14.056V11.416C116.83 9.856 117.478 9.52 118.798 9.52C120.118 9.52 120.766 9.856 120.766 11.416V14.032C120.766 15.688 120.118 16.12 118.798 16.12ZM131.567 19V14.728H132.263L134.999 19H140.639L136.463 12.496L140.135 6.64H134.951L132.191 11.008H131.567V6.64H126.887V19H131.567ZM140.528 15.616C140.528 17.848 142.04 19.36 144.608 19.36C146.792 19.36 148.064 18.688 148.808 17.536V19H153.344V10.792C153.344 7.696 151.328 6.28 147.32 6.28C143.24 6.28 141.224 7.696 140.984 10.384H145.904C146.048 9.76 146.36 9.4 147.344 9.4C148.256 9.4 148.664 9.712 148.664 10.792V11.296L145.976 11.44C142.304 11.632 140.528 12.88 140.528 15.616ZM146.624 16.264C145.784 16.264 145.328 15.952 145.328 15.232V14.944C145.328 14.32 145.76 14.032 146.648 13.984L148.664 13.864V14.344C148.664 15.544 148.064 16.264 146.624 16.264ZM173.15 19V6.64H168.47V10.984H165.11V6.64H160.43V19H165.11V14.704H168.47V19H173.15ZM180.828 16.24C179.772 16.24 179.028 15.784 179.028 14.032V13.408H187.332V12.568C187.332 8.032 185.148 6.28 180.828 6.28C176.676 6.28 174.468 8.104 174.468 12.88C174.468 17.56 176.652 19.36 180.828 19.36C184.692 19.36 187.044 17.896 187.332 14.728H182.652C182.604 15.784 181.956 16.24 180.828 16.24ZM182.652 11.008H179.028V10.984C179.028 9.904 179.7 9.4 180.828 9.4C182.028 9.4 182.652 9.904 182.652 10.984V11.008ZM199.858 10.36V6.64H187.69V10.36H191.434V19H196.114V10.36H199.858Z" fill="#D8D8D8"/>
</svg>
