<svg xmlns="http://www.w3.org/2000/svg" width="38" height="34" viewBox="0 0 38 34">
    <defs>
        <linearGradient id="prefix__b" x1="91.482%" x2="8.579%" y1="50%" y2="50%">
            <stop offset="0%" stop-color="#03ADC9"/>
            <stop offset="100%" stop-color="#02C5E5"/>
        </linearGradient>
        <linearGradient id="prefix__a" x1="6.384%" x2="44.578%" y1="29.136%" y2="55.627%">
            <stop offset="0%" stop-color="#00C4E4"/>
            <stop offset="49.055%" stop-color="#04C7E7"/>
            <stop offset="81.113%" stop-color="#0CB4D0"/>
            <stop offset="100%" stop-color="#02ACC8"/>
        </linearGradient>
    </defs>
    <g fill="none" fill-rule="evenodd">
        <path fill="url(#prefix__b)" stroke="url(#prefix__a)" stroke-width="1.9" d="M19 1.097L3.496 10.048v17.904L19 36.903l15.504-8.951V10.048L19 1.097z" transform="translate(0 -2) rotate(90 19 19)"/>
        <path fill="#FFF" d="M11.4 20.832c0 4.29 2.346 8.618 7.6 8.618 5.249 0 7.6-4.327 7.6-8.618 0-2.932-.964-6.307-2.573-9.033C22.462 9.166 20.582 7.6 19 7.6c-1.586 0-3.467 1.566-5.019 4.199-1.616 2.726-2.581 6.101-2.581 9.033" transform="translate(0 -2)"/>
    </g>
</svg>
