<svg width="10" height="14" viewBox="0 0 10 14" fill="none" xmlns="http://www.w3.org/2000/svg">
<path d="M6.25015 11.9986L3.75008 11.9986C3.259 11.9986 2.8572 12.4489 2.8572 12.9993C2.8572 13.5497 3.259 14 3.75008 14L6.25015 14C6.74124 14 7.14303 13.5497 7.14303 12.9993C7.14303 12.4489 6.74123 11.9986 6.25015 11.9986ZM5.86335 0.404374C5.3887 -0.134791 4.61153 -0.134791 4.13688 0.404375L0.237841 4.83138C-0.285744 5.42538 0.111766 6.39484 0.878929 6.39484L2.8572 6.39484L2.8572 9.79715C2.8572 10.3475 3.259 10.7978 3.75008 10.7978L6.25015 10.7978C6.74123 10.7978 7.14303 10.3475 7.14303 9.79715L7.14303 6.39484L9.1213 6.39484C9.88811 6.39484 10.2856 5.42538 9.76239 4.83138L5.86335 0.404374Z" fill="white"/>
</svg>
