<svg width="108" height="23" viewBox="0 0 108 23" fill="none" xmlns="http://www.w3.org/2000/svg">
<path d="M32.526 13.256C32.526 11.982 31.868 11.212 30.692 10.918C31.714 10.554 32.176 9.756 32.176 8.748C32.176 7.138 31.154 6.34 29.236 6.34H25.148V16H29.39C31.476 16 32.526 15.048 32.526 13.256ZM30.692 12.878V13.41C30.692 14.264 30.132 14.656 29.11 14.656H26.912V11.688H29.11C30.244 11.688 30.692 12.15 30.692 12.878ZM30.342 8.776V9.238C30.342 10.022 29.866 10.428 28.97 10.428H26.912V7.684H28.97C29.838 7.684 30.342 8.048 30.342 8.776ZM33.8182 16H37.1502C38.8722 16 39.7402 15.118 39.7402 13.522C39.7402 12.024 38.8722 11.142 37.1502 11.142H35.5262V8.944H33.8182V16ZM37.9482 13.354V13.732C37.9482 14.376 37.5842 14.726 36.8562 14.726H35.5262V12.43H36.8562C37.5562 12.43 37.9482 12.738 37.9482 13.354ZM42.3442 16V8.944H40.6362V16H42.3442ZM50.2112 16V8.944H44.0092V16H45.7172V10.302H48.5032V16H50.2112ZM55.012 16.154C57.476 16.154 58.526 14.922 58.526 12.472C58.526 10.036 57.476 8.79 55.012 8.79C52.548 8.79 51.498 10.036 51.498 12.472C51.498 14.922 52.548 16.154 55.012 16.154ZM55.012 14.88C53.85 14.88 53.276 14.278 53.276 12.976V11.94C53.276 10.708 53.85 10.064 55.012 10.064C56.174 10.064 56.748 10.708 56.748 11.94V12.976C56.748 14.278 56.174 14.88 55.012 14.88ZM58.9324 16H59.3104C61.2424 16 61.7604 15.188 61.7604 12.332V10.302H63.9724V16H65.6944V8.944H60.2064V12.332C60.2064 14.068 60.0244 14.488 59.2124 14.488H58.9324V16ZM73.6918 16V8.944H71.9838V11.716H69.0578V8.944H67.3498V16H69.0578V13.074H71.9838V16H73.6918ZM78.3773 14.894C77.2993 14.894 76.7113 14.208 76.7113 12.976V12.444H81.6113V12.08C81.6113 9.826 80.4773 8.79 78.3773 8.79C76.0673 8.79 74.9753 10.106 74.9753 12.486C74.9753 14.838 76.0393 16.154 78.3773 16.154C80.2253 16.154 81.4153 15.412 81.6393 13.718H79.9313C79.8193 14.628 79.1753 14.894 78.3773 14.894ZM78.3633 10.05C79.3153 10.05 79.7493 10.484 79.8333 11.352H76.7393C76.8513 10.47 77.3553 10.05 78.3633 10.05ZM89.2613 16V8.944H87.5533V11.716H84.6273V8.944H82.9193V16H84.6273V13.074H87.5533V16H89.2613ZM94.0588 16.154C96.5228 16.154 97.5728 14.922 97.5728 12.472C97.5728 10.036 96.5228 8.79 94.0588 8.79C91.5948 8.79 90.5448 10.036 90.5448 12.472C90.5448 14.922 91.5948 16.154 94.0588 16.154ZM94.0588 14.88C92.8968 14.88 92.3228 14.278 92.3228 12.976V11.94C92.3228 10.708 92.8968 10.064 94.0588 10.064C95.2208 10.064 95.7948 10.708 95.7948 11.94V12.976C95.7948 14.278 95.2208 14.88 94.0588 14.88ZM100.664 12.948L100.972 6.34H98.984L99.292 12.948H100.664ZM101.042 15.118C101.042 14.432 100.678 14.096 99.978 14.096C99.292 14.096 98.928 14.432 98.928 15.118C98.928 15.818 99.292 16.154 99.978 16.154C100.678 16.154 101.042 15.818 101.042 15.118Z" fill="#001424"/>
<path d="M14.9977 7L9.11098 13.137C8.95231 13.3024 8.69506 13.3024 8.53639 13.137L6.00233 10.4952L4 12.5826L7.82248 16.5677C8.08802 16.8445 8.44816 17 8.82366 17C9.19914 17 9.5593 16.8445 9.82481 16.5677L17 9.08743L14.9977 7Z" fill="#02ACC8"/>
</svg>
