<svg width="50" height="50" viewBox="0 0 50 50" fill="none" xmlns="http://www.w3.org/2000/svg">
<circle cx="25" cy="25" r="25" transform="rotate(-180 25 25)" fill="#01ACC8"/>
<g clip-path="url(#clip0)">
<path d="M28.6286 24.5L21.0334 32.2542C20.6947 32.5998 20.6982 33.1526 21.0403 33.4982L22.3983 34.8562C22.7473 35.2018 23.3071 35.2018 23.6527 34.8528L33.3178 25.1255C33.4905 24.9527 33.5769 24.7281 33.5769 24.5C33.5769 24.2719 33.4905 24.0473 33.3178 23.8746L23.6527 14.1472C23.3071 13.7982 22.7473 13.7982 22.3983 14.1438L21.0403 15.5018C20.6982 15.8474 20.6947 16.4002 21.0334 16.7458L28.6286 24.5Z" fill="white"/>
</g>
<defs>
<clipPath id="clip0">
<rect width="23" height="23" fill="white" transform="translate(38 36) rotate(-180)"/>
</clipPath>
</defs>
</svg>
