<svg enable-background="new 0 0 440 403" viewBox="0 0 440 403" xmlns="http://www.w3.org/2000/svg"><path d="m433 403 7-10v-52l-19-20h-22v-23h-9v-24h7v-30h-7v-24h7v-33h-5v-22h-4v22h-49v33h6v23h-5v14h-22v-125l5-3v-49h-11v-35h-7v-45h-6v43h-4v-17h-6v17h-51l-20 34v77l-18 14v50h16v13h-48v-36l-24-23v-69h-21v-7h-6v7h-18v105l-12 8v62h-52l-19 16v34l-16 11v64z" fill="#7ad5f0"/><g fill="#bfdff1"><path d="m112 116v56s-4-4-5-5 0-44 0-44z"/><path d="m155 199h7v31h-7z"/><path d="m431 350h-15v-18h5l10 13z"/><path d="m200.08 176.09 122.92-92.09v-4h-8l-115 88.16z"/><path d="m216 217.65 101.85-82.01v8.85l-101.85 83.06z"/></g></svg>