<svg enable-background="new 0 0 635 147" viewBox="0 0 635 147" xmlns="http://www.w3.org/2000/svg" xmlns:xlink="http://www.w3.org/1999/xlink"><linearGradient id="a"><stop offset="0" stop-color="#30d8fe"/><stop offset="1" stop-color="#48b6ff"/></linearGradient><linearGradient id="b" gradientUnits="userSpaceOnUse" x1="55.4732" x2="52.8685" xlink:href="#a" y1="18.1266" y2="127.5217"/><linearGradient id="c" gradientUnits="userSpaceOnUse" x1="144.6311" x2="142.7707" xlink:href="#a" y1="23.1381" y2="117.6495"/><linearGradient id="d" gradientUnits="userSpaceOnUse" x1="237.4747" x2="235.2421" xlink:href="#a" y1="21.098" y2="117.935"/><linearGradient id="e" gradientUnits="userSpaceOnUse" x1="324.2581" x2="321.8885" xlink:href="#a" y1="15.162" y2="114.6817"/><linearGradient id="f" gradientUnits="userSpaceOnUse" x1="404.1211" x2="401.8553" xlink:href="#a" y1="21.9153" y2="117.0754"/><linearGradient id="g" gradientUnits="userSpaceOnUse" x1="485.782" x2="483.4373" xlink:href="#a" y1="20.6561" y2="119.1346"/><linearGradient id="h" gradientUnits="userSpaceOnUse" x1="568.4026" x2="565.9745" xlink:href="#a" y1="18.5896" y2="120.5697"/><path d="m587-1-46 3s-6.74 20.91-8.6 28.93c.21-7.29-.4-24.93-.4-24.93l-86-4h-258l-83 4v4l-32-5-12 13-4-16-57 5v140l44-7 5-26 26 26 21-20 1 11s28-1 38-9 12-24 12-24l-.9 32.68 81.81-.54 13.09-25.14 4.5 25.03 205.91-1.35-2.41-59.68 10 2-1.27 57.63 47.81-6.18 2.46-58.45h16l-15 58 45 6 5-19 12 1 5 19 60 7zm-484 90-24-23 25-35z" fill="#0377ae"/><path d="m36 129c-1 0-23 0-23 0l-3-113h37l-3 41 26-34 29 1-34 45 34 33-20 22-37-39z" fill="url(#b)"/><path d="m184 115v-95l-72 3s3 67-2 71-8 3-8 3l2 23s21.41 1.45 30-10c9-12 6-66 6-66h17l-1 73z" fill="url(#c)"/><path d="m277 117 3-97h-29l-27 50 2-52-31 2 5 97 18 2 35-56-3 54z" fill="url(#d)"/><path d="m288 20 61-6 1 22-35 4 2 13 27-1 2 21-27 1 2 14 34-4 3 32s-63 1-64 0-6-96-6-96z" fill="url(#e)"/><path d="m367 116v-94h28v39l15 1v-40l26-1 3 95s-28 2-29 0 0-33 0-33l-17 1 1 35z" fill="url(#f)"/><path d="m447 52v-34l77 3v26h-28l2 72-28 2 1-70z" fill="url(#g)"/><path d="m577 17-34 1-26 97h29l5-21 24-1 8 24 32 7zm-23 58 7-30 10 30z" fill="url(#h)"/><g fill="#47eefd"><path d="m13 109c-.15-.64-3-93-3-93h37v6.19l-30 .81z"/><path d="m67.77 26.29 31.23-.29-29-3z"/><path d="m181.59 20.47-69.59 2.53.66 56.91 4.34-50.91z"/><path d="m197.22 63.03-2.22-43.03 31-2-27 5z"/><path d="m225.54 67.5 25.46-47.5h29l-26 4z"/><path d="m292 63-4-43 61-6-56 10z"/><path d="m366.56 75.96.44-53.96h28l-26 5z"/><path d="m410 22 26-1-25.9 4.91z"/><path d="m446.56 50.1c.44-1.1.44-32.1.44-32.1l78 4h-75z"/><path d="m528.26 73 14.74-55 34-1-31 6z"/></g></svg>