<svg viewBox="0 0 776 456" xmlns="http://www.w3.org/2000/svg"><path d="m54.98.07v91.75l-23.89-14.33v-77.42z" fill="#a0c4e8"/><g fill="#e3eef9"><path d="m18.66 32.13-12.42 7.12v52.65l24.85-14.41v-77.42h-12.43z"/><path d="m31.09 109.03-23.9-15.3 23.9-14.33 22.93 14.33z"/><path d="m143.25 54.55-16.58-10.61 16.58-9.95 15.91 9.95z"/></g><path d="m27.26 159.68v-40.94l-26.76-16.4v42.7z" fill="#ddeef1"/><path d="m.5 175.14c0-1.14 24.85-13.54 24.85-13.54l-24.85-14.03z" fill="#e3eef8"/><path d="m87.48 77.49-13.38-9.68v18.28z" fill="#eeeff3"/><path d="m.5 18.23v-18.16h16.25v30.58z" fill="#ddeef0"/><path d="m55 51.2 32.5-19.44s-29-16.61-28.82-16.27 0-15.42 0-15.42h-3.68z" fill="#e2e5f2"/><path d="m61.67 14.4 43.01 23.9 19.43-11.95v-23.57l-4.21-2.71h-35.36z" fill="#e3eef8"/><path d="m126.67 41.16v-41.09h15.96v31.33z" fill="#ddeef1"/><path d="m144.1 31.4c-.23-.75 0-31.33 0-31.33h15.15v40.38z" fill="#b6d5d8"/><path d="m172.54.07 43.97 22.93 40.14-22.93z" fill="#b0e0e9"/><path d="m314.36.07-73.96 37.97v6.63l85.86-44.6z" fill="#eceff4"/><path d="m692.3 427.97 32.5 18.96v8.76h-42.06v-27.72z" fill="#e2e5f2"/><path d="m770.68 341.95-67.86-36.06v-6.63l66.9 36.95z" fill="#eceff4"/><path d="m716.2 455.69v-91.76l23.89 14.34v77.42z" fill="#e3eef9"/><path d="m764.5 442.5.44-78.64-24.85 14.41v77.42h12.43z" fill="#a0c4e8"/><path d="m716.2 402.56-129.04-73.04-9.55 4.78 138.59 80.05z" fill="#eceff4"/><path d="m740.09 346.73 23.9 15.29-23.9 14.34-22.94-14.34z" fill="#e3eef9"/><path d="m665.21 403.12 16.58 10.61-16.58 9.95-15.92-9.95z" fill="#deeef0"/><path d="m747.74 298.94v40.94l26.76 16.41v-42.71z" fill="#ddeef1"/><path d="m774.5 282.53c0 1.11-24.85 13.54-24.85 13.54l24.85 14z" fill="#e3eef8"/><path d="m761.12 267.4 13.38 9.67v-18.28z" fill="#eeeff3"/><path d="m654.86 433.65-29.15-16.19-42.37 24.85 22.94 13.38 46.22-.19z" fill="#e3eef8"/><path d="m681.79 414.59v41.1h-15.96v-31.34z" fill="#b6d5d8"/><path d="m664.44 424.35c.23.75 0 31.34 0 31.34h-15.15v-41.1z" fill="#deeef0"/><path d="m598.63 455.69-43.96-22.94-40.15 22.94z" fill="#b0e0e9"/></svg>