<svg width="53" height="53" viewBox="0 0 53 53" fill="none" xmlns="http://www.w3.org/2000/svg">
<path d="M0 10C0 4.47715 4.47715 0 10 0C21 0 32 0 43 0C48.5229 0 53 4.47715 53 10V43C53 48.5229 48.5228 53 43 53H10C4.47715 53 0 48.5228 0 43V10Z" fill="white"/>
<path d="M17.1563 14.0312C15.7813 14.0312 14.7969 14.1172 14.7188 14.125C14.5586 14.1406 14.4219 14.2031 14.3125 14.3125C14.2031 14.418 14.1445 14.5586 14.125 14.7188C14.1094 14.875 13.7969 18.6719 14.4375 21.9375C14.4883 22.1875 14.6641 22.3945 14.9063 22.4688C15.1523 22.543 15.4141 22.4609 15.5938 22.2812L17.3125 20.5625C18.5664 21.4531 21.1992 23.8555 21.5 23.9062C21.9414 23.9805 22.6328 23.6211 23.125 23.125C23.6172 22.6328 24.0469 21.8789 23.9688 21.4375C23.918 21.1406 21.457 18.5664 20.5625 17.3125L22.2813 15.5938C22.4648 15.4102 22.543 15.1484 22.4688 14.9062C22.3945 14.6602 22.1914 14.4883 21.9375 14.4375C20.3047 14.1172 18.5313 14.0312 17.1563 14.0312ZM36.8438 14.0312C35.4688 14.0312 33.6953 14.1172 32.0625 14.4375C31.8125 14.4883 31.6055 14.6641 31.5313 14.9062C31.457 15.1523 31.5391 15.4141 31.7188 15.5938L33.4375 17.3125C32.5469 18.5664 30.1445 21.1992 30.0938 21.5C30.0195 21.9414 30.3828 22.6328 30.875 23.125C31.3672 23.6172 32.1211 24.0469 32.5625 23.9688C32.8594 23.918 35.4336 21.457 36.6875 20.5625L38.4063 22.2812C38.5898 22.4648 38.8516 22.543 39.0938 22.4688C39.3398 22.3945 39.5117 22.1914 39.5625 21.9375C40.1992 18.6719 39.8945 14.875 39.875 14.7188C39.8594 14.5586 39.7969 14.4219 39.6875 14.3125C39.582 14.2031 39.4414 14.1445 39.2813 14.125C39.2031 14.1172 38.2188 14.0312 36.8438 14.0312ZM21.4375 30.0312C21.1367 30.082 18.5664 32.543 17.3125 33.4375L15.5938 31.7188C15.4102 31.5352 15.1484 31.457 14.9063 31.5312C14.6602 31.6055 14.4883 31.8086 14.4375 32.0625C13.8008 35.3281 14.1055 39.125 14.125 39.2812C14.1406 39.4414 14.2031 39.5781 14.3125 39.6875C14.4219 39.7969 14.5586 39.8555 14.7188 39.875C14.875 39.8906 18.668 40.2031 21.9375 39.5625C22.1875 39.5117 22.3945 39.3359 22.4688 39.0938C22.543 38.8477 22.4609 38.5859 22.2813 38.4062L20.5625 36.6875C21.4531 35.4336 23.8555 32.8008 23.9063 32.5C23.9805 32.0586 23.6172 31.3672 23.125 30.875C22.6328 30.3828 21.8789 29.9531 21.4375 30.0312ZM32.5 30.0938C32.0586 30.0195 31.3672 30.3828 30.875 30.875C30.3828 31.3672 29.9531 32.1211 30.0313 32.5625C30.082 32.8594 32.543 35.4336 33.4375 36.6875L31.7188 38.4062C31.5352 38.5898 31.457 38.8516 31.5313 39.0938C31.6055 39.3398 31.8086 39.5117 32.0625 39.5625C35.3281 40.1992 39.125 39.8945 39.2813 39.875C39.4414 39.8594 39.5781 39.7969 39.6875 39.6875C39.7969 39.582 39.8555 39.4414 39.875 39.2812C39.8906 39.125 40.1992 35.332 39.5625 32.0625C39.5117 31.8125 39.3359 31.6055 39.0938 31.5312C38.8477 31.457 38.5859 31.5391 38.4063 31.7188L36.6875 33.4375C35.4336 32.5469 32.8008 30.1445 32.5 30.0938Z" fill="#02ADC9"/>
</svg>
