<svg width="53" height="53" viewBox="0 0 53 53" fill="none" xmlns="http://www.w3.org/2000/svg">
<path d="M0 10C0 4.47715 4.47715 0 10 0C21 0 32 0 43 0C48.5229 0 53 4.47715 53 10V43C53 48.5229 48.5228 53 43 53H10C4.47715 53 0 48.5228 0 43V10Z" fill="white"/>
<path d="M37.4375 14.0313C37.1406 14.082 34.5664 16.543 33.3125 17.4375L31.5937 15.7188C31.4102 15.5352 31.1484 15.457 30.9062 15.5313C30.6602 15.6055 30.4883 15.8086 30.4375 16.0625C29.8008 19.3281 30.1055 23.125 30.125 23.2812C30.1406 23.4414 30.2031 23.5781 30.3125 23.6875C30.418 23.7969 30.5586 23.8555 30.7187 23.875C30.875 23.8906 34.6719 24.2031 37.9375 23.5625C38.1875 23.5117 38.3945 23.3359 38.4687 23.0938C38.543 22.8477 38.4609 22.5859 38.2812 22.4062L36.5625 20.6875C37.4531 19.4336 39.8555 16.8008 39.9062 16.5C39.9805 16.0586 39.6172 15.3672 39.125 14.875C38.6328 14.3828 37.8789 13.9531 37.4375 14.0313ZM16.5 14.0938C16.0586 14.0195 15.3672 14.3828 14.875 14.875C14.3828 15.3672 13.9531 16.1211 14.0312 16.5625C14.082 16.8594 16.543 19.4336 17.4375 20.6875L15.7187 22.4062C15.5352 22.5898 15.457 22.8516 15.5312 23.0938C15.6055 23.3398 15.8086 23.5117 16.0625 23.5625C19.3281 24.1992 23.125 23.8906 23.2812 23.875C23.4414 23.8594 23.5781 23.7969 23.6875 23.6875C23.7969 23.582 23.8555 23.4414 23.875 23.2812C23.8906 23.125 24.2031 19.3281 23.5625 16.0625C23.5117 15.8125 23.3359 15.6055 23.0937 15.5313C22.8477 15.457 22.5859 15.5391 22.4062 15.7188L20.6875 17.4375C19.4336 16.5469 16.8008 14.1445 16.5 14.0938ZM20.8437 30.0312C19.4687 30.0312 17.6953 30.1172 16.0625 30.4375C15.8125 30.4883 15.6055 30.6641 15.5312 30.9062C15.457 31.1523 15.5391 31.4141 15.7187 31.5938L17.4375 33.3125C16.5469 34.5664 14.1445 37.1992 14.0937 37.5C14.0195 37.9414 14.3828 38.6328 14.875 39.125C15.3672 39.6172 16.1211 40.0469 16.5625 39.9688C16.8633 39.918 19.4336 37.457 20.6875 36.5625L22.4062 38.2812C22.5898 38.4648 22.8516 38.543 23.0937 38.4688C23.3398 38.3945 23.5117 38.1914 23.5625 37.9375C24.1992 34.6719 23.8945 30.875 23.875 30.7188C23.8594 30.5586 23.7969 30.4219 23.6875 30.3125C23.5781 30.2031 23.4414 30.1445 23.2812 30.125C23.2031 30.1172 22.2187 30.0312 20.8437 30.0312ZM33.1562 30.0312C31.7812 30.0312 30.7969 30.1172 30.7187 30.125C30.5586 30.1406 30.4219 30.2031 30.3125 30.3125C30.2031 30.418 30.1445 30.5586 30.125 30.7188C30.1094 30.875 29.8008 34.668 30.4375 37.9375C30.4883 38.1875 30.6641 38.3945 30.9062 38.4688C31.1523 38.543 31.4141 38.4609 31.5937 38.2812L33.3125 36.5625C34.5664 37.4531 37.1992 39.8555 37.5 39.9062C37.9414 39.9805 38.6328 39.6172 39.125 39.125C39.6172 38.6328 40.0469 37.8789 39.9687 37.4375C39.918 37.1406 37.457 34.5664 36.5625 33.3125L38.2812 31.5938C38.4648 31.4102 38.543 31.1484 38.4687 30.9062C38.3945 30.6602 38.1914 30.4883 37.9375 30.4375C36.3047 30.1172 34.5312 30.0312 33.1562 30.0312Z" fill="#02ADC9"/>
</svg>
