<svg width="660" height="210" viewBox="0 0 660 210" fill="none" xmlns="http://www.w3.org/2000/svg">
<rect width="660" height="210" fill="#F3F6F8"/>
<g filter="url(#filter0_d)">
<path d="M186 79C186 73.4771 190.477 69 196 69H231C236.523 69 241 73.4772 241 79V118.328C241 121.829 239.169 125.074 236.174 126.886L219.476 136.981C216.39 138.846 212.539 138.906 209.397 137.138L191.095 126.836C187.947 125.064 186 121.733 186 118.121V79Z" fill="white"/>
</g>
<path d="M203.989 88.7625C199.659 88.7625 193.345 96.1564 193.345 105.463C193.345 108.379 195.692 112.414 198.273 112.414C203.441 112.414 204.414 104.903 213.5 104.903C222.586 104.903 223.559 112.414 228.727 112.414C231.308 112.414 233.655 108.379 233.655 105.463C233.655 96.1564 227.341 88.7625 223.011 88.7625C218.68 88.7625 217.83 93.1942 213.5 93.1942C209.17 93.1942 208.32 88.7625 203.989 88.7625ZM222.567 94.2205C222.697 94.1972 222.826 94.2205 222.962 94.2205C224.058 94.2205 224.933 95.0427 224.933 96.0865C224.933 97.1303 224.058 97.9525 222.962 97.9525C221.865 97.9525 220.99 97.1303 220.99 96.0865C220.99 95.1768 221.662 94.3954 222.567 94.2205ZM202.462 94.5937H205.615V97.5793H208.769V100.565H205.615V103.55H202.462V100.565H199.308V97.5793H202.462V94.5937ZM219.413 97.2061C219.543 97.1827 219.672 97.2061 219.808 97.2061C220.91 97.2061 221.779 98.0283 221.779 99.0721C221.779 100.116 220.91 100.938 219.808 100.938C218.705 100.938 217.837 100.11 217.837 99.0721C217.837 98.1624 218.502 97.381 219.413 97.2061ZM225.721 97.2061C225.851 97.1827 225.98 97.2061 226.115 97.2061C227.218 97.2061 228.087 98.0283 228.087 99.0721C228.087 100.116 227.218 100.938 226.115 100.938C225.013 100.938 224.144 100.116 224.144 99.0721C224.144 98.1624 224.81 97.381 225.721 97.2061ZM222.567 100.192C222.697 100.168 222.826 100.192 222.962 100.192C224.064 100.192 224.933 101.014 224.933 102.058C224.933 103.101 224.058 103.924 222.962 103.924C221.865 103.924 220.99 103.101 220.99 102.058C220.99 101.142 221.662 100.367 222.567 100.192Z" fill="#E03131"/>
<g filter="url(#filter1_d)">
<path d="M417 79C417 73.4771 421.477 69 427 69H462C467.523 69 472 73.4772 472 79V118.328C472 121.829 470.169 125.074 467.174 126.886L450.476 136.981C447.39 138.846 443.539 138.906 440.397 137.138L422.095 126.836C418.947 125.064 417 121.733 417 118.121V79Z" fill="white"/>
</g>
<g filter="url(#filter2_d)">
<path fill-rule="evenodd" clip-rule="evenodd" d="M445 105C449.971 105 454 100.971 454 96C454 91.0294 449.971 87 445 87C440.029 87 436 91.0294 436 96C436 100.971 440.029 105 445 105ZM445 114C454.941 114 463 105.941 463 96C463 86.0589 454.941 78 445 78C435.059 78 427 86.0589 427 96C427 105.941 435.059 114 445 114Z" fill="#31E0DB"/>
<path d="M445 105.5C450.247 105.5 454.5 101.247 454.5 96C454.5 90.7533 450.247 86.5 445 86.5C439.753 86.5 435.5 90.7533 435.5 96C435.5 101.247 439.753 105.5 445 105.5ZM462.5 96C462.5 105.665 454.665 113.5 445 113.5C435.335 113.5 427.5 105.665 427.5 96C427.5 86.335 435.335 78.5 445 78.5C454.665 78.5 462.5 86.335 462.5 96Z" stroke="#5DAFAD" stroke-opacity="0.2"/>
</g>
<g filter="url(#filter3_d)">
<path d="M290 65C290 59.4771 294.477 55 300 55H358C363.523 55 368 59.4772 368 65V126.76C368 130.271 366.158 133.525 363.148 135.333L335.361 152.017C332.288 153.862 328.463 153.921 325.334 152.172L295.12 135.282C291.959 133.514 290 130.175 290 126.553V65Z" fill="white"/>
</g>
<path d="M348.478 84.2809L344.896 82.068C343.905 81.4581 342.547 81.6921 341.884 82.5858L324.326 106.119L316.258 98.7855C315.415 98.0194 314.042 98.0194 313.199 98.7855L310.132 101.573C309.289 102.339 309.289 103.587 310.132 104.36L322.539 115.638C323.234 116.269 324.326 116.751 325.31 116.751C326.293 116.751 327.284 116.191 327.924 115.347L349.055 87.0116C349.726 86.1179 349.469 84.8909 348.478 84.2809Z" fill="#33B505"/>
<path fill-rule="evenodd" clip-rule="evenodd" d="M344.896 82.068L348.478 84.2809C349.469 84.8909 349.726 86.1179 349.055 87.0116L327.924 115.347C327.284 116.191 326.293 116.751 325.31 116.751C324.326 116.751 323.234 116.269 322.539 115.638L310.132 104.36C309.289 103.587 309.289 102.339 310.132 101.573L313.199 98.7855C314.042 98.0195 315.415 98.0195 316.258 98.7855L324.326 106.119L341.884 82.5858C342.547 81.6921 343.905 81.4581 344.896 82.068ZM341.081 81.9898C341.081 81.9894 341.081 81.989 341.082 81.9886C342.076 80.6508 344.019 80.3539 345.42 81.2164L345.421 81.2173L349.002 83.4293C349.002 83.4294 349.002 83.4292 349.002 83.4293C350.458 84.3262 350.903 86.2142 349.856 87.6104C349.856 87.611 349.855 87.6115 349.855 87.6121L328.721 115.951C327.927 116.998 326.66 117.751 325.31 117.751C324.046 117.751 322.72 117.154 321.867 116.378L309.459 105.1L309.456 105.097C308.183 103.93 308.178 101.997 309.459 100.833L312.526 98.0455C313.75 96.9328 315.706 96.9328 316.93 98.0455L324.184 104.638L341.081 81.9898Z" fill="#33B505"/>
<g filter="url(#filter4_d)">
<path d="M60 65C60 59.4771 64.4772 55 70 55H128C133.523 55 138 59.4772 138 65V126.76C138 130.271 136.158 133.525 133.148 135.333L105.361 152.017C102.288 153.862 98.4629 153.921 95.3342 152.172L65.1204 135.282C61.9587 133.514 60 130.175 60 126.553V65Z" fill="white"/>
</g>
<path d="M103.811 105.079L106.429 75.2765H91.5715L94.1895 105.079H103.811ZM105.709 115.747C105.709 111.213 103.287 109.28 99.0328 109.28C94.7786 109.28 92.2915 111.213 92.2915 115.747C92.2915 120.281 94.7786 122.281 99.0328 122.281C103.287 122.281 105.709 120.281 105.709 115.747Z" fill="#F7B100"/>
<g filter="url(#filter5_d)">
<path d="M520 65C520 59.4771 524.477 55 530 55H588C593.523 55 598 59.4772 598 65V126.76C598 130.271 596.158 133.525 593.148 135.333L565.361 152.017C562.288 153.862 558.463 153.921 555.334 152.172L525.12 135.282C521.959 133.514 520 130.175 520 126.553V65Z" fill="white"/>
</g>
<path d="M562.947 107.505L555.054 107.505C553.503 107.505 552.235 108.784 552.235 110.347C552.235 111.909 553.503 113.188 555.054 113.188L562.947 113.188C564.497 113.188 565.766 111.909 565.766 110.347C565.766 108.784 564.497 107.505 562.947 107.505ZM562.947 116.598L555.054 116.598C553.503 116.598 552.235 117.877 552.235 119.44C552.235 121.002 553.503 122.281 555.054 122.281L562.947 122.281C564.497 122.281 565.766 121.002 565.766 119.44C565.766 117.877 564.497 116.598 562.947 116.598ZM561.726 74.5815C560.227 73.0504 557.773 73.0504 556.275 74.5815L543.965 87.1526C542.312 88.8393 543.567 91.5922 545.989 91.5922L552.235 91.5922L552.235 101.254C552.235 102.816 553.503 104.095 555.054 104.095L562.947 104.095C564.497 104.095 565.766 102.816 565.766 101.254L565.766 91.5922L572.011 91.5922C574.432 91.5922 575.687 88.8393 574.035 87.1526L561.726 74.5815Z" fill="url(#paint0_linear)"/>
<defs>
<filter id="filter0_d" x="176" y="63" width="75" height="89.4233" filterUnits="userSpaceOnUse" color-interpolation-filters="sRGB">
<feFlood flood-opacity="0" result="BackgroundImageFix"/>
<feColorMatrix in="SourceAlpha" type="matrix" values="0 0 0 0 0 0 0 0 0 0 0 0 0 0 0 0 0 0 127 0"/>
<feOffset dy="4"/>
<feGaussianBlur stdDeviation="5"/>
<feColorMatrix type="matrix" values="0 0 0 0 0 0 0 0 0 0 0 0 0 0 0 0 0 0 0.15 0"/>
<feBlend mode="normal" in2="BackgroundImageFix" result="effect1_dropShadow"/>
<feBlend mode="normal" in="SourceGraphic" in2="effect1_dropShadow" result="shape"/>
</filter>
<filter id="filter1_d" x="407" y="63" width="75" height="89.4233" filterUnits="userSpaceOnUse" color-interpolation-filters="sRGB">
<feFlood flood-opacity="0" result="BackgroundImageFix"/>
<feColorMatrix in="SourceAlpha" type="matrix" values="0 0 0 0 0 0 0 0 0 0 0 0 0 0 0 0 0 0 127 0"/>
<feOffset dy="4"/>
<feGaussianBlur stdDeviation="5"/>
<feColorMatrix type="matrix" values="0 0 0 0 0 0 0 0 0 0 0 0 0 0 0 0 0 0 0.15 0"/>
<feBlend mode="normal" in2="BackgroundImageFix" result="effect1_dropShadow"/>
<feBlend mode="normal" in="SourceGraphic" in2="effect1_dropShadow" result="shape"/>
</filter>
<filter id="filter2_d" x="407" y="58" width="76" height="76" filterUnits="userSpaceOnUse" color-interpolation-filters="sRGB">
<feFlood flood-opacity="0" result="BackgroundImageFix"/>
<feColorMatrix in="SourceAlpha" type="matrix" values="0 0 0 0 0 0 0 0 0 0 0 0 0 0 0 0 0 0 127 0"/>
<feOffset/>
<feGaussianBlur stdDeviation="10"/>
<feColorMatrix type="matrix" values="0 0 0 0 0.745098 0 0 0 0 0.992157 0 0 0 0 0.984314 0 0 0 1 0"/>
<feBlend mode="normal" in2="BackgroundImageFix" result="effect1_dropShadow"/>
<feBlend mode="normal" in="SourceGraphic" in2="effect1_dropShadow" result="shape"/>
</filter>
<filter id="filter3_d" x="280" y="49" width="98" height="118.443" filterUnits="userSpaceOnUse" color-interpolation-filters="sRGB">
<feFlood flood-opacity="0" result="BackgroundImageFix"/>
<feColorMatrix in="SourceAlpha" type="matrix" values="0 0 0 0 0 0 0 0 0 0 0 0 0 0 0 0 0 0 127 0"/>
<feOffset dy="4"/>
<feGaussianBlur stdDeviation="5"/>
<feColorMatrix type="matrix" values="0 0 0 0 0 0 0 0 0 0 0 0 0 0 0 0 0 0 0.15 0"/>
<feBlend mode="normal" in2="BackgroundImageFix" result="effect1_dropShadow"/>
<feBlend mode="normal" in="SourceGraphic" in2="effect1_dropShadow" result="shape"/>
</filter>
<filter id="filter4_d" x="50" y="49" width="98" height="118.443" filterUnits="userSpaceOnUse" color-interpolation-filters="sRGB">
<feFlood flood-opacity="0" result="BackgroundImageFix"/>
<feColorMatrix in="SourceAlpha" type="matrix" values="0 0 0 0 0 0 0 0 0 0 0 0 0 0 0 0 0 0 127 0"/>
<feOffset dy="4"/>
<feGaussianBlur stdDeviation="5"/>
<feColorMatrix type="matrix" values="0 0 0 0 0 0 0 0 0 0 0 0 0 0 0 0 0 0 0.15 0"/>
<feBlend mode="normal" in2="BackgroundImageFix" result="effect1_dropShadow"/>
<feBlend mode="normal" in="SourceGraphic" in2="effect1_dropShadow" result="shape"/>
</filter>
<filter id="filter5_d" x="510" y="49" width="98" height="118.443" filterUnits="userSpaceOnUse" color-interpolation-filters="sRGB">
<feFlood flood-opacity="0" result="BackgroundImageFix"/>
<feColorMatrix in="SourceAlpha" type="matrix" values="0 0 0 0 0 0 0 0 0 0 0 0 0 0 0 0 0 0 127 0"/>
<feOffset dy="4"/>
<feGaussianBlur stdDeviation="5"/>
<feColorMatrix type="matrix" values="0 0 0 0 0 0 0 0 0 0 0 0 0 0 0 0 0 0 0.15 0"/>
<feBlend mode="normal" in2="BackgroundImageFix" result="effect1_dropShadow"/>
<feBlend mode="normal" in="SourceGraphic" in2="effect1_dropShadow" result="shape"/>
</filter>
<linearGradient id="paint0_linear" x1="559" y1="64.3132" x2="559" y2="143.46" gradientUnits="userSpaceOnUse">
<stop stop-color="#155CDE"/>
<stop offset="0.278" stop-color="#1F7FE5"/>
<stop offset="0.569" stop-color="#279CEB"/>
<stop offset="0.82" stop-color="#2CAFEF"/>
<stop offset="1" stop-color="#2EB5F0"/>
</linearGradient>
</defs>
</svg>
