<svg width="auto" height="auto" viewBox="0 0 530 800" fill="none" xmlns="http://www.w3.org/2000/svg" preserveAspectRatio="none">
<path fill-rule="evenodd" clip-rule="evenodd" d="M110.534 0H0L0 46L0 738.687L25.3509 768.192H152.96L180.29 800H530V0H110.534Z" fill="white"/>
<mask id="mask0" mask-type="alpha" maskUnits="userSpaceOnUse" x="0" y="0" width="530" height="800">
<path fill-rule="evenodd" clip-rule="evenodd" d="M110.534 0H4C1.79086 0 0 1.79086 0 4L0 46L0 737.205C0 738.161 0.342744 739.086 0.966087 739.811L24.1539 766.799C24.9138 767.683 26.0217 768.192 27.1878 768.192H151.123C152.289 768.192 153.397 768.701 154.157 769.585L179.093 798.607C179.853 799.491 180.961 800 182.127 800H530V0H110.534Z" fill="white"/>
</mask>
<g mask="url(#mask0)">
</g>
<path fill-rule="evenodd" clip-rule="evenodd" d="M173.5 791.5H388.515C389.728 791.5 390.876 792.05 391.635 792.996L397.256 800H180.5L173.5 791.5Z" fill="#02ADC9"/>
<path fill-rule="evenodd" clip-rule="evenodd" d="M420 0H530V60H482.647C481.597 60 480.59 59.5877 479.842 58.8519L420 0Z" fill="#04B5D2"/>
<path fill-rule="evenodd" clip-rule="evenodd" d="M530 0V20H20.5752C19.4732 20 18.42 19.5454 17.6642 18.7434L0 0H530Z" fill="#04B5D2"/>
</svg>
