<svg width="20" height="14" viewBox="0 0 20 14" fill="none" xmlns="http://www.w3.org/2000/svg">
<rect x="0.5" y="0.5" width="19" height="13" rx="2.5" fill="white" stroke="#D2ECF0"/>
<mask id="mask0" mask-type="alpha" maskUnits="userSpaceOnUse" x="1" y="1" width="18" height="12">
<rect x="1" y="1" width="18" height="12" rx="2" fill="#C4C4C4"/>
</mask>
<g mask="url(#mask0)">
<path d="M0.915527 0.583374H21.0822V12.9584H0.915527V0.583374Z" fill="#ECEFF1"/>
<path d="M0.916504 0.583374H21.0832V1.95837H0.916504V0.583374ZM0.916504 3.33337H21.0832V4.70837H0.916504V3.33337ZM0.916504 6.08337H21.0832V7.45837H0.916504V6.08337ZM0.916504 8.83337H21.0832V10.2084H0.916504V8.83337ZM0.916504 11.5834H21.0832V12.9584H0.916504V11.5834Z" fill="#F44336"/>
<path d="M0.916504 0.583374H10.5415V7.45837H0.916504V0.583374Z" fill="#3F51B5"/>
<path d="M1.94775 1.5L2.15996 1.95283L2.63525 2.02525L2.2915 2.37817L2.37309 2.875L1.94775 2.64033L1.52242 2.875L1.604 2.37817L1.26025 2.02525L1.73555 1.95283L1.94775 1.5ZM3.78109 1.5L3.9933 1.95283L4.46859 2.02525L4.12484 2.37817L4.20642 2.875L3.78109 2.64033L3.35575 2.875L3.43734 2.37817L3.09359 2.02525L3.56888 1.95283L3.78109 1.5ZM5.61442 1.5L5.82663 1.95283L6.30192 2.02525L5.95817 2.37817L6.03975 2.875L5.61442 2.64033L5.18909 2.875L5.27067 2.37817L4.92692 2.02525L5.40221 1.95283L5.61442 1.5ZM7.44775 1.5L7.65996 1.95283L8.13525 2.02525L7.7915 2.37817L7.87309 2.875L7.44775 2.64033L7.02242 2.875L7.104 2.37817L6.76025 2.02525L7.23555 1.95283L7.44775 1.5ZM9.1665 1.5L9.37871 1.95283L9.854 2.02525L9.51025 2.37817L9.59184 2.875L9.1665 2.64033L8.74117 2.875L8.82275 2.37817L8.479 2.02525L8.9543 1.95283L9.1665 1.5ZM1.94775 5.16667L2.15996 5.6195L2.63525 5.69192L2.2915 6.04483L2.37309 6.54167L1.94775 6.307L1.52242 6.54167L1.604 6.04483L1.26025 5.69192L1.73555 5.6195L1.94775 5.16667ZM3.78109 5.16667L3.9933 5.6195L4.46859 5.69192L4.12484 6.04483L4.20642 6.54167L3.78109 6.307L3.35575 6.54167L3.43734 6.04483L3.09359 5.69192L3.56888 5.6195L3.78109 5.16667ZM5.61442 5.16667L5.82663 5.6195L6.30192 5.69192L5.95817 6.04483L6.03975 6.54167L5.61442 6.307L5.18909 6.54167L5.27067 6.04483L4.92692 5.69192L5.40221 5.6195L5.61442 5.16667ZM7.44775 5.16667L7.65996 5.6195L8.13525 5.69192L7.7915 6.04483L7.87309 6.54167L7.44775 6.307L7.02242 6.54167L7.104 6.04483L6.76025 5.69192L7.23555 5.6195L7.44775 5.16667ZM9.1665 5.16667L9.37871 5.6195L9.854 5.69192L9.51025 6.04483L9.59184 6.54167L9.1665 6.307L8.74117 6.54167L8.82275 6.04483L8.479 5.69192L8.9543 5.6195L9.1665 5.16667ZM2.40609 3.33333L2.6183 3.78617L3.09359 3.85858L2.74984 4.2115L2.83142 4.70833L2.40609 4.47367L1.98075 4.70833L2.06234 4.2115L1.71859 3.85858L2.19388 3.78617L2.40609 3.33333ZM4.23942 3.33333L4.45163 3.78617L4.92692 3.85858L4.58317 4.2115L4.66475 4.70833L4.23942 4.47367L3.81409 4.70833L3.89567 4.2115L3.55192 3.85858L4.02721 3.78617L4.23942 3.33333ZM6.07275 3.33333L6.28496 3.78617L6.76025 3.85858L6.4165 4.2115L6.49809 4.70833L6.07275 4.47367L5.64742 4.70833L5.729 4.2115L5.38525 3.85858L5.86055 3.78617L6.07275 3.33333ZM7.90609 3.33333L8.1183 3.78617L8.59359 3.85858L8.24984 4.2115L8.33142 4.70833L7.90609 4.47367L7.48075 4.70833L7.56234 4.2115L7.21859 3.85858L7.69388 3.78617L7.90609 3.33333ZM9.62484 3.33333L9.83704 3.78617L10.3123 3.85858L9.96859 4.2115L10.0502 4.70833L9.62484 4.47367L9.1995 4.70833L9.28109 4.2115L8.93734 3.85858L9.41263 3.78617L9.62484 3.33333Z" fill="white"/>
</g>
</svg>
