<svg width="128" height="128" viewBox="0 0 128 128" fill="none" xmlns="http://www.w3.org/2000/svg">
<path d="M15 109.8L63 126.8C63.1 126.8 63.2 126.9 63.3 126.9C63.4 126.9 63.4 126.9 63.5 126.9C63.6 126.9 63.7 126.9 63.9 126.9H64C64.2 126.9 64.3 126.9 64.5 126.9H64.6C64.7 126.9 64.8 126.8 65 126.8L113 109.8C114.2 109.4 115 108.2 115 107V57.8L126.6 38.5C126.7 38.3 126.8 38.1 126.8 38V37.9C126.9 37.7 126.9 37.5 126.9 37.3C126.9 36.9 126.9 36.5 126.8 36.1V36C126.7 35.7 126.5 35.4 126.3 35.1C126 34.7 125.5 34.4 125 34.2C125 34.2 125 34.2 124.9 34.2L76.9 17.2C75.6 16.7 74.1 17.3 73.3 18.5L64 34.2L54.6 18.5C53.9 17.3 52.4 16.7 51 17.2L3.00001 34.2C2.20001 34.5 1.50001 35.2 1.20001 36C0.900007 36.8 1.00001 37.8 1.40001 38.5L13 57.8V107C13 108.3 13.8 109.4 15 109.8ZM25 57L64 43.2L80.8 49.1L75 51.1C74.3 51.3 73.8 51.8 73.4 52.4L62.7 70.4L25 57ZM19 61.2L61 76.1V119.7L19 104.8V61.2ZM77.3 23.6L115 37L106.6 40L89.8 46L68.5 38.5L77.3 23.6ZM8.50001 38.6L50.7 23.6L59.6 38.4L17.4 53.4L8.50001 38.6Z" fill="#D8D8D8"/>
</svg>
