<svg enable-background="new 0 0 776 456" viewBox="0 0 776 456" xmlns="http://www.w3.org/2000/svg"><path clip-rule="evenodd" d="m776 222.4v209.9c0 1-.4 2-1.1 2.8l-10.4 10.7-8.7 9c-.4.4-.8.7-1.3.9s-1 .3-1.5.3h-753v-456l732.6.4c1 0 2 .4 2.7 1.1l18.1 18.3c.8.8 1.2 1.8 1.2 2.9v177.9c0 1.2.5 2.3 1.4 3.1l18.6 15.6c.9.8 1.4 1.9 1.4 3.1z" fill="#fff" fill-rule="evenodd"/><path d="m55 .1v91.8l-23.9-14.4v-77.4z" fill="#a0c4e8"/><g fill="#e3eef9"><path d="m18.7 32.1-12.5 7.1v52.7l24.9-14.4v-77.4h-12.4z"/><path d="m31.1 109-23.9-15.3 23.9-14.3 22.9 14.3z"/><path d="m143.2 54.5-16.6-10.6 16.6-10 15.9 10z"/></g><path d="m27.3 159.7v-40.9l-26.8-16.5v42.7z" fill="#ddeef1"/><path d="m.5 175.1c0-1.1 24.9-13.5 24.9-13.5l-24.9-14z" fill="#e3eef8"/><path d="m87.5 77.5-13.4-9.7v18.3z" fill="#eeeff3"/><path d="m.5 18.2v-18.1h16.2v30.6z" fill="#ddeef0"/><path d="m55 51.2 32.5-19.4s-29-16.6-28.8-16.3 0-15.4 0-15.4h-3.7z" fill="#e2e5f2"/><path d="m61.7 14.4 43 23.9 19.4-12v-23.5l-4.2-2.7h-35.4z" fill="#e3eef8"/><path d="m126.7 41.2v-41.1h16v31.3z" fill="#ddeef1"/><path d="m144.1 31.4c-.2-.8 0-31.3 0-31.3h15.1v40.4z" fill="#b6d5d8"/><path d="m172.5.1 44 22.9 40.1-22.9z" fill="#b0e0e9"/><path d="m314.4.1-74 38v6.6l85.9-44.6z" fill="#eceff4"/><path d="m692.3 428 32.5 19v8.8h-42.1v-27.8z" fill="#e2e5f2"/><path d="m770.7 342-67.9-36.1v-6.6l66.9 37z" fill="#eceff4"/><path d="m716.2 455.7v-91.8l23.9 14.3v77.4h-23.9z" fill="#e3eef9"/><path d="m764.9 363.9-.4 81.9-8.7 9c-.4.4-.8.7-1.3.9h-14.4v-77.4z" fill="#a0c4e8"/><path d="m716.2 402.6-129-73-9.5 4.8 138.6 80z" fill="#eceff4"/><path d="m740.1 346.7 23.9 15.3-23.9 14.3-22.9-14.3z" fill="#e3eef9"/><path d="m665.2 403.1 16.6 10.6-16.6 10-15.9-10z" fill="#deeef0"/><path d="m747.7 298.9v40.9l26.8 16.4v-42.7z" fill="#ddeef1"/><path d="m774.5 282.5c0 1.1-24.8 13.5-24.8 13.5l24.8 14z" fill="#e3eef8"/><path d="m761.1 267.4 13.4 9.7v-18.3z" fill="#eeeff3"/><path d="m654.9 433.6-29.2-16.2-42.4 24.9 22.9 13.4 46.2-.2z" fill="#e3eef8"/><path d="m681.8 414.6v41.1h-16v-31.3z" fill="#b6d5d8"/><path d="m664.4 424.4c.2.8 0 31.3 0 31.3h-15.2v-41.1z" fill="#deeef0"/><path d="m598.6 455.7-44-22.9-40.2 22.9z" fill="#b0e0e9"/></svg>