<svg width="146" height="62" viewBox="0 0 146 62" fill="none" xmlns="http://www.w3.org/2000/svg">
<g filter="url(#filter0_d)">
<path d="M15 22C15 16.4772 19.4772 12 25 12H73H102H121C126.523 12 131 16.4772 131 22V33C131 38.5228 126.523 43 121 43H25C19.4772 43 15 38.5228 15 33V22Z" fill="#04B5D2"/>
</g>
<path d="M7 10C7 4.47715 11.4772 0 17 0H73H106H129C134.523 0 139 4.47715 139 10V33C139 38.5228 134.523 43 129 43H17C11.4772 43 7 38.5228 7 33V10Z" fill="#04B5D2"/>
<path d="M67.144 26L71.112 18.672V26H73.784V14.96H70.76L66.792 22.288V14.96H64.12V26H67.144ZM75.8663 17.84V26H78.4583V19.904H82.0423V17.84H75.8663ZM85.9114 29.2V25.136C86.4554 25.856 87.2874 26.208 88.4554 26.208C90.6634 26.208 91.8154 24.752 91.8154 21.952C91.8154 19.04 90.6314 17.632 88.4554 17.632C87.2394 17.632 86.3754 18.032 85.8314 18.832V17.84H83.3194V29.2H85.9114ZM87.5274 24.368C86.4074 24.368 85.9114 23.84 85.9114 22.688V20.928C85.9594 19.968 86.4394 19.472 87.5434 19.472C88.6474 19.472 89.1434 20.016 89.1434 21.072V22.688C89.1434 23.84 88.6474 24.368 87.5274 24.368ZM93.0463 23.76C93.0463 25.184 94.0063 26.208 95.7823 26.208C97.1263 26.208 97.9743 25.792 98.5183 25.008V26H101.014V20.608C101.014 18.56 99.7183 17.632 97.2543 17.632C94.7582 17.632 93.4783 18.576 93.3503 20.336H96.0383C96.1343 19.712 96.4863 19.424 97.2703 19.424C98.0383 19.424 98.4223 19.744 98.4223 20.608V20.944L96.4863 21.088C94.1503 21.28 93.0463 22.032 93.0463 23.76ZM96.7903 24.464C96.0863 24.464 95.7023 24.192 95.7023 23.648V23.392C95.7023 22.848 96.0703 22.624 96.8223 22.56L98.4223 22.416V22.928C98.4223 23.904 97.8463 24.464 96.7903 24.464ZM109.734 19.904V17.84H102.054V19.904H104.598V26H107.19V19.904H109.734ZM111.007 26H115.503C117.503 26 118.559 24.96 118.559 23.04C118.559 21.216 117.503 20.16 115.503 20.16H113.599V17.84H111.007V26ZM115.887 22.848V23.248C115.887 23.856 115.535 24.16 114.911 24.16H113.599V22H114.911C115.519 22 115.887 22.256 115.887 22.848Z" fill="white"/>
<g filter="url(#filter1_i)">
<circle cx="36" cy="21" r="17" fill="#04B5D2"/>
</g>
<path d="M30.4327 14.0445C27.8978 14.0445 24.2019 18.4261 24.2019 23.9411C24.2019 25.6689 25.5757 28.0601 27.0865 28.0601C30.1118 28.0601 30.6815 23.6094 36 23.6094C41.3185 23.6094 41.8882 28.0601 44.9135 28.0601C46.4243 28.0601 47.7981 25.6689 47.7981 23.9411C47.7981 18.4261 44.1022 14.0445 41.5673 14.0445C39.0324 14.0445 38.5349 16.6707 36 16.6707C33.4651 16.6707 32.9675 14.0445 30.4327 14.0445ZM41.3077 17.2789C41.3834 17.265 41.4591 17.2789 41.5385 17.2789C42.1803 17.2789 42.6923 17.7661 42.6923 18.3846C42.6923 19.0032 42.1803 19.4904 41.5385 19.4904C40.8966 19.4904 40.3846 19.0032 40.3846 18.3846C40.3846 17.8456 40.7776 17.3825 41.3077 17.2789ZM29.5385 17.5H31.3846V19.2693H33.2308V21.0385H31.3846V22.8077H29.5385V21.0385H27.6923V19.2693H29.5385V17.5ZM39.4615 19.0481C39.5373 19.0343 39.613 19.0481 39.6923 19.0481C40.3377 19.0481 40.8462 19.5353 40.8462 20.1539C40.8462 20.7724 40.3377 21.2596 39.6923 21.2596C39.0469 21.2596 38.5385 20.769 38.5385 20.1539C38.5385 19.6148 38.9279 19.1518 39.4615 19.0481ZM43.1538 19.0481C43.2296 19.0343 43.3053 19.0481 43.3846 19.0481C44.03 19.0481 44.5385 19.5353 44.5385 20.1539C44.5385 20.7724 44.03 21.2596 43.3846 21.2596C42.7392 21.2596 42.2308 20.7724 42.2308 20.1539C42.2308 19.6148 42.6202 19.1518 43.1538 19.0481ZM41.3077 20.8173C41.3834 20.8035 41.4591 20.8173 41.5385 20.8173C42.1839 20.8173 42.6923 21.3046 42.6923 21.9231C42.6923 22.5416 42.1803 23.0289 41.5385 23.0289C40.8966 23.0289 40.3846 22.5416 40.3846 21.9231C40.3846 21.3806 40.7776 20.921 41.3077 20.8173Z" fill="white"/>
<defs>
<filter id="filter0_d" x="0" y="1" width="146" height="61" filterUnits="userSpaceOnUse" color-interpolation-filters="sRGB">
<feFlood flood-opacity="0" result="BackgroundImageFix"/>
<feColorMatrix in="SourceAlpha" type="matrix" values="0 0 0 0 0 0 0 0 0 0 0 0 0 0 0 0 0 0 127 0"/>
<feOffset dy="4"/>
<feGaussianBlur stdDeviation="7.5"/>
<feColorMatrix type="matrix" values="0 0 0 0 0.0156863 0 0 0 0 0.709804 0 0 0 0 0.823529 0 0 0 1 0"/>
<feBlend mode="normal" in2="BackgroundImageFix" result="effect1_dropShadow"/>
<feBlend mode="normal" in="SourceGraphic" in2="effect1_dropShadow" result="shape"/>
</filter>
<filter id="filter1_i" x="19" y="4" width="34" height="34" filterUnits="userSpaceOnUse" color-interpolation-filters="sRGB">
<feFlood flood-opacity="0" result="BackgroundImageFix"/>
<feBlend mode="normal" in="SourceGraphic" in2="BackgroundImageFix" result="shape"/>
<feColorMatrix in="SourceAlpha" type="matrix" values="0 0 0 0 0 0 0 0 0 0 0 0 0 0 0 0 0 0 127 0" result="hardAlpha"/>
<feOffset/>
<feGaussianBlur stdDeviation="7.5"/>
<feComposite in2="hardAlpha" operator="arithmetic" k2="-1" k3="1"/>
<feColorMatrix type="matrix" values="0 0 0 0 0.0595833 0 0 0 0 0.566883 0 0 0 0 0.65 0 0 0 1 0"/>
<feBlend mode="normal" in2="shape" result="effect1_innerShadow"/>
</filter>
</defs>
</svg>
