<svg width="146" height="61" viewBox="0 0 146 61" fill="none" xmlns="http://www.w3.org/2000/svg">
<g filter="url(#filter0_d)">
<path d="M15 25C15 19.4772 19.4772 15 25 15H73H102H121C126.523 15 131 19.4772 131 25V36C131 41.5228 126.523 46 121 46H25C19.4772 46 15 41.5228 15 36V25Z" fill="#04B5D2"/>
</g>
<path d="M7 13C7 7.47715 11.4772 3 17 3H73H106H129C134.523 3 139 7.47715 139 13V36C139 41.5228 134.523 46 129 46H17C11.4772 46 7 41.5228 7 36V13Z" fill="#04B5D2"/>
<path d="M67.144 29L71.112 21.672V29H73.784V17.96H70.76L66.792 25.288V17.96H64.12V29H67.144ZM75.8663 20.84V29H78.4583V22.904H82.0423V20.84H75.8663ZM85.9114 32.2V28.136C86.4554 28.856 87.2874 29.208 88.4554 29.208C90.6634 29.208 91.8154 27.752 91.8154 24.952C91.8154 22.04 90.6314 20.632 88.4554 20.632C87.2394 20.632 86.3754 21.032 85.8314 21.832V20.84H83.3194V32.2H85.9114ZM87.5274 27.368C86.4074 27.368 85.9114 26.84 85.9114 25.688V23.928C85.9594 22.968 86.4394 22.472 87.5434 22.472C88.6474 22.472 89.1434 23.016 89.1434 24.072V25.688C89.1434 26.84 88.6474 27.368 87.5274 27.368ZM93.0463 26.76C93.0463 28.184 94.0063 29.208 95.7823 29.208C97.1263 29.208 97.9743 28.792 98.5183 28.008V29H101.014V23.608C101.014 21.56 99.7183 20.632 97.2543 20.632C94.7582 20.632 93.4783 21.576 93.3503 23.336H96.0383C96.1343 22.712 96.4863 22.424 97.2703 22.424C98.0383 22.424 98.4223 22.744 98.4223 23.608V23.944L96.4863 24.088C94.1503 24.28 93.0463 25.032 93.0463 26.76ZM96.7903 27.464C96.0863 27.464 95.7023 27.192 95.7023 26.648V26.392C95.7023 25.848 96.0703 25.624 96.8223 25.56L98.4223 25.416V25.928C98.4223 26.904 97.8463 27.464 96.7903 27.464ZM109.734 22.904V20.84H102.054V22.904H104.598V29H107.19V22.904H109.734ZM111.007 29H115.503C117.503 29 118.559 27.96 118.559 26.04C118.559 24.216 117.503 23.16 115.503 23.16H113.599V20.84H111.007V29ZM115.887 25.848V26.248C115.887 26.856 115.535 27.16 114.911 27.16H113.599V25H114.911C115.519 25 115.887 25.256 115.887 25.848Z" fill="white"/>
<g filter="url(#filter1_i)">
<circle cx="36" cy="24" r="17" fill="#04B5D2"/>
</g>
<path d="M30.4327 17.0445C27.8978 17.0445 24.2019 21.4261 24.2019 26.9411C24.2019 28.6689 25.5757 31.0601 27.0865 31.0601C30.1118 31.0601 30.6815 26.6094 36 26.6094C41.3185 26.6094 41.8882 31.0601 44.9135 31.0601C46.4243 31.0601 47.7981 28.6689 47.7981 26.9411C47.7981 21.4261 44.1022 17.0445 41.5673 17.0445C39.0325 17.0445 38.5349 19.6707 36 19.6707C33.4651 19.6707 32.9675 17.0445 30.4327 17.0445ZM41.3077 20.2789C41.3834 20.265 41.4591 20.2789 41.5385 20.2789C42.1803 20.2789 42.6923 20.7661 42.6923 21.3846C42.6923 22.0032 42.1803 22.4904 41.5385 22.4904C40.8966 22.4904 40.3846 22.0032 40.3846 21.3846C40.3846 20.8456 40.7776 20.3825 41.3077 20.2789ZM29.5385 20.5H31.3846V22.2693H33.2308V24.0385H31.3846V25.8077H29.5385V24.0385H27.6923V22.2693H29.5385V20.5ZM39.4615 22.0481C39.5373 22.0343 39.613 22.0481 39.6923 22.0481C40.3377 22.0481 40.8462 22.5353 40.8462 23.1539C40.8462 23.7724 40.3377 24.2596 39.6923 24.2596C39.0469 24.2596 38.5385 23.769 38.5385 23.1539C38.5385 22.6148 38.9279 22.1518 39.4615 22.0481ZM43.1538 22.0481C43.2296 22.0343 43.3053 22.0481 43.3846 22.0481C44.03 22.0481 44.5385 22.5353 44.5385 23.1539C44.5385 23.7724 44.03 24.2596 43.3846 24.2596C42.7392 24.2596 42.2308 23.7724 42.2308 23.1539C42.2308 22.6148 42.6202 22.1518 43.1538 22.0481ZM41.3077 23.8173C41.3834 23.8035 41.4591 23.8173 41.5385 23.8173C42.1839 23.8173 42.6923 24.3046 42.6923 24.9231C42.6923 25.5416 42.1803 26.0289 41.5385 26.0289C40.8966 26.0289 40.3846 25.5416 40.3846 24.9231C40.3846 24.3806 40.7776 23.921 41.3077 23.8173Z" fill="white"/>
<defs>
<filter id="filter0_d" x="0" y="0" width="146" height="61" filterUnits="userSpaceOnUse" color-interpolation-filters="sRGB">
<feFlood flood-opacity="0" result="BackgroundImageFix"/>
<feColorMatrix in="SourceAlpha" type="matrix" values="0 0 0 0 0 0 0 0 0 0 0 0 0 0 0 0 0 0 127 0"/>
<feOffset/>
<feGaussianBlur stdDeviation="7.5"/>
<feColorMatrix type="matrix" values="0 0 0 0 0.0156863 0 0 0 0 0.709804 0 0 0 0 0.823529 0 0 0 1 0"/>
<feBlend mode="normal" in2="BackgroundImageFix" result="effect1_dropShadow"/>
<feBlend mode="normal" in="SourceGraphic" in2="effect1_dropShadow" result="shape"/>
</filter>
<filter id="filter1_i" x="19" y="7" width="34" height="34" filterUnits="userSpaceOnUse" color-interpolation-filters="sRGB">
<feFlood flood-opacity="0" result="BackgroundImageFix"/>
<feBlend mode="normal" in="SourceGraphic" in2="BackgroundImageFix" result="shape"/>
<feColorMatrix in="SourceAlpha" type="matrix" values="0 0 0 0 0 0 0 0 0 0 0 0 0 0 0 0 0 0 127 0" result="hardAlpha"/>
<feOffset/>
<feGaussianBlur stdDeviation="7.5"/>
<feComposite in2="hardAlpha" operator="arithmetic" k2="-1" k3="1"/>
<feColorMatrix type="matrix" values="0 0 0 0 0.0595833 0 0 0 0 0.566883 0 0 0 0 0.65 0 0 0 1 0"/>
<feBlend mode="normal" in2="shape" result="effect1_innerShadow"/>
</filter>
</defs>
</svg>
