<svg width="34" height="34" viewBox="0 0 34 34" fill="none" xmlns="http://www.w3.org/2000/svg">
<g filter="url(#filter0_i)">
<circle cx="17" cy="17" r="17" fill="#04B5D2"/>
</g>
<path d="M11.4327 10.0445C8.89784 10.0445 5.20192 14.4261 5.20192 19.9411C5.20192 21.6689 6.57572 24.0601 8.08654 24.0601C11.1118 24.0601 11.6815 19.6094 17 19.6094C22.3185 19.6094 22.8882 24.0601 25.9135 24.0601C27.4243 24.0601 28.7981 21.6689 28.7981 19.9411C28.7981 14.4261 25.1022 10.0445 22.5673 10.0445C20.0325 10.0445 19.5349 12.6707 17 12.6707C14.4651 12.6707 13.9675 10.0445 11.4327 10.0445ZM22.3077 13.2789C22.3834 13.265 22.4591 13.2789 22.5385 13.2789C23.1803 13.2789 23.6923 13.7661 23.6923 14.3846C23.6923 15.0032 23.1803 15.4904 22.5385 15.4904C21.8966 15.4904 21.3846 15.0032 21.3846 14.3846C21.3846 13.8456 21.7776 13.3825 22.3077 13.2789ZM10.5385 13.5H12.3846V15.2693H14.2308V17.0385H12.3846V18.8077H10.5385V17.0385H8.69231V15.2693H10.5385V13.5ZM20.4615 15.0481C20.5373 15.0343 20.613 15.0481 20.6923 15.0481C21.3377 15.0481 21.8462 15.5353 21.8462 16.1539C21.8462 16.7724 21.3377 17.2596 20.6923 17.2596C20.0469 17.2596 19.5385 16.769 19.5385 16.1539C19.5385 15.6148 19.9279 15.1518 20.4615 15.0481ZM24.1538 15.0481C24.2296 15.0343 24.3053 15.0481 24.3846 15.0481C25.03 15.0481 25.5385 15.5353 25.5385 16.1539C25.5385 16.7724 25.03 17.2596 24.3846 17.2596C23.7392 17.2596 23.2308 16.7724 23.2308 16.1539C23.2308 15.6148 23.6202 15.1518 24.1538 15.0481ZM22.3077 16.8173C22.3834 16.8035 22.4591 16.8173 22.5385 16.8173C23.1839 16.8173 23.6923 17.3046 23.6923 17.9231C23.6923 18.5416 23.1803 19.0289 22.5385 19.0289C21.8966 19.0289 21.3846 18.5416 21.3846 17.9231C21.3846 17.3806 21.7776 16.921 22.3077 16.8173Z" fill="white"/>
<defs>
<filter id="filter0_i" x="0" y="0" width="34" height="34" filterUnits="userSpaceOnUse" color-interpolation-filters="sRGB">
<feFlood flood-opacity="0" result="BackgroundImageFix"/>
<feBlend mode="normal" in="SourceGraphic" in2="BackgroundImageFix" result="shape"/>
<feColorMatrix in="SourceAlpha" type="matrix" values="0 0 0 0 0 0 0 0 0 0 0 0 0 0 0 0 0 0 127 0" result="hardAlpha"/>
<feOffset/>
<feGaussianBlur stdDeviation="7.5"/>
<feComposite in2="hardAlpha" operator="arithmetic" k2="-1" k3="1"/>
<feColorMatrix type="matrix" values="0 0 0 0 0.0595833 0 0 0 0 0.566883 0 0 0 0 0.65 0 0 0 1 0"/>
<feBlend mode="normal" in2="shape" result="effect1_innerShadow"/>
</filter>
</defs>
</svg>
