<svg width="31" height="30" viewBox="0 0 31 30" fill="none" xmlns="http://www.w3.org/2000/svg">
<path d="M22.0456 2.95962L28.9972 15L22.0456 27.0404H8.1426L1.19108 15L8.1426 2.95962L22.0456 2.95962Z" fill="url(#paint0_linear)" stroke="url(#paint1_linear)" stroke-width="1.9"/>
<path d="M22.19 2.70962L29.2858 15L22.19 27.2904H7.99826L0.902407 15L7.99826 2.70962L22.19 2.70962Z" fill="url(#paint2_linear)" stroke="url(#paint3_linear)" stroke-width="1.4"/>
<path fill-rule="evenodd" clip-rule="evenodd" d="M9.09409 16.4459C9.09409 19.8337 10.9465 23.25 15.0941 23.25C19.2381 23.25 21.0941 19.8337 21.0941 16.4459C21.0941 14.1316 20.3331 11.4673 19.0627 9.3148C17.8274 7.23606 16.3428 6 15.0941 6C13.8418 6 12.3568 7.23606 11.132 9.3148C9.85577 11.4673 9.09409 14.1316 9.09409 16.4459Z" fill="white"/>
<path fill-rule="evenodd" clip-rule="evenodd" d="M9.09413 16.4459C9.09413 19.8337 10.9465 23.25 15.0941 23.25C19.2381 23.25 21.0941 19.8337 21.0941 16.4459C21.0941 14.1316 20.3332 11.4673 19.0627 9.3148C17.8274 7.23606 16.3428 6 15.0941 6C13.8418 6 12.3568 7.23606 11.1321 9.3148C9.85582 11.4673 9.09413 14.1316 9.09413 16.4459Z" fill="white"/>
<defs>
<linearGradient id="paint0_linear" x1="27.5295" y1="27.4446" x2="27.5295" y2="2.57373" gradientUnits="userSpaceOnUse">
<stop stop-color="#03ADC9"/>
<stop offset="1" stop-color="#02C5E5"/>
</linearGradient>
<linearGradient id="paint1_linear" x1="15.6244" y1="-2.05847" x2="7.67688" y2="9.39954" gradientUnits="userSpaceOnUse">
<stop stop-color="#00C4E4"/>
<stop offset="0.490551" stop-color="#04C7E7"/>
<stop offset="0.811128" stop-color="#0CB4D0"/>
<stop offset="1" stop-color="#02ACC8"/>
</linearGradient>
<linearGradient id="paint2_linear" x1="30.0941" y1="0" x2="0.0941162" y2="0" gradientUnits="userSpaceOnUse">
<stop stop-color="#FBC135"/>
<stop offset="1" stop-color="#F19A1A"/>
</linearGradient>
<linearGradient id="paint3_linear" x1="10.1325" y1="-5.89024" x2="-7.49901" y2="19.7927" gradientUnits="userSpaceOnUse">
<stop stop-color="#FFDB86"/>
<stop offset="1" stop-color="#E99115"/>
</linearGradient>
</defs>
</svg>
