<svg width="11" height="6" viewBox="0 0 11 6" fill="none" xmlns="http://www.w3.org/2000/svg">
<path fill-rule="evenodd" clip-rule="evenodd" d="M4.72058 5.68882C4.72058 5.68882 5.08977 6.00119 5.49848 5.99995C5.90719 5.99872 6.30264 5.68604 6.30264 5.68604L10.6673 1.72532C10.6673 1.72532 10.8869 1.5292 10.9552 1.28254C11.1755 0.487151 10.5317 0.000757159 10.1438 1.7113e-06C9.82078 -0.000627625 9.61033 0.172533 9.61033 0.172533L5.49848 3.86321L1.41425 0.1753C1.41425 0.1753 1.16991 1.7113e-06 0.893503 1.7113e-06C0.400035 1.7113e-06 0 0.436604 0 0.97518C0 1.41353 0.312423 1.72873 0.312423 1.72873L4.72058 5.68882Z" fill="#02ADC9"/>
</svg>
