<svg width="15" height="15" viewBox="0 0 15 15" fill="none" xmlns="http://www.w3.org/2000/svg">
<path d="M13.0417 0.375H1.95833C1.08354 0.375 0.375 1.08354 0.375 1.95833V13.0417C0.375 13.9165 1.08354 14.625 1.95833 14.625H13.0417C13.9165 14.625 14.625 13.9165 14.625 13.0417V1.95833C14.625 1.08354 13.9165 0.375 13.0417 0.375ZM13.6014 8.05971L10.9889 10.6722C10.8345 10.8266 10.6318 10.9042 10.4292 10.9042C10.2265 10.9042 10.0238 10.8266 9.86946 10.6722C9.55992 10.3627 9.55992 9.86233 9.86946 9.55279L11.1306 8.29167H5.125C4.68721 8.29167 4.33333 7.93779 4.33333 7.5C4.33333 7.06221 4.68721 6.70833 5.125 6.70833H11.1306L9.86946 5.44721C9.55992 5.13767 9.55992 4.63733 9.86946 4.32779C10.179 4.01825 10.6793 4.01825 10.9889 4.32779L13.6014 6.94029C13.9109 7.24983 13.9109 7.75017 13.6014 8.05971Z" fill="#001424"/>
</svg>
