<svg width="17" height="17" viewBox="0 0 17 17" fill="none" xmlns="http://www.w3.org/2000/svg">
<path opacity="0.2" d="M7.30477 0.583344C6.92556 0.583344 6.6014 0.851397 6.52857 1.22348L6.26416 2.58107C5.61439 2.82677 5.01358 3.17004 4.486 3.60312L3.18408 3.15471C2.82546 3.03121 2.43089 3.1795 2.24089 3.50725L1.0472 5.5761C0.857993 5.90464 0.926856 6.32174 1.21265 6.57032L2.25635 7.47796C2.20207 7.81153 2.16667 8.15111 2.16667 8.50001C2.16667 8.84891 2.20207 9.18849 2.25635 9.52207L1.21265 10.4297C0.926856 10.6783 0.857993 11.0954 1.0472 11.4239L2.24089 13.4928C2.43009 13.8213 2.82546 13.9696 3.18408 13.8469L4.486 13.3984C5.01341 13.8313 5.61469 14.1734 6.26416 14.419L6.52857 15.7765C6.6014 16.1486 6.92556 16.4167 7.30477 16.4167H9.69523C10.0744 16.4167 10.3986 16.1486 10.4714 15.7765L10.7358 14.419C11.3856 14.1733 11.9864 13.83 12.514 13.3969L13.8159 13.8453C14.1745 13.9688 14.5691 13.8213 14.7591 13.4928L15.9528 11.4224C16.142 11.0938 16.0731 10.6783 15.7874 10.4297L14.7437 9.52207C14.7979 9.18849 14.8333 8.84891 14.8333 8.50001C14.8333 8.15111 14.7979 7.81153 14.7437 7.47796L15.7874 6.57032C16.0731 6.32174 16.142 5.90464 15.9528 5.5761L14.7591 3.50725C14.5699 3.17871 14.1745 3.03046 13.8159 3.15317L12.514 3.60157C11.9866 3.16876 11.3853 2.82666 10.7358 2.58107L10.4714 1.22348C10.3986 0.851397 10.0744 0.583344 9.69523 0.583344H7.30477ZM8.5 5.33334C10.2488 5.33334 11.6667 6.75122 11.6667 8.50001C11.6667 10.2488 10.2488 11.6667 8.5 11.6667C6.75121 11.6667 5.33333 10.2488 5.33333 8.50001C5.33333 6.75122 6.75121 5.33334 8.5 5.33334Z" fill="#001424"/>
</svg>
