<svg width="16" height="16" viewBox="0 0 16 16" fill="none" xmlns="http://www.w3.org/2000/svg">
<path d="M8 1.60001C4.4656 1.60001 1.6 4.46561 1.6 8C1.6 11.5344 4.4656 14.4 8 14.4C11.5344 14.4 14.4 11.5344 14.4 8C14.4 4.46561 11.5344 1.60001 8 1.60001ZM8 12C7.5584 12 7.2 11.6416 7.2 11.2C7.2 10.7584 7.5584 10.4 8 10.4C8.4416 10.4 8.8 10.7584 8.8 11.2C8.8 11.6416 8.4416 12 8 12ZM9.10293 8.26667C8.74987 8.59254 8.53333 8.80641 8.53333 9.06667H7.46666C7.46666 8.32587 7.9728 7.85867 8.3792 7.48267C8.80533 7.08907 9.06666 6.82614 9.06666 6.40001C9.06666 5.81174 8.58826 5.33334 8 5.33334C7.41173 5.33334 6.93333 5.81174 6.93333 6.40001H5.86666C5.86666 5.22347 6.82346 4.26667 8 4.26667C9.17653 4.26667 10.1333 5.22347 10.1333 6.40001C10.1333 7.31467 9.56213 7.84214 9.10293 8.26667Z" fill="#D8D8D8"/>
</svg>
