<svg width="16" height="16" viewBox="0 0 16 16" fill="none" xmlns="http://www.w3.org/2000/svg">
<path d="M7.99998 1.60001C4.46558 1.60001 1.59998 4.46561 1.59998 8C1.59998 11.5344 4.46558 14.4 7.99998 14.4C11.5344 14.4 14.4 11.5344 14.4 8C14.4 4.46561 11.5344 1.60001 7.99998 1.60001ZM7.99998 12C7.55838 12 7.19998 11.6416 7.19998 11.2C7.19998 10.7584 7.55838 10.4 7.99998 10.4C8.44158 10.4 8.79998 10.7584 8.79998 11.2C8.79998 11.6416 8.44158 12 7.99998 12ZM9.10291 8.26667C8.74984 8.59254 8.53331 8.80641 8.53331 9.06667H7.46664C7.46664 8.32587 7.97278 7.85867 8.37918 7.48267C8.80531 7.08907 9.06664 6.82614 9.06664 6.40001C9.06664 5.81174 8.58824 5.33334 7.99998 5.33334C7.41171 5.33334 6.93331 5.81174 6.93331 6.40001H5.86664C5.86664 5.22347 6.82344 4.26667 7.99998 4.26667C9.17651 4.26667 10.1333 5.22347 10.1333 6.40001C10.1333 7.31467 9.56211 7.84214 9.10291 8.26667Z" fill="#04B5D2"/>
</svg>
