<svg width="22" height="17" viewBox="0 0 22 17" fill="none" xmlns="http://www.w3.org/2000/svg">
<path d="M21.9812 15.9275C21.907 9.99708 16.6351 5.16738 10.0751 4.95167V1.83329C10.0751 1.09808 9.45888 0.5 8.70126 0.5C8.36047 0.5 8.03133 0.62675 7.7764 0.85675C7.7764 0.85675 1.98301 6.05796 0.316637 7.67988C0.112707 7.87954 0 8.17033 0 8.49975C0 8.82917 0.112707 9.11996 0.316637 9.32004C1.98301 10.9415 7.7764 16.1428 7.7764 16.1428C8.03133 16.3728 8.36047 16.4995 8.70126 16.4995C9.45884 16.4995 10.0751 15.9014 10.0751 15.1662V12.0583C16.6699 12.1481 21.0662 14.1667 21.0662 16.0551C21.0662 16.3008 21.271 16.4995 21.5242 16.4995C21.5313 16.5004 21.5385 16.4999 21.542 16.4995C21.7952 16.4995 22 16.3007 22 16.0551C22 16.0108 21.9937 15.9678 21.9812 15.9275Z" fill="#02ACC8"/>
</svg>
