<?xml version="1.0" encoding="utf-8"?>
<!-- Generator: Adobe Illustrator 23.0.6, SVG Export Plug-In . SVG Version: 6.00 Build 0)  -->
<svg version="1.1" id="Layer_1" xmlns="http://www.w3.org/2000/svg" xmlns:xlink="http://www.w3.org/1999/xlink" x="0px" y="0px"
	 viewBox="0 0 52 51" style="enable-background:new 0 0 52 51;" xml:space="preserve">
<style type="text/css">
	.st0{fill-rule:evenodd;clip-rule:evenodd;}
	.st1{fill-rule:evenodd;clip-rule:evenodd;fill:#DE350C;}
	.st2{filter:url(#Adobe_OpacityMaskFilter);}
	.st3{fill-rule:evenodd;clip-rule:evenodd;fill:#FFFFFF;}
	.st4{mask:url(#prefix__c_1_);fill-rule:evenodd;clip-rule:evenodd;fill:#BBC1C7;}
	.st5{filter:url(#Adobe_OpacityMaskFilter_1_);}
	.st6{mask:url(#prefix__c_2_);fill-rule:evenodd;clip-rule:evenodd;fill:#BBC1C7;}
	.st7{filter:url(#Adobe_OpacityMaskFilter_2_);}
	.st8{mask:url(#prefix__c_3_);}
	.st9{fill-rule:evenodd;clip-rule:evenodd;fill:#202D3D;}
	.st10{fill-rule:evenodd;clip-rule:evenodd;fill:#F7C6A4;}
	.st11{fill-rule:evenodd;clip-rule:evenodd;fill:#FFD4B6;}
	.st12{filter:url(#Adobe_OpacityMaskFilter_3_);}
	.st13{mask:url(#prefix__f_1_);fill-rule:evenodd;clip-rule:evenodd;fill:#F7C6A4;}
	.st14{fill:none;stroke:#ECAF85;stroke-width:1.6;stroke-linecap:round;}
	.st15{fill:#E2E5EB;stroke:#202D3D;stroke-width:0.8;}
	.st16{filter:url(#Adobe_OpacityMaskFilter_4_);}
	.st17{opacity:0.887;mask:url(#prefix__i_1_);fill-rule:evenodd;clip-rule:evenodd;fill:#FFFFFF;enable-background:new    ;}
	.st18{filter:url(#Adobe_OpacityMaskFilter_5_);}
	.st19{opacity:0.887;mask:url(#prefix__i_2_);fill-rule:evenodd;clip-rule:evenodd;fill:#FFFFFF;enable-background:new    ;}
	.st20{filter:url(#Adobe_OpacityMaskFilter_6_);}
	.st21{opacity:0.887;mask:url(#prefix__m_1_);fill-rule:evenodd;clip-rule:evenodd;fill:#FFFFFF;enable-background:new    ;}
	.st22{filter:url(#Adobe_OpacityMaskFilter_7_);}
	.st23{opacity:0.887;mask:url(#prefix__m_2_);fill-rule:evenodd;clip-rule:evenodd;fill:#FFFFFF;enable-background:new    ;}
</style>
<g transform="translate(.6)">
	<g>
		<circle class="st0" cx="25.2" cy="25.2" r="25.2"/>
	</g>
	<g>
		<circle class="st1" cx="25.2" cy="25.2" r="25.2"/>
	</g>
	<defs>
		<filter id="Adobe_OpacityMaskFilter" filterUnits="userSpaceOnUse" x="11" y="9.4" width="28.4" height="29.1">
			<feColorMatrix  type="matrix" values="1 0 0 0 0  0 1 0 0 0  0 0 1 0 0  0 0 0 1 0"/>
		</filter>
	</defs>
	<mask maskUnits="userSpaceOnUse" x="11" y="9.4" width="28.4" height="29.1" id="prefix__c_1_">
		<g class="st2">
			<circle id="prefix__a_1_" class="st3" cx="25.2" cy="25.2" r="25.2"/>
		</g>
	</mask>
	<path class="st4" d="M25.2,9.4L25.2,9.4c7.8,0,14.2,6.3,14.2,14.2v0.8c0,7.8-6.3,14.2-14.2,14.2l0,0c-7.8,0-14.2-6.3-14.2-14.2
		v-0.8C11,15.8,17.4,9.4,25.2,9.4z"/>
	<defs>
		<filter id="Adobe_OpacityMaskFilter_1_" filterUnits="userSpaceOnUse" x="17.3" y="4.7" width="15.8" height="29.1">
			<feColorMatrix  type="matrix" values="1 0 0 0 0  0 1 0 0 0  0 0 1 0 0  0 0 0 1 0"/>
		</filter>
	</defs>
	<mask maskUnits="userSpaceOnUse" x="17.3" y="4.7" width="15.8" height="29.1" id="prefix__c_2_">
		<g class="st5">
			<circle id="prefix__a_2_" class="st3" cx="25.2" cy="25.2" r="25.2"/>
		</g>
	</mask>
	<path class="st6" d="M22.9,4.7h4.5c3.1,0,5.6,2.5,5.6,5.6v17.9c0,3.1-2.5,5.6-5.6,5.6h-4.5c-3.1,0-5.6-2.5-5.6-5.6V10.3
		C17.3,7.2,19.8,4.7,22.9,4.7z"/>
	<defs>
		<filter id="Adobe_OpacityMaskFilter_2_" filterUnits="userSpaceOnUse" x="7.9" y="12.6" width="36.2" height="44.9">
			<feColorMatrix  type="matrix" values="1 0 0 0 0  0 1 0 0 0  0 0 1 0 0  0 0 0 1 0"/>
		</filter>
	</defs>
	<mask maskUnits="userSpaceOnUse" x="7.9" y="12.6" width="36.2" height="44.9" id="prefix__c_3_">
		<g class="st7">
			<circle id="prefix__a_3_" class="st3" cx="25.2" cy="25.2" r="25.2"/>
		</g>
	</mask>
	<g class="st8">
		<g transform="translate(7.875 14.175)">
			<g>
				<g transform="translate(0 25.2)">
					<g>
						<path id="prefix__d" class="st9" d="M8,0h20.2c4.4,0,8,3.6,8,8v2c0,4.4-3.6,8-8,8L8,18.1c-4.4,0-8-3.6-8-8V8C0,3.6,3.6,0,8,0z
							"/>
					</g>
				</g>
				<circle class="st10" cx="17.3" cy="27.6" r="7.1"/>
				<circle class="st10" cx="3.2" cy="15.2" r="3.1"/>
				<circle class="st10" cx="32" cy="15.2" r="3.2"/>
				<g transform="translate(2.888 .263)">
					<g>
						<path class="st11" d="M13.9,0.5H15c7.5,0,13.6,6.1,13.6,13.6v0.1c0,7.5-6.1,13.6-13.6,13.6h-1.1c-7.5,0-13.6-6.1-13.6-13.6
							v-0.1C0.3,6.6,6.4,0.5,13.9,0.5z"/>
					</g>
					<defs>
						<filter id="Adobe_OpacityMaskFilter_3_" filterUnits="userSpaceOnUse" x="14.4" y="-1.8" width="15.8" height="33.1">
							<feColorMatrix  type="matrix" values="1 0 0 0 0  0 1 0 0 0  0 0 1 0 0  0 0 0 1 0"/>
						</filter>
					</defs>
					<mask maskUnits="userSpaceOnUse" x="14.4" y="-1.8" width="15.8" height="33.1" id="prefix__f_1_">
						<g class="st12">
							<path id="prefix__e_1_" class="st3" d="M13.9,0.5H15c7.5,0,13.6,6.1,13.6,13.6v0.1c0,7.5-6.1,13.6-13.6,13.6h-1.1
								c-7.5,0-13.6-6.1-13.6-13.6v-0.1C0.3,6.6,6.4,0.5,13.9,0.5z"/>
						</g>
					</mask>
					<path class="st13" d="M14.4-1.8h15.8v33.1H14.4V-1.8z"/>
				</g>
				<path class="st14" d="M12.6,19.7c1.3,1.6,2.9,2.4,4.8,2.4c1.9,0,3.5-0.8,4.7-2.4"/>
			</g>
			<path class="st9" d="M2.4,11h29.9v2.4H2.4V11z"/>
			<g transform="translate(5.513 7.088)">
				<circle class="st15" cx="4.7" cy="4.7" r="5.1"/>
				<defs>
					<filter id="Adobe_OpacityMaskFilter_4_" filterUnits="userSpaceOnUse" x="-1.2" y="-1.2" width="13.9" height="13.9">
						<feColorMatrix  type="matrix" values="1 0 0 0 0  0 1 0 0 0  0 0 1 0 0  0 0 0 1 0"/>
					</filter>
				</defs>
				<mask maskUnits="userSpaceOnUse" x="-1.2" y="-1.2" width="13.9" height="13.9" id="prefix__i_1_">
					<g class="st16">
						<circle id="prefix__g_1_" class="st3" cx="4.7" cy="4.7" r="4.7"/>
					</g>
				</mask>
				<path class="st17" d="M11-1.2l1.7,1.7L0.4,12.7L-1.2,11L11-1.2z"/>
				<defs>
					<filter id="Adobe_OpacityMaskFilter_5_" filterUnits="userSpaceOnUse" x="-4" y="-1.2" width="13.6" height="13">
						<feColorMatrix  type="matrix" values="1 0 0 0 0  0 1 0 0 0  0 0 1 0 0  0 0 0 1 0"/>
					</filter>
				</defs>
				<mask maskUnits="userSpaceOnUse" x="-4" y="-1.2" width="13.6" height="13" id="prefix__i_2_">
					<g class="st18">
						<circle id="prefix__g_2_" class="st3" cx="4.7" cy="4.7" r="4.7"/>
					</g>
				</mask>
				<path class="st19" d="M9.6-1.2L8.3-1L-4,11.3l0.6,0.6L9.6-1.2z"/>
			</g>
			<g transform="translate(19.688 7.088)">
				<circle class="st15" cx="4.7" cy="4.7" r="5.1"/>
				<defs>
					<filter id="Adobe_OpacityMaskFilter_6_" filterUnits="userSpaceOnUse" x="-1.2" y="-1.2" width="13.9" height="13.9">
						<feColorMatrix  type="matrix" values="1 0 0 0 0  0 1 0 0 0  0 0 1 0 0  0 0 0 1 0"/>
					</filter>
				</defs>
				<mask maskUnits="userSpaceOnUse" x="-1.2" y="-1.2" width="13.9" height="13.9" id="prefix__m_1_">
					<g class="st20">
						<circle id="prefix__k_1_" class="st3" cx="4.7" cy="4.7" r="4.7"/>
					</g>
				</mask>
				<path class="st21" d="M11-1.2l1.7,1.7L0.4,12.7L-1.2,11L11-1.2z"/>
				<defs>
					<filter id="Adobe_OpacityMaskFilter_7_" filterUnits="userSpaceOnUse" x="-4" y="-1.2" width="13.6" height="13">
						<feColorMatrix  type="matrix" values="1 0 0 0 0  0 1 0 0 0  0 0 1 0 0  0 0 0 1 0"/>
					</filter>
				</defs>
				<mask maskUnits="userSpaceOnUse" x="-4" y="-1.2" width="13.6" height="13" id="prefix__m_2_">
					<g class="st22">
						<circle id="prefix__k_2_" class="st3" cx="4.7" cy="4.7" r="4.7"/>
					</g>
				</mask>
				<path class="st23" d="M9.6-1.2L8.3-1L-4,11.3l0.6,0.6L9.6-1.2z"/>
			</g>
		</g>
	</g>
</g>
</svg>
