<svg xmlns="http://www.w3.org/2000/svg" xmlns:xlink="http://www.w3.org/1999/xlink" width="52" height="51" viewBox="0 0 52 51">
    <defs>
        <filter id="prefix__b" width="173.4%" height="173.4%" x="-36.7%" y="-28.8%" filterUnits="objectBoundingBox">
            <feOffset dy="4" in="SourceAlpha" result="shadowOffsetOuter1"/>
            <feGaussianBlur in="shadowOffsetOuter1" result="shadowBlurOuter1" stdDeviation="5.5"/>
            <feColorMatrix in="shadowBlurOuter1" values="0 0 0 0 0.88627451 0 0 0 0 0.898039216 0 0 0 0 0.921568627 0 0 0 1 0"/>
        </filter>
        <filter id="prefix__h" width="201.6%" height="113.9%" x="-50.8%" y="-6.9%" filterUnits="objectBoundingBox">
            <feGaussianBlur in="SourceGraphic" stdDeviation=".4"/>
        </filter>
        <filter id="prefix__j" width="398.4%" height="113%" x="-149.2%" y="-6.5%" filterUnits="objectBoundingBox">
            <feGaussianBlur in="SourceGraphic" stdDeviation=".4"/>
        </filter>
        <filter id="prefix__l" width="201.6%" height="113.9%" x="-50.8%" y="-6.9%" filterUnits="objectBoundingBox">
            <feGaussianBlur in="SourceGraphic" stdDeviation=".4"/>
        </filter>
        <filter id="prefix__n" width="398.4%" height="113%" x="-149.2%" y="-6.5%" filterUnits="objectBoundingBox">
            <feGaussianBlur in="SourceGraphic" stdDeviation=".4"/>
        </filter>
        <circle id="prefix__a" cx="25.2" cy="25.2" r="25.2"/>
        <circle id="prefix__g" cx="4.725" cy="4.725" r="4.725"/>
        <circle id="prefix__k" cx="4.725" cy="4.725" r="4.725"/>
        <rect id="prefix__e" width="28.35" height="27.3" x=".263" y=".525" rx="13.6"/>
        <path id="prefix__d" d="M7.996 0h20.233c4.416 0 7.996 3.58 7.996 7.996v2.04c0 4.407-3.566 7.983-7.973 7.996l-20.234.058C3.603 18.102.013 14.533 0 10.117V7.996C0 3.58 3.58 0 7.996 0z"/>
    </defs>
    <g fill="none" fill-rule="evenodd" transform="translate(.6)">
        <mask id="prefix__c" fill="#fff">
            <use xlink:href="#prefix__a"/>
        </mask>
        <use fill="#000" filter="url(#prefix__b)" xlink:href="#prefix__a"/>
        <use fill="#DE350C" xlink:href="#prefix__a"/>
        <rect width="28.35" height="29.137" x="11.025" y="9.45" fill="#BBC1C7" mask="url(#prefix__c)" rx="14.175"/>
        <rect width="15.75" height="29.137" x="17.325" y="4.725" fill="#BBC1C7" mask="url(#prefix__c)" rx="5.6"/>
        <g mask="url(#prefix__c)">
            <g transform="translate(7.875 14.175)">
                <g>
                    <g transform="translate(0 25.2)">
                        <use fill="#202D3D" xlink:href="#prefix__d"/>
                    </g>
                    <circle cx="17.325" cy="27.563" r="7.088" fill="#F7C6A4"/>
                    <circle cx="3.15" cy="15.225" r="3.15" fill="#F7C6A4"/>
                    <circle cx="32.025" cy="15.225" r="3.15" fill="#F7C6A4"/>
                    <g transform="translate(2.888 .263)">
                        <mask id="prefix__f" fill="#fff">
                            <use xlink:href="#prefix__e"/>
                        </mask>
                        <use fill="#FFD4B6" xlink:href="#prefix__e"/>
                        <path fill="#F7C6A4" d="M14.438 -1.837H30.188000000000002V31.238000000000003H14.438z" mask="url(#prefix__f)"/>
                    </g>
                    <path stroke="#ECAF85" stroke-linecap="round" stroke-width="1.6" d="M12.6 19.688c1.265 1.575 2.86 2.362 4.784 2.362 1.925 0 3.48-.788 4.666-2.363"/>
                </g>
                <rect width="2.362" height="3.938" x="11.025" y="11.025" fill="#202D3D" rx="1.181"/>
                <path fill="#202D3D" d="M2.362 11.025H32.287V13.387H2.362z"/>
                <g transform="translate(5.513 7.088)">
                    <mask id="prefix__i" fill="#fff">
                        <use xlink:href="#prefix__g"/>
                    </mask>
                    <circle cx="4.725" cy="4.725" r="5.125" stroke="#202D3D" stroke-width=".8"/>
                    <path fill="#FFF" d="M4.554 -2.928L6.916 -2.928 6.916 14.397 4.554 14.397z" filter="url(#prefix__h)" mask="url(#prefix__i)" opacity=".887" transform="rotate(45 5.735 5.735)"/>
                    <path fill="#FFF" d="M2.43 -4.204L3.218 -3.091 3.218 14.234 2.43 14.234z" filter="url(#prefix__j)" mask="url(#prefix__i)" opacity=".887" transform="scale(-1 1) rotate(-45 0 11.832)"/>
                </g>
                <g transform="translate(19.688 7.088)">
                    <mask id="prefix__m" fill="#fff">
                        <use xlink:href="#prefix__k"/>
                    </mask>
                    <circle cx="4.725" cy="4.725" r="5.125" stroke="#202D3D" stroke-width=".8"/>
                    <path fill="#FFF" d="M4.554 -2.928L6.916 -2.928 6.916 14.397 4.554 14.397z" filter="url(#prefix__l)" mask="url(#prefix__m)" opacity=".887" transform="rotate(45 5.735 5.735)"/>
                    <path fill="#FFF" d="M2.43 -4.204L3.218 -3.091 3.218 14.234 2.43 14.234z" filter="url(#prefix__n)" mask="url(#prefix__m)" opacity=".887" transform="scale(-1 1) rotate(-45 0 11.832)"/>
                </g>
            </g>
        </g>
    </g>
</svg>
