<svg id="Слой_1" data-name="Слой 1" xmlns="http://www.w3.org/2000/svg" xmlns:xlink="http://www.w3.org/1999/xlink" viewBox="0 0 183 182"><defs><style>.cls-1,.cls-2,.cls-38{fill:none;}.cls-1{clip-rule:evenodd;}.cls-3{clip-path:url(#clip-path);}.cls-4{clip-path:url(#clip-path-2);}.cls-5{clip-path:url(#clip-path-3);}.cls-6{clip-path:url(#clip-path-4);}.cls-7{clip-path:url(#clip-path-5);}.cls-8{clip-path:url(#clip-path-6);}.cls-9{clip-path:url(#clip-path-7);}.cls-10{isolation:isolate;}.cls-11{clip-path:url(#clip-path-8);}.cls-12{fill:#ff3845;}.cls-13{clip-path:url(#clip-path-9);}.cls-14{clip-path:url(#clip-path-11);}.cls-15{clip-path:url(#clip-path-12);}.cls-16{fill:#202d3d;}.cls-17{clip-path:url(#clip-path-13);}.cls-18{clip-path:url(#clip-path-15);}.cls-19{clip-path:url(#clip-path-16);}.cls-20{fill:#f2f3f7;}.cls-21{clip-path:url(#clip-path-17);}.cls-22{clip-path:url(#clip-path-19);}.cls-23,.cls-35{fill:#fff;}.cls-24{clip-path:url(#clip-path-21);}.cls-25{clip-path:url(#clip-path-23);}.cls-26{clip-path:url(#clip-path-25);}.cls-27{fill:#f7c6a4;}.cls-28{clip-path:url(#clip-path-27);}.cls-29{clip-path:url(#clip-path-29);}.cls-30{clip-path:url(#clip-path-31);}.cls-31{clip-path:url(#clip-path-32);}.cls-32{clip-path:url(#clip-path-33);}.cls-33{fill:#001424;}.cls-34{clip-path:url(#clip-path-35);}.cls-35{opacity:0.2;}.cls-36{clip-path:url(#clip-path-37);}.cls-37{fill:#6e7782;}.cls-38{stroke:#ecaf85;stroke-linecap:round;stroke-miterlimit:10;stroke-width:1.6px;}.cls-39{clip-path:url(#clip-path-40);}.cls-40{clip-path:url(#clip-path-42);}.cls-41{clip-path:url(#clip-path-44);}.cls-42{clip-path:url(#clip-path-46);}.cls-43{clip-path:url(#clip-path-48);}.cls-44{clip-path:url(#clip-path-49);}.cls-45{clip-path:url(#clip-path-50);}.cls-46{clip-path:url(#clip-path-52);}.cls-47{clip-path:url(#clip-path-54);}.cls-48{clip-path:url(#clip-path-55);}.cls-49{clip-path:url(#clip-path-56);}.cls-50{clip-path:url(#clip-path-57);}.cls-51{clip-path:url(#clip-path-58);}.cls-52{clip-path:url(#clip-path-59);}</style><clipPath id="clip-path"><path class="cls-1" d="M63.24,1618.33H74.13A10.9,10.9,0,0,1,85,1629.22H52.35A10.9,10.9,0,0,1,63.24,1618.33Z"/></clipPath><clipPath id="clip-path-2"><path class="cls-1" d="M110.42,1618.33h10.89a10.89,10.89,0,0,1,10.88,10.89H99.53A10.9,10.9,0,0,1,110.42,1618.33Z"/></clipPath><clipPath id="clip-path-3"><path class="cls-1" d="M66.87,1669.14h25.4a29,29,0,0,1-29,29H37.84A29,29,0,0,1,66.87,1669.14Z"/></clipPath><clipPath id="clip-path-4"><path class="cls-1" d="M117.68,1669.14H92.27a29,29,0,0,0,29,29h25.4A29,29,0,0,0,117.68,1669.14Z"/></clipPath><clipPath id="clip-path-5"><path class="cls-1" d="M70,1115.4H84.43v7.25H70a3.63,3.63,0,0,1,0-7.25Z"/></clipPath><clipPath id="clip-path-6"><path class="cls-1" d="M125,1115.4H110.51v7.25H125a3.63,3.63,0,0,0,0-7.25Z"/></clipPath><clipPath id="clip-path-7"><circle class="cls-2" cx="91.02" cy="90.95" r="90.95"/></clipPath><clipPath id="clip-path-8"><rect class="cls-2" x="0.07" width="181.9" height="181.9"/></clipPath><clipPath id="clip-path-9"><path class="cls-1" d="M134.7,141.89H47.2a29,29,0,0,0,0,57.94l87.48.2a29,29,0,0,0,29.1-29V171A29.08,29.08,0,0,0,134.7,141.89Z"/></clipPath><clipPath id="clip-path-11"><rect class="cls-2" x="0.07" y="123.69" width="181.9" height="94.59"/></clipPath><clipPath id="clip-path-12"><rect class="cls-2" x="18.26" y="138.25" width="145.52" height="43.66"/></clipPath><clipPath id="clip-path-13"><rect class="cls-2" x="61.92" y="138.25" width="58.21" height="47.3"/></clipPath><clipPath id="clip-path-15"><rect class="cls-2" x="43.73" y="120.06" width="94.59" height="83.68"/></clipPath><clipPath id="clip-path-16"><rect class="cls-2" x="61.92" y="138.25" width="58.21" height="43.66"/></clipPath><clipPath id="clip-path-17"><rect class="cls-2" x="83.3" y="145.08" width="15.44" height="15.44" rx="3.64" transform="translate(-81.39 109.11) rotate(-45)"/></clipPath><clipPath id="clip-path-19"><path class="cls-1" d="M111,160.08a16.38,16.38,0,0,0,0-32.75c-6.33,0-16.92,8.3-19.64,13.57-1.17,2.25-.37-2.71-.37,0C91,149.94,102,160.08,111,160.08Z"/></clipPath><clipPath id="clip-path-21"><path class="cls-1" d="M71,160.08a16.38,16.38,0,0,1,0-32.75c6.34,0,16.93,8.3,19.65,13.57,1.16,2.25.73-2.71.73,0C91.39,149.94,80.05,160.08,71,160.08Z"/></clipPath><clipPath id="clip-path-23"><path class="cls-1" d="M98.7,168.83,93,165.06a3.62,3.62,0,0,0-4,0l-5.65,3.77a7.26,7.26,0,0,0-3.24,6v10.66a7.28,7.28,0,0,0,7.27,7.28h7.28a7.28,7.28,0,0,0,7.28-7.28V174.88A7.28,7.28,0,0,0,98.7,168.83Z"/></clipPath><clipPath id="clip-path-25"><circle class="cls-2" cx="145.59" cy="94.59" r="10.91"/></clipPath><clipPath id="clip-path-27"><circle class="cls-2" cx="36.45" cy="94.59" r="10.91"/></clipPath><clipPath id="clip-path-29"><rect class="cls-2" x="36.45" y="43.66" width="109.14" height="101.87" rx="37.84"/></clipPath><clipPath id="clip-path-31"><rect class="cls-2" x="14.62" y="25.47" width="152.8" height="138.25"/></clipPath><clipPath id="clip-path-32"><rect class="cls-2" x="36.45" y="43.66" width="109.14" height="101.87"/></clipPath><clipPath id="clip-path-33"><path class="cls-1" d="M152.87,29.1a14.55,14.55,0,0,0-14.55,14.56v40a14.55,14.55,0,1,0,29.1,0v-40A14.55,14.55,0,0,0,152.87,29.1Z"/></clipPath><clipPath id="clip-path-35"><rect class="cls-2" x="36.45" y="32.74" width="54.57" height="120.06"/></clipPath><clipPath id="clip-path-37"><path class="cls-1" d="M29.17,29.1A14.56,14.56,0,0,0,14.62,43.66v40a14.56,14.56,0,0,0,29.11,0v-40A14.56,14.56,0,0,0,29.17,29.1Z"/></clipPath><clipPath id="clip-path-40"><path class="cls-1" d="M51,32.74A14.56,14.56,0,0,0,36.45,47.3V80h7.28V63.3a8.73,8.73,0,0,1,8.13-8.71l.6,0h77.13a8.73,8.73,0,0,1,8.73,8.73V80h7.27V32.74Z"/></clipPath><clipPath id="clip-path-42"><path class="cls-1" d="M51,32.74A14.56,14.56,0,0,0,36.45,47.3V80h7.28V63.3a8.73,8.73,0,0,1,8.13-8.71l.6,0h2.18V32.74Z"/></clipPath><clipPath id="clip-path-44"><path class="cls-1" d="M113.58,83.68A4.37,4.37,0,0,0,109.21,88v5.82a4.37,4.37,0,1,0,8.73,0V88A4.36,4.36,0,0,0,113.58,83.68Z"/></clipPath><clipPath id="clip-path-46"><path class="cls-1" d="M69.92,83.68A4.36,4.36,0,0,0,65.56,88v5.82a4.37,4.37,0,1,0,8.73,0V88A4.37,4.37,0,0,0,69.92,83.68Z"/></clipPath><clipPath id="clip-path-48"><path class="cls-1" d="M69.19,18.19H131a14.55,14.55,0,0,1,14.55,14.55v3.64A14.54,14.54,0,0,1,131,50.93H69.19A14.55,14.55,0,0,1,54.64,36.38V32.74A14.56,14.56,0,0,1,69.19,18.19Z"/></clipPath><clipPath id="clip-path-49"><rect class="cls-2" x="-1396.95" y="-312.88" width="2368.39" height="7003.31"/></clipPath><clipPath id="clip-path-50"><path class="cls-1" d="M63.37,72.76H77.93V80H63.37a3.64,3.64,0,1,1,0-7.28Z"/></clipPath><clipPath id="clip-path-52"><path class="cls-1" d="M118.67,65.49H104.12v7.27h14.55a3.64,3.64,0,1,0,0-7.27Z"/></clipPath><clipPath id="clip-path-54"><path class="cls-1" d="M80.44,282.85c-23.81,0-43.1,19.56-43.1,43.7V348.4q17.34-3.19,26.89-15.63a38.34,38.34,0,0,0,5.35-9.45,39.84,39.84,0,0,0,11,13.82,36.38,36.38,0,0,0,24.17,8.08l40.31-.62V326.55c0-24.14-19.29-43.7-43.09-43.7Z"/></clipPath><clipPath id="clip-path-55"><path class="cls-1" d="M80.44,373.89H102a10.78,10.78,0,1,1-21.55,0Z"/></clipPath><clipPath id="clip-path-56"><rect class="cls-2" x="33.96" y="1387.2" width="10.91" height="3.63"/></clipPath><clipPath id="clip-path-57"><rect class="cls-2" x="139.38" y="1387.2" width="10.91" height="3.63"/></clipPath><clipPath id="clip-path-58"><ellipse class="cls-2" cx="64.86" cy="1389.02" rx="19.99" ry="19.96"/></clipPath><clipPath id="clip-path-59"><ellipse class="cls-2" cx="119.38" cy="1389.02" rx="19.99" ry="19.96"/></clipPath></defs><g class="cls-9"><g class="cls-10"><g class="cls-11"><rect class="cls-12" x="-18.12" y="-18.19" width="218.29" height="218.29"/></g><g class="cls-13"><g class="cls-11"><g class="cls-10"><g class="cls-14"><g class="cls-15"><rect class="cls-16" x="0.07" y="123.69" width="181.9" height="94.52"/></g></g></g></g></g><g class="cls-17"><g class="cls-11"><g class="cls-10"><g class="cls-18"><g class="cls-19"><rect class="cls-20" x="43.73" y="120.06" width="94.59" height="83.68"/></g><g class="cls-21"><g class="cls-19"><rect class="cls-16" x="63.42" y="125.2" width="55.2" height="55.2"/></g></g><g class="cls-22"><g class="cls-19"><rect class="cls-23" x="72.56" y="109.14" width="73.03" height="69.12"/></g></g><g class="cls-24"><g class="cls-19"><rect class="cls-23" x="36.45" y="109.14" width="73.21" height="69.12"/></g></g></g></g></g></g><g class="cls-25"><g class="cls-11"><rect class="cls-16" x="61.92" y="146.26" width="58.21" height="64.75"/></g></g><g class="cls-26"><g class="cls-11"><rect class="cls-27" x="116.49" y="65.49" width="58.21" height="58.21"/></g></g><g class="cls-28"><g class="cls-11"><rect class="cls-27" x="7.35" y="65.49" width="58.21" height="58.21"/></g></g><g class="cls-29"><g class="cls-11"><g class="cls-10"><g class="cls-30"><g class="cls-31"><rect class="cls-27" x="18.26" y="25.47" width="145.52" height="138.25"/></g><g class="cls-32"><g class="cls-31"><rect class="cls-33" x="120.13" y="10.91" width="65.49" height="105.5"/></g></g><g class="cls-34"><g class="cls-31"><rect class="cls-35" x="18.26" y="14.55" width="90.95" height="156.44"/></g></g><g class="cls-36"><g class="cls-31"><rect class="cls-37" x="-3.57" y="10.91" width="65.49" height="105.5"/></g></g></g></g></g></g><g class="cls-11"><path class="cls-38" d="M109.21,121.88h0Z"/></g><g class="cls-39"><g class="cls-11"><rect class="cls-33" x="18.26" y="14.55" width="145.52" height="83.68"/></g></g><g class="cls-40"><g class="cls-11"><rect class="cls-37" x="18.26" y="14.55" width="54.57" height="83.68"/></g></g><g class="cls-41"><g class="cls-11"><rect class="cls-16" x="91.02" y="65.49" width="45.11" height="50.93"/></g></g><g class="cls-42"><g class="cls-11"><rect class="cls-16" x="47.37" y="65.49" width="45.11" height="50.93"/></g></g></g></g><g class="cls-43"><g class="cls-44"><rect class="cls-33" x="36.45" width="127.33" height="69.12"/></g></g><g class="cls-45"><g class="cls-44"><rect class="cls-16" x="41.54" y="54.57" width="54.57" height="43.66"/></g></g><g class="cls-46"><g class="cls-44"><rect class="cls-16" x="85.93" y="47.3" width="54.57" height="43.66"/></g></g></svg>