<svg id="Слой_1" data-name="Слой 1" xmlns="http://www.w3.org/2000/svg" xmlns:xlink="http://www.w3.org/1999/xlink" viewBox="0 0 183 182"><defs><style>.cls-1,.cls-2,.cls-24,.cls-28,.cls-3{fill:none;}.cls-2{clip-rule:evenodd;}.cls-3{fill-rule:evenodd;}.cls-4{clip-path:url(#clip-path);}.cls-5{isolation:isolate;}.cls-6{clip-path:url(#clip-path-2);}.cls-7{fill:#de350c;}.cls-8{clip-path:url(#clip-path-3);}.cls-9{fill:#bbc1c7;}.cls-10{clip-path:url(#clip-path-5);}.cls-11{clip-path:url(#clip-path-7);}.cls-12{clip-path:url(#clip-path-9);}.cls-13{clip-path:url(#clip-path-10);}.cls-14{fill:#202d3d;}.cls-15{clip-path:url(#clip-path-11);}.cls-16{fill:#f7c6a4;}.cls-17{clip-path:url(#clip-path-13);}.cls-18{clip-path:url(#clip-path-15);}.cls-19{clip-path:url(#clip-path-17);}.cls-20{clip-path:url(#clip-path-19);}.cls-21{clip-path:url(#clip-path-20);}.cls-22{fill:#ffd4b6;}.cls-23{clip-path:url(#clip-path-21);}.cls-24{stroke:#ecaf85;stroke-linecap:round;}.cls-24,.cls-28{stroke-miterlimit:10;stroke-width:1.6px;}.cls-25{clip-path:url(#clip-path-24);}.cls-26{clip-path:url(#clip-path-26);}.cls-27{clip-path:url(#clip-path-28);}.cls-28{stroke:#202d3d;}.cls-29{clip-path:url(#clip-path-30);}.cls-30{clip-path:url(#clip-path-32);}.cls-31{clip-path:url(#clip-path-33);}.cls-32{fill:#e2e5eb;}.cls-33{clip-path:url(#clip-path-36);}.cls-34,.cls-42{fill:#fff;}.cls-34{opacity:0.89;}.cls-35{clip-path:url(#clip-path-38);}.cls-36{clip-path:url(#clip-path-40);}.cls-37{clip-path:url(#clip-path-42);}.cls-38{clip-path:url(#clip-path-44);}.cls-39{clip-path:url(#clip-path-45);}.cls-40{clip-path:url(#clip-path-48);}.cls-41{clip-path:url(#clip-path-50);}.cls-43{clip-path:url(#clip-path-52);}.cls-44{clip-path:url(#clip-path-53);}.cls-45{clip-path:url(#clip-path-54);}.cls-46{clip-path:url(#clip-path-55);}.cls-47{clip-path:url(#clip-path-56);}.cls-48{clip-path:url(#clip-path-57);}.cls-49{clip-path:url(#clip-path-58);}.cls-50{clip-path:url(#clip-path-59);}.cls-51{clip-path:url(#clip-path-60);}.cls-52{clip-path:url(#clip-path-61);}.cls-53{clip-path:url(#clip-path-62);}.cls-54{clip-path:url(#clip-path-63);}.cls-55{clip-path:url(#clip-path-64);}.cls-56{clip-path:url(#clip-path-65);}.cls-57{clip-path:url(#clip-path-66);}</style><clipPath id="clip-path"><ellipse class="cls-1" cx="91.12" cy="90.87" rx="90.88" ry="90.87"/></clipPath><clipPath id="clip-path-2"><rect class="cls-1" x="0.24" width="183.92" height="183.91"/></clipPath><clipPath id="clip-path-3"><path class="cls-1" d="M77.51,34.08h27.23a37.51,37.51,0,0,1,37.51,37.51v30.06a37.5,37.5,0,0,1-37.5,37.5H77.51A37.51,37.51,0,0,1,40,101.65V71.58A37.5,37.5,0,0,1,77.51,34.08Z"/></clipPath><clipPath id="clip-path-5"><path class="cls-1" d="M82.92,17H99.33a20.2,20.2,0,0,1,20.2,20.2v64.68a20.19,20.19,0,0,1-20.19,20.19H82.92a20.2,20.2,0,0,1-20.2-20.2V37.23A20.19,20.19,0,0,1,82.92,17Z"/></clipPath><clipPath id="clip-path-7"><path class="cls-2" d="M57.48,142h73a28.83,28.83,0,0,1,28.83,28.83v7.36A28.84,28.84,0,0,1,130.53,207l-73,.2a28.83,28.83,0,0,1-28.92-28.75v-7.65A28.84,28.84,0,0,1,57.48,142Z"/></clipPath><clipPath id="clip-path-9"><rect class="cls-1" x="7.46" y="122.61" width="173.1" height="104.58"/></clipPath><clipPath id="clip-path-10"><rect class="cls-1" x="25.49" y="140.64" width="137.04" height="43.27"/></clipPath><clipPath id="clip-path-11"><circle class="cls-1" cx="91.12" cy="150.51" r="25.56" transform="matrix(0, -1, 1, 0, -59.51, 241.42)"/></clipPath><clipPath id="clip-path-13"><circle class="cls-1" cx="40" cy="106.02" r="11.36"/></clipPath><clipPath id="clip-path-15"><circle class="cls-1" cx="144.13" cy="106.02" r="11.36" transform="translate(37.66 249.82) rotate(-89.82)"/></clipPath><clipPath id="clip-path-17"><rect class="cls-1" x="40" y="53.96" width="102.24" height="98.45" rx="49.05"/></clipPath><clipPath id="clip-path-19"><rect class="cls-1" x="21.88" y="32.45" width="140.64" height="140.64"/></clipPath><clipPath id="clip-path-20"><rect class="cls-1" x="39.91" y="50.49" width="104.58" height="104.58"/></clipPath><clipPath id="clip-path-21"><rect class="cls-1" x="91.12" y="45.44" width="56.8" height="119.27"/></clipPath><clipPath id="clip-path-24"><path class="cls-2" d="M72.66,90.87a4.26,4.26,0,0,1,4.26,4.26v5.68a4.26,4.26,0,0,1-8.52,0V95.13A4.26,4.26,0,0,1,72.66,90.87Z"/></clipPath><clipPath id="clip-path-26"><rect class="cls-1" x="37.16" y="90.87" width="107.92" height="8.52"/></clipPath><clipPath id="clip-path-28"><path class="cls-2" d="M65.56,110.75a17,17,0,1,0-17-17A17,17,0,0,0,65.56,110.75ZM19.67,47.83h91.78V139.6H19.67Z"/></clipPath><clipPath id="clip-path-30"><circle class="cls-1" cx="65.56" cy="93.71" r="17.04" transform="translate(-0.19 0.13) rotate(-0.12)"/></clipPath><clipPath id="clip-path-32"><rect class="cls-1" x="18.27" y="46.88" width="93.76" height="93.76"/></clipPath><clipPath id="clip-path-33"><rect class="cls-1" x="47.13" y="75.73" width="36.06" height="36.06"/></clipPath><clipPath id="clip-path-36"><rect class="cls-1" x="37.97" y="93.1" width="62.48" height="8.52" transform="translate(-48.57 77.45) rotate(-45)"/></clipPath><clipPath id="clip-path-38"><polygon class="cls-2" points="83.22 72.25 78.37 73.09 34.19 117.26 36.2 119.27 83.22 72.25"/></clipPath><clipPath id="clip-path-40"><path class="cls-2" d="M116.68,110.75a17,17,0,1,0-17-17A17,17,0,0,0,116.68,110.75ZM70.79,47.83h91.78V139.6H70.79Z"/></clipPath><clipPath id="clip-path-42"><circle class="cls-1" cx="116.68" cy="93.71" r="17.04" transform="translate(-0.19 0.24) rotate(-0.12)"/></clipPath><clipPath id="clip-path-44"><rect class="cls-1" x="68.76" y="46.88" width="97.37" height="93.76"/></clipPath><clipPath id="clip-path-45"><rect class="cls-1" x="97.61" y="75.73" width="39.67" height="36.06"/></clipPath><clipPath id="clip-path-48"><rect class="cls-1" x="89.08" y="93.1" width="62.48" height="8.52" transform="translate(-33.6 113.6) rotate(-45)"/></clipPath><clipPath id="clip-path-50"><polygon class="cls-2" points="134.34 72.25 129.49 73.09 85.31 117.26 87.32 119.27 134.34 72.25"/></clipPath><clipPath id="clip-path-52"><path class="cls-2" d="M63.24,832.33H74.13A10.9,10.9,0,0,1,85,843.22H52.35A10.9,10.9,0,0,1,63.24,832.33Z"/></clipPath><clipPath id="clip-path-53"><path class="cls-2" d="M110.42,832.33h10.89a10.89,10.89,0,0,1,10.88,10.89H99.53A10.9,10.9,0,0,1,110.42,832.33Z"/></clipPath><clipPath id="clip-path-54"><path class="cls-2" d="M66.87,883.14h25.4a29,29,0,0,1-29,29H37.84A29,29,0,0,1,66.87,883.14Z"/></clipPath><clipPath id="clip-path-55"><path class="cls-2" d="M117.68,883.14H92.27a29,29,0,0,0,29,29h25.4A29,29,0,0,0,117.68,883.14Z"/></clipPath><clipPath id="clip-path-56"><path class="cls-2" d="M70,329.4H84.43v7.25H70a3.63,3.63,0,0,1,0-7.25Z"/></clipPath><clipPath id="clip-path-57"><path class="cls-2" d="M125,329.4H110.51v7.25H125a3.63,3.63,0,0,0,0-7.25Z"/></clipPath><clipPath id="clip-path-58"><path class="cls-2" d="M69.19-767.81H131a14.55,14.55,0,0,1,14.55,14.55v3.64A14.54,14.54,0,0,1,131-735.07H69.19a14.55,14.55,0,0,1-14.55-14.55v-3.64A14.56,14.56,0,0,1,69.19-767.81Z"/></clipPath><clipPath id="clip-path-59"><path class="cls-2" d="M63.37-713.24H77.93V-706H63.37a3.64,3.64,0,0,1-3.64-3.64A3.64,3.64,0,0,1,63.37-713.24Z"/></clipPath><clipPath id="clip-path-60"><path class="cls-2" d="M118.67-720.51H104.12v7.27h14.55a3.64,3.64,0,0,0,3.64-3.64A3.63,3.63,0,0,0,118.67-720.51Z"/></clipPath><clipPath id="clip-path-61"><path class="cls-2" d="M80.44-503.15c-23.81,0-43.1,19.56-43.1,43.7v21.85q17.34-3.19,26.89-15.63a38.34,38.34,0,0,0,5.35-9.45,39.84,39.84,0,0,0,11,13.82,36.38,36.38,0,0,0,24.17,8.08l40.31-.62v-18.05c0-24.14-19.29-43.7-43.09-43.7Z"/></clipPath><clipPath id="clip-path-62"><path class="cls-2" d="M80.44-412.11H102a10.85,10.85,0,0,1-10.78,10.92A10.85,10.85,0,0,1,80.44-412.11Z"/></clipPath><clipPath id="clip-path-63"><rect class="cls-1" x="33.96" y="601.2" width="10.91" height="3.63"/></clipPath><clipPath id="clip-path-64"><rect class="cls-1" x="139.38" y="601.2" width="10.91" height="3.63"/></clipPath><clipPath id="clip-path-65"><ellipse class="cls-1" cx="64.86" cy="603.02" rx="19.99" ry="19.96"/></clipPath><clipPath id="clip-path-66"><ellipse class="cls-1" cx="119.38" cy="603.02" rx="19.99" ry="19.96"/></clipPath></defs><g class="cls-4"><g class="cls-5"><g class="cls-6"><rect class="cls-7" x="-17.79" y="-18.03" width="217.82" height="217.81"/></g><g class="cls-8"><g class="cls-6"><rect class="cls-9" x="21.97" y="16.05" width="138.3" height="141.13"/></g></g><g class="cls-10"><g class="cls-6"><rect class="cls-9" x="44.69" y="-0.99" width="92.86" height="141.13"/></g></g><g class="cls-11"><g class="cls-6"><g class="cls-5"><g class="cls-12"><g class="cls-13"><rect class="cls-14" x="10.61" y="123.96" width="166.7" height="101.29"/></g></g></g></g></g><g class="cls-15"><g class="cls-6"><rect class="cls-16" x="47.53" y="106.92" width="87.18" height="87.18"/></g></g><g class="cls-17"><g class="cls-6"><rect class="cls-16" x="10.61" y="76.63" width="58.78" height="58.78"/></g></g><g class="cls-18"><g class="cls-6"><rect class="cls-16" x="114.74" y="76.63" width="58.78" height="58.78"/></g></g><g class="cls-19"><g class="cls-6"><g class="cls-5"><g class="cls-20"><g class="cls-21"><rect class="cls-22" x="21.97" y="35.93" width="138.3" height="134.51"/></g><g class="cls-23"><g class="cls-21"><rect class="cls-16" x="73.09" y="27.41" width="92.86" height="155.33"/></g></g></g></g></g></g><g class="cls-6"><path class="cls-24" d="M74.08,122.11q6.84,8.52,17.26,8.52a20.08,20.08,0,0,0,16.82-8.52"/></g><g class="cls-25"><g class="cls-6"><rect class="cls-14" x="50.37" y="72.84" width="44.58" height="50.26"/></g></g><g class="cls-26"><g class="cls-6"><rect class="cls-14" x="19.13" y="72.84" width="143.98" height="44.58"/></g></g><g class="cls-27"><g class="cls-6"><circle class="cls-28" cx="65.56" cy="93.71" r="17.04"/></g></g><g class="cls-29"><g class="cls-6"><g class="cls-5"><g class="cls-30"><g class="cls-31"><rect class="cls-32" x="30.49" y="58.64" width="70.14" height="70.14"/></g><g class="cls-27"><g class="cls-31"><circle class="cls-28" cx="65.56" cy="93.71" r="17.04"/></g></g><g class="cls-33"><g class="cls-31"><rect class="cls-34" x="19.93" y="75.06" width="98.54" height="44.58" transform="translate(-48.57 77.45) rotate(-45)"/></g></g><g class="cls-35"><g class="cls-31"><rect class="cls-34" x="7.43" y="75.31" width="102.56" height="38.9" transform="translate(-49.81 69.27) rotate(-45)"/></g></g></g></g></g></g><g class="cls-36"><g class="cls-6"><circle class="cls-28" cx="116.68" cy="93.71" r="17.04"/></g></g><g class="cls-37"><g class="cls-6"><g class="cls-5"><g class="cls-38"><g class="cls-39"><rect class="cls-32" x="81.61" y="58.64" width="70.14" height="70.14"/></g><g class="cls-36"><g class="cls-39"><circle class="cls-28" cx="116.68" cy="93.71" r="17.04"/></g></g><g class="cls-40"><g class="cls-39"><rect class="cls-34" x="71.05" y="75.06" width="98.54" height="44.58" transform="translate(-33.6 113.6) rotate(-45)"/></g></g><g class="cls-41"><g class="cls-39"><rect class="cls-34" x="58.55" y="75.31" width="102.56" height="38.9" transform="translate(-34.84 105.42) rotate(-45)"/></g></g></g></g></g></g></g></g><path class="cls-42" d="M45,108.89c-.7-3.29-3.27-5.54-5.74-5s-3.84,3.47-3.26,6.69a3,3,0,0,0-.54,2.43L39,129.91a3.06,3.06,0,0,0,6-1.26l-2.74-13C44.45,114.87,45.66,112,45,108.89Z"/></svg>