<svg id="Слой_1" data-name="Слой 1" xmlns="http://www.w3.org/2000/svg" xmlns:xlink="http://www.w3.org/1999/xlink" viewBox="0 0 183 182"><defs><style>.cls-1,.cls-2,.cls-21,.cls-3{fill:none;}.cls-1{clip-rule:evenodd;}.cls-3{fill-rule:evenodd;}.cls-4{clip-path:url(#clip-path);}.cls-5{clip-path:url(#clip-path-2);}.cls-6{clip-path:url(#clip-path-3);}.cls-7{clip-path:url(#clip-path-4);}.cls-8{clip-path:url(#clip-path-5);}.cls-9{clip-path:url(#clip-path-6);}.cls-10{clip-path:url(#clip-path-7);}.cls-11{clip-path:url(#clip-path-8);}.cls-12{clip-path:url(#clip-path-9);}.cls-13{clip-path:url(#clip-path-10);}.cls-14{isolation:isolate;}.cls-15{clip-path:url(#clip-path-11);}.cls-16{fill:#ff4b4b;}.cls-17{clip-path:url(#clip-path-12);}.cls-18{clip-path:url(#clip-path-14);}.cls-19{clip-path:url(#clip-path-16);}.cls-20{fill:#001424;}.cls-21{stroke:#001424;stroke-miterlimit:10;stroke-width:4px;}.cls-22{clip-path:url(#clip-path-18);}.cls-23{clip-path:url(#clip-path-20);}.cls-24{clip-path:url(#clip-path-22);}.cls-25{clip-path:url(#clip-path-24);}.cls-26{clip-path:url(#clip-path-25);}.cls-27{fill:#202d3d;}.cls-28{clip-path:url(#clip-path-26);}.cls-29{clip-path:url(#clip-path-28);}.cls-30{clip-path:url(#clip-path-30);}.cls-31{fill:#fcba9b;}.cls-32{clip-path:url(#clip-path-32);}.cls-33{fill:#e09e7f;}.cls-34{clip-path:url(#clip-path-34);}.cls-35{clip-path:url(#clip-path-36);}.cls-36{clip-path:url(#clip-path-37);}.cls-37{fill:#f7c6a4;}.cls-38{clip-path:url(#clip-path-38);}.cls-39{clip-path:url(#clip-path-40);}.cls-40{fill:#ffd4b6;}.cls-41{clip-path:url(#clip-path-42);}.cls-42{clip-path:url(#clip-path-44);}.cls-43{clip-path:url(#clip-path-46);}.cls-44{clip-path:url(#clip-path-47);}.cls-45{clip-path:url(#clip-path-48);}.cls-46{clip-path:url(#clip-path-49);}.cls-47{fill:#a86ea7;}.cls-48{clip-path:url(#clip-path-50);}.cls-49{fill:#fff;}.cls-50{clip-path:url(#clip-path-52);}.cls-51{clip-path:url(#clip-path-53);}.cls-52{clip-path:url(#clip-path-54);}.cls-53{clip-path:url(#clip-path-55);}</style><clipPath id="clip-path"><path class="cls-1" d="M63.24,1357.33H74.13A10.9,10.9,0,0,1,85,1368.22H52.35A10.9,10.9,0,0,1,63.24,1357.33Z"/></clipPath><clipPath id="clip-path-2"><path class="cls-1" d="M110.42,1357.33h10.89a10.89,10.89,0,0,1,10.88,10.89H99.53A10.9,10.9,0,0,1,110.42,1357.33Z"/></clipPath><clipPath id="clip-path-3"><path class="cls-1" d="M66.87,1408.14h25.4a29,29,0,0,1-29,29H37.84A29,29,0,0,1,66.87,1408.14Z"/></clipPath><clipPath id="clip-path-4"><path class="cls-1" d="M117.68,1408.14H92.27a29,29,0,0,0,29,29h25.4A29,29,0,0,0,117.68,1408.14Z"/></clipPath><clipPath id="clip-path-5"><path class="cls-1" d="M70,854.4H84.43v7.25H70a3.63,3.63,0,0,1,0-7.25Z"/></clipPath><clipPath id="clip-path-6"><path class="cls-1" d="M125,854.4H110.51v7.25H125a3.63,3.63,0,0,0,0-7.25Z"/></clipPath><clipPath id="clip-path-7"><path class="cls-1" d="M69.19-242.81H131a14.55,14.55,0,0,1,14.55,14.55v3.64A14.54,14.54,0,0,1,131-210.07H69.19a14.55,14.55,0,0,1-14.55-14.55v-3.64A14.56,14.56,0,0,1,69.19-242.81Z"/></clipPath><clipPath id="clip-path-8"><path class="cls-1" d="M63.37-188.24H77.93V-181H63.37a3.64,3.64,0,0,1-3.64-3.64A3.64,3.64,0,0,1,63.37-188.24Z"/></clipPath><clipPath id="clip-path-9"><path class="cls-1" d="M118.67-195.51H104.12v7.27h14.55a3.64,3.64,0,0,0,3.64-3.64A3.63,3.63,0,0,0,118.67-195.51Z"/></clipPath><clipPath id="clip-path-10"><ellipse class="cls-2" cx="91.21" cy="91.04" rx="89.79" ry="91.04"/></clipPath><clipPath id="clip-path-11"><rect class="cls-2" x="1.42" width="179.58" height="182.07"/></clipPath><clipPath id="clip-path-12"><path class="cls-1" d="M109.17,14.57H73.25c-23.8,0-43.09,19.56-43.09,43.69v7.29C30.16,85.66,46.24,102,66.07,102h50.28c19.84,0,35.92-16.3,35.92-36.41V58.26C152.27,34.13,133,14.57,109.17,14.57Z"/></clipPath><clipPath id="clip-path-14"><rect class="cls-2" x="-41.67" y="-58.26" width="265.77" height="233.05"/></clipPath><clipPath id="clip-path-16"><rect class="cls-2" x="30.16" y="14.57" width="122.11" height="87.39"/></clipPath><clipPath id="clip-path-18"><path class="cls-1" d="M44.52,72.83h-18a7.24,7.24,0,0,0-7.19,7.28V105.6a7.25,7.25,0,0,0,7.19,7.29h18a7.25,7.25,0,0,0,7.19-7.29V80.11A7.24,7.24,0,0,0,44.52,72.83Z"/></clipPath><clipPath id="clip-path-20"><path class="cls-1" d="M155.86,72.83h-18a7.23,7.23,0,0,0-7.18,7.28V105.6a7.24,7.24,0,0,0,7.18,7.29h18A7.24,7.24,0,0,0,163,105.6V80.11A7.23,7.23,0,0,0,155.86,72.83Z"/></clipPath><clipPath id="clip-path-22"><path class="cls-1" d="M130.72,142H51.54a29,29,0,0,0,0,58l79.18.19a28.86,28.86,0,0,0,28.73-29v-.07A28.93,28.93,0,0,0,130.72,142Z"/></clipPath><clipPath id="clip-path-24"><rect class="cls-2" x="5.02" y="101.96" width="172.39" height="116.53"/></clipPath><clipPath id="clip-path-25"><rect class="cls-2" x="22.97" y="138.38" width="136.48" height="43.7"/></clipPath><clipPath id="clip-path-26"><rect class="cls-2" x="127.13" y="138.38" width="28.73" height="54.62"/></clipPath><clipPath id="clip-path-28"><rect class="cls-2" x="26.57" y="138.38" width="28.73" height="54.62"/></clipPath><clipPath id="clip-path-30"><ellipse class="cls-2" cx="91.21" cy="134.73" rx="32.32" ry="32.77"/></clipPath><clipPath id="clip-path-32"><path class="cls-1" d="M91.21,94.68a18.08,18.08,0,0,0-18,18.21V142a18,18,0,1,0,35.92,0V112.89A18.08,18.08,0,0,0,91.21,94.68Z"/></clipPath><clipPath id="clip-path-34"><path class="cls-1" d="M98.4,29.13H84c-23.8,0-43.1,19.57-43.1,43.7V91c0,28.15,22.51,51,50.28,51s50.28-22.83,50.28-51V72.83C141.49,48.7,122.2,29.13,98.4,29.13Z"/></clipPath><clipPath id="clip-path-36"><rect class="cls-2" x="19.38" y="10.92" width="140.07" height="149.3"/></clipPath><clipPath id="clip-path-37"><rect class="cls-2" x="37.34" y="29.13" width="104.15" height="112.89"/></clipPath><clipPath id="clip-path-38"><path class="cls-1" d="M109.89,83.75a4.34,4.34,0,0,0-4.31,4.37V94a4.31,4.31,0,1,0,8.62,0V88.12A4.34,4.34,0,0,0,109.89,83.75Z"/></clipPath><clipPath id="clip-path-40"><rect class="cls-2" x="33.75" y="25.49" width="57.46" height="120.17"/></clipPath><clipPath id="clip-path-42"><path class="cls-1" d="M74,83.75a4.34,4.34,0,0,0-4.31,4.37V94a4.31,4.31,0,1,0,8.62,0V88.12A4.34,4.34,0,0,0,74,83.75Z"/></clipPath><clipPath id="clip-path-44"><path class="cls-1" d="M69.66,76.47h7.19a3.62,3.62,0,0,1,3.59,3.64H66.07A3.62,3.62,0,0,1,69.66,76.47Z"/></clipPath><clipPath id="clip-path-46"><path class="cls-1" d="M80.44,21.85c-23.81,0-43.1,19.56-43.1,43.7V87.4q17.34-3.2,26.89-15.63a38.34,38.34,0,0,0,5.35-9.45,39.84,39.84,0,0,0,11,13.82,36.38,36.38,0,0,0,24.17,8.08l40.31-.62v-18c0-24.14-19.29-43.7-43.09-43.7Z"/></clipPath><clipPath id="clip-path-47"><rect class="cls-2" x="-1377.71" y="-582.63" width="2338.07" height="7009.8"/></clipPath><clipPath id="clip-path-48"><rect class="cls-2" x="19.38" y="3.64" width="143.66" height="105.6"/></clipPath><clipPath id="clip-path-49"><rect class="cls-2" x="37.34" y="21.85" width="107.75" height="69.19"/></clipPath><clipPath id="clip-path-50"><path class="cls-1" d="M80.44,112.89H102a10.78,10.78,0,1,1-21.55,0Z"/></clipPath><clipPath id="clip-path-52"><rect class="cls-2" x="33.96" y="1126.2" width="10.91" height="3.63"/></clipPath><clipPath id="clip-path-53"><rect class="cls-2" x="139.38" y="1126.2" width="10.91" height="3.63"/></clipPath><clipPath id="clip-path-54"><ellipse class="cls-2" cx="64.86" cy="1128.02" rx="19.99" ry="19.96"/></clipPath><clipPath id="clip-path-55"><ellipse class="cls-2" cx="119.38" cy="1128.02" rx="19.99" ry="19.96"/></clipPath></defs><g class="cls-13"><g class="cls-14"><g class="cls-15"><rect class="cls-16" x="-16.53" y="-18.21" width="215.49" height="218.49"/></g><g class="cls-17"><g class="cls-15"><g class="cls-14"><g class="cls-18"><g class="cls-17"><g class="cls-19"><path class="cls-20" d="M109.17,14.57H73.25c-23.8,0-43.09,19.56-43.09,43.69v7.29C30.16,85.66,46.24,102,66.07,102h50.28c19.84,0,35.92-16.3,35.92-36.41V58.26C152.27,34.13,133,14.57,109.17,14.57Z"/></g></g><g class="cls-19"><path class="cls-21" d="M109.17,14.57H73.25c-23.8,0-43.09,19.56-43.09,43.69v7.29C30.16,85.66,46.24,102,66.07,102h50.28c19.84,0,35.92-16.3,35.92-36.41V58.26C152.27,34.13,133,14.57,109.17,14.57Z"/></g></g></g></g></g><g class="cls-22"><g class="cls-15"><rect class="cls-20" x="1.42" y="54.62" width="68.24" height="76.47"/></g></g><g class="cls-23"><g class="cls-15"><rect class="cls-20" x="112.76" y="54.62" width="68.24" height="76.47"/></g></g><g class="cls-24"><g class="cls-15"><g class="cls-14"><g class="cls-25"><g class="cls-26"><rect class="cls-27" x="5.02" y="123.81" width="172.39" height="94.61"/></g><g class="cls-28"><g class="cls-26"><rect class="cls-27" x="109.17" y="120.17" width="64.65" height="91.04"/></g></g><g class="cls-29"><g class="cls-26"><rect class="cls-27" x="8.61" y="120.17" width="64.65" height="91.04"/></g></g><g class="cls-30"><g class="cls-26"><rect class="cls-31" x="40.93" y="83.75" width="100.56" height="101.96"/></g></g></g></g></g></g><g class="cls-32"><g class="cls-15"><rect class="cls-33" x="55.3" y="76.47" width="71.83" height="101.96"/></g></g><g class="cls-34"><g class="cls-15"><g class="cls-14"><g class="cls-35"><g class="cls-36"><rect class="cls-37" x="22.97" y="10.92" width="136.48" height="149.3"/></g><g class="cls-38"><g class="cls-36"><rect class="cls-27" x="87.62" y="65.55" width="44.53" height="50.98"/></g></g><g class="cls-39"><g class="cls-36"><rect class="cls-40" x="15.79" y="7.28" width="93.38" height="156.58"/></g></g><g class="cls-41"><g class="cls-36"><rect class="cls-27" x="51.71" y="65.55" width="44.53" height="50.98"/></g></g><g class="cls-42"><g class="cls-36"><rect class="cls-27" x="48.11" y="58.26" width="50.28" height="40.06"/></g></g></g></g></g></g></g></g><g class="cls-43"><g class="cls-44"><g class="cls-14"><g class="cls-45"><g class="cls-46"><rect class="cls-47" x="19.38" y="3.65" width="143.66" height="101.96"/></g></g></g></g></g><g class="cls-48"><g class="cls-44"><rect class="cls-49" x="62.48" y="94.68" width="57.46" height="47.34"/></g></g></svg>