<svg id="Слой_1" data-name="Слой 1" xmlns="http://www.w3.org/2000/svg" xmlns:xlink="http://www.w3.org/1999/xlink" viewBox="0 0 183 182"><defs><style>.cls-1,.cls-2{fill:none;}.cls-2{clip-rule:evenodd;}.cls-3{clip-path:url(#clip-path);}.cls-4{isolation:isolate;}.cls-5{fill:#de350c;}.cls-6{clip-path:url(#clip-path-2);}.cls-7{clip-path:url(#clip-path-3);}.cls-8{clip-path:url(#clip-path-4);}.cls-9{clip-path:url(#clip-path-5);}.cls-10{fill:#202d3d;}.cls-11{clip-path:url(#clip-path-6);}.cls-12{fill:#434a51;}.cls-13{clip-path:url(#clip-path-8);}.cls-14{fill:#e1af8c;}.cls-15{clip-path:url(#clip-path-10);}.cls-16{fill:#f7c6a4;}.cls-17{clip-path:url(#clip-path-12);}.cls-18{clip-path:url(#clip-path-14);}.cls-19{clip-path:url(#clip-path-16);}.cls-20{clip-path:url(#clip-path-17);}.cls-21{clip-path:url(#clip-path-18);}.cls-22{fill:#fff;opacity:0.2;}.cls-23{clip-path:url(#clip-path-20);}.cls-24{clip-path:url(#clip-path-22);}.cls-25{clip-path:url(#clip-path-24);}.cls-26{clip-path:url(#clip-path-25);}.cls-27{clip-path:url(#clip-path-26);}.cls-28{clip-path:url(#clip-path-28);}.cls-29{clip-path:url(#clip-path-30);}.cls-30{clip-path:url(#clip-path-32);}.cls-31{clip-path:url(#clip-path-33);}.cls-32{clip-path:url(#clip-path-34);}.cls-33{clip-path:url(#clip-path-35);}.cls-34{clip-path:url(#clip-path-36);}.cls-35{clip-path:url(#clip-path-37);}.cls-36{clip-path:url(#clip-path-38);}.cls-37{clip-path:url(#clip-path-39);}.cls-38{clip-path:url(#clip-path-40);}.cls-39{clip-path:url(#clip-path-41);}.cls-40{clip-path:url(#clip-path-42);}</style><clipPath id="clip-path"><circle class="cls-1" cx="91.27" cy="91.14" r="90.73"/></clipPath><clipPath id="clip-path-2"><path class="cls-2" d="M134.84,141.94H47.56a28.9,28.9,0,0,0,0,57.8l87.26.2a29,29,0,0,0,29-28.9V171A29,29,0,0,0,134.84,141.94Z"/></clipPath><clipPath id="clip-path-3"><rect class="cls-1" x="0.55" y="0.41" width="181.45" height="181.45"/></clipPath><clipPath id="clip-path-4"><rect class="cls-1" x="0.55" y="109.28" width="181.45" height="108.87"/></clipPath><clipPath id="clip-path-5"><rect class="cls-1" x="18.69" y="138.32" width="145.16" height="43.55"/></clipPath><clipPath id="clip-path-6"><circle class="cls-1" cx="91.27" cy="141.94" r="32.66"/></clipPath><clipPath id="clip-path-8"><circle class="cls-1" cx="91.27" cy="141.94" r="25.4"/></clipPath><clipPath id="clip-path-10"><circle class="cls-1" cx="145.71" cy="80.25" r="10.89"/></clipPath><clipPath id="clip-path-12"><circle class="cls-1" cx="36.84" cy="80.25" r="10.89"/></clipPath><clipPath id="clip-path-14"><path class="cls-2" d="M116.68,33.07H65.87a29,29,0,0,0-29,29v45.72a37.74,37.74,0,0,0,37.74,37.74H108a37.74,37.74,0,0,0,37.74-37.74V62.11A29,29,0,0,0,116.68,33.07Z"/></clipPath><clipPath id="clip-path-16"><rect class="cls-1" x="18.69" y="14.93" width="145.16" height="148.79"/></clipPath><clipPath id="clip-path-17"><rect class="cls-1" x="36.84" y="33.07" width="108.87" height="112.5"/></clipPath><clipPath id="clip-path-18"><rect class="cls-1" x="36.84" y="33.07" width="54.44" height="119.76"/></clipPath><clipPath id="clip-path-20"><path class="cls-2" d="M113.77,58.48a4.35,4.35,0,0,0-4.35,4.35v5.81a4.36,4.36,0,0,0,8.71,0V62.83A4.36,4.36,0,0,0,113.77,58.48Z"/></clipPath><clipPath id="clip-path-22"><path class="cls-2" d="M70.23,58.48a4.36,4.36,0,0,0-4.36,4.35v5.81a4.36,4.36,0,0,0,8.71,0V62.83A4.35,4.35,0,0,0,70.23,58.48Z"/></clipPath><clipPath id="clip-path-24"><path class="cls-2" d="M62.24,40.33H73.13A10.9,10.9,0,0,1,84,51.22H51.35A10.9,10.9,0,0,1,62.24,40.33Z"/></clipPath><clipPath id="clip-path-25"><rect class="cls-1" x="-1393" y="-1922.98" width="2362.5" height="6985.9"/></clipPath><clipPath id="clip-path-26"><path class="cls-2" d="M109.42,40.33h10.89a10.89,10.89,0,0,1,10.88,10.89H98.53A10.9,10.9,0,0,1,109.42,40.33Z"/></clipPath><clipPath id="clip-path-28"><path class="cls-2" d="M65.87,91.14h25.4a29,29,0,0,1-29,29H36.84A29,29,0,0,1,65.87,91.14Z"/></clipPath><clipPath id="clip-path-30"><path class="cls-2" d="M116.68,91.14H91.27a29,29,0,0,0,29,29h25.4A29,29,0,0,0,116.68,91.14Z"/></clipPath><clipPath id="clip-path-32"><path class="cls-2" d="M69-462.6H83.43v7.25H69A3.62,3.62,0,0,1,65.33-459,3.63,3.63,0,0,1,69-462.6Z"/></clipPath><clipPath id="clip-path-33"><path class="cls-2" d="M124-462.6H109.51v7.25H124a3.62,3.62,0,0,0,3.62-3.62A3.63,3.63,0,0,0,124-462.6Z"/></clipPath><clipPath id="clip-path-34"><path class="cls-2" d="M68.19-1559.81H130a14.55,14.55,0,0,1,14.55,14.55v3.64A14.54,14.54,0,0,1,130-1527.07H68.19a14.55,14.55,0,0,1-14.55-14.55v-3.64A14.56,14.56,0,0,1,68.19-1559.81Z"/></clipPath><clipPath id="clip-path-35"><path class="cls-2" d="M62.37-1505.24H76.93v7.28H62.37a3.64,3.64,0,0,1-3.64-3.64A3.64,3.64,0,0,1,62.37-1505.24Z"/></clipPath><clipPath id="clip-path-36"><path class="cls-2" d="M117.67-1512.51H103.12v7.27h14.55a3.64,3.64,0,0,0,3.64-3.64A3.63,3.63,0,0,0,117.67-1512.51Z"/></clipPath><clipPath id="clip-path-37"><path class="cls-2" d="M79.44-1295.15c-23.81,0-43.1,19.56-43.1,43.7v21.85q17.34-3.2,26.89-15.63a38.34,38.34,0,0,0,5.35-9.45,39.84,39.84,0,0,0,11,13.82,36.38,36.38,0,0,0,24.17,8.08l40.31-.62v-18c0-24.14-19.29-43.7-43.09-43.7Z"/></clipPath><clipPath id="clip-path-38"><path class="cls-2" d="M79.44-1204.11H101a10.85,10.85,0,0,1-10.78,10.92A10.85,10.85,0,0,1,79.44-1204.11Z"/></clipPath><clipPath id="clip-path-39"><rect class="cls-1" x="32.96" y="-190.8" width="10.91" height="3.63"/></clipPath><clipPath id="clip-path-40"><rect class="cls-1" x="138.38" y="-190.8" width="10.91" height="3.63"/></clipPath><clipPath id="clip-path-41"><ellipse class="cls-1" cx="63.86" cy="-188.98" rx="19.99" ry="19.96"/></clipPath><clipPath id="clip-path-42"><ellipse class="cls-1" cx="118.38" cy="-188.98" rx="19.99" ry="19.96"/></clipPath></defs><g class="cls-3"><g class="cls-4"><rect class="cls-5" x="-17.6" y="-17.73" width="217.74" height="217.74"/><g class="cls-6"><g class="cls-7"><g class="cls-4"><g class="cls-8"><g class="cls-9"><rect class="cls-10" x="0.55" y="123.8" width="181.45" height="94.29"/></g><g class="cls-11"><g class="cls-9"><rect class="cls-12" x="40.47" y="91.14" width="101.61" height="101.61"/></g></g><g class="cls-13"><g class="cls-9"><rect class="cls-14" x="47.73" y="98.4" width="87.1" height="87.1"/></g></g></g></g></g></g><g class="cls-15"><g class="cls-7"><rect class="cls-16" x="116.68" y="51.22" width="58.06" height="58.06"/></g></g><g class="cls-17"><g class="cls-7"><rect class="cls-16" x="7.81" y="51.22" width="58.06" height="58.06"/></g></g><g class="cls-18"><g class="cls-7"><g class="cls-4"><g class="cls-19"><g class="cls-20"><rect class="cls-16" x="18.69" y="14.93" width="145.16" height="148.79"/></g><g class="cls-21"><g class="cls-20"><rect class="cls-22" x="18.69" y="14.93" width="90.73" height="156.05"/></g></g></g></g></g></g><g class="cls-23"><g class="cls-7"><rect class="cls-10" x="91.27" y="40.33" width="45" height="50.81"/></g></g><g class="cls-24"><g class="cls-7"><rect class="cls-10" x="47.73" y="40.33" width="45" height="50.81"/></g></g></g></g><g class="cls-25"><g class="cls-26"><rect class="cls-10" x="33.21" y="22.19" width="68.95" height="47.18"/></g></g><g class="cls-27"><g class="cls-26"><rect class="cls-10" x="80.39" y="22.19" width="68.95" height="47.18"/></g></g><g class="cls-28"><g class="cls-26"><rect class="cls-10" x="18.69" y="72.99" width="90.73" height="65.32"/></g></g><g class="cls-29"><g class="cls-26"><rect class="cls-10" x="73.13" y="72.99" width="90.73" height="65.32"/></g></g></svg>