<svg width="62" height="62" viewBox="0 0 62 62" fill="none" xmlns="http://www.w3.org/2000/svg">
<rect x="1" y="1" width="60" height="60" rx="2" fill="#02ACC8" stroke="#02ACC8" stroke-width="2"/>
<path d="M31.0002 17.2C23.39 17.2 17.2002 22.8531 17.2002 29.7999C17.2002 32.6523 18.2666 35.4484 20.2189 37.6749C21.0041 39.1023 19.1479 41.6054 18.3439 42.6812C17.9314 43.232 17.8002 43.3937 17.8002 43.6562C17.8002 44.207 18.208 44.7999 19.1127 44.7999C21.2549 44.7999 23.3314 43.4968 25.1502 42.3437C25.5416 42.0953 25.9119 41.8468 26.2752 41.6312C27.7916 42.1374 29.3807 42.3999 31.0002 42.3999C38.6103 42.3999 44.8002 36.7468 44.8002 29.7999C44.8002 22.8531 38.6103 17.2 31.0002 17.2ZM25.9002 23.2C26.1557 23.2 26.3783 23.371 26.4627 23.6125L29.1627 31.4124C29.2705 31.7242 29.1018 32.0546 28.7877 32.1624C28.7221 32.1835 28.6658 32.1999 28.6002 32.1999C28.3518 32.1999 28.1244 32.0359 28.0377 31.7874L27.3439 29.7999H24.4564L23.7627 31.7874C23.6549 32.0992 23.3268 32.2703 23.0127 32.1624C22.6986 32.0546 22.5299 31.7242 22.6377 31.4124L25.3377 23.6125C25.4221 23.371 25.6447 23.2 25.9002 23.2ZM25.9002 25.6375L24.8689 28.5999H26.9314L25.9002 25.6375ZM35.8002 27.4C36.133 27.4 36.4002 27.6695 36.4002 27.9999V29.1999H39.4002C39.733 29.1999 40.0002 29.4695 40.0002 29.7999C40.0002 30.1304 39.733 30.3999 39.4002 30.3999H38.6877C38.4697 31.2367 37.8697 32.9593 36.3439 34.5249C36.9322 34.996 37.6307 35.4578 38.4627 35.8562C38.7603 35.9992 38.8869 36.3648 38.7439 36.6624C38.6408 36.8781 38.4228 36.9999 38.2002 36.9999C38.1135 36.9999 38.0221 36.9835 37.9377 36.9437C36.9346 36.4632 36.1096 35.896 35.4252 35.3312C34.6166 35.9687 33.6182 36.5406 32.3877 36.9624C32.3244 36.9835 32.2635 36.9999 32.2002 36.9999C31.9518 36.9999 31.7221 36.8359 31.6377 36.5874C31.5299 36.2734 31.6986 35.9453 32.0127 35.8374C33.0182 35.4929 33.8244 35.0218 34.5064 34.5062C33.4353 33.4281 32.9478 32.5281 32.9127 32.4624C32.7557 32.1695 32.8658 31.7945 33.1564 31.6374C33.4494 31.4804 33.8057 31.5906 33.9627 31.8812C33.9768 31.907 34.4408 32.7414 35.4252 33.7187C36.6205 32.5046 37.1853 31.1828 37.4314 30.3999H32.2002C31.8674 30.3999 31.6002 30.1304 31.6002 29.7999C31.6002 29.4695 31.8674 29.1999 32.2002 29.1999H35.2002V27.9999C35.2002 27.6695 35.4674 27.4 35.8002 27.4Z" fill="white"/>
</svg>
