<svg width="62" height="62" viewBox="0 0 62 62" fill="none" xmlns="http://www.w3.org/2000/svg">
<rect x="1" y="1" width="60" height="60" rx="2" stroke="#BBC1C7" stroke-width="2"/>
<path d="M2 60L60 2" stroke="#BBC1C7" stroke-width="2"/>
<path d="M39.5625 18.1719L28.4531 21.5703C27.1055 21.9531 26.0156 23.3554 26.0156 24.7031V36.2617C26.0156 36.2617 26.0156 36.4179 26.0156 36.4219C26.0156 36.4219 25.2109 35.8789 23.418 36.1328C20.7852 36.5078 18.6484 38.5273 18.6484 40.6484C18.6484 42.7695 20.7852 44.0664 23.418 43.6914C26.0547 43.3203 27.9844 41.3633 27.9844 39.2422C27.9844 39.2422 27.9844 30.1758 27.9844 29.2344C27.9844 28.2969 29.1133 27.8906 29.1133 27.8906L38.9375 24.8125C38.9375 24.8125 40.0234 24.4492 40.0234 25.4531C40.0234 26.4609 40.0234 33.4844 40.0234 33.4844C40.0234 33.4844 40.0234 33.4883 40.0234 33.4922C40.0234 33.4922 39.0234 32.914 37.2305 33.1328C34.5977 33.4531 32.4609 35.4297 32.4609 37.5508C32.4609 39.6719 34.5977 41.0117 37.2305 40.6914C39.8633 40.375 42 38.3945 42 36.2734V19.9101C42 18.5664 40.9063 17.7851 39.5625 18.1719Z" fill="#BBC1C7"/>
</svg>
