<svg width="62" height="62" viewBox="0 0 62 62" fill="none" xmlns="http://www.w3.org/2000/svg">
<rect x="1" y="1" width="60" height="60" rx="2" stroke="#02ACC8" stroke-width="2"/>
<path d="M31.5 17.75C30.3615 17.75 29.4375 18.674 29.4375 19.8125V20.7686C25.8806 21.6854 23.25 24.9066 23.25 28.75V37L21.1392 38.5898H21.1365C20.9414 38.7141 20.7808 38.8855 20.6695 39.0883C20.5582 39.2911 20.4999 39.5187 20.5 39.75C20.5 40.1147 20.6449 40.4644 20.9027 40.7223C21.1606 40.9801 21.5103 41.125 21.875 41.125H31.5H41.125C41.4897 41.125 41.8394 40.9801 42.0973 40.7223C42.3551 40.4644 42.5 40.1147 42.5 39.75C42.5001 39.5187 42.4418 39.2911 42.3305 39.0883C42.2193 38.8855 42.0586 38.7141 41.8635 38.5898L39.75 37V28.75C39.75 24.9066 37.1194 21.6854 33.5625 20.7686V19.8125C33.5625 18.674 32.6385 17.75 31.5 17.75ZM23.0244 18.4832C22.6487 18.4536 22.2613 18.5759 21.9663 18.8591C19.7182 21.0234 18.2017 23.9428 17.8359 27.2112C17.7438 28.0293 18.3873 28.75 19.2109 28.75C19.9067 28.75 20.4901 28.2264 20.5671 27.5361C20.8573 24.903 22.0822 22.5549 23.8972 20.8169C24.3936 20.3411 24.4348 19.5648 24.0154 19.0203C23.7658 18.6958 23.4001 18.5127 23.0244 18.4832ZM39.9756 18.4832C39.5999 18.5125 39.2342 18.6958 38.9846 19.0203C38.5652 19.5648 38.6064 20.3411 39.1028 20.8169C40.9205 22.5563 42.1441 24.9083 42.4329 27.5442C42.5085 28.2317 43.0961 28.75 43.7891 28.75C44.6154 28.75 45.2562 28.0227 45.1641 27.2004C44.7969 23.9362 43.2804 21.0233 41.0337 18.8618C40.7388 18.5779 40.3513 18.4538 39.9756 18.4832ZM28.75 42.5C28.75 44.0125 29.9875 45.25 31.5 45.25C33.0125 45.25 34.25 44.0125 34.25 42.5H28.75Z" fill="#02ACC8"/>
</svg>
