<svg width="62" height="62" viewBox="0 0 62 62" fill="none" xmlns="http://www.w3.org/2000/svg">
<path d="M30.0312 19.0625C29.7109 19.0664 29.3555 19.2071 29.0312 19.5313L23.3125 26H19C18.4492 26 18 26.4492 18 27V35C18 35.5508 18.4492 36 19 36H23.3125L29 42.4375C30 43.4375 31 42.9258 31 41.5625V20.2813C31 19.4883 30.5664 19.0586 30.0312 19.0625ZM37.2812 21.0625C36.8438 21.1367 36.5078 21.4922 36.457 21.9336C36.4102 22.375 36.6523 22.7969 37.0625 22.9688C40 24.4492 42 27.4766 42 31C42 34.5235 40 37.5508 37.0625 39.0313C36.6953 39.1563 36.4375 39.4844 36.3945 39.8672C36.3516 40.2539 36.5352 40.6289 36.8672 40.8321C37.1953 41.0313 37.6133 41.0235 37.9375 40.8125C41.5273 39 44 35.2891 44 31C44 26.711 41.5273 23 37.9375 21.1875C37.7656 21.0899 37.5703 21.0469 37.375 21.0625C37.3438 21.0625 37.3125 21.0625 37.2812 21.0625ZM34.9062 24.9375C34.4648 24.9688 34.0977 25.2891 34.0039 25.7227C33.9102 26.1563 34.1094 26.6016 34.5 26.8125C36.043 27.7696 37 29.2891 37 31C37 32.7227 36.0273 34.2617 34.4688 35.2188C34.1367 35.3946 33.9297 35.7422 33.9336 36.1172C33.9375 36.4922 34.1523 36.8321 34.4922 37C34.8281 37.168 35.2305 37.1289 35.5312 36.9063C37.6016 35.6367 39 33.4766 39 31C39 28.5391 37.6133 26.3672 35.5625 25.0938C35.3945 24.9883 35.1992 24.9336 35 24.9375C34.9688 24.9375 34.9375 24.9375 34.9062 24.9375Z" fill="#BBC1C7"/>
<rect x="1" y="1" width="60" height="60" rx="2" stroke="#BBC1C7" stroke-width="2"/>
<path d="M2 60L60 2" stroke="#BBC1C7" stroke-width="2"/>
</svg>
