<svg viewBox="0 0 978 355" xmlns="http://www.w3.org/2000/svg" xmlns:xlink="http://www.w3.org/1999/xlink"><linearGradient id="a" gradientUnits="userSpaceOnUse" x1="813.5" x2="919.5" y1="195" y2="195"><stop offset=".02" stop-color="#c8c8c7"/><stop offset=".08" stop-color="#dcdbdb"/><stop offset=".16" stop-color="#ebeae9"/><stop offset=".24" stop-color="#f4f2f2"/><stop offset=".37" stop-color="#f7f5f5"/><stop offset=".47" stop-color="#f6f4f4"/><stop offset=".53" stop-color="#e9e5e2"/><stop offset=".66" stop-color="#c8beb4"/><stop offset=".79" stop-color="#a29381"/><stop offset=".99" stop-color="#afaa94"/></linearGradient><linearGradient id="b" gradientUnits="userSpaceOnUse" x1="888.51" x2="888.69" y1="272.56" y2="244.33"><stop offset=".4" stop-color="#9d4e41"/><stop offset=".99" stop-color="#992132"/></linearGradient><linearGradient id="c" gradientTransform="matrix(-1 0 0 1 1651.22 0)" gradientUnits="userSpaceOnUse" x1="808.51" x2="808.69" y1="272.56" y2="244.33"><stop offset="0" stop-color="#992132"/><stop offset=".83" stop-color="#d65764"/></linearGradient><linearGradient id="d" x1="866.26" x2="866.13" xlink:href="#b" y1="265.13" y2="245.82"/><linearGradient id="e" gradientUnits="userSpaceOnUse" x1="813.5" x2="919.5" y1="223" y2="223"><stop offset="0" stop-color="#a51323"/><stop offset=".03" stop-color="#b32a34"/><stop offset=".07" stop-color="#c14045"/><stop offset=".12" stop-color="#cb5152"/><stop offset=".18" stop-color="#d35c5a"/><stop offset=".27" stop-color="#d76360"/><stop offset=".51" stop-color="#d86561"/><stop offset=".55" stop-color="#cd5859"/><stop offset=".66" stop-color="#b63d47"/><stop offset=".77" stop-color="#a52a3b"/><stop offset=".88" stop-color="#9b1f33"/><stop offset="1" stop-color="#981b31"/></linearGradient><linearGradient id="f" x1="817.5" x2="914.5" xlink:href="#e" y1="191.5" y2="191.5"/><linearGradient id="g" x1="826.5" x2="904.5" xlink:href="#e" y1="165" y2="165"/><linearGradient id="h" x1="837.5" x2="894.5" xlink:href="#e" y1="144" y2="144"/><linearGradient id="i" x1="860.5" x2="882.5" xlink:href="#b" y1="160.56" y2="160.56"/><linearGradient id="j" x1="855.32" x2="897.5" xlink:href="#b" y1="215.47" y2="215.47"/><linearGradient id="k" gradientUnits="userSpaceOnUse" x1="866.04" x2="866.07" y1="270.28" y2="267.89"><stop offset="0" stop-color="#b45f5d"/><stop offset=".35" stop-color="#c57170"/></linearGradient><path d="m-.5-.5h978v355h-978z" fill="#e8e8f0"/><path d="m713.92 190.27 7.61 3.23 17.97-6 5.15-8-5.65-2.82h-3.5z" fill="#ababb0"/><ellipse cx="878.5" cy="266" fill="#ababb0" rx="38" ry="14.5"/><path d="m628.84 168.05 31.66 15.45 20.42-.95h16.4l29.18 2.95 23.11-4 12.89-5 1-17h14l12-7 18-14 4-4-5-6-4-16-7-1-4-5-19 1-20-7-39 3-9 10-12.06-9.52 11.06-18.48 4.06-10.43h4.84l8.37-8.57-8.27-11 1.66-9.65v-7.48l-16.84-4.85-16.59-1.77-27.23 6.75-7.94 4.05-4.06 5.95-12.66 3.08-7.7 5.1-21.64 7.67-10.5 16.51-18.5 13.64-18 1-1 2 4 6-4 5.33 7 7.67 13 8 6 11 11.64 9.66 11.36 5.34 19 2 8.34 4.54-2.05 5.46z" fill="#97b451"/><path d="m625.79 231c-.29.47 11.71-7.53 11.71-7.53l-.18-8a48.75 48.75 0 0 1 8.24-1.81c2.94-.19 6.46-3.44 6.46-3.44l11.39-1 4.09-1.75 5.32-8-10.32-7-1-6-26 3-1 5.86-6 2.18-45.68-1-13.32-4-23 2-17-1-10 1-13-1-9.05 7.5-19.95 8.5-1.19 2.07 2.19 13.93 9 14 6 7 14-1 11 8 45-1 14 2 21-6.46 12-10.54s15.57-6.96 15.29-6.51z" fill="#97b451"/><path d="m629.84 166.05 31.66 15.45 20.42-.95h16.4l29.18 2.95 23.11-4 12.89-5 1-17h14l12-7 18-14 4-4-5-6-4-16-7-1-4-5-19 1-20-7-39 3-9 10-12.06-9.52 11.06-18.48 4.06-10.43h4.84l8.37-8.57-8.27-11 1.66-9.65v-7.48l-16.84-4.85-16.59-1.77-27.23 6.75-7.94 4.05-4.06 5.95-12.66 3.08-7.7 5.1-21.64 7.67-10.5 16.51h-16.41l-3.09 8.64-18 8 4 6-4 5.33 7 7.67 13 8 6 11 11.64 9.66 11.36 5.34 19 2 8.34 4.54-2.05 5.46z" fill="#b7d17b"/><path d="m626.79 229c-.29.47 11.71-7.53 11.71-7.53l-.18-8a48.75 48.75 0 0 1 8.24-1.81c2.94-.19 6.46-3.44 6.46-3.44l11.39-1 4.09-1.75 5.32-8-10.32-7-1-6-26 3-1 5.86-6 2.18-45.68-1-13.32-4-23 2-17-1-10 1-13-1-9.05 7.5-13.38 5.5-7.76 5.07 2.19 13.93 9 14 6 7 14-1 11 8 45-1 14 2 21-6.46 12-10.54s15.57-6.96 15.29-6.51z" fill="#b7d17b"/><path d="m811.48 89.03-2.48-8.03 2.48-4.93 14.74-10.5 5.95-10.57-4.94-11.45-57.62-31.55-63.11-11.5 1 2 87 48 1.5 5.5-2.13 4.5-15.37 10.36-4.45 11.88 4.45 12.55 11.5 8.71 65 33-322.71 161.55-15.52 6.95-10.9 18.38 4.29 11.67 12.84 8.45 23.5 10.5 50-1-47.91-21.73-4.41-5.27-.44-6.96 332.26-168.54 5-5 4-11-4-12z" fill="#9ba2b2"/><path d="m812.48 86.03-2.48-8.03 2.48-4.93 14.74-10.5 5.95-10.57-4.94-11.45-73.23-39.55h-47l87 47 2 5-2.13 4.5-15.37 10.36-4.45 11.88 4.45 12.55 11.5 8.71 65 33-322.71 161.55-15.52 6.95-10.9 18.38 4.29 11.67 12.84 8.45 29 13h50l-53.41-25.23-4.41-5.27-.44-6.96 332.26-168.54 5-5 4-11-4-12z" fill="#646973" stroke="#fff" stroke-miterlimit="10"/><path d="m489.32 215.16 12.16-.47 12.55 1.81-4.63-6-13.22-5.74z" fill="#beda79"/><path d="m538.92 228.91 18.58 4.59h11.35l10.79-2 9.47 2-8.15-7.71-16.94.86-10.58-.86z" fill="#beda79"/><path d="m509.18 233.5h12.32l20.37 2-14.65-8-11.43-4.42-26.47 1.37.18 4.05z" fill="#beda79"/><path d="m517.99 209.5 14.01 5.19 9.87 6.91h15.09l-13.61-10.97h17.57l12.33 5.87-7.75-8-9.42-3.74-13.58.74z" fill="#beda79"/><path d="m588.32 121.16 12.16-.47 12.55 1.81-4.63-6-13.22-5.74z" fill="#bbd878"/><path d="m637.92 134.91 18.58 4.59h11.35l10.79-2 9.47 2-8.15-7.71-16.94.86-10.58-.86z" fill="#bbd878"/><path d="m608.18 139.5h12.32l20.37 2-14.65-8-11.43-4.42-26.47 1.37.18 4.05z" fill="#bbd878"/><path d="m616.99 115.5 14.01 5.19 9.87 6.91h15.09l-13.61-10.97h17.57l12.33 5.87-7.75-8-9.42-3.74-13.58.74z" fill="#bbd878"/><path d="m664.32 124.16 12.16-.47 12.55 1.81-4.63-6-13.22-5.74z" fill="#bbd878"/><path d="m713.92 137.91 18.58 4.59h11.35l10.79-2 9.47 2-8.15-7.71-16.94.86-10.58-.86z" fill="#bbd878"/><path d="m684.18 142.5h12.32l20.37 2-14.65-8-11.43-4.42-26.47 1.37.18 4.05z" fill="#bbd878"/><path d="m692.99 118.5 14.01 5.19 9.87 6.91h15.09l-13.61-10.97h17.57l12.33 5.87-7.75-8-9.42-3.74-13.58.74z" fill="#bbd878"/><path d="m612.65 71.42-1.15 10.34 9.2 8.05 20.68-1.15 13.8-1.15 18.32 3.29 17.31-3.29 12.64-3.45v-11.49l-13.79-7.87-2.3-10.35-21.84-2.3-14.94-2.29-14.94 5.74-4.6 6.9z" fill="#7f6549"/><path d="m614.95 62.22-2.56 9.62 9.11 7.63 19.88 3.27h13.8l18.32 3.29 16.16-6.56 13.84-6.49-3.1-4.67-10.74-8.39-2.3-10.34-21.84-2.3-14.94-2.3-14.94 5.75-4.6 6.9z" fill="#8db543"/><path d="m633.9 94.84-.56-3.84 33 3.88 10-4.1 22.57-3.23-.17 3.76-2.5 4.53-4.24 3.16-13.72 6.28-11.98 3.72-8.82 1.54-8.05-1.15-8-4.43v-3.67s-7.53-6.45-7.53-6.45z" fill="#7f6549"/><path d="m633.34 91 19.54-3.67 13.42 4.1 10-4.1 20.27-5.56 2.13 6.09-2.5 4.54-4.2 3.16-13.72 6.29-11.94 3.67-8.82 1.53-8.05-1.15-8-4.43v-3.67c-.08.06-8.13-6.8-8.13-6.8z" fill="#8db543"/><path d="m639.5 220.78-6 5.75-19 9-13.5 3.97h-14.61l-9.89 5.03-14-3v-13l43-15 32.09-4.46 1.91 1.46z" fill="#7f6549"/><path d="m631.5 226.53-18.51 7.91-10.49 2.09-16-1-10 6-13-4-1-9 9-10 2-6 3-5 20.9-11.95 28.1-2.05 13 11 .55 3.31.45 2.69-6 8-16-3-15 6-12 1 12.81 1.5 13.19-2.5z" fill="#8db543"/><path d="m647.5 335.5 7.02-8.66 12.25-6.92 17.81-.44 8.86 3.95 2.02 8.62-1.32 6.85-5.02 2.64-7 1.83h-6.48l-14.05-1.38-7.09-.49z" fill="#7f6549"/><path d="m648.5 334.5 6.79-11.35 12.25-6.93 17.81-.43 8.86 3.94 1.4 12.6-1.67 4.04-4.05 1.47-8.19 3.4-6.11.51-14.3-1.37-5.79-.88z" fill="#8db543"/><path d="m643.32 161.28 6.96-.35 7.2 1.35-2.65-4.49-7.58-4.29z" fill="#beda79"/><path d="m671.74 171.57 10.65 3.43h6.5l6.19-1.49 5.42 1.49-4.67-5.76-9.71.64-6.06-.64z" fill="#beda79"/><path d="m654.7 175h7.06l11.67 1.5-8.39-5.99-6.55-3.3-15.17 1.02.1 3.03z" fill="#beda79"/><path d="m659.75 157.04 8.02 3.89 5.66 5.17h8.65l-7.8-8.21h10.07l7.07 4.39-4.45-5.98-5.4-2.8-7.78.55z" fill="#beda79"/><path d="m773.5 115.95-12.12.68-5.54 6.87 7.9 5.56 7.61-.05 4.85-3.22z" fill="#8fab4d"/><path d="m799.5 123.5a18.7 18.7 0 0 1 -1.87-.17 26.68 26.68 0 0 1 -5.63-1.15c-1.5-.68-8 3.32-8 3.32l4 5.1 6.51 1.4s7.33 2.71 7.16-1.4l-.17-4.1-3-3.06z" fill="#8fab4d"/><path d="m783.42 137.5c-.92-1-9.42 0-9.42 0l-2.65 5 4.85 3 7.8-1.5 2-2.94z" fill="#8fab4d"/><path d="m609.5 198.23c-1-.73-8.5.36-8.5.36s-4.26 3.93-6.38 3.92-6.3 8.36-6.3 8.36l1.82 5.63 10.53-1.28 8.53-3.72 4.95-6z" fill="#779939"/><path d="m633.99 207.24-10.49-2.74-6.51 7.44 8.5 4.56h7.85l2.16-4z" fill="#779939"/><path d="m691.8 319.08-7.51-1.87-2.79 4.65 1 5.61 6.07 3.96h3.23z" fill="#779939"/><rect fill="#53703d" height="8" rx=".5" width="1" x="778.5" y="133.5"/><path d="m773.5 119.5-2.25 9.37 4.13 6.04 3.05-.39 2.72-10.58z" fill="#759e57"/><path d="m777.5 116.5-4 3 7 4 6-1-3.28-5.36z" fill="#759e57"/><path d="m778.43 134.52 2.08-5.46h6.74s-.77 5.48-1.26 5.46-7.56 0-7.56 0z" fill="#759e57"/><path d="m786.5 122.5.75 6.56s-6.73-.44-6.74 0 0-5.56 0-5.56z" fill="#5b7e43"/><path d="m775.59 120.69c-.09-.19-2.09 7.59-2.09 7.59l2.09 2.56 2.84 3.68 2.08-5.46v-5.56z" fill="#87b765"/><path d="m961.5 119.5-6.37-4.87 1.37-11.13 11-4-2.47-18.78-15.52-3.53-7.26-8.19 2.25-9.5-4.24-6.53 6.24-6.47-12-21-13-12-112-6-1 2v10.21l16 6.79 3 9h18.31l10.56 15-1.32 12.18-9.91 9.82-6.93 11 4.29 9 24 9 2 6 29.49 7.13 14.51 16.87-4 12-5 13-1.88 12 27.88 14 17-8 2-13 10-5v-10.3l6-7.7-4-11z" fill="#97b451"/><path d="m962.5 117.5-6.37-4.87 1.37-11.13 11-4-2.5-18.78-15.52-3.53-7.23-8.19 2.25-9.5-4.24-6.5 6.24-6.47-12-21-13-12-85-10c-2 0-28 6-28 6v10.18l16 6.79 3 9h18.31l10.56 15-1.32 12.18-9.9 9.82-6.94 11 4.29 9 24 9 2 6 29.5 7.13 14.5 16.87-4 12-5 13-1.88 12 27.88 14 17-8 2-13 10-5v-10.3l6-7.7-4-11z" fill="#b7d17b"/><path d="m856.32 75.28 7.21-.35 7.44 1.35-2.74-4.49-7.84-4.29z" fill="#beda79"/><path d="m885.74 85.57 11.01 3.43h6.74l6.39-1.49 5.62 1.49-4.83-5.77-10.05.65-6.27-.65z" fill="#beda79"/><path d="m868.1 89h7.3l12.09 1.5-8.69-5.99-6.78-3.3-15.7 1.02.1 3.03z" fill="#beda79"/><path d="m873.32 71.05 8.31 3.88 5.86 5.17h8.94l-8.07-8.21h10.42l7.32 4.39-4.6-5.98-5.59-2.8-8.05.55z" fill="#beda79"/><g fill="#c2df7b" opacity=".47"><path d="m882.32 44.28 7.21-.35 7.44 1.35-2.74-4.49-7.84-4.29z"/><path d="m911.74 54.57 11.01 3.43h6.74l6.39-1.49 5.62 1.49-4.83-5.77-10.05.65-6.27-.65z"/><path d="m894.1 58h7.3l12.09 1.5-8.69-5.99-6.78-3.3-15.7 1.02.1 3.03z"/><path d="m899.32 40.05 8.31 3.88 5.86 5.17h8.94l-8.07-8.21h10.42l7.32 4.39-4.6-5.98-5.59-2.8-8.05.55z"/></g><g fill="#c2df7b" opacity=".64"><path d="m851.32 19.28 7.21-.35 7.44 1.35-2.74-4.49-7.84-4.29z"/><path d="m880.74 29.57 11.01 3.43h6.74l6.39-1.49 5.62 1.49-4.83-5.77-10.05.65-6.27-.65z"/><path d="m863.1 33h7.3l12.09 1.5-8.69-5.99-6.78-3.3-15.7 1.02.1 3.03z"/><path d="m868.32 15.04 8.31 3.89 5.86 5.17h8.94l-8.07-8.21h10.42l7.32 4.39-4.6-5.98-5.59-2.8-8.05.55z"/></g><path d="m892.32 97.28 7.21-.35 7.44 1.35-2.74-4.49-7.84-4.29z" fill="#bbd878"/><path d="m921.74 107.57 11.01 3.43h6.74l6.39-1.49 5.62 1.49-4.83-5.77-10.05.65-6.27-.65z" fill="#bbd878"/><path d="m904.1 111h7.3l12.09 1.5-8.69-5.99-6.78-3.3-15.7 1.02.1 3.03z" fill="#bbd878"/><path d="m909.32 93.05 8.31 3.88 5.86 5.17h8.94l-8.07-8.21h10.42l7.32 4.39-4.6-5.98-5.59-2.8-8.05.55z" fill="#bbd878"/><path d="m930.84 155.16h-9.34l-2.25 4.34 2.49 5s6.44.78 9.1-.61.66.61 2.66-1.39l2-2z" fill="#8fab4d"/><path d="m902.5 45.28-23.43-12.47-9.57 2.69-3.53 7 2.66 8 12.79 4.35 13.58.91 6.1-.64z" fill="#8fab4d"/><rect fill="#53703d" height="8" rx=".5" width="1" x="926.5" y="151.5"/><path d="m921.5 137.5-2.25 9.37 4.13 6.04 3.05-.39 2.72-10.58z" fill="#759e57"/><path d="m925.5 134.5-4 3 7 4 6-1-3.28-5.36z" fill="#759e57"/><path d="m926.43 152.52 2.08-5.46h6.74s-.77 5.48-1.26 5.46-7.56 0-7.56 0z" fill="#759e57"/><path d="m934.5 140.5.75 6.56s-6.73-.44-6.74 0 0-5.56 0-5.56z" fill="#5b7e43"/><path d="m923.59 138.69c-.09-.19-2.09 7.59-2.09 7.59l2.09 2.56 2.84 3.68 2.08-5.46v-5.56z" fill="#87b765"/><rect fill="#53703d" height="8" rx=".5" width="1" x="894.5" y="42.5"/><path d="m889.5 28.5-2.25 9.37 4.13 6.04 3.05-.39 2.72-10.58z" fill="#759e57"/><path d="m893.5 25.5-4 3 7 4 6-1-3.28-5.36z" fill="#759e57"/><path d="m894.43 43.52 2.08-5.46h6.74s-.77 5.48-1.26 5.46-7.56 0-7.56 0z" fill="#759e57"/><path d="m902.5 31.5.75 6.56s-6.73-.44-6.74 0 0-5.56 0-5.56z" fill="#5b7e43"/><path d="m891.59 29.69c-.09-.19-2.09 7.59-2.09 7.59l2.09 2.56 2.84 3.68 2.08-5.46v-5.56z" fill="#87b765"/><rect fill="#5f6f5f" height="12" rx="1" width="2" x="875.5" y="30.5"/><path d="m877.88 14.5 6.37 3.64v7.13l-1.97 5.69-4.4 2.54-7.38-1-1.87-9.7 5.15-4.8z" fill="#6e9552"/><path d="m876.5 14.5-4.57 3.5-.88 3.56 5.45 1.94z" fill="#87b765"/><path d="m868.63 22.8 6.39 3.7v4.68l-4.63 1.47-2.64-4.05z" fill="#87b765"/><path d="m876.78 31.18 2.72-4.07 1-4.68-1.86-7.04 5.61 4.45v5.43l-1.7 4.9z" fill="#5b7e43"/><rect fill="#5f6f5f" height="12" rx="1" width="2" x="765.5" y="110.5"/><path d="m767.88 94.5 6.37 3.64v7.13l-1.97 5.69-4.4 2.54-7.38-1-1.87-9.7 5.15-4.8z" fill="#6e9552"/><path d="m766.5 94.5-4.57 3.5-.88 3.56 5.45 1.94z" fill="#87b765"/><path d="m758.63 102.8 6.39 3.7v4.69l-4.63 1.46-2.64-4.05z" fill="#87b765"/><path d="m766.78 111.19 2.72-4.08 1-4.68-1.86-7.04 5.61 4.45v5.43l-1.7 4.9z" fill="#5b7e43"/><rect fill="#5f6f5f" height="8.57" rx=".77" width="1.55" x="793.74" y="117.93"/><path d="m795.58 106.5 4.92 2.6v5.09l-1.52 4.06-3.4 1.82-5.7-.71-1.45-6.93 3.98-3.43z" fill="#6e9552"/><path d="m794.51 106.5-3.52 2.5-.69 2.55 4.21 1.38z" fill="#87b765"/><path d="m788.43 112.43 4.94 2.64v3.35l-3.58 1.05-2.04-2.9z" fill="#87b765"/><path d="m794.73 118.42 2.1-2.91.78-3.34-1.44-5.04 4.33 3.19v3.87l-1.31 3.5z" fill="#5b7e43"/><path d="m730.5 181.5-7.5 4.39v-6.17l9.38-4.22z" fill="#72747a"/><path d="m722.5 193.5v-12.66l-7.99-2.97-.01 12.63z" fill="#b2aeb5"/><path d="m738.5 184.5v-12.66l-7.99-2.97-.01 12.63z" fill="#93969d"/><path d="m723.5 192.5-1 1v-13h1z" fill="#7e8086"/><path d="m739.5 183.5-1 1v-13h1z" fill="#7e8086"/><path d="m713.5 175.5 11 4 19.47-9-11.47-5z" fill="#6ca9a4"/><path d="m743.97 172.5v-2l-19.47 9v2z" fill="#4d767f"/><path d="m713.5 177.5v-2l11 4v2z" fill="#7cafb4"/><g stroke-miterlimit="10"><path d="m801.5 37.5c10 7 13 9 14 12 1.09 3.27 2 9-11 17-13.76 8.47-15 20 3 28" fill="none" stroke="#e3e3ec" stroke-width="2"/><path d="m855.5 118.5c10 7 13 9 14 12 1.09 3.27 2 9-11 17-13.76 8.47-15 20 3 28" fill="none" stroke="#e3e3ec" stroke-width="2"/><path d="m539.9 335.54s-13.37-5-12.88-15 12.88-14.9 12.88-14.9" fill="none" stroke="#e3e3ec" stroke-width="2"/><path d="m547 302 218.5-108.5" fill="none" stroke="#ececf3" stroke-dasharray="8 7" stroke-width="2"/><path d="m547.5 339.5 27 13" fill="none" stroke="#ececf3" stroke-dasharray="8 7" stroke-width="2"/><path d="m735.5 5.5 59 29" fill="none" stroke="#ececf3" stroke-dasharray="8 7" stroke-width="2"/><path d="m814.5 97.5 34 17" fill="none" stroke="#ececf3" stroke-dasharray="8 7" stroke-width="2"/><path d="m765 182 18-9" fill="none" stroke="#ececf3"/><path d="m767 183 18-9" fill="none" stroke="#ececf3"/><path d="m769 184 18-9" fill="none" stroke="#ececf3"/><path d="m771 185 18-9" fill="none" stroke="#ececf3"/><path d="m773 186 18-9" fill="none" stroke="#ececf3"/><path d="m775 187 18-9" fill="none" stroke="#ececf3"/><path d="m777 188 18-9" fill="none" stroke="#ececf3"/><path d="m779 189 18-9" fill="none" stroke="#ececf3"/><path d="m781 190 18-9" fill="none" stroke="#ececf3"/><path d="m783 191 18-9" fill="none" stroke="#ececf3"/><path d="m785 192 18-9" fill="none" stroke="#ececf3"/></g><rect fill="#37491c" height="4.86" rx=".61" width="1.39" x="693.44" y="70.64"/><path d="m694.83 45s8.32 23.59 7.63 23.59-8.33 4.86-8.33 4.16.7-27.75.7-27.75z" fill="#325054"/><path d="m694.83 44.97-8.33 23.59 7.63 4.16z" fill="#628774"/><rect fill="#37491c" height="7" rx=".87" width="2" x="676.5" y="57.5"/><path d="m678.5 20.5s12 34 11 34-12 7-12 6 1-40 1-40z" fill="#325054"/><path d="m678.5 20.5-12 34 11 6z" fill="#628774"/><rect fill="#37491c" height="7" rx=".87" width="2" x="603.5" y="197.5"/><path d="m605.5 160.5s12 34 11 34-12 7-12 6 1-40 1-40z" fill="#325054"/><path d="m605.5 160.5-12 34 11 6z" fill="#628774"/><path d="m799.5 320.5-15.89-2-.74-7.29s12-.29 13.33 0 15.53-7.71 15.41-8.71 0-12 0-12l5.51-3 .38-2-22-15-23-18-55-5.4-19.28 3.72-13.72 2.68-10 8 9.19 16 3.13 10 4.68 6-28.29 12-40.71 10-1.79 2 9.25 4.11 10.54-1.11 17.43 9.75 9.57-1.75 9.14-6.89 16.86 3.89-12 5-1.12 2.07 1.12 7.93 15.84 4.43-.88 5.93 20 1.64 41-9 38-16z" fill="#97b451"/><path d="m800.5 318.5-15.89-2-.74-7.29s12-.29 13.33 0 15.53-7.71 15.41-8.71 0-12 0-12l5.51-3-20-20.19.42-10.81-25-4-55-5.4-19.28 3.72-13.76 2.68-10 8 9.19 16 3.13 10 4.68 6-28.29 12-31.05 11-11.45 1 9.25 4.11 10.54-1.11 17.43 9.75 9.57-1.75 9.14-6.89 16.86 3.89-13.12 7.07 1.12 7.93 15.84 4.43-.88 5.93 20 1.64 41-9 38-16z" fill="#b7d17b"/><path d="m749.32 291.28 6.96-.35 7.2 1.35-2.65-4.49-7.58-4.29z" fill="#bbd878"/><path d="m777.74 301.57 10.65 3.43h6.5l6.19-1.49 5.42 1.49-4.67-5.76-9.71.64-6.06-.64z" fill="#bbd878"/><path d="m760.7 305h7.06l11.67 1.5-8.39-5.99-6.55-3.3-15.17 1.02.1 3.03z" fill="#bbd878"/><path d="m765.75 287.05 8.02 3.88 5.66 5.17h8.65l-7.8-8.21h10.07l7.07 4.39-4.45-5.98-5.4-2.8-7.78.55z" fill="#bbd878"/><path d="m693.5 248.5-1 9 8 7 18-1 12-1 15.94 2.86 15.06-2.86 11-3v-10l-12-6.85-2-9-19-2-13-2-13 5-4 6z" fill="#7f6549"/><path d="m695.5 240.5-2.23 8.36 7.93 6.64 17.3 2.85h12l15.94 2.86 14.06-5.71 12.04-5.65-2.7-4.05-9.34-7.3-2-9-19-2-13-2-13 5-4 6z" fill="#8db543"/><path d="m712 268.87-.49-3.37 28.67 3.37 8.7-3.56 19.63-2.81-.14 3.27-2.18 3.94-3.68 2.79-11.95 5.5-10.39 3.19-7.67 1.34-7-1-7-3.86v-3.19c0 .02-6.5-5.61-6.5-5.61z" fill="#7f6549"/><path d="m711.5 265.5 17-3.19 11.67 3.56 8.7-3.56 17.63-4.84 1.86 5.3-2.18 3.94-3.68 2.79-11.94 5.5-10.39 3.19-7.67 1.34-7-1-7-3.86v-3.19c0 .02-7-5.98-7-5.98z" fill="#8db543"/><path d="m624.11 299.69-.61 5.5 4.9 4.29 11.02-.61 7.34-.61 9.76 1.75 9.22-1.75 6.74-1.84v-6.12l-7.35-4.19-1.23-5.51-11.63-1.23-7.95-1.22-7.96 3.06-2.45 3.67z" fill="#7f6549"/><path d="m625.34 294.79-1.37 5.12 4.86 4.06 10.59 1.74h7.34l9.76 1.76 8.61-3.5 7.37-3.46-1.65-2.48-5.72-4.47-1.23-5.51-11.63-1.22-7.95-1.22-7.96 3.06-2.45 3.67z" fill="#8db543"/><path d="m635.43 312.16-.3-2.07 17.56 2.07 5.31-2.16 12-1.72-.09 2-1.33 2.41-2.26 1.71-7.3 3.35-6.36 1.95-4.7.82-4.29-.61-4.28-2.36v-2s-3.96-3.39-3.96-3.39z" fill="#7f6549"/><path d="m635.13 310.09 10.41-1.95 7.15 2.18 5.32-2.18 10.79-3 1.14 3.25-1.33 2.42-2.26 1.7-7.3 3.35-6.36 2-4.7.81-4.29-.61-4.28-2.36v-2s-4.29-3.61-4.29-3.61z" fill="#8db543"/><path d="m790 265.23c-.5.27-11-2-11-2l-5.52 5.23 11.75 7.07 6.77-3.03 3.15-2.15z" fill="#8fab4d"/><path d="m652.58 289.8-11.79 5.7v4l3.05 4h13.48l1.3-2.62v-4.23l-6.09-4.37z" fill="#779939"/><path d="m763.14 261.13-11.75 4.75-.83 5.55 4.61 1.43 7.08-4.78z" fill="#779939"/><rect fill="#37491c" height="7" rx=".87" width="2" x="647.5" y="292.5"/><path d="m649.5 255.5s12 34 11 34-12 7-12 6 1-40 1-40z" fill="#325054"/><path d="m649.5 255.5-12 34 11 6z" fill="#628774"/><path d="m785.19 325.51-6.13 3.87-17.95 4.5-12.37 1.15-12.7-2.38-9.4 2.64-11.7-4.82 2.05-10.97 39.77-5.66 28.62 1.46 1.43 1.55z" fill="#7f6549"/><path d="m777.32 329.06-17.35 3.65-9.45.06-13.76-3.45-9.65 3.43-10.67-5.49.55-7.76 9.41-6.98 2.69-4.74 3.4-3.73 20.07-6.68 24.76 2.85 9.57 11.4-.04 2.89-.04 2.34-6.48 5.78-13.45-5.14-13.99 2.62-10.6-1.11 10.91 3.35 11.87.04z" fill="#8db543"/><path d="m733.7 342.79 6.82-9.95 12.25-6.92 17.81-.44 8.86 3.95 2.02 8.62-1.32 6.85-5.02 2.64-7 1.83h-6.48l-14.05-1.38-6.89.11z" fill="#7f6549"/><path d="m733.7 342.79 7.59-13.64 12.25-6.93 17.81-.43 8.86 3.94 1.4 12.6-1.67 4.04-4.05 1.47-8.19 3.4-6.11.51-14.3-1.37-6.59 1.72z" fill="#8db543"/><path d="m734.53 312.61c-2-1.11-10.52 5.89-10.52 5.89l-3 4 5.49 3.39h5l7.43-2.64 1.76-5.65z" fill="#779939"/><path d="m765.5 330.5-13-2.64-5.27 5.14-1.79 6.6 6.22 3.9 7.84-1.5 3.88-3.76z" fill="#779939"/><path d="m776.74 308.37-16.47-6.87h-9.57l-5.32 5.25.12 5.86 8.67 3.27 6.1 1.62 11.23.38 2.88.62z" fill="#779939"/><rect fill="#37491c" height="5.25" rx=".61" width="1.21" x="764.57" y="313.25"/><path d="m765.79 285.5s7.28 25.5 6.67 25.5-7.28 5.25-7.28 4.5.61-30 .61-30z" fill="#325054"/><path d="m765.79 285.5-7.29 25.5 6.68 4.5z" fill="#628774"/><rect fill="#37491c" height="7" rx=".87" width="2" x="727.5" y="314.5"/><path d="m729.5 277.5s12 34 11 34-12 7-12 6 1-40 1-40z" fill="#325054"/><path d="m729.5 277.5-12 34 11 6z" fill="#628774"/><rect fill="#37491c" height="5.89" rx=".82" width="1.65" x="748.74" y="304.61"/><path d="m750.39 273.5s9.89 28.59 9.06 28.59-9.89 5.89-9.89 5.05.83-33.64.83-33.64z" fill="#325054"/><path d="m750.39 273.5-9.89 28.59 9.06 5.05z" fill="#628774"/><rect fill="#37491c" height="6.36" rx=".82" width="1.73" x="754.17" y="331.14"/><path d="m755.91 297.5s10.41 30.91 9.54 30.91-10.45 6.36-10.45 5.45.91-36.36.91-36.36z" fill="#325054"/><path d="m755.91 297.5-10.41 30.91 9.54 5.45z" fill="#628774"/><rect fill="#37491c" height="5.73" rx=".74" width="1.47" x="783.87" y="262.77"/><path d="m785.35 232.5s8.84 27.82 8.11 27.82-8.85 5.73-8.85 4.91.74-32.73.74-32.73z" fill="#325054"/><path d="m785.35 232.5-8.85 27.82 8.11 4.91z" fill="#628774"/><rect fill="#37491c" height="5.25" rx=".61" width="1.21" x="755.57" y="263.25"/><path d="m756.79 235.5s7.28 25.5 6.67 25.5-7.28 5.25-7.28 4.5.61-30 .61-30z" fill="#325054"/><path d="m756.79 235.5-7.29 25.5 6.68 4.5z" fill="#628774"/><rect fill="#37491c" height="5.25" rx=".61" width="1.21" x="688.57" y="318.25"/><path d="m689.79 290.5s7.28 25.5 6.67 25.5-7.28 5.25-7.28 4.5.61-30 .61-30z" fill="#325054"/><path d="m689.79 290.5-7.29 25.5 6.68 4.5z" fill="#628774"/><rect fill="#37491c" height="5.25" rx=".61" width="1.21" x="625.57" y="208.25"/><path d="m626.79 180.5s7.28 25.5 6.67 25.5-7.28 5.25-7.28 4.5.61-30 .61-30z" fill="#325054"/><path d="m626.79 180.5-7.29 25.5 6.68 4.5z" fill="#628774"/><rect fill="#37491c" height="5.25" rx=".61" width="1.21" x="592.57" y="207.25"/><path d="m593.79 179.5s7.28 25.5 6.67 25.5-7.28 5.25-7.28 4.5.61-30 .61-30z" fill="#325054"/><path d="m593.79 179.5-7.29 25.5 6.68 4.5z" fill="#628774"/><rect fill="#37491c" height="4.61" rx=".61" width="1.21" x="624.57" y="65.89"/><path d="m625.79 41.5s7.28 22.41 6.67 22.41-7.28 4.61-7.28 4 .61-26.41.61-26.41z" fill="#325054"/><path d="m625.79 41.5-7.29 22.41 6.68 3.95z" fill="#628774"/><rect fill="#37491c" height="4.61" rx=".61" width="1.21" x="665.57" y="66.89"/><path d="m666.79 42.5s7.28 22.41 6.67 22.41-7.28 4.61-7.28 4 .61-26.41.61-26.41z" fill="#325054"/><path d="m666.79 42.5-7.29 22.41 6.68 3.95z" fill="#628774"/><path d="m426.5 72.5h-85s-.13-4.23 2.44-6.61 7.26 0 7.26 0 .3-7.39 7.3-10.39a12.09 12.09 0 0 1 12 1s1-10 11-10 10 9 10 9 6-10 15-3 8.33 13.39 8.33 13.39z" fill="#fff"/><path d="m791.85 25.31s9.11 5 9.3 6.33c.44 3.07.52 3.12-5.94 6.12-5.66 2.62-7.17 1.05-12.94-2.13a49.43 49.43 0 0 1 -8.17-5.24c-1.7-1.35 5-7.09 5-7.09z" fill="#9c9d94" stroke="#7f8183" stroke-miterlimit="10"/><path d="m791.28 21.78s10.63 7.08 10.63 8.71-.65 2.51-6.91 5.51c-4.92 2.3-10.07-.06-15.67-3.56-4.86-3-5.81-3.92-6.38-5.42-1.08-2.84 7.06-5.65 7.06-5.65z" fill="#daa532" stroke="#a87866" stroke-miterlimit="10"/><path d="m776.42 25s-.72-1.31-1.12-.05-.38 2.25 3.36 4.59 6.73 4.34 12.24 5.06a9.23 9.23 0 0 0 8.49-3.72z" fill="#faf053"/><path d="m790.06 21.34s8.63 5.63 10.07 7.08-.14 3.46-3.64 4.12c-7.84 1.49-12.91-2.1-15.34-3.18a17.48 17.48 0 0 1 -5.28-3.28c-1.92-2 .38-6.88.38-6.88z" fill="#b5fa3e" stroke="#50953d" stroke-miterlimit="10"/><path d="m775.44 23.63s-1.13-7.94 6-8.13 16.4 11.31 16.4 11.31-1.15 3.91-8.71 3-13.69-6.18-13.69-6.18z" fill="#70f0fc" stroke="#7697bc" stroke-miterlimit="10"/><path d="m775.29 23s.32-3.64 3.07-2.82 6.45 8.23 6.45 8.23a33.14 33.14 0 0 1 -6-2.84 20 20 0 0 1 -3.52-2.57z" fill="#418cc4"/><path d="m789.34 29.45c0-.32-.86-2.41-3.36-5.64a38.73 38.73 0 0 0 -4.35-4.87l2.56-2.08a35.4 35.4 0 0 1 7 6.39 34.69 34.69 0 0 1 4 5.79 19.26 19.26 0 0 1 -3 .65 11.21 11.21 0 0 1 -2.85-.24z" fill="#418cc4"/><path d="m776.25 19.21s2.36 5 8.88 4.2c4.94-.61 5.67-3.2 5.67-3.2l.75.69s-2.1 3.13-5.39 3.64c-8.52 1.29-10.29-4.31-10.29-4.31z" fill="#73dd35" stroke="#799d4e" stroke-miterlimit="10"/><path d="m777.93 16.87s.23 2.09 3 2.09c3.85 0 3.13-2.71 3.13-2.71a12.12 12.12 0 0 0 -3.36-.45 5.42 5.42 0 0 0 -2.77 1.07z" fill="#d6fc40"/><path d="m779.16 16.62a1.77 1.77 0 0 0 1.84 1.44c2.21 0 1.71-1.78 1.71-1.78a2.71 2.71 0 0 0 -2-.27 3.52 3.52 0 0 0 -1.55.61z" fill="#53b229"/><path d="m781.15 17.56a.45.45 0 0 1 -.45-.45v-4.11a.45.45 0 0 1 .9 0v4.08a.45.45 0 0 1 -.45.48z" fill="#a5a5a5"/><ellipse cx="781.28" cy="12.02" fill="#4184f9" rx=".76" ry=".79" stroke="#4e709d" stroke-miterlimit="10"/><path d="m792.5 32.62a8.08 8.08 0 0 0 4-.82 5 5 0 0 0 2.33-2.49s.41-.48 1.25.06.34.93.34.93-.42 1.94-3.87 3.48a7.27 7.27 0 0 1 -4.89.58s-1 0-.61-1.33c.22-.9 1.45-.41 1.45-.41z" fill="#fdffc7" stroke="#b9b2ae" stroke-miterlimit="10"/><path d="m567 286.33a4.87 4.87 0 0 0 2 5.53 15.37 15.37 0 0 0 9.41 3.18c3.87-.1 14.15-6.56 17.06-8.05s2.1-5.7-.61-7.49-4.64-2.32-6.47-2.32-21.09 7.98-21.39 9.15z" fill="#9ea097" stroke="#8d9198" stroke-miterlimit="10"/><path d="m567.24 285.33c-.42 1.12-.77 2.68 1.85 4.47a15.2 15.2 0 0 0 9.4 3.18c3.87-.1 14.15-6.55 17.06-8s2.21-5.14-.51-6.93-4.29-2.12-6.13-2.12-20.07 5.07-21.67 9.4z" fill="#e4e4e4" stroke="#959595" stroke-miterlimit="10"/><path d="m568.2 284.18c-.77.91-1.74 2.28.88 4.07a15.34 15.34 0 0 0 9.4 3.18c3.88-.11 13.11-5.81 16.18-7.37 2.72-1.38 3.49-3.52.37-6.05-2.6-2.12-5.78-1.18-7.62-1.18s-18.18 6.17-19.21 7.35z" fill="#f9f9fc"/><path d="m568.1 283.43c-.38.94-1.31 2 1.16 3.8a14.08 14.08 0 0 0 8.85 3.12c3.65-.1 13.33-6.45 16.07-7.91s1.51-3.07-1-4.83a9.37 9.37 0 0 0 -6.08-1.8c-1.78 0-17.1 2.93-19 7.62z" fill="#aaa"/><path d="m569.86 285.11a14 14 0 0 0 8.86 3c3.64-.09 11.53-5.13 14.27-6.52s1.74-3.06-.82-4.72a9.46 9.46 0 0 0 -7.68-.88c-1.68.41-21.56 4.12-14.63 9.12z" fill="#fff"/><path d="m570.11 281.28c0 .81-.45 1.48 1.43 2.68a11.56 11.56 0 0 0 6.79 2.14c2.79-.06 10.2-4.42 12.3-5.43s1.19-3-.77-4.23-9-4.38-15.2-3.23c-5.92 1.11-4.55 7.6-4.55 8.07z" fill="#4184f9" stroke="#5482b8" stroke-miterlimit="10"/><path d="m589.86 276.45c-2-1.2-8.71-4-15-3.13a5 5 0 0 0 -2.81 1.62 3.52 3.52 0 0 1 2.64 1.5c1.15 1.37 2.6 8 2.81 9.32a5.34 5.34 0 0 0 .8 0 4.79 4.79 0 0 0 1.43-.33c-.12-.63-1.4-7.17-1-8.5s.91-3 5.52-1.81a17.77 17.77 0 0 1 7.26 4.08c.13-.96-.37-1.96-1.65-2.75z" fill="#70f0fc"/><path d="m570.87 277.72s3.1 4.8 9.89 3.07 5.75-5.53 5.75-5.53l1.69.63s1.56 3.84-5.89 6.18c-8.75 2.77-11.68-2.07-11.68-2.07z" fill="#d0d0d0" stroke="#9f9f9f" stroke-miterlimit="10"/><path d="m573.31 273.89s-.74 1.84 2.24 1.84c3.71 0 2.15-2.6 2.15-2.6a7.78 7.78 0 0 0 -2.35.09c-1.73.19-2.04.67-2.04.67z" fill="#a5a5a5"/><path d="m573.63 273.65s-.87 1.94 2.11 1.83c3.2-.11 1.68-2.38 1.68-2.38a15.85 15.85 0 0 0 -1.8.07c-1.73.13-1.99.48-1.99.48z" fill="#fbeced"/><path d="m575.1 268.77h.64v5.31h-.64z" fill="#a5a5a5"/><ellipse cx="575.42" cy="268.23" fill="#4184f9" rx=".81" ry=".84" stroke="#4e709d" stroke-miterlimit="10"/><path d="m919.5 209.5c0 43.35-25.61 64-53.5 64s-52.5-20.65-52.5-64 24.61-93 52.5-93 53.5 49.65 53.5 93z" fill="url(#a)"/><path d="m874.5 272.5s12-6 15-16 2.57-13 2.57-13l10.64-4s.59 12.64-6.21 20c-13 14-22 13-22 13z" fill="url(#b)"/><path d="m856.72 272.5s-12-6-15-16-2.57-13-2.57-13l-10.64-4s-.59 12.64 6.21 20c13 14 22 13 22 13z" fill="url(#c)"/><path d="m857.72 242.53h16.78l-4.42 22.61h-7.85z" fill="url(#d)"/><path d="m866.5 238.5c-27.9 0-50.74-13.22-52.83-30a20.86 20.86 0 0 0 -.17 2.5c0 17.95 23.73 32.5 53 32.5s53-14.55 53-32.5a20.86 20.86 0 0 0 -.17-2.5c-2.09 16.78-24.93 30-52.83 30z" fill="#f5f7f6"/><path d="m866.5 235.5c-27.9 0-50.74-13.22-52.83-30a20.86 20.86 0 0 0 -.17 2.5c0 17.95 23.73 32.5 53 32.5s53-14.55 53-32.5a20.86 20.86 0 0 0 -.17-2.5c-2.09 16.78-24.93 30-52.83 30z" fill="url(#e)"/><path d="m866 206.93c-25.53 0-46.44-12.09-48.34-27.43a17.51 17.51 0 0 0 -.16 2.29c0 16.41 21.71 29.71 48.5 29.71s48.5-13.3 48.5-29.71a17.51 17.51 0 0 0 -.16-2.29c-1.9 15.34-22.81 27.43-48.34 27.43z" fill="#f5f7f6"/><path d="m866 202.93c-25.53 0-46.44-12.09-48.34-27.43a17.51 17.51 0 0 0 -.16 2.29c0 16.41 21.71 29.71 48.5 29.71s48.5-13.3 48.5-29.71a17.51 17.51 0 0 0 -.16-2.29c-1.9 15.34-22.81 27.43-48.34 27.43z" fill="url(#f)"/><path d="m865.5 178.64c-20.53 0-37.34-10.2-38.87-23.14a15.51 15.51 0 0 0 -.13 1.93c0 13.85 17.46 25.07 39 25.07s39-11.22 39-25.07a15.51 15.51 0 0 0 -.13-1.93c-1.53 12.94-18.37 23.14-38.87 23.14z" fill="#f5f7f6"/><path d="m865.5 174.64c-20.53 0-37.34-10.2-38.87-23.14a15.51 15.51 0 0 0 -.13 1.93c0 13.85 17.46 25.07 39 25.07s39-11.22 39-25.07a15.51 15.51 0 0 0 -.13-1.93c-1.53 12.94-18.37 23.14-38.87 23.14z" fill="url(#g)"/><path d="m865.5 155.07c-15.26 0-27.77-9.06-28.91-20.57-.05.57-.09 1.14-.09 1.71 0 12.31 13 22.29 29 22.29s29-10 29-22.29c0-.57 0-1.14-.09-1.71-1.14 11.5-13.65 20.57-28.91 20.57z" fill="#e7e1e1"/><path d="m866 151.5c-15 0-27.29-7.93-28.41-18a14.91 14.91 0 0 0 -.09 1.5c0 10.77 12.76 19.5 28.5 19.5s28.5-8.73 28.5-19.5a14.91 14.91 0 0 0 -.09-1.5c-1.12 10.07-13.41 18-28.41 18z" fill="url(#h)"/><path d="m882.5 166.5v-16a57.83 57.83 0 0 1 -10 3c-5.21 1-12 0-12 0v16a41.11 41.11 0 0 0 13 1c7.44-.57 9-4 9-4z" fill="url(#i)"/><path d="m872.42 197.53c.5 0 0-19.93 0-19.93a66 66 0 0 1 -14.67 0 52.24 52.24 0 0 1 -17.25-5.1v20s4.15 3.49 14.82 5c13.6 2 17.1.03 17.1.03z" fill="#c44848"/><path d="m855.32 230.59v-23.34a127.5 127.5 0 0 0 21.68-1.72c13.5-2 20.5-6 20.5-6v25s-2.34 4.17-17.17 6.09-25.01-.03-25.01-.03z" fill="url(#j)"/><path d="m838.73 206.47-7.92-3.82-.31 23.85 8.23 3.97z" fill="#d65764"/><path d="m848.5 154.5-6.09-5.34-5.91 17.34 6.85 4.07z" fill="#d65764"/><path d="m900.5 202.5a14.63 14.63 0 0 0 5-3l3-3 .23 27.55-8.23 4.42z" fill="#ab414a"/><path d="m874.5 201.5-2.08-4s-5.92 2-16.92 0a58.27 58.27 0 0 1 -15-5l-6.57 3s8.21 4.75 21.39 6.37 19.18-.37 19.18-.37z" fill="#e5dcdd"/><path d="m835.92 173.5s-2 1-3.42 10 .5 11.5.5 11.5l7.47-2.5v-20z" fill="#bc9b95"/><path d="m900.5 228.47-5.72-2.47v-25.12l5.72 1.62z" fill="#e1d9d9"/><path d="m855.32 230.59-5.32 3.3v-24.15l5.32-2.49" fill="#bc9b95"/><path d="m889.5 169.5-7-3s-1 2-9.46 2.5a45.29 45.29 0 0 1 -12.54-.81l-2.78 5.95s6.1 1.44 15.78.36a46 46 0 0 0 16-5z" fill="#e8e2e3"/><path d="m874.5 201.5v-19.75l-2.08-4.15v19.93z" fill="#dac1be"/><path d="m872.57 266.1-.99-2.6h-12.22l-.86 3v6.75h14.07z" fill="#c29f92"/><path d="m870.58 273.5s.1-6.17 0-6.44-9.08 0-9.08 0v6.44z" fill="url(#k)"/><path d="m859.5 263.5h12v2h-12z" fill="#e8e8f0"/></svg>