<svg viewBox="0 0 978 355" xmlns="http://www.w3.org/2000/svg"><path d="m-1.5.5h978v355h-978z" fill="#e8e8f0"/><path d="m739 76c-4-1-4.94-2-9-1s-7 5-7 5l6 4.91h6.34l4.41-3.3z" fill="#ababb0"/><path d="m539 187 3-4-39-16-11 4-11.95-4-11.05 4-3 8-8 1-5 7-.25 7-.44 8-1.76 12.46 25.1 6.56z" fill="#97b451"/><path d="m577 313 7-5 1-2-17-9-26-13-45.73-13-12.27-8-20-2-10.37 10h-23.63l-45.28-9.15-1.72-6.85 16-16 15.61-6 21.4-8 2.2-4.93v-3.98l-8.36-11.09h-23.85l-3.01 9.46-11.99 2.58-60 44.96-2 13-11.78 5 3.28 15.31-7.5 9.69 5 10.13v11.87l15.08 17h14.53l11.55 9.77 206.84 1.23 8-9 1-4-3-11 8-10 1-3z" fill="#97b451"/><path d="m664.33 328.01-25.52 3.63-33.65 19.66-23.16 1.7-.89 2h110.31l1.58-2z" fill="#97b451"/><path d="m540 185 3-4-39-16-11 4-11.95-4-11.05 4-3 8-8 1-5 7-.25 7-.44 8-1.76 12.46 25.1 6.56z" fill="#b7d17b"/><path d="m578 311 7-5-5.31-11h-10.69l-26-13-45.73-13-12.27-8-20-2-10.37 10h-23.63l-45.28-9.15-1.72-6.85 16-16 15.61-6 21.4-8 2.2-4.93v-3.98l-8.36-11.09h-23.85l-3.01 9.46-11.99 2.58-60 44.96-2 13-11.78 5 3.28 15.31-7.5 9.69 5 10.13v11.87l15.08 17h14.53l11.55 9.77 204.45 1.23 10.68-11-2.29-15 8-9z" fill="#b7d17b"/><path d="m665.33 326.01-25.52 3.63-33.65 19.66-10.51-1.23-13.54 4.93h110.31l-17.5-18.47z" fill="#b7d17b"/><path d="m329.82 278.66 12.16-.47 12.55 1.81-4.63-6-13.22-5.74z" fill="#bcd877"/><path d="m379.42 292.41 18.58 4.59h11.35l10.79-2 9.47 2-8.15-7.71-16.94.86-10.58-.86z" fill="#bcd877"/><path d="m349.68 297h12.32l20.37 2-14.65-8-11.43-4.42-26.47 1.37.18 4.05z" fill="#bcd877"/><path d="m358.49 273 14.01 5.19 9.87 6.91h15.09l-13.61-10.97h17.58l12.32 5.87-7.75-8-9.42-3.74-13.58.74z" fill="#bcd877"/><path d="m328.82 319.66 12.16-.47 12.55 1.81-4.63-6-13.22-5.74z" fill="#bcd877"/><path d="m378.42 333.41 18.58 4.59h11.35l10.79-2 9.47 2-8.15-7.71-16.94.86-10.58-.86z" fill="#bcd877"/><path d="m348.68 338h12.32l20.37 2-14.65-8-11.43-4.42-26.47 1.37.18 4.05z" fill="#bcd877"/><path d="m357.49 314 14.01 5.19 9.87 6.91h15.09l-13.61-10.97h17.58l12.32 5.87-7.75-8-9.42-3.74-13.58.74z" fill="#bcd877"/><path d="m787 57 1.98 7.77-430.48 217.73-16.5 20.5 5 13 71 37 51.14-.5-85.64-43-6.05-6.61 2.55-3.89 432-216 13-9 3.36-9.89-.36-4.11-111-59h-45l-1 1z" fill="#9ba2b2"/><path d="m787.54 54 3.44 4.6v6.17l-430.48 217.73-14 9-4 11 5 11 73.77 39.5h50.86l-86.63-43.5-6.05-6.61v-5.61l431.05-215.78 13.5-9.8 3.5-11.2-4.56-11.92-99.55-48.08h-50.01z" fill="#646973" stroke="#fff" stroke-miterlimit="10"/><path d="m407 240.25-6 5.75-19 9-13.5 3.97h-14.61l-9.89 5.03-14-3v-13l43-15 32.09-4.47 1.91 1.47z" fill="#7f6549"/><path d="m399 246-18.51 7.9-10.49 2.1-16-1-10 6-13-4-1-9 9-10 2-6 3-5 20.9-11.96 28.1-2.04 13 11 .55 3.31.45 2.69-6 8-16-3-15 6-12 1 12.81 1.5 13.19-2.5z" fill="#8db543"/><path d="m422.82 311.66 12.16-.47 12.55 1.81-4.63-6-13.22-5.74z" fill="#bcd877"/><path d="m472.42 325.41 18.58 4.59h11.35l10.79-2 9.47 2-8.15-7.71-16.94.86-10.58-.86z" fill="#bcd877"/><path d="m442.68 330h12.32l20.37 2-14.65-8-11.43-4.42-26.47 1.37.18 4.05z" fill="#bcd877"/><path d="m451.49 306 14.01 5.19 9.87 6.91h15.09l-13.61-10.97h17.58l12.32 5.87-7.75-8-9.42-3.74-13.58.74z" fill="#bcd877"/><path d="m441.82 285.66 12.16-.47 12.55 1.81-4.63-6-13.22-5.74z" fill="#bcd877"/><path d="m491.42 299.41 18.58 4.59h11.35l10.79-2 9.47 2-8.15-7.71-16.94.86-10.58-.86z" fill="#bcd877"/><path d="m461.68 304h12.32l20.37 2-14.65-8-11.43-4.42-26.47 1.37.18 4.05z" fill="#bcd877"/><path d="m470.49 280 14.01 5.19 9.87 6.91h15.09l-13.61-10.97h17.57l12.33 5.87-7.75-8-9.42-3.74-13.58.74z" fill="#bcd877"/><path d="m457.85 197.73 8.12-3.66 9.27-1.49-5.46-4.77-11.23-2.26z" fill="#bcd877"/><path d="m497 198.44 14.45-.3 7.75-2.98 6.6-4.83 7.23-.49-8.52-5.56-11.24 5.31-7.56 1.92z" fill="#bcd877"/><path d="m478.45 210.82 8.41-3.23 14.68-3.35-13.07-4.14-9.51-1.41-17.55 8.31 1.68 4z" fill="#bcd877"/><path d="m475.26 184.56 11.55 1.5 9.4 4.31 10.3-3.96-13.51-7.38 12.01-4.62 10.67 2.62-8.37-5.95-7.86-1.26-8.99 4.31z" fill="#bcd877"/><path d="m523 349.3 9.85-1.23 37.87-16.07-16.51-9.35z" fill="#8fab4d"/><path d="m673 337.23-4.68-4.78-13.07-.45-17.98 6.82-1 4.79 8.74 5.39 16.15-3.5z" fill="#8fab4d"/><path d="m601.89 350.92 14.11-4.92 8.06 4.92v2.08h-23.06z" fill="#8fab4d"/><path d="m357.49 226.07 1 7.14h8.37l19.26-4.68 5.88-5.53-2.37-4.93-7.26-.84-19.43 4.77z" fill="#809945"/><path d="m537.34 180-11.59-1.59 2.48 10.86 4.5 1.1 4.61-3.37 2.66-2z" fill="#8fab4d"/><path d="m438 304.29c-1-.29-15.18 2.73-15.18 2.73v8.11l5.79 4.32 6.56-.25 2.83-4.07z" fill="#8fab4d"/><path d="m455.11 321c-.11-1-9.86 2.82-9.86 2.82l2.55 8.63 6.37 2.58 5.41-2.58v-6.74z" fill="#8fab4d"/><path d="m491 205 7.12 3 21.35-11.97-6.93-.84h-6.54l-6 2.54z" fill="#8fab4d"/><rect fill="#53703d" height="8" rx=".5" width="1" x="430" y="306"/><path d="m425 292-2.25 9.37 4.13 6.04 3.05-.39 2.72-10.58z" fill="#759e57"/><path d="m429 289-4 3 7 4 6-1-3.28-5.36z" fill="#759e57"/><path d="m429.93 307 2.08-5.46h6.74s-.75 5.46-1.26 5.46-7.56 0-7.56 0z" fill="#759e57"/><path d="m438 295 .75 6.56s-6.73-.44-6.74 0 0-5.56 0-5.56z" fill="#5b7e43"/><path d="m427.09 293.19c-.09-.19-2.09 7.59-2.09 7.59l2.09 2.56 2.84 3.68 2.08-5.46v-5.56z" fill="#87b765"/><rect fill="#53703d" height="8" rx=".5" width="1" x="533" y="177"/><path d="m528 163-2.25 9.37 4.13 6.04 3.05-.39 2.72-10.58z" fill="#759e57"/><path d="m532 160-4 3 7 4 6-1-3.28-5.36z" fill="#759e57"/><path d="m532.93 178 2.08-5.46h6.74s-.75 5.46-1.26 5.46-7.56 0-7.56 0z" fill="#759e57"/><path d="m541 166 .75 6.56s-6.73-.44-6.74 0 0-5.56 0-5.56z" fill="#5b7e43"/><path d="m530.09 164.19c-.09-.19-2.09 7.59-2.09 7.59l2.09 2.56 2.84 3.68 2.08-5.46v-5.56z" fill="#87b765"/><rect fill="#53703d" height="8" rx=".5" width="1" x="731" y="72"/><path d="m726 58-2.25 9.37 4.13 6.04 3.05-.39 2.72-10.58z" fill="#759e57"/><path d="m730 55-4 3 7 4 6-1-3.28-5.36z" fill="#759e57"/><path d="m730.93 73 2.07-5.44h6.74s-.74 5.44-1.25 5.44-7.56 0-7.56 0z" fill="#759e57"/><path d="m739 61 .75 6.56s-6.73-.44-6.74 0-.01-5.56-.01-5.56z" fill="#5b7e43"/><path d="m728.09 59.19c-.09-.19-2.09 7.59-2.09 7.59l2.09 2.56 2.84 3.66 2.07-5.44v-5.56z" fill="#87b765"/><rect fill="#5f6f5f" height="8.57" rx=".77" width="1.55" x="451.24" y="321.43"/><path d="m453.08 310 4.92 2.6v5.09l-1.52 4.06-3.4 1.82-5.7-.71-1.45-6.93 3.98-3.43z" fill="#6e9552"/><path d="m452.01 310-3.52 2.5-.69 2.55 4.21 1.38z" fill="#87b765"/><path d="m445.93 315.93 4.94 2.64v3.35l-3.58 1.04-2.04-2.89z" fill="#87b765"/><path d="m452.23 321.92 2.1-2.91.78-3.34-1.44-5.04 4.33 3.19v3.87l-1.31 3.5z" fill="#5b7e43"/><path d="m506 196-7.5 4.39v-6.17l9.38-4.22z" fill="#72747a"/><path d="m498 208v-12.66l-7.99-2.97-.01 12.63z" fill="#b2aeb5"/><path d="m514 199v-12.66l-7.99-2.97-.01 12.63z" fill="#93969d"/><path d="m499 207-1 1v-13h1z" fill="#7e8086"/><path d="m515 198-1 1v-13h1z" fill="#7e8086"/><path d="m489 190 11 4 19.47-9-11.47-5z" fill="#6ca9a4"/><path d="m519.47 187v-2l-19.47 9v2z" fill="#4d767f"/><path d="m489 192v-2l11 4v2z" fill="#7cafb4"/><g stroke-miterlimit="10"><path d="m797 45s15.34 8 13.17 16-14.17 14-14.17 14" fill="none" stroke="#e3e3ec" stroke-width="2"/><path d="m373.6 315.13s-14.27-5.84-13.44-15 13.44-13.13 13.44-13.13" fill="none" stroke="#e3e3ec" stroke-width="2"/><path d="m382 320 59 29" fill="none" stroke="#ececf3" stroke-dasharray="8 7" stroke-width="2"/><path d="m421.5 262.5 370.5-184.5" fill="none" stroke="#ececf3" stroke-dasharray="8 7" stroke-width="2"/><path d="m380.5 274.5 18-9" fill="none" stroke="#ececf3"/><path d="m382.5 275.5 18-9" fill="none" stroke="#ececf3"/><path d="m384.5 276.5 18-9" fill="none" stroke="#ececf3"/><path d="m386.5 277.5 18-9" fill="none" stroke="#ececf3"/><path d="m388.5 278.5 18-9" fill="none" stroke="#ececf3"/><path d="m390.5 279.5 18-9" fill="none" stroke="#ececf3"/><path d="m392.5 280.5 18-9" fill="none" stroke="#ececf3"/><path d="m394.5 281.5 18-9" fill="none" stroke="#ececf3"/><path d="m396.5 282.5 18-9" fill="none" stroke="#ececf3"/><path d="m398.5 283.5 18-9" fill="none" stroke="#ececf3"/><path d="m400.5 284.5 18-9" fill="none" stroke="#ececf3"/></g><path d="m896 129-14.45-5.66h-37.43l-11.12 6.66-7 12-9 5 7 11 16 8 24.6 11.5 20.4-1.5 14-4 19 2 8-10 .91-17-7.91-7z" fill="#97b451"/><path d="m897 127-14.45-5.66h-37.43l-11.12 6.66-7 12-9 5 7 11 16 8 24.6 11.5 20.4-1.5 14-4 19 2 8-10 .91-17-7.91-7z" fill="#b7d17b"/><path d="m831 132 7.63-14.73 17.34-12.27 28.4-5.36 15.52 2.72 6.11 10.64.16 9.22-7.16 4.78-10.61 4.25-10.39 1.75-23 2-11 2z" fill="#7f6549"/><path d="m831 132 7.63-19.73 17.34-12.27 28.4-5.36 15.52 2.72 6.44 15.96-1.33 5.68-6 3-12 6.61-9.63 2.31-23.37 2.08-10 4z" fill="#8db543"/><path d="m824.82 142.66 12.16-.47 12.55 1.81-4.63-6-13.22-5.74z" fill="#bbd878"/><path d="m874.42 156.41 18.58 4.59h11.35l10.79-2 9.47 2-8.15-7.71-16.94.86-10.58-.86z" fill="#bbd878"/><path d="m844.68 161h12.32l20.37 2-14.65-8-11.43-4.42-26.47 1.37.18 4.05z" fill="#bbd878"/><path d="m853.49 137 14.01 5.19 9.87 6.91h15.09l-13.61-10.97h17.57l12.33 5.87-7.75-8-9.42-3.74-13.58.74z" fill="#bbd878"/><path d="m888.16 104.62-9.31-2.89-11.85-1.73-5 1.73-5 8.38 7 8.21 8.58 3.02h8.54l5.88-4.61 2.72-3.86z" fill="#779939"/><rect fill="#37491c" height="7" rx=".82" width="1.91" x="866.54" y="100"/><path d="m868.45 63s11.45 34 10.49 34-11.45 7-11.45 6 .96-40 .96-40z" fill="#325054"/><path d="m868.45 63-11.45 34 10.5 6z" fill="#628774"/><rect fill="#37491c" height="5.73" rx=".74" width="1.47" x="877.37" y="112.27"/><path d="m878.85 82s8.84 27.82 8.11 27.82-8.85 5.73-8.85 4.91.74-32.73.74-32.73z" fill="#325054"/><path d="m878.85 82-8.85 27.82 8.11 4.91z" fill="#628774"/><rect fill="#37491c" height="4.93" rx=".61" width="1.39" x="663.94" y="332.07"/><path d="m665.33 306s8.32 24 7.67 24-8.33 4.94-8.33 4.23.66-28.23.66-28.23z" fill="#325054"/><path d="m665.33 306-8.33 23.95 7.63 4.23z" fill="#628774"/><path d="m767.2 228.93 6.06-14.95 13.76-12.46 22.55-5.45 12.32 2.77 4.85 10.8.13 9.36-5.69 4.85-8.42 4.32-8.25 1.77-18.26 2.03-8.73 2.03z" fill="#7f6549"/><path d="m767.2 228.93 6.06-20.03 13.76-12.46 22.55-5.44 12.32 2.77 5.11 16.19-1.06 5.77-4.76 3.05-9.53 6.7-7.64 2.35-18.55 2.11-7.94 4.06z" fill="#8db543"/><path d="m800.09 210.04-10.09 5.21 4.16 5.82 5.93 2.46 11.55-2.46 12.36-6.03-2.45-5-5.06-2.58z" fill="#809945"/><rect fill="#37491c" height="9.55" rx=".61" width="2.6" x="807.01" y="207.45"/><path d="m809.61 157s15.61 46.36 14.31 46.36-15.61 9.55-15.61 8.19 1.3-54.55 1.3-54.55z" fill="#325054"/><path d="m809.61 157-15.61 46.36 14.31 8.18z" fill="#628774"/><rect fill="#37491c" height="4.93" rx=".61" width="1.39" x="796.94" y="213.07"/><path d="m798.33 187s8.32 24 7.67 24-8.33 4.94-8.33 4.23.66-28.23.66-28.23z" fill="#325054"/><path d="m798.33 187-8.33 23.96 7.63 4.22z" fill="#628774"/><rect fill="#37491c" height="7.95" rx=".61" width="2.08" x="378.41" y="215.05"/><path d="m380.49 173s12.49 38.64 11.45 38.64-12.49 8-12.49 6.81 1.04-45.45 1.04-45.45z" fill="#325054"/><path d="m380.49 173-12.49 38.64 11.45 6.82z" fill="#628774"/><rect fill="#37491c" height="9.55" rx=".61" width="2.6" x="645.01" y="332.45"/><path d="m647.61 282s15.61 46.36 14.31 46.36-15.61 9.55-15.61 8.19 1.3-54.55 1.3-54.55z" fill="#325054"/><path d="m647.61 282-15.61 46.36 14.31 8.19z" fill="#628774"/><rect fill="#37491c" height="4.93" rx=".61" width="1.39" x="362.94" y="226.07"/><path d="m364.33 200s8.32 24 7.67 24-8.33 4.94-8.33 4.23.66-28.23.66-28.23z" fill="#325054"/><path d="m364.33 200-8.33 23.96 7.63 4.22z" fill="#628774"/><rect fill="#37491c" height="4.93" rx=".61" width="1.39" x="608.94" y="348.07"/><path d="m610.33 322s8.32 24 7.67 24-8.33 4.94-8.33 4.23.66-28.23.66-28.23z" fill="#325054"/><path d="m610.33 322-8.33 23.95 7.63 4.23z" fill="#628774"/><path d="m551.16 79.73 27.84-4.73 17 1 8.4-4-5.24-7 2.84-6-9.39-7.45-11.55-3.5-13.86-3.67h-12.57l-20.21 12.31-4.42 9.31 7.37 8.89z" fill="#97b451"/><path d="m552.16 77.73 27.84-4.73 17 1 8.4-4-5.24-7 2.84-6-9.39-7.45-11.55-3.5-13.86-3.67h-12.57l-20.21 12.31-4.42 9.31 7.37 8.89z" fill="#b7d17b"/><path d="m538.82 56.78 6.96-.35 7.2 1.35-2.65-4.49-7.58-4.29z" fill="#beda79"/><path d="m567.24 67.07 10.65 3.43h6.5l6.19-1.49 5.42 1.49-4.67-5.77-9.71.65-6.06-.65z" fill="#beda79"/><path d="m550.2 70.5h7.06l11.67 1.5-8.39-5.99-6.55-3.3-15.17 1.02.1 3.03z" fill="#beda79"/><path d="m555.25 52.55 8.02 3.88 5.66 5.17h8.65l-7.8-8.21h10.07l7.07 4.39-4.45-5.98-5.4-2.8-7.78.55z" fill="#beda79"/><path d="m521.2 60.22 4.66-11.12 10.59-9.27 17.34-4.05 9.48 2.06 3.73 8.03.1 6.97-4.37 3.61-6.48 3.21-6.35 1.32-14.04 1.51-6.72 1.51z" fill="#7f6549"/><path d="m521.2 60.22 4.66-14.9 10.59-9.27 17.34-4.05 9.48 2.06 3.93 12.05-.81 4.29-3.66 2.27-7.33 4.99-5.88 1.75-14.27 1.57-6.11 3.02z" fill="#8db543"/><path d="m552.75 41c-1.75-1-12.9-1.25-12.9-1.25l-6.31 2.63 1.88 9.12 10.48 7.77 9.35-4.58 1.6-4.8z" fill="#779939"/><rect fill="#37491c" height="5.89" rx=".61" width="1.47" x="538.37" y="39.11"/><path d="m539.85 8s8.84 28.59 8.11 28.59-8.85 5.89-8.85 5 .74-33.59.74-33.59z" fill="#325054"/><path d="m539.85 8-8.85 28.59 8.11 5.05z" fill="#628774"/><rect fill="#37491c" height="4.61" rx=".61" width="1.21" x="546.07" y="52.39"/><path d="m547.29 28s7.28 22.41 6.67 22.41-7.28 4.61-7.28 4 .61-26.41.61-26.41z" fill="#325054"/><path d="m547.29 28-7.29 22.41 6.68 3.95z" fill="#628774"/><path d="m523.46 348.37 37.54-16.95v-49.42l-37.54 18.59z" fill="#365f68"/><path d="m467 272 56.46 28.59-.46 48.41-56-30z" fill="#66958b"/><path d="m467 272 56.46 28.59-.46 48.41-56-30z" fill="#66958b"/><path d="m477 324.36 9 4.82v-47.56l-9-4.56z" fill="#74aa9e"/><path d="m495 286.18-8-4.05v47.58l8 4.29z" fill="#74aa9e"/><path d="m504 290.74-8-4.05v47.85l8 4.28z" fill="#74aa9e"/><path d="m514 295.8-9-4.56v48.12l9 4.82z" fill="#74aa9e"/><path d="m515 296.31v48.4l8 4.29.46-48.41z" fill="#74aa9e"/><path d="m476 276.56-9-4.56v47l9 4.82z" fill="#74aa9e"/><path d="m552 286.46-9 4.46v48.63l9-4.07z" fill="#376970"/><path d="m534 343.61 8-3.61v-48.59l-8 3.96z" fill="#376970"/><path d="m553 285.96v49.07l8-3.61v-49.42z" fill="#376970"/><path d="m533 295.87-9.54 4.72v47.78l9.54-4.31z" fill="#376970"/><path d="m561 298-38 19v2.2l38-18.61z" fill="#618590"/><path d="m561 314-38 19v2.2l38-18.61z" fill="#618590"/><path d="m467 289v2.23l57 27.97v-2.2z" fill="#caffff"/><path d="m467 307.23 57 27.97v-2.2l-57-28z" fill="#caffff"/><path d="m562.71 278.3v6.27s-38.85 18.9-39.28 19.16 0-6 0-6z" fill="#808c94"/><path d="m465 267 58.43 30.78v5.95l-58.43-30.73z" fill="#e7e5ed"/><path d="m504.5 249.5 58.21 28.8-39.28 19.48-58.43-30.78z" fill="#fff"/><path d="m505 253 50 25-32 16-50-26z" fill="#aaa4b7"/><path d="m504.86 255.38-29.57 13.81 47.71 24.81 29.22-14.61z" fill="#c0bbcb"/><path d="m523.46 288.15v-5.15l18.77-9.62-.23 5.62z" fill="#757e8e"/><path d="m523.46 288.15-18.46-9.15v-5.65l18.46 9.65z" fill="#d7d6da"/><path d="m524 264 18.23 9.35-18.77 9.65-18.46-9.65z" fill="#e7e5ed"/><path d="m303 98h-85s-.13-4.23 2.44-6.61 7.26 0 7.26 0 .3-7.39 7.3-10.39a12.09 12.09 0 0 1 12 1s1-10 11-10 10 9 10 9 6-10 15-3 8.33 13.39 8.33 13.39z" fill="#fff"/><path d="m225 262h-168s-.5-7.79 4-11.7c12-10.3 22 .7 22 .7s-7-20 12-29c17.8-8.43 25 2 25 2s5-14 26-12c16.51 1.57 17 13 17 13s7-7 16-2c10.53 5.85 6 12 6 12s5-6.45 14 0c7 5 3 11 3 11s5.91-3.85 14 1c10 6 9 15 9 15z" fill="#fff"/><path d="m705 3 85 39" fill="none" stroke="#ececf3" stroke-dasharray="8 7" stroke-miterlimit="10" stroke-width="2"/><path d="m589.2 171.91s-9.11 5-9.3 6.33c-.44 3.07-.52 3.12 5.94 6.11 5.66 2.63 7.17 1.05 12.94-2.12a50.1 50.1 0 0 0 8.22-5.23c1.7-1.36-5-7.1-5-7.1z" fill="#9c9d94" stroke="#7f8183" stroke-miterlimit="10"/><path d="m589.77 168.38s-10.63 7.08-10.63 8.71.65 2.55 6.87 5.47c4.92 2.31 10.07-.06 15.67-3.55 4.86-3 5.82-3.92 6.39-5.42 1.08-2.84-7.06-5.65-7.06-5.65z" fill="#fff" stroke="#a9a9a9" stroke-miterlimit="10"/><path d="m604.63 171.56s.72-1.31 1.13-.05.38 2.25-3.36 4.59-6.74 4.34-12.24 5.06a9.21 9.21 0 0 1 -8.49-3.71z" fill="#b6b6b6"/><path d="m591 167.93s-8.63 5.63-10.07 7.09.14 3.45 3.64 4.12c7.84 1.49 12.91-2.1 15.34-3.18a17.68 17.68 0 0 0 5.28-3.28c1.92-2.05-.38-6.88-.38-6.88z" fill="#fff" stroke="#a9a9a9" stroke-miterlimit="10"/><path d="m605.62 170.22s1.13-7.93-6-8.12-16.4 11.3-16.4 11.3 1.15 3.91 8.71 3 13.69-6.18 13.69-6.18z" fill="#70f0fc" stroke="#7697bc" stroke-miterlimit="10"/><path d="m605.76 169.62s-.32-3.65-3.07-2.82-6.45 8.22-6.45 8.22a32.65 32.65 0 0 0 6-2.83 20 20 0 0 0 3.52-2.57z" fill="#4184f9"/><path d="m591.71 176.05c0-.32.86-2.41 3.36-5.64a38.73 38.73 0 0 1 4.35-4.87l-2.56-2.08a35.4 35.4 0 0 0 -7 6.39 35 35 0 0 0 -4 5.78 18.81 18.81 0 0 0 3 .66 11.21 11.21 0 0 0 2.85-.24z" fill="#4184f9"/><path d="m604.8 165.8s-2.36 5-8.88 4.21c-4.94-.61-5.67-3.2-5.67-3.2l-.74.69s2.09 3.13 5.38 3.63c8.52 1.31 10.29-4.29 10.29-4.29z" fill="#d0d0d0" stroke="#9f9f9f" stroke-miterlimit="10"/><path d="m603.12 163.47s-.23 2.08-3 2.08c-3.85 0-3.13-2.7-3.13-2.7a12.12 12.12 0 0 1 3.36-.45 5.42 5.42 0 0 1 2.77 1.07z" fill="#d0d0d0" stroke="#9f9f9f" stroke-miterlimit="10"/><path d="m601.89 163.22a1.77 1.77 0 0 1 -1.87 1.44c-2.21 0-1.71-1.78-1.71-1.78a2.71 2.71 0 0 1 2-.27 3.38 3.38 0 0 1 1.58.61z" fill="#fbeced"/><path d="m599.91 164.16a.44.44 0 0 0 .44-.45v-4.09a.43.43 0 0 0 -.44-.44.44.44 0 0 0 -.45.44v4.09a.45.45 0 0 0 .45.45z" fill="#a5a5a5"/><ellipse cx="599.77" cy="158.62" fill="#4184f9" rx=".76" ry=".79" stroke="#4e709d" stroke-miterlimit="10"/><path d="m588.55 179.22a8.08 8.08 0 0 1 -4-.82 5 5 0 0 1 -2.33-2.49s-.41-.48-1.25.05-.34.94-.34.94.42 1.94 3.87 3.48a7.27 7.27 0 0 0 4.89.58s1 0 .61-1.33c-.22-.91-1.45-.41-1.45-.41z" fill="#fdff8a" stroke="#dfc88c" stroke-miterlimit="10"/></svg>