<svg viewBox="0 0 978 355" xmlns="http://www.w3.org/2000/svg" xmlns:xlink="http://www.w3.org/1999/xlink"><linearGradient id="a" gradientUnits="userSpaceOnUse" x1="871.01" x2="886.03" y1="128.44" y2="128.44"><stop offset=".4" stop-color="#f3e9d3"/><stop offset="1" stop-color="#c8b78f"/></linearGradient><linearGradient id="b" gradientUnits="userSpaceOnUse" x1="844.5" x2="874.5" y1="56.14" y2="56.14"><stop offset=".4" stop-color="#ffab4a"/><stop offset="1" stop-color="#c47721"/></linearGradient><linearGradient id="c" gradientUnits="userSpaceOnUse" x1="844.5" x2="874.5" y1="49.32" y2="49.32"><stop offset=".4" stop-color="#e0d7be"/><stop offset="1" stop-color="#c5aca3"/></linearGradient><linearGradient id="d" gradientUnits="userSpaceOnUse" x1="115.63" x2="114.25" y1="228.17" y2="286.04"><stop offset="0" stop-color="#6cd2f9"/><stop offset="1" stop-color="#69b1f9"/></linearGradient><linearGradient id="e" x1="162.79" x2="161.81" xlink:href="#d" y1="230.82" y2="280.81"/><linearGradient id="f" x1="211.91" x2="210.73" xlink:href="#d" y1="229.74" y2="280.97"/><linearGradient id="g" x1="257.81" x2="256.56" xlink:href="#d" y1="226.6" y2="279.24"/><linearGradient id="h" x1="300.06" x2="298.86" xlink:href="#d" y1="230.17" y2="280.51"/><linearGradient id="i" x1="343.26" x2="342.02" xlink:href="#d" y1="229.51" y2="281.6"/><linearGradient id="j" x1="386.96" x2="385.68" xlink:href="#d" y1="228.41" y2="282.36"/><path d="m0 .25h978v354.5h-978z" fill="#e8e8f0"/><path d="m539.96 118.3 12.54-.22 38.92-18.93-21.92-7.65z" fill="#ababb0"/><path d="m736.5 349.5h11l45-17.39-33-11.51z" fill="#ababb0"/><path d="m858.5 192.5 12.51 1 35.71-14.23-21.72-9.65z" fill="#ababb0"/><path d="m914.05 149.75 9.46.75 6.11 6.62-9.12 5.13-8.87-1.75z" fill="#ababb0"/><path d="m643.44 187.59 14.06-1.47 47-20.87-19.5-9.25z" fill="#ababb0"/><path d="m522.5 266.75c0-.25 11-1.09 11-1.09l29.16-14.16-20.2-7z" fill="#ababb0"/><path d="m819.51 324.5-12.76 2 .88 9.84 6.87 3.16s7.62 1 9.81-3.51l2.19-4.49z" fill="#ababb0"/><path d="m804 306.91-10.69 3.59s-2.19 7 0 7 8.19 2.89 8.19 2.89l4-2.89 2-5.43z" fill="#ababb0"/><path d="m933.91 164.25-65.4-35.25-23.01 8.5 67.27 37z" fill="#97b451"/><path d="m635.5 303.09 69.86-33.45s30.14 15.86 31.14 15.86 153.2-78 153.2-78l-21.2-7-30 14.05-39-18.05-188.27 93.22z" fill="#97b451"/><path d="m539.5 354.5 2-1 1-2-8 3z" fill="#97b451"/><path d="m593.5 191.5v-2l-28-14 136-67v-2l-61-32h-.98l-167.02 85v2l88 46z" fill="#97b451"/><path d="m934.91 162.25-65.4-35.25-23.01 8.5 67.27 37z" fill="#b7d17b"/><path d="m636.5 301.09 69.86-33.45s30.14 15.86 31.14 15.86 153.2-78 153.2-78l-21.2-7-30 14.05-39-18.05-188.27 93.22z" fill="#b7d17b"/><path d="m535.6 355 6.9-3.5-29-15-36.19 18.5z" fill="#b7d17b"/><path d="m593.5 189.5-27-16 135-67-60-34h-.98l-168.02 87 89 46z" fill="#b7d17b"/><path d="m758.2 160.5-230.15 117.16-15.21 10-4.27 10.17 4.27 8.91 11.51 8.59 29.15 16.17-4 17 3 6h102l2-5v-12.39l-4-5.61 60-30-23.94-11.43s-60.06 28.43-59.06 28.43-20-2-20-2l-19 1-10 2-7-1-30-17-2-6 1.86-3 6.93-4.86 234.21-117.14z" fill="#9ba2b2"/><path d="m759.2 158.5-230.15 117.16-15.21 10-4.27 10.17 4.27 8.91 11.51 8.59 29.15 16.17-1 3-4 6 1 10 3.5 5.5h98l4-8v-10l-4-6 61.5-30.5-23.94-11.43s-60.06 28.43-59.06 28.43-20-2-20-2l-19 1-10 2-7-1-30-17-2-6 1.86-3 6.93-4.86 234.21-117.14z" fill="#646973" stroke="#fff" stroke-miterlimit="10"/><path d="m641.5 116.5 51.98 24.94-50.1 25.9-50.88-24.84z" fill="#e5a377"/><path d="m642.5 119.5 45 22-43 21.88-44-21.88z" fill="#e7dad7"/><path d="m642.5 122.5 41.99 20.53 3.01-1.53-45-22-42 22 2.94 1.46z" fill="#b3b4ab"/><path d="m643.44 187.59v-17.09l47.06-23v17z" fill="#387378"/><path d="m596.5 147.5v16l46.94 24.09v-18.61z" fill="#6ca9a4"/><path d="m693.5 146.5-.02-5.06-50.1 25.9v4.39z" fill="#8f6440"/><path d="m592.5 142.5v4.79s50.77 24.68 50.88 24.44 0-4.39 0-4.39z" fill="#e58c58"/><path d="m530.5 223.5 19 10-27 14-19-11z" fill="#f07587"/><path d="m549.35 243.98.15-10.48-27 13v10.03z" fill="#8e4648"/><path d="m522.5 266.5v-9.97l27-14.03v9z" fill="#45706f"/><path d="m503.5 247.5v-11l19 10v10.03z" fill="#ed6466"/><path d="m522.5 266.75v-10.22l-19-9.03v10z" fill="#77a5ad"/><path d="m529.5 226.5 14 7-21 10-13.76-7z" fill="#9fa098"/><path d="m529.5 227.5-19.39 9.69 12.39 6.31 19.96-9.51z" fill="#cecfc5"/><path d="m739.5 73.5 19 10-27 14-19-11z" fill="#f07587"/><path d="m758.35 93.98.15-10.48-27 13v10.03z" fill="#8e4648"/><path d="m731.5 116.5v-9.97l27-13.03v9z" fill="#45706f"/><path d="m712.5 97.5v-11l19 10v10.03z" fill="#ed6466"/><path d="m731.5 116.75v-10.22l-19-9.03v10z" fill="#77a5ad"/><path d="m738.5 76.5 14 7-21 10-13.76-7z" fill="#9fa098"/><path d="m738.5 77.5-19.39 9.69 12.39 6.31 19.96-9.51z" fill="#d8c2b7"/><path d="m914.05 149.75 9.46.75 6.11 6.62-9.12 5.13-8.87-1.75z" fill="#98b551"/><path d="m641.5 81.5-9.13-1.59-6.14 8.69 7 2.9h7.68s4.69.2 5.66-2.9l1-3.1z" fill="#98b551"/><path d="m613.25 95.5-12.37 1-2.67 7.5 2.67 7.85s-.38 6.54 5.62 1.62l6-4.93a3.33 3.33 0 0 0 3-3.6v-3.4z" fill="#98b551"/><path d="m485.51 158.09 21.63 11.09 13.36 5.32 8.55 2.82 10.45-7.23-14.61-11.59-23.34-8-13.71 7z" fill="#98b551"/><path d="m571 185.5-11.27 5.91 4.31 7.09 6.96-2 7.5-4z" fill="#98b551"/><path d="m678.5 267.5-33.67 14-6.68 8 6.1 5 4.07-2.59 13.18-6.27 29-15.06-8.18-3.08z" fill="#98b551"/><path d="m766.5 254.28-8.91-2.44-7.12 9 4.53 6.16 6.5-.5s0 3.32 5-.84l5-4.16z" fill="#98b551"/><path d="m780.7 249.8 10.26 2.99 9.54-6 2.96-4.82-6.46-1.96h-6.5z" fill="#98b551"/><path d="m807.5 235.5 8 3.18 23.09-12.69 10.91-7.94-5-3.7-2.5-1.48-5.48.42-27.04 15.38z" fill="#98b551"/><rect fill="#53703d" height="8" rx=".5" width="1" x="635.5" y="78.5"/><path d="m630.5 64.5-2.25 9.37 4.13 6.04 3.05-.39 2.72-10.58z" fill="#759e57"/><path d="m634.5 61.5-4 3 7 4 6-1-3.28-5.36z" fill="#759e57"/><path d="m635.43 79.52 2.08-5.46h6.74s-.77 5.48-1.26 5.46-7.56 0-7.56 0z" fill="#759e57"/><path d="m643.5 67.5.75 6.56s-6.73-.44-6.74 0 0-5.56 0-5.56z" fill="#5b7e43"/><path d="m632.59 65.69c-.09-.19-2.09 7.59-2.09 7.59l2.09 2.56 2.84 3.68 2.08-5.46v-5.56z" fill="#87b765"/><rect fill="#53703d" height="8" rx=".5" width="1" x="760.5" y="254.5"/><path d="m755.5 240.5-2.25 9.37 4.13 6.04 3.05-.39 2.72-10.58z" fill="#759e57"/><path d="m759.5 237.5-4 3 7 4 6-1-3.28-5.36z" fill="#759e57"/><path d="m760.43 255.52 2.08-5.46h6.74s-.77 5.48-1.26 5.46-7.56 0-7.56 0z" fill="#759e57"/><path d="m768.5 243.5.75 6.56s-6.73-.44-6.74 0 0-5.56 0-5.56z" fill="#5b7e43"/><path d="m757.59 241.69c-.09-.19-2.09 7.59-2.09 7.59l2.09 2.56 2.84 3.68 2.08-5.46v-5.56z" fill="#87b765"/><rect fill="#53703d" height="8" rx=".5" width="1" x="799.5" y="305.5"/><path d="m794.5 291.5-2.25 9.37 4.13 6.04 3.05-.39 2.72-10.58z" fill="#759e57"/><path d="m798.5 288.5-4 3 7 4 6-1-3.28-5.36z" fill="#759e57"/><path d="m799.43 306.52 2.08-5.46h6.74s-.77 5.48-1.26 5.46-7.56 0-7.56 0z" fill="#759e57"/><path d="m807.5 294.5.75 6.56s-6.73-.44-6.74 0 0-5.56 0-5.56z" fill="#5b7e43"/><path d="m796.59 292.69c-.09-.19-2.09 7.59-2.09 7.59l2.09 2.56 2.84 3.68 2.08-5.46v-5.56z" fill="#87b765"/><rect fill="#5f6f5f" height="12" rx="1" width="2" x="811.5" y="320.5"/><path d="m813.88 304.5 6.37 3.64v7.13l-1.97 5.69-4.4 2.54-7.38-1-1.87-9.7 5.15-4.8z" fill="#6e9552"/><path d="m812.5 304.5-4.57 3.5-.88 3.56 5.45 1.94z" fill="#87b765"/><path d="m804.63 312.8 6.39 3.7v4.69l-4.63 1.46-2.64-4.05z" fill="#87b765"/><path d="m812.78 321.19 2.72-4.08 1-4.68-1.86-7.04 5.61 4.45v5.43l-1.7 4.9z" fill="#5b7e43"/><rect fill="#5f6f5f" height="12" rx="1" width="2" x="918.5" y="144.5"/><path d="m920.88 128.5 6.37 3.64v7.13l-1.97 5.69-4.4 2.54-7.38-1-1.87-9.7 5.15-4.8z" fill="#6e9552"/><path d="m919.5 128.5-4.57 3.5-.88 3.56 5.45 1.94z" fill="#87b765"/><path d="m911.63 136.8 6.39 3.7v4.69l-4.63 1.46-2.64-4.05z" fill="#87b765"/><path d="m919.78 145.19 2.72-4.08 1-4.68-1.86-7.04 5.61 4.45v5.43l-1.7 4.9z" fill="#5b7e43"/><rect fill="#5f6f5f" height="12" rx="1" width="2" x="604.5" y="91.5"/><path d="m606.88 75.5 6.37 3.64v7.13l-1.97 5.69-4.4 2.54-7.38-1-1.87-9.7 5.15-4.8z" fill="#6e9552"/><path d="m605.5 75.5-4.57 3.5-.88 3.56 5.45 1.94z" fill="#87b765"/><path d="m597.63 83.8 6.39 3.7v4.69l-4.63 1.46-2.64-4.05z" fill="#87b765"/><path d="m605.78 92.19 2.72-4.08 1-4.68-1.86-7.04 5.61 4.45v5.43l-1.7 4.9z" fill="#5b7e43"/><path d="m606.5 216.5-7.5 4.39v-6.17l9.38-4.22z" fill="#72747a"/><path d="m598.5 228.5v-12.66l-7.99-2.97-.01 12.63z" fill="#b2aeb5"/><path d="m614.5 219.5v-12.66l-7.99-2.97-.01 12.63z" fill="#93969d"/><path d="m599.5 227.5-1 1v-13h1z" fill="#7e8086"/><path d="m615.5 218.5-1 1v-13h1z" fill="#7e8086"/><path d="m589.5 210.5 11 4 19.47-9-11.47-5z" fill="#6ca9a4"/><path d="m619.97 207.5v-2l-19.47 9v2z" fill="#4d767f"/><path d="m589.5 212.5v-2l11 4v2z" fill="#7cafb4"/><g stroke-miterlimit="10"><path d="m536.6 308.56c-.1-.06-11.4-5.06-9.75-14.06s13.65-14 13.65-14" fill="none" stroke="#e3e3ec" stroke-width="2"/><path d="m543.86 320.6c-.36-.1 9.64-4.6 9.64-4.6" fill="none" stroke="#e3e3ec" stroke-width="2"/><path d="m547 276 100-49" fill="none" stroke="#ececf3" stroke-dasharray="8 7" stroke-width="2"/><path d="m655 316 100-49" fill="none" stroke="#ececf3" stroke-dasharray="8 7" stroke-width="2"/><path d="m682 210 100-49" fill="none" stroke="#ececf3" stroke-dasharray="8 7" stroke-width="2"/><path d="m636.5 331.5 4 4" fill="none" stroke="#ececf3" stroke-dasharray="8 7" stroke-width="2"/><path d="m572.5 331.5 5-3" fill="none" stroke="#ececf3" stroke-dasharray="8 7" stroke-width="2"/><path d="m569.5 334.5-3 4" fill="none" stroke="#ececf3" stroke-dasharray="8 7" stroke-width="2"/><path d="m566.5 342.5v3" fill="none" stroke="#ececf3" stroke-dasharray="8 7" stroke-width="2"/><path d="m569.5 349.5 3 3" fill="none" stroke="#ececf3" stroke-dasharray="8 7" stroke-width="2"/><path d="m639.5 349.5 2-4" fill="none" stroke="#ececf3" stroke-dasharray="8 7" stroke-width="2"/><path d="m641.5 342.5v-5" fill="none" stroke="#ececf3" stroke-dasharray="8 7" stroke-width="2"/><path d="m625.5 326.5 6 2" fill="none" stroke="#ececf3" stroke-dasharray="8 7" stroke-width="2"/><path d="m611.5 323.5 7 1" fill="none" stroke="#ececf3" stroke-dasharray="8 7" stroke-width="2"/><path d="m582.5 326.5 7-2" fill="none" stroke="#ececf3" stroke-dasharray="8 7" stroke-width="2"/><path d="m596.5 322.5h8" fill="none" stroke="#ececf3" stroke-dasharray="8 7" stroke-width="2"/></g><path d="m890.7 176.9v-111.19l-28.01 14.29v111.65z" fill="#b06310"/><path d="m856.74 191.65v-110.65l-28.18-14.5v112.04z" fill="#e4a460"/><path d="m862.82 165.71 27.68-13.21v5s-27.32 11.85-27.5 11.75a22.66 22.66 0 0 1 -.18-3.54z" fill="#28705c"/><path d="m862.73 171.83 27.77-12.33v-3l-27.63 12.81z" fill="#00cfc5"/><path d="m856.5 191.5v-26.05-84.45h5.91v110.5z" fill="#d88236"/><path d="m858.5 79.5h2v113h-2z" fill="#50b985"/><path d="m893.5 66.5-34 17-33.8-17-.2-7h68z" fill="#d5cbaf"/><path d="m859.6 75.5v8l33.9-17v-7z" fill="#9a9b6c"/><path d="m893.5 59.5-34 17-33.8-17 35.8-18z" fill="#f1e4e0"/><path d="m885.5 60.5-26 13-25-12v-2.73l26-13.27z" fill="#e7d2cc"/><path d="m835.5 60.77 26-13.27 22.73 13.64 1.27-.64-25-15-26 13.27v2.73l1 .48z" fill="#cebbb5"/><path d="m856.5 170.24-29-12.59 2-1.46 27 11.4z" fill="#00cfc5"/><path d="m830.5 153.5 26 11.95v3.16l-27-12.42z" fill="#28705c"/><path d="m871 186v-111.5a47.46 47.46 0 0 0 9.49-1 8.74 8.74 0 0 0 5.53-5v116s-1.36 2-5.44 3.5-9.58-2-9.58-2z" fill="url(#a)"/><path d="m881.5 187.63a15.44 15.44 0 0 0 2-1v-114.69a7.74 7.74 0 0 1 -2 1.22z" fill="#199074"/><path d="m886 67.5-15 7a17.31 17.31 0 0 0 11-1.56c4.5-2.44 4-5.44 4-5.44z" fill="#fff1e9"/><path d="m874.5 57.5c0 5.52-6.72 10-15 10s-15-4.48-15-10v-12.73s10.86 2.73 15 2.73h15z" fill="url(#b)"/><path d="m874.5 49.32c0 5.52-6.72 10-15 10s-15-4.48-15-10v-3.64s9.45-6.36 15-6.36c5.13 0 15 5.45 15 5.45z" fill="url(#c)"/><ellipse cx="859.5" cy="45.68" fill="#fbf2eb" rx="15" ry="10"/><ellipse cx="859.5" cy="45" fill="#e7d2cc" rx="12" ry="7.5"/><path d="m859.5 39.5c6.08 0 11.1 2.83 11.88 6.5a4.8 4.8 0 0 0 .12-1c0-4.14-5.37-7.5-12-7.5s-12 3.36-12 7.5a4.8 4.8 0 0 0 .12 1c.78-3.67 5.8-6.5 11.88-6.5z" fill="#d0bdb7"/><path d="m848.5 80.5-2 4 1 2 5 2v-5.78z" fill="#ed8840"/><path d="m839.5 82.5 4.37 2 .89-.19.74-5.81-7.91-3.7z" fill="#ed8840"/><path d="m831.36 71.5.14 7 5.02 2v-3.81l-1.02-3.19z" fill="#ed8840"/><path d="m849.5 80.5-2 4 1 2 5 2v-5.78z" fill="#63fde0"/><path d="m840.5 82.5 4.37 2 2.43-3v-1.88l-8.71-4.82z" fill="#63fde0"/><path d="m832.36 71.5.14 7 5.02 2v-3.81l-1.02-3.19z" fill="#63fde0"/><path d="m848.5 89.5-2 4 1 2 5 2v-5.78z" fill="#ed8840"/><path d="m839.5 91.5 4.37 2 .89-.19.74-5.81-7.91-3.7z" fill="#ed8840"/><path d="m831.36 80.5.14 7 5.02 2v-3.81l-1.02-3.19z" fill="#ed8840"/><path d="m849.5 89.5-2 4 1 2 5 2v-5.78z" fill="#62ffdf"/><path d="m840.5 91.5 4.37 2 2.43-3v-1.88l-8.71-4.82z" fill="#62ffdf"/><path d="m832.36 80.5.14 7 5.02 2v-3.81l-1.02-3.19z" fill="#62ffdf"/><path d="m848.5 98.5-2 4 1 2 5 2v-5.78z" fill="#ed8840"/><path d="m839.5 100.5 4.37 2 .89-.19.74-5.81-7.91-3.7z" fill="#ed8840"/><path d="m831.36 89.5.14 7 5.02 2v-3.81l-1.02-3.19z" fill="#ed8840"/><path d="m849.5 98.5-2 4 1 2 5 2v-5.78z" fill="#67fce9"/><path d="m840.5 100.5 4.37 2 2.43-3v-1.88l-8.71-4.82z" fill="#67fce9"/><path d="m832.36 89.5.14 7 5.02 2v-3.81l-1.02-3.19z" fill="#67fce9"/><path d="m848.5 107.5-2 4 1 2 5 2v-5.78z" fill="#ed8840"/><path d="m839.5 109.5 4.37 2 .89-.19.74-5.81-7.91-3.7z" fill="#ed8840"/><path d="m831.36 98.5.14 7 5.02 2v-3.81l-1.02-3.19z" fill="#ed8840"/><path d="m849.5 107.5-2 4 1 2 5 2v-5.78z" fill="#67faea"/><path d="m840.5 109.5 4.37 2 2.43-3v-1.88l-8.71-4.82z" fill="#67faea"/><path d="m832.36 98.5.14 7 5.02 2v-3.81l-1.02-3.19z" fill="#67faea"/><path d="m848.5 116.5-2 4 1 2 5 2v-5.78z" fill="#ed8840"/><path d="m839.5 118.5 4.37 2 .89-.19.74-5.81-7.91-3.7z" fill="#ed8840"/><path d="m831.36 107.5.14 7 5.02 2v-3.81l-1.02-3.19z" fill="#ed8840"/><path d="m849.5 116.5-2 4 1 2 5 2v-5.78z" fill="#63f9f2"/><path d="m840.5 118.5 4.37 2 2.43-3v-1.88l-8.71-4.82z" fill="#63f9f2"/><path d="m832.36 107.5.14 7 5.02 2v-3.81l-1.02-3.19z" fill="#63f9f2"/><path d="m848.5 125.5-2 4 1 2 5 2v-5.78z" fill="#ed8840"/><path d="m839.5 127.5 4.37 2 .89-.19.74-5.81-7.91-3.7z" fill="#ed8840"/><path d="m831.36 116.5.14 7 5.02 2v-3.81l-1.02-3.19z" fill="#ed8840"/><path d="m849.5 125.5-2 4 1 2 5 2v-5.78z" fill="#64f5f7"/><path d="m840.5 127.5 4.37 2 2.43-3v-1.88l-8.71-4.82z" fill="#64f5f7"/><path d="m832.36 116.5.14 7 5.02 2v-3.81l-1.02-3.19z" fill="#64f5f7"/><path d="m848.5 134.5-2 4 1 2 5 2v-5.78z" fill="#ed8840"/><path d="m839.5 136.5 4.37 2 .89-.19.74-5.81-7.91-3.71z" fill="#ed8840"/><path d="m831.36 125.5.14 7 5.02 2v-3.81l-1.02-3.19z" fill="#ed8840"/><path d="m849.5 134.5-2 4 1 2 5 2v-5.78z" fill="#62eef9"/><path d="m840.5 136.5 4.37 2 2.43-3v-1.88l-8.71-4.83z" fill="#62eef9"/><path d="m832.36 125.5.14 7 5.02 2v-3.81l-1.02-3.19z" fill="#62eef9"/><path d="m848.5 144.5-2 4 1 2 5 2v-5.78z" fill="#ed8840"/><path d="m839.5 146.5 4.37 2 .89-.19.74-5.81-7.91-3.71z" fill="#ed8840"/><path d="m831.36 135.5.14 7 5.02 2v-3.81l-1.02-3.19z" fill="#ed8840"/><path d="m849.5 144.5-2 4 1 2 5 2v-5.78z" fill="#65e3fb"/><path d="m840.5 146.5 4.37 2 2.43-3v-1.88l-8.71-4.83z" fill="#65e3fb"/><path d="m832.36 135.5.14 7 5.02 2v-3.81l-1.02-3.19z" fill="#65e3fb"/><path d="m848.5 152.5-2 4 1 2 5 2v-5.78z" fill="#ed8840"/><path d="m839.5 154.5 4.37 2 .89-.19.74-5.81-7.91-3.71z" fill="#ed8840"/><path d="m831.36 143.5.14 7 5.02 2v-3.81l-1.02-3.19z" fill="#ed8840"/><path d="m849.5 152.5-2 4 1 2 5 2v-5.78z" fill="#63e0fc"/><path d="m840.5 154.5 4.37 2 2.43-3v-1.88l-8.71-4.83z" fill="#63e0fc"/><path d="m832.36 143.5.14 7 5.02 2v-3.81l-1.02-3.19z" fill="#63e0fc"/><path d="m822.5 76.5v-10l-4.51 9z" fill="#1d969c"/><path d="m817.5 75.5 5-9-20-10-20 3z" fill="#60d7e5"/><path d="m800.37 58.5 17.13 8s-3.13 9-3.57 8-25.43-14-25.43-14z" fill="#58a3a7"/><path d="m800.5 60.5 15 7-3.57 8-22.43-13z" fill="#f3e6e6"/><path d="m765.88 214.5-6.88-12.86v-131.77l8.35-5.37 41.39 20.5 6.76 14.15v124.57l-8 11.78z" fill="#f3706e"/><path d="m808.5 85.5-41-21 15-9 41.32 22z" fill="#ff9c9f"/><path d="m815.5 99.5 16-8-8-14-15 8z" fill="#ef787f"/><path d="m831.5 216.5v-125l-16 8v124.22z" fill="#a92038"/><path d="m807.5 235.5 8-11.78 16-7.22-6.68 11.85z" fill="#a92038"/><path d="m818.32 95.02 9.18-4.52v-2.26l-4.59-8.24h-2.28l-7.6 4.29-1.53 3.22 4 6.99z" fill="#cf575f"/><path d="m805.5 212.87-35.4-16.9-6.44-10.47v-111l5.78-3.71 40.79 139.06z" fill="#bd2e4d"/><path d="m808.08 210.5-34.58-17-7-9v-110l2.94-3.71s36.06 17.21 36.06 17.45 4.73 9.26 4.73 9.26v113z" fill="#f8eedb"/><path d="m779.13 221.64.37-13.14s2-4 8-2a9.34 9.34 0 0 1 6.34 7.95v15.05z" fill="#eaeaf2"/><path d="m770.1 216.5c.4 0 0-12.78 0-12.78l-9.58-18.22v-117l-1.5 1v118.09l9.5 16.48v11.62z" fill="#eaeaf2"/><path d="m803.46 233.93c0-1.43 0-14.43 0-14.43l9-8v-117l3 4v114.37l-10 8v14.48z" fill="#eaeaf2"/><path d="m781.5 222.5v-7.69l3-1.08 7.56 4.39v10.38z" fill="#f66a67"/><path d="m784.05 224.07v-6.79l4.45 2.22v7z" fill="#5fbcc2"/><path d="m821.5 115.5-3-1 3-6 5-3 3 4-2 3z" fill="#1d969c"/><path d="m821.5 125.5-3-1 3-6 5-3 3 4-2 3z" fill="#1d969c"/><path d="m821.5 136.5-3-1 3-6 5-3 3 4-2 3z" fill="#1d969c"/><path d="m821.5 146.5-3-1 3-6 5-3 3 4-2 3z" fill="#1d969c"/><path d="m821.5 157.5-3-1 3-6 5-3 3 4-2 3z" fill="#1d969c"/><path d="m821.5 167.5-3-1 3-6 5-3 3 4-2 3z" fill="#1d969c"/><path d="m821.5 177.5-3-1 3-6 5-3 3 4-2 3z" fill="#1d969c"/><path d="m821.5 188.5-3-1 3-6 5-3 3 4-2 3z" fill="#1d969c"/><path d="m821.5 198.5-3-1 3-6 5-3 3 4-2 3z" fill="#1d969c"/><path d="m821.5 209.5-3-1 3-6 5-3 3 4-2 3z" fill="#1d969c"/><path d="m809.82 110.5-33.32-16v-5l33.73 16z" fill="#f7a58e"/><path d="m810.5 204.5-27-13v-5l27 13z" fill="#f7a58e"/><path d="m801.5 153.5-27-13v-5l27 13z" fill="#f7a58e"/><path d="m810.5 168.5-23-11v-5l23 11z" fill="#f7a58e"/><path d="m790.5 122.5-23-11v-5l23 11z" fill="#f7a58e"/><path d="m810.5 184.5-16-8v-5l16 8z" fill="#f7a58e"/><path d="m783.5 181.5-16-8v-5l16 8z" fill="#f7a58e"/><path d="m810.5 137.5-16-8v-5l16 8z" fill="#f7a58e"/><path d="m772.5 63.5h-1l10-6 36.49 18-10.49 5z" fill="#c6525a"/><path d="m772.5 63.5 9-5 36.49 18-10.49 5z" fill="#ec989e"/><rect fill="#37491c" height="7" rx=".87" width="2" x="492.5" y="151.5"/><path d="m494.5 114.5s12 34 11 34-12 7-12 6 1-40 1-40z" fill="#325054"/><path d="m494.5 114.5-12 34 11 6z" fill="#628774"/><rect fill="#37491c" height="5.16" rx=".69" width="1.47" x="523.87" y="167.34"/><path d="m525.35 140.06s8.84 25.07 8.11 25.07-8.85 5.16-8.85 4.42.74-29.49.74-29.49z" fill="#325054"/><path d="m525.35 140.06-8.85 25.07 8.11 4.42z" fill="#628774"/><rect fill="#37491c" height="4.86" rx=".61" width="1.39" x="565.44" y="189.64"/><path d="m566.83 164s8.32 23.59 7.63 23.59-8.33 4.86-8.33 4.16.7-27.75.7-27.75z" fill="#325054"/><path d="m566.83 163.97-8.33 23.59 7.63 4.16z" fill="#628774"/><rect fill="#37491c" height="4.86" rx=".61" width="1.39" x="643.44" y="285.64"/><path d="m644.83 260s8.32 23.59 7.63 23.59-8.33 4.86-8.33 4.16.7-27.75.7-27.75z" fill="#325054"/><path d="m644.83 259.97-8.33 23.59 7.63 4.17z" fill="#628774"/><rect fill="#37491c" height="4.86" rx=".61" width="1.39" x="677.44" y="267.64"/><path d="m678.83 242s8.32 23.59 7.63 23.59-8.33 4.86-8.33 4.16.7-27.75.7-27.75z" fill="#325054"/><path d="m678.83 241.97-8.33 23.59 7.63 4.17z" fill="#628774"/><rect fill="#37491c" height="4.86" rx=".61" width="1.39" x="832.44" y="221.64"/><path d="m833.83 196s8.32 23.59 7.63 23.59-8.33 4.86-8.33 4.16.7-27.75.7-27.75z" fill="#325054"/><path d="m833.83 195.97-8.33 23.59 7.63 4.16z" fill="#628774"/><rect fill="#37491c" height="4.86" rx=".61" width="1.39" x="873.44" y="201.64"/><path d="m874.83 176s8.32 23.59 7.63 23.59-8.33 4.86-8.33 4.16.7-27.75.7-27.75z" fill="#325054"/><path d="m874.83 175.97-8.33 23.59 7.63 4.16z" fill="#628774"/><rect fill="#37491c" height="4.25" rx=".61" width="1.21" x="509.57" y="162.25"/><path d="m510.79 139.79s7.28 20.64 6.67 20.64-7.28 4.25-7.28 3.64.61-24.28.61-24.28z" fill="#325054"/><path d="m510.79 139.79-7.29 20.64 6.68 3.64z" fill="#628774"/><rect fill="#37491c" height="4.25" rx=".61" width="1.21" x="789.57" y="244.25"/><path d="m790.79 221.79s7.28 20.64 6.67 20.64-7.28 4.25-7.28 3.64.61-24.28.61-24.28z" fill="#325054"/><path d="m790.79 221.79-7.29 20.64 6.68 3.64z" fill="#628774"/><rect fill="#37491c" height="7" rx=".87" width="2" x="661.5" y="274.5"/><path d="m663.5 237.5s12 34 11 34-12 7-12 6 1-40 1-40z" fill="#325054"/><path d="m663.5 237.5-12 34 11 6z" fill="#628774"/><rect fill="#37491c" height="7" rx=".87" width="2" x="815.5" y="229.5"/><path d="m817.5 192.5s12 34 11 34-12 7-12 6 1-40 1-40z" fill="#325054"/><path d="m817.5 192.5-12 34 11 6z" fill="#628774"/><path d="m736.96 348.87 37.54-16.95v-49.42l-37.54 18.59z" fill="#365f68"/><path d="m680.5 272.5 56.46 28.59-.46 48.41-56-30z" fill="#66958b"/><path d="m680.5 272.5 56.46 28.59-.46 48.41-56-30z" fill="#66958b"/><path d="m690.5 324.86 9 4.82v-47.56l-9-4.56z" fill="#74aa9e"/><path d="m708.5 286.68-8-4.05v47.58l8 4.29z" fill="#74aa9e"/><path d="m717.5 291.24-8-4.05v47.85l8 4.28z" fill="#74aa9e"/><path d="m727.5 296.3-9-4.56v48.12l9 4.82z" fill="#74aa9e"/><path d="m728.5 296.81v48.4l8 4.29.46-48.41z" fill="#74aa9e"/><path d="m689.5 277.06-9-4.56v47l9 4.82z" fill="#74aa9e"/><path d="m765.5 286.96-9 4.46v48.63l9-4.07z" fill="#376970"/><path d="m747.5 344.11 8-3.61v-48.59l-8 3.96z" fill="#376970"/><path d="m766.5 286.46v49.07l8-3.61v-49.42z" fill="#376970"/><path d="m746.5 296.37-9.54 4.72v47.78l9.54-4.31z" fill="#376970"/><path d="m774.5 298.5-38 19v2.2l38-18.61z" fill="#618590"/><path d="m774.5 314.5-38 19v2.2l38-18.61z" fill="#618590"/><path d="m680.5 289.5v2.23l57 27.97v-2.2z" fill="#caffff"/><path d="m680.5 307.73 57 27.97v-2.2l-57-28z" fill="#caffff"/><path d="m776.21 278.8v6.27s-38.85 18.9-39.28 19.16 0-6 0-6z" fill="#808c94"/><path d="m678.5 267.5 58.43 30.78v5.95l-58.43-30.73z" fill="#e7e5ed"/><path d="m718 250 58.21 28.8-39.28 19.48-58.43-30.78z" fill="#fff"/><path d="m718.5 253.5 50 25-32 16-50-26z" fill="#aaa4b7"/><path d="m718.36 255.88-29.57 13.81 47.71 24.81 29.22-14.61z" fill="#c0bbcb"/><path d="m736.96 288.65v-5.15l18.77-9.62-.23 5.62z" fill="#757e8e"/><path d="m736.96 288.65-18.46-9.15v-5.65l18.46 9.65z" fill="#d7d6da"/><path d="m737.5 264.5 18.23 9.35-18.77 9.65-18.46-9.65z" fill="#e7e5ed"/><path d="m540.96 118.87 37.54-18.37v-35.56l-37.54 18.59z" fill="#365f68"/><path d="m483.5 56.5 56.46 28.59-.46 32.41-55.97-26.53z" fill="#66958b"/><path d="m493.5 95.5 9 5v-34.38l-9-4.56z" fill="#74aa9e"/><path d="m511.5 70.68-8-4.05v34.87l8 3z" fill="#74aa9e"/><path d="m520.5 75.24-8-4.05v34.31l8 4z" fill="#74aa9e"/><path d="m530.5 80.3-9-4.56v33.76l9 4z" fill="#74aa9e"/><path d="m531.5 79.81v34.69l8 4 .46-34.41z" fill="#74aa9e"/><path d="m492.5 59.95-9-4.56v35.11l9 4.82z" fill="#74aa9e"/><path d="m568.5 70.96-9 4.46.09 33.61 9-4.06z" fill="#376970"/><path d="m550.5 113.61 8-3.61v-34.09l-8 3.96z" fill="#376970"/><path d="m569.5 70.46v33.72l8-3.62v-34.06z" fill="#376970"/><path d="m549.5 80.37-9.54 4.72v33.21l9.54-4.31z" fill="#376970"/><path d="m577.5 82.5-38 19v2.2l38-18.61z" fill="#618590"/><path d="m577.5 98.5-38 19v2.2l38-18.61z" fill="#618590"/><path d="m483.5 73.5v2.23l57 27.97v-2.2z" fill="#caffff"/><path d="m483.5 91.73 57 27.97v-2.2l-57-28z" fill="#caffff"/><path d="m579.21 62.8v6.27s-38.85 18.93-39.28 19.16 0-6 0-6z" fill="#808c94"/><path d="m481.5 51.5 58.43 30.78v5.95l-58.43-30.73z" fill="#e7e5ed"/><path d="m521 34 58.21 28.8-39.28 19.48-58.43-30.78z" fill="#fff"/><path d="m521.5 37.5 50 25-32 16-50-26z" fill="#aaa4b7"/><path d="m521.36 39.88-29.57 13.81 47.71 24.81 29.22-14.61z" fill="#c0bbcb"/><path d="m539.96 72.65v-5.15l18.77-9.62-.23 5.62z" fill="#757e8e"/><path d="m539.96 72.65-18.46-9.15v-5.65l18.46 9.65z" fill="#d7d6da"/><path d="m540.5 48.5 18.23 9.35-18.77 9.65-18.46-9.65z" fill="#e7e5ed"/><path d="m622.6 325.44a4.87 4.87 0 0 0 2 5.54 15.32 15.32 0 0 0 9.4 3.18c3.88-.11 14.15-6.56 17.06-8.05s2.1-5.7-.61-7.5-4.62-2.32-6.47-2.32-21.07 7.98-21.38 9.15z" fill="#9ea097" stroke="#8d9198" stroke-miterlimit="10"/><path d="m622.84 324.45c-.42 1.12-.76 2.68 1.85 4.47a15.34 15.34 0 0 0 9.4 3.18c3.88-.1 14.16-6.56 17.06-8.05s2.21-5.13-.5-6.93-4.3-2.12-6.14-2.12-20.06 5.15-21.67 9.45z" fill="#daa532" stroke="#a87866" stroke-miterlimit="10"/><path d="m623.81 323.3c-.77.91-1.74 2.27.87 4.06a15.25 15.25 0 0 0 9.41 3.18c3.87-.1 13.11-5.8 16.18-7.37 2.72-1.38 3.5-3.51.38-6.05-2.65-2.12-5.79-1.12-7.65-1.12s-18.16 6.09-19.19 7.3z" fill="#faf053"/><path d="m623.71 322.15c-.39.89-1.31 1.93 1.16 3.6a14.54 14.54 0 0 0 8.85 3c3.65-.1 13.32-6.11 16.06-7.5s1.51-2.91-1-4.58a9.74 9.74 0 0 0 -6.08-1.71c-1.78-.04-17.09 2.74-18.99 7.19z" fill="#66ca2f" stroke="#5e9c4e" stroke-miterlimit="10"/><path d="m625.47 324.23a14 14 0 0 0 8.85 3c3.65-.1 11.53-5.13 14.27-6.52s1.74-3.06-.81-4.73a9.52 9.52 0 0 0 -7.69-.87c-1.67.41-21.56 4.12-14.62 9.12z" fill="#c4fb3f"/><path d="m625.71 320.4c0 .81-.45 1.47 1.44 2.68a11.6 11.6 0 0 0 6.78 2.14c2.8-.06 10.2-4.43 12.3-5.43s1.19-3-.77-4.23-8.94-4.38-15.19-3.23c-5.92 1.1-4.56 7.6-4.56 8.07z" fill="#418cc4" stroke="#5b75a7" stroke-miterlimit="10"/><path d="m645.46 315.57c-2-1.21-8.7-4-15-3.13a5.05 5.05 0 0 0 -2.81 1.62 3.52 3.52 0 0 1 2.65 1.5c1.15 1.37 2.59 8 2.81 9.32a4.27 4.27 0 0 0 .8 0 4.5 4.5 0 0 0 1.43-.33c-.13-.62-1.41-7.16-1-8.5s.9-3 5.52-1.8a17.92 17.92 0 0 1 7.26 4.08c.12-.97-.37-1.97-1.66-2.76z" fill="#70f0fc"/><path d="m626.47 316.84s3.11 4.79 9.89 3.07 5.76-5.53 5.76-5.53l1.68.62s1.56 3.84-5.89 6.19c-8.76 2.76-11.68-2.08-11.68-2.08z" fill="#73dd35" stroke="#799d4e" stroke-miterlimit="10"/><path d="m628.91 313s-.73 1.84 2.25 1.84c3.7 0 2.14-2.61 2.14-2.61a8.25 8.25 0 0 0 -2.35.1c-1.72.2-2.04.67-2.04.67z" fill="#5da429"/><path d="m629.24 312.77s-.87 1.93 2.11 1.83c3.21-.11 1.69-2.39 1.69-2.39a15.4 15.4 0 0 0 -1.81.08c-1.74.12-1.99.48-1.99.48z" fill="#73da34"/><path d="m630.71 307.88h.63v5.32h-.63z" fill="#c7a62d"/><ellipse cx="631.02" cy="307.35" fill="#4184f9" rx=".81" ry=".84" stroke="#4e709d" stroke-miterlimit="10"/><path d="m726.54 178.54s-9.11 5-9.3 6.33c-.44 3.06-.52 3.12 5.94 6.11 5.66 2.62 7.17 1.05 12.94-2.13a50.2 50.2 0 0 0 8.17-5.23c1.7-1.36-5-7.1-5-7.1z" fill="#9c9d94" stroke="#7f8183" stroke-miterlimit="10"/><path d="m727.1 175s-10.63 7.07-10.63 8.7.65 2.56 6.87 5.48c4.92 2.31 10.07-.06 15.67-3.55 4.86-3 5.82-3.92 6.39-5.42 1.08-2.84-7.06-5.65-7.06-5.65z" fill="#daa532" stroke="#a87866" stroke-miterlimit="10"/><path d="m742 178.19s.72-1.32 1.12-.05.38 2.25-3.36 4.58-6.73 4.35-12.24 5.07a9.24 9.24 0 0 1 -8.49-3.72z" fill="#faf053"/><path d="m728.33 174.56s-8.64 5.63-10.07 7.08.13 3.46 3.64 4.12c7.84 1.49 12.91-2.1 15.34-3.18a17.47 17.47 0 0 0 5.28-3.27c1.92-2.06-.39-6.89-.39-6.89z" fill="#b5fa3e" stroke="#50953d" stroke-miterlimit="10"/><path d="m743 176.85s1.13-7.93-6-8.13-16.49 11.28-16.49 11.28 1.15 3.91 8.71 3 13.78-6.15 13.78-6.15z" fill="#70f0fc" stroke="#7697bc" stroke-miterlimit="10"/><path d="m743.1 176.25s-.32-3.65-3.07-2.82-6.45 8.22-6.45 8.22a32.65 32.65 0 0 0 6-2.83 20.39 20.39 0 0 0 3.52-2.57z" fill="#418cc4"/><path d="m729 182.68c0-.32.87-2.42 3.36-5.65a38.07 38.07 0 0 1 4.35-4.86l-2.56-2.08a35 35 0 0 0 -7 6.39 35.84 35.84 0 0 0 -4 5.78 19.26 19.26 0 0 0 3 .65 10.86 10.86 0 0 0 2.85-.23z" fill="#418cc4"/><path d="m742.13 172.43s-2.35 5-8.87 4.21c-4.94-.61-5.67-3.2-5.67-3.2l-.75.69s2.1 3.12 5.39 3.63c8.52 1.31 10.29-4.29 10.29-4.29z" fill="#73dd35" stroke="#799d4e" stroke-miterlimit="10"/><path d="m740.45 170.1s-.23 2.08-3 2.08c-3.85 0-3.13-2.71-3.13-2.71a12.28 12.28 0 0 1 3.36-.44 5.37 5.37 0 0 1 2.77 1.07z" fill="#d6fc40"/><path d="m739.22 169.85a1.76 1.76 0 0 1 -1.87 1.44c-2.21 0-1.71-1.78-1.71-1.78a2.68 2.68 0 0 1 2.05-.27 3.37 3.37 0 0 1 1.53.61z" fill="#53b229"/><path d="m737.24 170.79a.45.45 0 0 0 .45-.45v-4.09a.45.45 0 0 0 -.9 0v4.09a.45.45 0 0 0 .45.45z" fill="#a5a5a5"/><ellipse cx="737.11" cy="165.24" fill="#4184f9" rx=".76" ry=".79" stroke="#4e709d" stroke-miterlimit="10"/><path d="m725.88 185.84a8 8 0 0 1 -4-.81 5 5 0 0 1 -2.34-2.5s-.41-.47-1.25.06-.33.93-.33.93.41 1.95 3.87 3.48a7.2 7.2 0 0 0 4.89.58s1 0 .61-1.33c-.21-.9-1.45-.41-1.45-.41z" fill="#fdffc7" stroke="#b9b2ae" stroke-miterlimit="10"/><path d="m594.85 110.31s9.11 5 9.3 6.33c.44 3.07.52 3.12-5.94 6.12-5.66 2.62-7.17 1-12.94-2.13a49.43 49.43 0 0 1 -8.17-5.24c-1.7-1.35 5-7.09 5-7.09z" fill="#9c9d94" stroke="#7f8183" stroke-miterlimit="10"/><path d="m594.28 106.78s10.63 7.08 10.63 8.71-.65 2.51-6.91 5.51c-4.92 2.3-10.07-.06-15.67-3.56-4.86-3-5.81-3.92-6.38-5.42-1.08-2.84 7.06-5.65 7.06-5.65z" fill="#daa532" stroke="#a87866" stroke-miterlimit="10"/><path d="m579.42 110s-.72-1.31-1.12 0-.38 2.25 3.36 4.59 6.73 4.34 12.24 5.06a9.23 9.23 0 0 0 8.49-3.72z" fill="#faf053"/><path d="m593.06 106.34s8.63 5.63 10.07 7.08-.14 3.46-3.64 4.12c-7.84 1.49-12.91-2.1-15.34-3.18a17.48 17.48 0 0 1 -5.28-3.28c-1.92-2 .38-6.88.38-6.88z" fill="#b5fa3e" stroke="#50953d" stroke-miterlimit="10"/><path d="m578.44 108.63s-1.13-7.94 6-8.13 16.4 11.31 16.4 11.31-1.15 3.91-8.71 3-13.69-6.18-13.69-6.18z" fill="#70f0fc" stroke="#7697bc" stroke-miterlimit="10"/><path d="m578.29 108s.32-3.64 3.07-2.82 6.45 8.23 6.45 8.23a33.14 33.14 0 0 1 -6-2.84 20 20 0 0 1 -3.52-2.57z" fill="#418cc4"/><path d="m592.34 114.45c0-.32-.86-2.41-3.36-5.64a38.73 38.73 0 0 0 -4.35-4.87l2.56-2.08a35.4 35.4 0 0 1 7 6.39 34.69 34.69 0 0 1 4 5.79 19.26 19.26 0 0 1 -3 .65 11.21 11.21 0 0 1 -2.85-.24z" fill="#418cc4"/><path d="m579.25 104.21s2.36 5 8.88 4.2c4.94-.61 5.67-3.2 5.67-3.2l.75.69s-2.1 3.13-5.39 3.64c-8.52 1.29-10.29-4.31-10.29-4.31z" fill="#73dd35" stroke="#799d4e" stroke-miterlimit="10"/><path d="m580.93 101.87s.23 2.09 3 2.09c3.85 0 3.13-2.71 3.13-2.71a12.12 12.12 0 0 0 -3.36-.45 5.42 5.42 0 0 0 -2.77 1.07z" fill="#d6fc40"/><path d="m582.16 101.62a1.77 1.77 0 0 0 1.87 1.44c2.21 0 1.71-1.78 1.71-1.78a2.71 2.71 0 0 0 -2-.27 3.52 3.52 0 0 0 -1.58.61z" fill="#53b229"/><path d="m584.15 102.56a.45.45 0 0 1 -.45-.45v-4.11a.45.45 0 1 1 .9 0v4.08a.45.45 0 0 1 -.45.48z" fill="#a5a5a5"/><ellipse cx="584.28" cy="97.02" fill="#4184f9" rx=".76" ry=".79" stroke="#4e709d" stroke-miterlimit="10"/><path d="m595.5 117.62a8.08 8.08 0 0 0 4-.82 5 5 0 0 0 2.33-2.49s.41-.48 1.25.06.34.93.34.93-.42 1.94-3.87 3.48a7.27 7.27 0 0 1 -4.89.58s-1 0-.61-1.33c.22-.9 1.45-.41 1.45-.41z" fill="#fdffc7" stroke="#b9b2ae" stroke-miterlimit="10"/><path d="m115.5 108.5h-85s-.13-4.23 2.44-6.61 7.26 0 7.26 0 .3-7.39 7.3-10.39a12.09 12.09 0 0 1 12 1s1-10 11-10 10 9 10 9 6-10 15-3 8.33 13.39 8.33 13.39z" fill="#fff"/><path d="m396.91 229.77v-32.27l-6.91-24.86h-5.29v-20.64h-30.12v-60.82h-5.81v10.58h-6.35v-18.52l-3.18-7.93h-8.46v28l-5.29-.53-6.88-27.51 4.76-11.64-6.87-6.88h-61.89l-8.47 9v-9h-11.15l-9.48 13.25-2.64 15.87v42.32h-39.15v-5.29l-18.51-7.9-23.81 7.41v32.8l-7.93 10.58v64s263.17-.28 263.43-.02z" fill="#fff"/><path d="m392.15 239.29v-51.31l-7.4-7.93h-11.64v-15.34l6.35-4.23v-20.11h-21.69v9.53h-22.75v-60.84l-17.98 15.87v34.39h-12.17v15.34h-44.43v-77.76h-23.81v71.94h-7.93l-49.73-41.26v57.66h-8.46v-20.63l-4.23-4.24v-5.29h-14.29v6.35l-4.23 3.18v20.1l-4.76 4.23v24.33h-17.46v16.4l-6.34 4.23h-10.58v25.39z" fill="#d0f0fc"/><path d="m369.29 238.68 3.71-5.29v-27.51l-10.05-10.58h-11.64v-12.16h-4.76v-12.7h3.7v-15.87h-3.7v-12.69h3.7v-17.46h-2.64v-11.64h-2.12v11.64h-25.92v17.46h3.17v12.16h-2.64v7.41h-11.64v-66.12l2.65-1.59v-25.92h-5.82v-18.52h-3.71v-23.8h-3.17v22.75h-2.12v-9h-3.17v9h-26.98l-10.58 17.98v40.73l-9.52 7.41v26.45h8.46v6.87h-25.39v-19.04l-12.69-12.17v-36.5h-11.11v-3.7h-3.18v3.7h-9.52v55.55l-6.35 4.23v32.8h-27.5l-10.05 8.46v17.99l-8.47 5.82v33.85z" fill="#8ed0ec"/><path d="m199.49 86.86v29.63l-2.65-2.65c-.52-.53 0-23.27 0-23.27z" fill="#c3dcee"/><path d="m222.24 130.77h3.7v16.4h-3.7z" fill="#c3dcee"/><path d="m368.24 210.65h-7.94v-9.53h2.65l5.29 6.88z" fill="#c3dcee"/><path d="m246.08 118.65 65.03-48.71v-2.12h-4.24l-60.83 46.63z" fill="#c3dcee"/><path d="m254.5 140.63 53.88-43.38v4.68l-53.88 43.94z" fill="#c3dcee"/><path d="m396.8 218.05-24.33 1.59s-3.57 11.06-4.55 15.3c.11-3.85-.21-13.19-.21-13.19l-45.5-2.11h-136.47l-43.91 2.11v2.12l-16.93-2.65-6.35 6.88-2.11-8.46-30.15 2.64v74.06l23.27-3.7 2.65-13.76 13.79 13.76 11.11-10.58.53 5.82s14.81-.53 20.1-4.76 6.35-12.7 6.35-12.7l-.48 17.29 43.28-.29 6.92-13.3 2.38 13.24 108.92-.71-1.27-31.57 5.29 1.06-.67 30.48 25.29-3.27 1.3-30.92h8.46l-7.93 30.69 23.8 3.17 2.62-10.05 6.35.53 2.65 10.05 31.74 3.7zm-256 47.61-12.69-12.17 13.19-18.49z" fill="#3575a9"/><path d="m105.33 286.82h-12.17l-1.58-59.82h19.57l-1.59 21.69 13.76-18 15.34.53-18 23.8 18 17.46-10.58 11.63-19.58-20.57z" fill="url(#d)"/><path d="m183.62 279.41v-50.25l-38.09 1.59s1.59 35.44-1.05 37.55-4.24 1.59-4.24 1.59l1.06 12.17s11.33.77 15.87-5.29c4.76-6.35 3.17-34.92 3.17-34.92h9l-.53 38.62z" fill="url(#e)"/><path d="m232.82 280.47 1.58-51.31h-15.34l-14.28 26.45 1.06-27.51-16.4 1.06 2.64 51.31 9.52 1.06 18.52-29.62-1.59 28.56z" fill="url(#f)"/><path d="m238.63 229.16 32.27-3.16.53 11.63-18.51 2.12 1.05 6.88 14.29-.53 1.06 11.11-14.29.52 1.06 7.41 18-2.12 1.58 16.93s-33.32.53-33.85 0-3.19-50.79-3.19-50.79z" fill="url(#g)"/><path d="m280.42 279.94v-49.72h14.82v20.63l7.93.53v-21.16l13.75-.53 1.59 50.25s-14.81 1.06-15.34 0 0-17.45 0-17.45l-9 .52.53 18.52z" fill="url(#h)"/><path d="m322.74 246.09v-17.99l40.74 1.59v13.75h-14.82l1.06 38.09-14.81 1.06.53-37.03z" fill="url(#i)"/><path d="m391.51 227.57-18 .53-13.76 51.31h15.34l2.65-11.11 12.69-.53 4.23 12.7 16.93 3.7zm-12.17 30.68 3.71-15.87 5.29 15.87z" fill="url(#j)"/><path d="m93.16 276.24c-.07-.34-1.58-49.2-1.58-49.2h19.57v3.28l-15.87.43z" fill="#7de8f9"/><path d="m122.14 232.49 16.52-.16-15.34-1.58z" fill="#7de8f9"/><path d="m182.34 229.41-36.81 1.34.35 30.1 2.3-26.93z" fill="#7de8f9"/><path d="m190.61 251.92-1.17-22.76 16.4-1.06-14.28 2.65z" fill="#7de8f9"/><path d="m205.59 254.28 13.47-25.12h15.34l-13.75 2.12z" fill="#7de8f9"/><path d="m240.75 251.91-2.12-22.75 32.27-3.17-29.62 5.29z" fill="#7de8f9"/><path d="m280.19 258.76.23-28.54h14.82l-13.76 2.64z" fill="#7de8f9"/><path d="m303.17 230.22 13.75-.53-13.7 2.6z" fill="#7de8f9"/><path d="m322.51 245.08c.23-.58.23-17 .23-17l41.26 2.14h-39.67z" fill="#7de8f9"/><path d="m365.73 257.19 7.79-29.09 17.99-.53-16.4 3.18z" fill="#7de8f9"/><path d="m155.05 218.58 16.95-60.83 29.1 2.11 2.11 5.29 2.65-3.7 23.8-1.06 4.76 13.23v-12.7h24.86l2.12 7.93 8.46-10 48.67-1.05s21.43 3.16 20.63 23.8c-1.06 27.51-21.69 23.8-21.69 23.8l1.53 15.3h-151.25z" fill="#4594c1"/><path d="m165.11 213.29 12.16-49.2h16.4l8.46 23.28 9.53-21.69h17.45l4.76 50.78h-16.87l-2.7-18.46-10.58 16.4s-7.93 0-7.4-.53-7.41-18-7.41-18l-4.23 20.1z" fill="#e9f2f8"/><path d="m241.28 217-3.17-52.9h17.45s-1.06 27.5-1.06 25.9 13.76-24.86 13.76-24.86h16.4s-.53 52.37-1.59 51.84-14.81-1.06-14.81-1.06l1.58-27-19 28z" fill="#e9f2f8"/><path d="m290 219.11c-.53-.53-1.59-52.9-1.59-52.9s34.91-8.46 41.79 5.82c13.65 28.36-23.28 29.62-23.28 29.62l3.71 16.4z" fill="#e9f2f8"/><path d="m169.34 213.29c0-1.06 9.52-46 9.52-46l14.81-2.65s-16.93-1.58-16.93-1.06-11.63 49.73-11.63 49.73z" fill="#fff"/><path d="m203.19 188.43 9-22.22h16.92l-15.34 2.12z" fill="#fff"/><path d="m241.28 214.35-.53-48.14 14.81-2.12h-17.46z" fill="#fff"/><path d="m255.03 190.54 13.76-25.39h15.34l-14.82 2.65z" fill="#fff"/><path d="m290 206.94c-.53-.53-2.12-40.73-2.12-40.73a140.93 140.93 0 0 1 16.93-2.65c8.59-.61 13.75 1.06 13.75 1.06s-10.58.53-16.93 1.59a69.94 69.94 0 0 0 -9.52 2.12z" fill="#fff"/><image height="124" transform="matrix(.53 0 0 .53 155.05 157.75)" width="350" xlink:href="../../anim/library/logo/mir.png"/><path d="m304.76 189.49-2.12-13.23s12.34-2.85 13.76 3.17c2.11 9-11.64 10.06-11.64 10.06z" fill="#4390bd"/></svg>