<svg width="auto" height="auto" preserveAspectRatio="none"  viewBox="0 0 211 97" fill="none" xmlns="http://www.w3.org/2000/svg">
<path d="M0 32C0 20.9543 8.95431 12 20 12H101H196.801C199.188 12 201.496 12.8539 203.309 14.4074L209.254 19.5034C210.362 20.4533 211 21.84 211 23.2997V77C211 88.0457 202.046 97 191 97H42.3271H20C8.95429 97 0 88.0457 0 77L0 32Z" fill="white"/>
<path d="M70.3006 1.43926C71.0606 0.527292 72.1864 0 73.3735 0H113.888H198C200.209 0 202 1.79086 202 4V19.0178C202 20.1125 201.113 21 200.018 21H62.7026H62.5402C59.1488 21 57.2962 17.0446 59.4673 14.4393L70.3006 1.43926Z" fill="white"/>
<path d="M69 4C69 1.79086 70.7909 0 73 0H198C200.209 0 202 1.79086 202 4C202 6.20914 200.209 8 198 8H73C70.7909 8 69 6.20914 69 4Z" fill="#02ADC9"/>
</svg>
