<?xml version="1.0" encoding="UTF-8"?>
<svg width="27px" height="27px" viewBox="0 0 27 27" version="1.1" xmlns="http://www.w3.org/2000/svg" xmlns:xlink="http://www.w3.org/1999/xlink">
    <!-- Generator: Sketch 58 (84663) - https://sketch.com -->
    <title>icon/eggcoin</title>
    <desc>Created with Sketch.</desc>
    <g id="Symbols" stroke="none" stroke-width="1" fill="none" fill-rule="evenodd">
        <g id="icon/eggcoin" transform="translate(-1.000000, 0.000000)">
            <g id="Group-3" transform="translate(1.217391, 0.066957)" fill="#5EDFFC">
                <path d="M26.3342575,13.1672575 C26.3342575,20.4392508 20.4389933,26.3345151 13.1672575,26.3345151 C5.89474916,26.3345151 -3.32178729e-13,20.4392508 -3.32178729e-13,13.1672575 C-3.32178729e-13,5.89500669 5.89474916,1.0658141e-14 13.1672575,1.0658141e-14 C20.4389933,1.0658141e-14 26.3342575,5.89500669 26.3342575,13.1672575" id="Fill-1"></path>
            </g>
            <g id="Group-6" transform="translate(0.000000, 0.066957)" fill="#B5F1FF">
                <path d="M24.4587211,4.82449833 C22.2010445,1.79271569 18.4276639,0 14.3845201,0 C7.11226923,0 1.01692001,6.07736243 1.2173398,13.3579548 C1.25938331,14.8852575 1.48053043,16.3514264 1.95901204,17.7157943 C9.38397525,13.307995 16.8782127,9.01814214 24.4587211,4.88254682" id="Fill-4"></path>
            </g>
            <path d="M24.1857445,13.2163418 C24.1857445,18.7448903 19.7045505,23.2260843 14.176002,23.2260843 C8.64745351,23.2260843 4.16625953,18.7448903 4.16625953,13.2163418 C4.16625953,7.68779331 8.64745351,3.20634181 14.176002,3.20634181 C19.7045505,3.20634181 24.1857445,7.68779331 24.1857445,13.2163418" id="Fill-9" fill="#03ADC9"></path>
            <path d="M24.468404,13.6333264 C24.468404,19.0874502 20.0474709,23.5088983 14.5930896,23.5088983 C9.13870836,23.5088983 4.71777525,19.0874502 4.71777525,13.6333264 C4.71777525,8.17920268 9.13870836,3.75801204 14.5930896,3.75801204 C20.0474709,3.75801204 24.468404,8.17920268 24.468404,13.6333264" id="Fill-11" fill="#2BC3E0"></path>
            <path d="M14.9508086,19.738125 C18.2392552,19.738125 19.7120974,16.8486245 19.7120974,14.2186724 C19.7120974,12.4220465 19.1082378,10.3536838 18.1000799,8.68271812 C17.1198146,7.06897537 15.9417134,6.34682066 14.9508086,6.34682066 C13.9570283,6.34682066 12.7786396,7.06897537 11.8067132,8.68271812 C10.7939545,10.3536838 10.1895199,12.4220465 10.1895199,14.2186724 C10.1895199,16.8486245 11.6594865,19.738125 14.9508086,19.738125 Z" id="Fill-19-Copy" fill="#03ADC9"></path>
            <path d="M9.4101228,14.4560793 C9.4101228,17.0860314 10.8800895,19.738125 14.1714116,19.738125 C17.4598581,19.738125 18.9327003,17.0860314 18.9327003,14.4560793 C18.9327003,12.6594534 18.3288408,10.5910906 17.3206829,8.92012499 C16.3404175,7.30638224 15.1623163,6.34682066 14.1714116,6.34682066 C13.1776313,6.34682066 11.9992425,7.30638224 11.0273162,8.92012499 C10.0145575,10.5910906 9.4101228,12.6594534 9.4101228,14.4560793" id="Mask" fill="#85E6FC"></path>
            <path d="M14.1714116,6.34682066 C15.1623163,6.34682066 16.3404175,7.30638224 17.3206829,8.92012499 C17.3923904,9.03897627 17.4620526,9.15983801 17.5295976,9.28246944 L9.43831107,13.7679338 C9.56831394,12.1464092 10.1416948,10.3813248 11.0273162,8.92012499 C11.9992425,7.30638224 13.1776313,6.34682066 14.1714116,6.34682066 Z" id="Combined-Shape" fill="#B5F1FF"></path>
        </g>
    </g>
</svg>