<svg width="auto" height="auto"  preserveAspectRatio="none" viewBox="0 0 276 85" fill="none" xmlns="http://www.w3.org/2000/svg">
<path d="M0 48.5C0 28.3416 16.3416 12 36.5 12L133 12L260.634 12C263.122 12 265.52 12.9272 267.361 14.6006L275.5 22V75C275.5 80.5229 271.023 85 265.5 85H55.7377H36.5C16.3416 85 0 68.6584 0 48.5Z" fill="white"/>
<path d="M134.301 1.43926C135.061 0.527292 136.186 0 137.373 0H177.888H262C264.209 0 266 1.79086 266 4V19.0178C266 20.1125 265.113 21 264.018 21H126.703H126.54C123.149 21 121.296 17.0446 123.467 14.4393L134.301 1.43926Z" fill="white"/>
<path d="M133 4C133 1.79086 134.791 0 137 0H262C264.209 0 266 1.79086 266 4C266 6.20914 264.209 8 262 8H137C134.791 8 133 6.20914 133 4Z" fill="#02ADC9"/>
</svg>
