<svg enable-background="new 0 0 776 456" viewBox="0 0 776 456" xmlns="http://www.w3.org/2000/svg" xmlns:xlink="http://www.w3.org/1999/xlink"><linearGradient id="a"><stop offset="0" stop-color="#e2e8ec"/><stop offset="1" stop-color="#f0f1f6"/></linearGradient><linearGradient id="b" gradientTransform="matrix(1 0 0 -1 0 458)" gradientUnits="userSpaceOnUse" x1="118.7628" x2="118.7228" xlink:href="#a" y1="99.4" y2="165.45"/><linearGradient id="c" gradientTransform="matrix(1 0 0 -1 0 458)" gradientUnits="userSpaceOnUse" x1="153.5625" x2="153.3825" xlink:href="#a" y1="132.42" y2="192.75"/><linearGradient id="d"><stop offset=".01" stop-color="#cedbe2"/><stop offset="1" stop-color="#f9fcfd"/></linearGradient><linearGradient id="e" gradientTransform="matrix(1 0 0 -1 0 458)" gradientUnits="userSpaceOnUse" x1="38.9434" x2="38.5334" xlink:href="#d" y1="83.4" y2="138.15"/><linearGradient id="f" gradientTransform="matrix(1 0 0 -1 0 458)" gradientUnits="userSpaceOnUse" x1="45.7091" x2="45.4691" xlink:href="#d" y1="84.86" y2="138.32"/><linearGradient id="g" gradientTransform="matrix(1 0 0 -1 0 458)" gradientUnits="userSpaceOnUse" x1="52.5186" x2="52.6186" xlink:href="#d" y1="85.83" y2="133.02"/><path clip-rule="evenodd" d="m0 426.5v29.5h753c1 0 2-.4 2.8-1.2l19.1-19.7c.7-.8 1.1-1.8 1.1-2.8v-209.9c0-1.2-.5-2.3-1.4-3.1l-18.6-15.6c-.9-.8-1.4-1.9-1.4-3.1v-177.9c0-1.1-.4-2.1-1.2-2.9l-18.1-18.3c-.7-.7-1.7-1.1-2.7-1.1l-732.6-.4z" fill="#fff" fill-rule="evenodd"/><path d="m776 377.1h-106.2l-3.8 3.9h-119.5l-32.3 32.3h-187.7v4.9h218l25.8-25.8h205.7z" fill="#e8eef8"/><path d="m776 403.6h-204.8l5.2-5.2h199.6z" fill="#e8eef8"/><path d="m776 408.4h-210.5l-26.6 26.6h-118.6v3.3h119.7l27.6-27.6h208.4z" fill="#e8eef8"/><path d="m776 415.3h-208.5l-40.7 40.7h3.5l37.9-37.9h207.8z" fill="#e8eef8"/><path d="m255.1 227.2-48.2 48.2-4.1 4.1-33.3 33.3-37 37-13.5 13.5-21 21-5 5-.5.5-12 12-2.7 2.7-5.3 5.3-29 29-2 2-10 10-.7.7h-27.3v-448.4h27.5z" fill="#f9fbfc"/><path d="m167.5 287.5v27.3l-4.7 4.7-1.3.8-1 .6-4 2.5v-36h11z" fill="#e1e6ec"/><path d="m119 363.3-21 21-5 5-.5.5v-197.3l4.4 5 4.8 5.4 2.2 2.6 4.1 4.6 2.1 2.4.9 1 2.9 54.7.1.9 1.2 21.5z" fill="#e3e8ee"/><path d="m3.5 155.4h26v133.1h-26z" fill="#d4dfe7"/><path d="m3.5 164.5h21v92h-21z" fill="#f4f5fa"/><path d="m169.5 275.4v37.4l-8 8v-34.3z" fill="#d4dce5"/><path d="m119.5 254.5h9.8v45h-9.8z" fill="#f0f2f6"/><path d="m206.9 275.4-4.1 4.1-33.3 33.3v-37.4z" fill="#f0f1f5"/><path d="m139.5 290.6v52.2l-7 7-13.5 13.5-21 21v-93.7z" fill="url(#b)"/><path d="m160.5 273.5v48.3l-14 14v-74.6h10z" fill="url(#c)"/><path d="m207.7 274.6-.8.8-4.1 4.1h-29.4v-4.9z" fill="#d0d1de"/><path d="m29.5 192.5v-37.1l15 23.1v14z" fill="#c5cfd4"/><path d="m93 389.3-.5.5-12 12-2.7 2.7-5.3 5.3-3.1 3.1-3.9 3.1-2 1.6-6 4.9-2.1 1.7-5.9 4.8-2 1.6-4 3.3-2 1.6-5 4-5 4-7.7 6.2h-9.3v-257.2h77.9l.1 36.9z" fill="#ebeff4"/><path d="m63.5 326v92.8l-20 20-2 2-9 9h-29v-193.2h24.5l1.5 2.9 2 3.9 4.1 8.1 3.9 7.6 4 7.8 3.9 7.6 4.9 9.6.2.4 3 5.9 1.6 3.1.4.8 1.1 2.2 1.9 3.6z" fill="#d8e2eb"/><path d="m119.5 290.6v-72.4l-5.7-5.7v78.1z" fill="#d6e0e8"/><path d="m109.7 212.5h4.2v78.1h-4.2z" fill="#cad2d9"/><path d="m103.5 205.5h4.4v85.1h-4.4z" fill="#cad2d9"/><path d="m96.4 197.5h5.3v93.1h-5.3z" fill="#cad2d9"/><path d="m80.5 219.5v182.3l-2.7 2.7-5.3 5.3-9 9v-199.3z" fill="#c3cccf"/><g fill="#edf1f7"><path d="m75.5 224.5h5v19h-5z"/><path d="m65.5 224.5h7v19h-7z"/><path d="m65.5 248.5h7v19h-7z"/><path d="m65.5 271.5h7v19h-7z"/><path d="m65.5 294.5h7v19h-7z"/></g><path d="m65.5 316.5h7v19h-7z" fill="#d4dee7"/><path d="m65.5 340.5h7v19h-7z" fill="#d4dee7"/><path d="m65.5 362.5h7v19h-7z" fill="#c8d5de"/><path d="m65.5 385.5h7v19h-7z" fill="#c8d5de"/><path d="m72.5 407.5v2.3l-7 7v-9.3z" fill="#c8d5de"/><path d="m75.5 248.5h5v19h-5z" fill="#edf1f7"/><path d="m75.5 271.5h5v19h-5z" fill="#edf1f7"/><path d="m75.5 294.5h5v19h-5z" fill="#edf1f7"/><path d="m75.5 316.5h5v19h-5z" fill="#d4dee7"/><path d="m75.5 340.5h5v19h-5z" fill="#d4dee7"/><path d="m75.5 363.5h5v19h-5z" fill="#c8d5de"/><path d="m80.5 385.5v16.3l-2.7 2.7h-2.3v-19z" fill="#c8d5de"/><path d="m60.5 219.5v202.3l-17 17v-219.3z" fill="#c3cccf"/><path d="m55.5 224.5h5v19h-5z" fill="#edf1f7"/><path d="m45.5 224.5h7v19h-7z" fill="#edf1f7"/><path d="m45.5 248.5h7v19h-7z" fill="#edf1f7"/><path d="m45.5 271.5h7v19h-7z" fill="#edf1f7"/><path d="m45.5 294.5h7v19h-7z" fill="#edf1f7"/><path d="m45.5 316.5h7v19h-7z" fill="#d4dee7"/><path d="m45.5 340.5h7v19h-7z" fill="#d4dee7"/><path d="m45.5 362.5h7v19h-7z" fill="#c8d5de"/><path d="m45.5 385.5h7v19h-7z" fill="#c8d5de"/><path d="m45.5 418.9v-11.4h7v4.6z" fill="#c8d5de"/><path d="m55.5 248.5h5v19h-5z" fill="#edf1f7"/><path d="m55.5 271.5h5v19h-5z" fill="#edf1f7"/><path d="m55.5 294.5h5v19h-5z" fill="#edf1f7"/><path d="m55.5 316.5h5v19h-5z" fill="#d4dee7"/><path d="m55.5 340.5h5v19h-5z" fill="#d4dee7"/><path d="m55.5 363.5h5v19h-5z" fill="#c8d5de"/><path d="m55.5 385.5h5v19h-5z" fill="#c8d5de"/><path d="m39.5 404.5-17 18v-203h17z" fill="#c3cccf"/><path d="m34.5 224.5h5v19h-5z" fill="#edf1f7"/><path d="m24.5 224.5h7v19h-7z" fill="#edf1f7"/><path d="m24.5 248.5h7v19h-7z" fill="#edf1f7"/><path d="m24.5 271.5h7v19h-7z" fill="#dae4ea"/><path d="m24.5 294.5h7v19h-7z" fill="#d9e3eb"/><path d="m24.5 316.5h7v19h-7z" fill="#d4dee7"/><path d="m24.5 340.5h7v19h-7z" fill="#d4dee7"/><path d="m24.5 362.5h7v19h-7z" fill="#c8d5de"/><path d="m24.5 385.5h7v19h-7z" fill="#c8d5de"/><path d="m24.5 418.9v-11.4h7v4.6z" fill="#c8d5de"/><path d="m34.5 248.5h5v19h-5z" fill="#edf1f7"/><path d="m34.5 271.5h5v19h-5z" fill="#edf1f7"/><path d="m34.5 294.5h5v19h-5z" fill="#d9e3eb"/><path d="m34.5 316.5h5v19h-5z" fill="#d4dee7"/><path d="m34.5 340.5h5v19h-5z" fill="#d4dee7"/><path d="m34.5 363.5h5v19h-5z" fill="#d4dee7"/><path d="m34.5 385.5h5v19h-5z" fill="#d4dee7"/><path d="m132.5 290.5v-60.9l14.2-5.1v80.4z" fill="#f0f2f6"/><path d="m34.5 290.5h5v-11.4l-5-7.6z" fill="#dae4ea"/><path d="m52.5 313.5v-9l-5.1-10h-1.9v19z" fill="#dae4ea"/><path d="m57.1 313.5-1.6-3.1v3.1z" fill="#dae4ea"/><path d="m31.5 267.5-7-10v10z" fill="#dae4ea"/><path d="m3.5 256.5h11v146h-11z" fill="#ccdae1"/><path d="m146.8 304.8v30.8l-14.3 14.3v-59.3l14 14z" fill="#d7e0e8"/><path d="m137.5 293.5v51.3l-2 2v-53.3z" fill="#c6d1d8"/><path d="m144.5 300.5v37.3l-2 2v-39.3z" fill="#c6d1d8"/><path d="m31.5 290.5v160.3l-.7.7h-27.3v-161z" fill="#d8e0e6"/><path d="m57.5 307.5v117.3l-14 14-2 2-10 10v-160.3l6.1 4 1.9 1.2 4 2.6 2 1.3 6.8 4.5.2.1 3 2z" fill="#dfe7ee"/><path d="m41.5 440.8-5 5v-142.3l3 1.8 1.9 1.2.1 129z" fill="url(#e)"/><path d="m48 310.1v3.4 3l-.1 19v5l-.1 19v3l-.1 19v4l-.1 19v3 9.4 13.7 4.2l-4 4v-4.9l-.4-126.4.5.2 2 1.1z" fill="url(#f)"/><path d="m55.5 426.8-6 6v-3.8-13.9-10.5-19-4-19-3-19-5-19-5l2.9 1.4 2 1 .9 110.3z" fill="url(#g)"/></svg>