<svg viewBox="0 0 776 456" xmlns="http://www.w3.org/2000/svg" xmlns:xlink="http://www.w3.org/1999/xlink"><linearGradient id="a" gradientUnits="userSpaceOnUse" x1="118.74" x2="118.7" y1="358.6" y2="292.55"><stop offset="0" stop-color="#e2e8ec"/><stop offset="1" stop-color="#f0f1f6"/></linearGradient><linearGradient id="b" x1="153.56" x2="153.38" xlink:href="#a" y1="325.58" y2="265.25"/><linearGradient id="c" gradientUnits="userSpaceOnUse" x1="38.94" x2="38.53" y1="374.6" y2="319.85"><stop offset=".01" stop-color="#cedbe2"/><stop offset="1" stop-color="#f9fcfd"/></linearGradient><linearGradient id="d" x1="45.71" x2="45.47" xlink:href="#c" y1="373.14" y2="319.68"/><linearGradient id="e" x1="52.52" x2="52.62" xlink:href="#c" y1="372.17" y2="324.98"/><path d="m776 377.14h-106.18l-3.84 3.84h-119.48l-32.26 32.26h-187.74v4.86h218l25.8-25.8h205.7z" fill="#e8eef8"/><path d="m776 403.56h-204.76l5.16-5.16h199.6z" fill="#e8eef8"/><path d="m776 408.35h-210.5l-26.57 26.58h-118.63v3.31h119.73l27.6-27.61h208.37z" fill="#e8eef8"/><path d="m776 415.29h-208.5l-40.7 40.7h3.48l37.94-37.94h207.78z" fill="#e8eef8"/><path d="m255.07 227.22-48.2 48.2-4.08 4.08-33.29 33.29-37 37-13.53 13.53-21.02 21.02-4.97 4.97-.48.48-12 12-2.71 2.71-5.29 5.29-29 29-.02.02-1.98 1.98-10 10-.71.71h-27.29v-448.36h27.5z" fill="#f9fbfc"/><path d="m167.5 287.5v27.29l-4.7 4.7-1.3.83-1 .63-4 2.55v-36z" fill="#e1e6ec"/><path d="m118.97 363.32-21.02 21.02-4.97 4.97-.48.48v-197.29l4.38 5 4.75 5.43 2.25 2.57 4.05 4.62 2.08 2.38.88 1 2.95 54.71.05.93 1.16 21.47z" fill="#e3e8ee"/><path d="m3.5 155.42h26v133.08h-26z" fill="#d4dfe7"/><path d="m3.5 164.5h21v92h-21z" fill="#f4f5fa"/><path d="m169.5 275.42v37.37l-8 8v-34.29z" fill="#d4dce5"/><path d="m119.5 254.5h9.79v44.95h-9.79z" fill="#f0f2f6"/><path d="m206.87 275.42-4.08 4.08-33.29 33.29v-37.37z" fill="#f0f1f5"/><path d="m139.5 290.61v52.18l-7 7-13.5 13.53-21 21v-93.71z" fill="url(#a)"/><path d="m160.5 273.5v48.29l-14 14v-74.57h10z" fill="url(#b)"/><path d="m207.7 274.59-.83.83-4.08 4.08h-29.37v-4.91z" fill="#d0d1de"/><path d="m29.5 192.5v-37.08l15 23.08v14z" fill="#c5cfd4"/><path d="m92.98 389.31-.48.48-12 12-2.71 2.71-5.29 5.29-3.11 3.11-3.89 3.15-2 1.61-6 4.86-2.06 1.66-5.93 4.8-1.98 1.6-4.03 3.26-.03.03-1.98 1.59-4.99 4.04-5 4.05-7.73 6.25h-9.27v-257.3h77.89l.11 36.91z" fill="#ebeff4"/><path d="m63.5 326v92.79l-20 20-.02.02-1.98 1.98-9.01 9.01h-28.99v-193.21h24.5l1.5 2.93 2 3.91 4.13 8.07 3.87 7.57v.01l4 7.82 3.89 7.6 4.91 9.6.2.39 3 5.87 1.61 3.14.39.77 1.14 2.23 1.86 3.63z" fill="#d8e2eb"/><path d="m119.52 290.61v-72.42l-5.68-5.69v78.11z" fill="#d6e0e8"/><path d="m109.65 212.5h4.24v78.11h-4.24z" fill="#cad2d9"/><path d="m103.5 205.5h4.43v85.11h-4.43z" fill="#cad2d9"/><path d="m96.37 197.5h5.26v93.11h-5.26z" fill="#cad2d9"/><path d="m80.5 219.5v182.29l-2.71 2.71-5.29 5.29-9 9v-199.29z" fill="#c3cccf"/><g fill="#edf1f7"><path d="m75.5 224.5h5v19h-5z"/><path d="m65.5 224.5h7v19h-7z"/><path d="m65.5 248.5h7v19h-7z"/><path d="m65.5 271.5h7v19h-7z"/><path d="m65.5 294.5h7v19h-7z"/></g><path d="m65.5 316.5h7v19h-7z" fill="#d4dee7"/><path d="m65.5 340.5h7v19h-7z" fill="#d4dee7"/><path d="m65.5 362.5h7v19h-7z" fill="#c8d5de"/><path d="m65.5 385.5h7v19h-7z" fill="#c8d5de"/><path d="m72.5 407.5v2.29l-7 7v-9.29z" fill="#c8d5de"/><path d="m75.5 248.5h5v19h-5z" fill="#edf1f7"/><path d="m75.5 271.5h5v19h-5z" fill="#edf1f7"/><path d="m75.5 294.5h5v19h-5z" fill="#edf1f7"/><path d="m75.5 316.5h5v19h-5z" fill="#d4dee7"/><path d="m75.5 340.5h5v19h-5z" fill="#d4dee7"/><path d="m75.5 363.5h5v19h-5z" fill="#c8d5de"/><path d="m80.5 385.5v16.29l-2.71 2.71h-2.29v-19z" fill="#c8d5de"/><path d="m60.5 219.5v202.29l-17 17v-219.29z" fill="#c3cccf"/><path d="m55.5 224.5h5v19h-5z" fill="#edf1f7"/><path d="m45.5 224.5h7v19h-7z" fill="#edf1f7"/><path d="m45.5 248.5h7v19h-7z" fill="#edf1f7"/><path d="m45.5 271.5h7v19h-7z" fill="#edf1f7"/><path d="m45.5 294.5h7v19h-7z" fill="#edf1f7"/><path d="m45.5 316.5h7v19h-7z" fill="#d4dee7"/><path d="m45.5 340.5h7v19h-7z" fill="#d4dee7"/><path d="m45.5 362.5h7v19h-7z" fill="#c8d5de"/><path d="m45.5 385.5h7v19h-7z" fill="#c8d5de"/><path d="m45.5 418.92v-11.42h7v4.65z" fill="#c8d5de"/><path d="m55.5 248.5h5v19h-5z" fill="#edf1f7"/><path d="m55.5 271.5h5v19h-5z" fill="#edf1f7"/><path d="m55.5 294.5h5v19h-5z" fill="#edf1f7"/><path d="m55.5 316.5h5v19h-5z" fill="#d4dee7"/><path d="m55.5 340.5h5v19h-5z" fill="#d4dee7"/><path d="m55.5 363.5h5v19h-5z" fill="#c8d5de"/><path d="m55.5 385.5h5v19h-5z" fill="#c8d5de"/><path d="m39.5 404.5-17 18v-203h17z" fill="#c3cccf"/><path d="m34.5 224.5h5v19h-5z" fill="#edf1f7"/><path d="m24.5 224.5h7v19h-7z" fill="#edf1f7"/><path d="m24.5 248.5h7v19h-7z" fill="#edf1f7"/><path d="m24.5 271.5h7v19h-7z" fill="#dae4ea"/><path d="m24.5 294.5h7v19h-7z" fill="#d9e3eb"/><path d="m24.5 316.5h7v19h-7z" fill="#d4dee7"/><path d="m24.5 340.5h7v19h-7z" fill="#d4dee7"/><path d="m24.5 362.5h7v19h-7z" fill="#c8d5de"/><path d="m24.5 385.5h7v19h-7z" fill="#c8d5de"/><path d="m24.5 418.92v-11.42h7v4.65z" fill="#c8d5de"/><path d="m34.5 248.5h5v19h-5z" fill="#edf1f7"/><path d="m34.5 271.5h5v19h-5z" fill="#edf1f7"/><path d="m34.5 294.5h5v19h-5z" fill="#d9e3eb"/><path d="m34.5 316.5h5v19h-5z" fill="#d4dee7"/><path d="m34.5 340.5h5v19h-5z" fill="#d4dee7"/><path d="m34.5 363.5h5v19h-5z" fill="#d4dee7"/><path d="m34.5 385.5h5v19h-5z" fill="#d4dee7"/><path d="m132.5 290.5v-60.92l14.17-5.08v80.36z" fill="#f0f2f6"/><path d="m34.5 290.5h5v-11.42l-5-7.58z" fill="#dae4ea"/><path d="m52.5 313.5v-9.01l-5.11-9.99h-1.89v19z" fill="#dae4ea"/><path d="m57.11 313.5-1.61-3.14v3.14z" fill="#dae4ea"/><path d="m31.5 267.5-7-10v10z" fill="#dae4ea"/><path d="m3.5 256.5h11v146h-11z" fill="#ccdae1"/><path d="m146.76 304.76v30.77l-14.26 14.26v-59.29l14 14 .17.17z" fill="#d7e0e8"/><path d="m137.5 293.5v51.29l-2 2v-53.29z" fill="#c6d1d8"/><path d="m144.5 300.5v37.29l-2 2v-39.29z" fill="#c6d1d8"/><path d="m31.5 290.5v160.29l-.71.71h-27.29v-161z" fill="#d8e0e6"/><path d="m57.5 307.5v117.29l-14 14-.02.02-1.98 1.98-10 10v-160.29l6.12 4 1.88 1.23 4 2.62 2 1.3 6.8 4.45.2.13 3 1.96z" fill="#dfe7ee"/><path d="m41.5 440.79-5 5v-142.29l3 1.83 1.91 1.17.08 128.96z" fill="url(#c)"/><path d="m47.95 310.11-.01 3.39-.01 3-.07 19-.02 5-.06 19-.01 3-.07 19-.01 4-.07 19-.01 3-.03 9.41-.05 13.67-.01 4.19-4.02 4.02-.02.02-.01-4.94-.42-126.37.45.24 2 1.07z" fill="url(#d)"/><path d="m55.46 426.83-5.96 5.96.01-3.81.01-13.94v-10.54l.02-19v-4l.01-19 .01-3 .01-19v-5l.02-19v-5l2.91 1.4 2 .96.94 110.32z" fill="url(#e)"/></svg>