<svg width="50" height="50" viewBox="0 0 50 50" fill="none" xmlns="http://www.w3.org/2000/svg">
<rect width="50" height="50" rx="10" fill="white"/>
<rect x="0.5" y="0.5" width="49" height="49" rx="9.5" stroke="#02ADC9" stroke-opacity="0.2"/>
<path d="M33.8334 16.125H17.1667C16.0209 16.125 15.0938 17.0625 15.0938 18.2083L15.0834 36.9583L19.25 32.7917H33.8334C34.9792 32.7917 35.9167 31.8542 35.9167 30.7083V18.2083C35.9167 17.0625 34.9792 16.125 33.8334 16.125ZM26.5417 30.7083H24.4584V28.625H26.5417V30.7083ZM26.5417 26.5417H24.4584C24.4584 25.526 26.5417 23.4729 26.5417 22.375C26.5417 22.3646 26.5302 21.3333 25.5 21.3333C24.6396 21.3333 24.4584 22.2031 24.4584 22.375H22.375C22.375 21.1146 23.3688 19.25 25.5 19.25C27.4563 19.25 28.625 20.8385 28.625 22.375C28.625 23.8562 26.5417 25.5146 26.5417 26.5417Z" fill="#02ADC9"/>
</svg>
