<svg width="18" height="18" viewBox="0 0 18 18" fill="none" xmlns="http://www.w3.org/2000/svg">
<path d="M6.92725 0.75C6.35875 0.75 5.8397 1.0706 5.58545 1.5791L5.28955 2.1709C5.0353 2.67865 4.5155 3 3.94775 3H1.5C0.67125 3 0 3.67125 0 4.5V15.75C0 16.5787 0.67125 17.25 1.5 17.25H16.5C17.3288 17.25 18 16.5787 18 15.75V4.5C18 3.67125 17.3288 3 16.5 3H14.0522C13.4837 3 12.9647 2.6794 12.7104 2.1709L12.4146 1.5791C12.1603 1.07135 11.6405 0.75 11.0728 0.75H6.92725ZM2.25 1.5C1.836 1.5 1.5 1.836 1.5 2.25H3.75C3.75 1.836 3.414 1.5 3 1.5H2.25ZM9 4.5C11.895 4.5 14.25 6.855 14.25 9.75C14.25 12.645 11.895 15 9 15C6.105 15 3.75 12.645 3.75 9.75C3.75 6.855 6.105 4.5 9 4.5ZM15.75 4.5C16.164 4.5 16.5 4.836 16.5 5.25C16.5 5.664 16.164 6 15.75 6C15.336 6 15 5.664 15 5.25C15 4.836 15.336 4.5 15.75 4.5ZM9 6C8.00544 6 7.05161 6.39509 6.34835 7.09835C5.64509 7.80161 5.25 8.75544 5.25 9.75C5.25 10.7446 5.64509 11.6984 6.34835 12.4017C7.05161 13.1049 8.00544 13.5 9 13.5C9.99456 13.5 10.9484 13.1049 11.6517 12.4017C12.3549 11.6984 12.75 10.7446 12.75 9.75C12.75 8.75544 12.3549 7.80161 11.6517 7.09835C10.9484 6.39509 9.99456 6 9 6Z" fill="white"/>
</svg>
