<?xml version="1.0" encoding="UTF-8"?>
<svg width="156px" height="46px" viewBox="0 0 156 46" version="1.1" xmlns="http://www.w3.org/2000/svg" xmlns:xlink="http://www.w3.org/1999/xlink">
    <!-- Generator: Sketch 64 (93537) - https://sketch.com -->
    <title>Group 3</title>
    <desc>Created with Sketch.</desc>
    <defs>
        <path d="M141.555294,0 C142.659864,-1.58997828e-14 143.555294,0.8954305 143.555294,2 L143.555294,24 C143.555294,25.1045695 142.659864,26 141.555294,26 L78.022,26 L72.412358,35 L66.802,26 L2.50951237,26 C1.422985,26 0.535204814,25.132542 0.510048497,24.0463059 L0.000546944154,2.04630591 C-0.0250271019,0.942032504 0.849431504,0.0261101772 1.95370491,0.000536131106 L141.555294,0 Z" id="path-1"></path>
        <filter x="-6.3%" y="-25.7%" width="112.5%" height="151.4%" filterUnits="objectBoundingBox" id="filter-2">
            <feOffset dx="0" dy="0" in="SourceAlpha" result="shadowOffsetOuter1"></feOffset>
            <feGaussianBlur stdDeviation="3" in="shadowOffsetOuter1" result="shadowBlurOuter1"></feGaussianBlur>
            <feColorMatrix values="0 0 0 0 0.101960784   0 0 0 0 0.11372549   0 0 0 0 0.133333333  0 0 0 0.4 0" type="matrix" in="shadowBlurOuter1"></feColorMatrix>
        </filter>
        <linearGradient x1="52.8953887%" y1="45.6625871%" x2="50%" y2="50.4607539%" id="linearGradient-3">
            <stop stop-color="#FFFFFF" offset="0%"></stop>
            <stop stop-color="#FDFDFD" offset="0%"></stop>
            <stop stop-color="#EFEFEF" offset="100%"></stop>
        </linearGradient>
    </defs>
    <g id="Page-1" stroke="none" stroke-width="1" fill="none" fill-rule="evenodd">
        <g id="MW_markers_hover" transform="translate(-528.000000, -223.000000)">
            <g id="Group-2" transform="translate(534.000000, 222.000000)">
                <g id="Group-4" transform="translate(0.000000, 7.000000)">
                    <g id="Group">
                        <g id="Group-3" transform="translate(0.046844, 0.000000)">
                            <g id="Combined-Shape">
                                <use fill="black" fill-opacity="1" filter="url(#filter-2)" xlink:href="#path-1"></use>
                                <use fill="#FFFFFF" fill-rule="evenodd" xlink:href="#path-1"></use>
                            </g>
                            <path d="M5.95315622,3 L140.041635,3 L140.041635,3 L140.05726,23 L5.95315622,23 C4.84858672,23 3.95315622,22.1045695 3.95315622,21 L3.95315622,5 C3.95315622,3.8954305 4.84858672,3 5.95315622,3 Z" id="Rectangle" fill="url(#linearGradient-3)"></path>
                        </g>
                    </g>
                </g>
            </g>
        </g>
    </g>
</svg>