<svg width="272" height="457" viewBox="0 0 272 457" fill="none" xmlns="http://www.w3.org/2000/svg">
<path id="Mask" fill-rule="evenodd" clip-rule="evenodd" d="M270.537 1L209.909 1C208.853 1 207.84 1.41729 207.091 2.16091L190.85 18.2795C190.101 19.0231 189.088 19.4404 188.033 19.4404L26.1559 19.4404C25.0966 19.4404 24.0805 19.8606 23.3306 20.6089L2.17468 41.7185C1.42264 42.4689 1 43.4877 1 44.5501L1 326.9C1 327.953 1.41458 328.962 2.1539 329.711L11.7065 339.384C12.4389 340.126 12.8528 341.124 12.8604 342.166L13.4517 424.498C13.4593 425.554 13.8847 426.565 14.635 427.309L42.3951 454.839C43.1449 455.583 44.1582 456 45.2141 455.999L270.537 455.869L270.537 1Z" fill="#02ACC8" stroke="white" stroke-width="2"/>
</svg>
