<svg xmlns="http://www.w3.org/2000/svg" width="20" height="20" viewBox="0 0 20 20">
    <g fill="#02ADC9">
        <path d="M17.817.006H2.543C1.254.006.205 1.054.205 2.343v3.118h1.559V2.343c0-.43.35-.779.78-.779h15.273c.43 0 .78.35.78.78v15.274c0 .43-.35.779-.78.779H2.543c-.43 0-.78-.35-.78-.78V14.5H.206v3.118c0 1.289 1.05 2.338 2.338 2.338h15.274c1.29 0 2.338-1.05 2.338-2.338V2.343c0-1.289-1.049-2.337-2.338-2.337z" transform="matrix(-1 0 0 1 20.194 0)"/>
        <path d="M14.388 9.201L3.178 9.201 6.139 6.24 5.037 5.138 0.194 9.981 5.037 14.823 6.139 13.721 3.178 10.76 14.388 10.76z" transform="matrix(-1 0 0 1 20.194 0)"/>
    </g>
</svg>
