<svg width="38" height="39" viewBox="0 0 38 39" fill="none" xmlns="http://www.w3.org/2000/svg">
<g clip-path="url(#clip0)">
<path d="M24.7041 3.64764C24.6413 3.65905 24.5785 3.67617 24.5214 3.69328H1.46122C1.41556 3.69328 1.36989 3.69328 1.32423 3.69328C0.570778 3.76175 -0.00572699 4.39504 -1.90169e-05 5.15385V28.4772C-1.90169e-05 31.929 1.92928 34.0571 3.74441 34.9585C5.55955 35.8599 7.30619 35.8257 7.30619 35.8257H30.6861C30.6861 35.8257 30.8116 35.8257 30.823 35.8257C30.8402 35.8257 30.8516 35.8257 30.8687 35.8257C31.1256 35.8257 32.5868 35.7858 34.2478 34.9585C35.9831 34.0913 37.7925 32.1001 37.9466 28.9337C37.9466 28.9051 37.9466 28.8709 37.9466 28.8424C37.9466 28.8082 37.9923 28.7853 37.9923 28.7511C37.998 28.6769 37.998 28.5971 37.9923 28.5229C37.9923 28.4772 37.9923 28.4316 37.9923 28.386V12.5023C37.9923 12.4852 37.9923 12.4738 37.9923 12.4567C37.9923 12.4567 37.9866 11.4297 37.4443 10.3571C36.9534 9.3815 35.7661 8.3146 34.1108 8.12062C33.951 8.06357 33.7798 8.02934 33.6085 8.02934H26.3023V5.42771C26.3137 5.33642 26.3137 5.24513 26.3023 5.15385C26.308 5.09109 26.308 5.03404 26.3023 4.97128C26.3023 4.94275 26.3023 4.90852 26.3023 4.87999C26.3023 4.86288 26.3023 4.85147 26.3023 4.83435C26.2909 4.80582 26.2738 4.77159 26.2567 4.74307C26.2567 4.72595 26.2567 4.71454 26.2567 4.69742C26.2452 4.65178 26.2281 4.60614 26.211 4.56049C26.1825 4.51485 26.1539 4.46921 26.1197 4.42357C26.0797 4.34369 26.0341 4.26952 25.9827 4.19535C25.937 4.16112 25.8914 4.13259 25.8457 4.10407C25.7886 4.0356 25.7315 3.97855 25.663 3.9215C25.6459 3.9215 25.6345 3.9215 25.6174 3.9215C25.4633 3.8131 25.2977 3.73893 25.1151 3.69328C24.9838 3.65905 24.8411 3.64194 24.7041 3.64764ZM2.92246 6.61441H23.3798V9.1704C23.3399 9.36438 23.3399 9.56978 23.3798 9.76376V28.4772C23.3798 30.3486 23.9735 31.7977 24.7954 32.9046H7.30619C7.30619 32.9046 6.64406 32.9103 5.84495 32.6764C5.57667 32.5965 5.29698 32.4938 5.023 32.3569C3.91565 31.8092 2.92246 30.9762 2.92246 28.4772V6.61441ZM5.84495 9.53554C5.04012 9.53554 4.38371 10.1917 4.38371 10.9961V13.9172C4.38371 14.7217 5.04012 15.3778 5.84495 15.3778H20.4574C21.2622 15.3778 21.9186 14.7217 21.9186 13.9172V10.9961C21.9186 10.1917 21.2622 9.53554 20.4574 9.53554H5.84495ZM26.3023 10.9505H29.4988C29.2248 11.7492 29.2248 12.411 29.2248 12.411C29.2248 12.4281 29.2248 12.4396 29.2248 12.4567V27.0623C29.2191 27.5872 29.4931 28.0779 29.9497 28.346C30.4064 28.6085 30.9657 28.6085 31.4224 28.346C31.879 28.0779 32.153 27.5872 32.1473 27.0623V12.4567C32.153 12.4167 32.1815 12.0573 32.3756 11.6807C32.5754 11.2871 32.6781 10.9961 33.6085 10.9961C34.5275 10.9961 34.636 11.2757 34.8415 11.6807C35.0355 12.0687 35.0641 12.4624 35.0698 12.5023V12.548V28.5229C35.0698 28.5685 35.0698 28.6142 35.0698 28.6598C35.0298 30.9819 34.0595 31.7692 32.9692 32.3112C31.8562 32.8646 30.6861 32.9046 30.6861 32.9046C30.6861 32.9046 29.5159 32.8761 28.4029 32.3112C27.2898 31.7464 26.3023 30.9248 26.3023 28.4772V10.9505ZM5.43397 18.2989C4.62915 18.413 4.06406 19.1604 4.17822 19.9649C4.29238 20.7693 5.04012 21.3342 5.84495 21.2201H10.2287C10.7538 21.2258 11.2447 20.9519 11.513 20.4955C11.7755 20.0391 11.7755 19.4799 11.513 19.0235C11.2447 18.5671 10.7538 18.2932 10.2287 18.2989H5.84495C5.79928 18.2989 5.75362 18.2989 5.70796 18.2989C5.66229 18.2989 5.61663 18.2989 5.57096 18.2989C5.5253 18.2989 5.47964 18.2989 5.43397 18.2989ZM14.2014 18.2989C13.3966 18.413 12.8315 19.1604 12.9457 19.9649C13.0598 20.7693 13.8076 21.3342 14.6124 21.2201H20.4574C20.9825 21.2258 21.4734 20.9519 21.7417 20.4955C22.0042 20.0391 22.0042 19.4799 21.7417 19.0235C21.4734 18.5671 20.9825 18.2932 20.4574 18.2989H14.6124C14.5667 18.2989 14.5211 18.2989 14.4754 18.2989C14.4297 18.2989 14.3841 18.2989 14.3384 18.2989C14.2927 18.2989 14.2471 18.2989 14.2014 18.2989ZM5.43397 22.6806C4.62915 22.7947 4.06406 23.5421 4.17822 24.3466C4.29238 25.151 5.04012 25.7159 5.84495 25.6018H10.2287C10.7538 25.6075 11.2447 25.3336 11.513 24.8772C11.7755 24.4208 11.7755 23.8616 11.513 23.4052C11.2447 22.9488 10.7538 22.6749 10.2287 22.6806H5.84495C5.79928 22.6806 5.75362 22.6806 5.70796 22.6806C5.66229 22.6806 5.61663 22.6806 5.57096 22.6806C5.5253 22.6806 5.47964 22.6806 5.43397 22.6806ZM14.2014 22.6806C13.3966 22.7947 12.8315 23.5421 12.9457 24.3466C13.0598 25.151 13.8076 25.7159 14.6124 25.6018H20.4574C20.9825 25.6075 21.4734 25.3336 21.7417 24.8772C22.0042 24.4208 22.0042 23.8616 21.7417 23.4052C21.4734 22.9488 20.9825 22.6749 20.4574 22.6806H14.6124C14.5667 22.6806 14.5211 22.6806 14.4754 22.6806C14.4297 22.6806 14.3841 22.6806 14.3384 22.6806C14.2927 22.6806 14.2471 22.6806 14.2014 22.6806ZM6.16459 27.0623C5.35977 27.1764 4.79468 27.9238 4.90884 28.7283C5.023 29.5327 5.77074 30.0976 6.57557 29.9834H10.2287C10.7538 29.9892 11.2447 29.7153 11.513 29.2589C11.7755 28.8024 11.7755 28.2433 11.513 27.7869C11.2447 27.3305 10.7538 27.0566 10.2287 27.0623H6.57557C6.5299 27.0623 6.48424 27.0623 6.43858 27.0623C6.39291 27.0623 6.34725 27.0623 6.30158 27.0623C6.25592 27.0623 6.21026 27.0623 6.16459 27.0623ZM14.2014 27.0623C13.3966 27.1764 12.8315 27.9238 12.9457 28.7283C13.0598 29.5327 13.8076 30.0976 14.6124 29.9834H20.4574C20.9825 29.9892 21.4734 29.7153 21.7417 29.2589C22.0042 28.8024 22.0042 28.2433 21.7417 27.7869C21.4734 27.3305 20.9825 27.0566 20.4574 27.0623H14.6124C14.5667 27.0623 14.5211 27.0623 14.4754 27.0623C14.4297 27.0623 14.3841 27.0623 14.3384 27.0623C14.2927 27.0623 14.2471 27.0623 14.2014 27.0623Z" fill="#02ADC9"/>
</g>
<defs>
<clipPath id="clip0">
<rect width="37.9923" height="37.9747" fill="white" transform="translate(0 0.772156)"/>
</clipPath>
</defs>
</svg>
