<svg width="38" height="39" viewBox="0 0 38 39" fill="none" xmlns="http://www.w3.org/2000/svg">
<path d="M18.9962 4.56963C17.5968 4.56963 16.4633 5.70254 16.4633 7.10127V7.47212C12.8022 8.56181 10.1313 11.9485 10.1313 15.962V19.4529C10.1313 22.8922 8.76484 26.1886 6.33206 28.6203C5.99619 28.6203 5.67408 28.7536 5.43658 28.991C5.19908 29.2284 5.06565 29.5504 5.06565 29.8861C5.06565 30.2218 5.19908 30.5438 5.43658 30.7812C5.67408 31.0185 5.99619 31.1519 6.33206 31.1519H31.6602C31.9961 31.1519 32.3182 31.0185 32.5557 30.7812C32.7932 30.5438 32.9267 30.2218 32.9267 29.8861C32.9267 29.5504 32.7932 29.2284 32.5557 28.991C32.3182 28.7536 31.9961 28.6203 31.6602 28.6203C29.2275 26.1886 27.861 22.8922 27.861 19.4529V15.962C27.861 11.9485 25.1901 8.56181 21.529 7.47212V7.10127C21.529 5.70254 20.3955 4.56963 18.9962 4.56963ZM5.00877 10.8839C4.78178 10.8955 4.56212 10.968 4.37281 11.0937C4.1835 11.2195 4.03152 11.3938 3.93281 11.5984C3.93281 11.5984 2.53284 14.2743 2.53284 17.2279C2.53284 20.1814 3.93281 22.8573 3.93281 22.8573C4.08309 23.1575 4.34651 23.3858 4.66514 23.4919C4.98378 23.598 5.33153 23.5733 5.63193 23.4232C5.93232 23.273 6.16076 23.0098 6.26701 22.6913C6.37326 22.3729 6.34862 22.0253 6.1985 21.725C6.1985 21.725 5.06565 19.3376 5.06565 17.2279C5.06565 15.1181 6.1985 12.7307 6.1985 12.7307C6.30111 12.5328 6.34963 12.3114 6.33917 12.0888C6.3287 11.8661 6.25962 11.6502 6.1389 11.4628C6.01818 11.2754 5.85011 11.1232 5.65166 11.0216C5.45322 10.9199 5.23145 10.8724 5.00877 10.8839V10.8839ZM32.9464 10.8839C32.7269 10.8791 32.5098 10.9316 32.3166 11.036C32.1234 11.1404 31.9607 11.2932 31.8444 11.4795C31.7282 11.6658 31.6624 11.8791 31.6535 12.0984C31.6446 12.3178 31.693 12.5357 31.7938 12.7307C31.7938 12.7307 32.9267 15.1181 32.9267 17.2279C32.9267 19.3376 31.7938 21.725 31.7938 21.725C31.7194 21.8737 31.675 22.0356 31.6632 22.2014C31.6514 22.3673 31.6724 22.5338 31.725 22.6916C31.7776 22.8493 31.8607 22.9951 31.9697 23.1208C32.0787 23.2464 32.2114 23.3493 32.3601 23.4237C32.5089 23.498 32.6709 23.5423 32.8368 23.5541C33.0028 23.5659 33.1694 23.5449 33.3272 23.4923C33.485 23.4397 33.6309 23.3566 33.7565 23.2476C33.8822 23.1387 33.9851 23.006 34.0595 22.8573C34.0595 22.8573 35.4595 20.1814 35.4595 17.2279C35.4595 14.2743 34.0595 11.5984 34.0595 11.5984C33.9579 11.3883 33.8001 11.2105 33.6037 11.0844C33.4073 10.9583 33.1798 10.8889 32.9464 10.8839V10.8839ZM15.1969 33.6835C15.1969 35.781 16.8977 37.481 18.9962 37.481C21.0946 37.481 22.7954 35.781 22.7954 33.6835H15.1969Z" fill="#02ADC9"/>
</svg>
