<svg width="38" height="39" viewBox="0 0 38 39" fill="none" xmlns="http://www.w3.org/2000/svg">
<path d="M2.96762 3.48464C1.84396 3.60119 1.02772 4.60778 1.14433 5.73091C1.26094 6.85405 2.26798 7.66991 3.39164 7.55336C4.88632 7.55336 5.56475 7.90831 5.97817 8.27386C6.39159 8.63941 6.6725 9.15859 6.82621 9.96916C7.32974 12.6763 9.11592 21.4919 9.53994 23.5739C10.2661 27.1235 13.531 29.2532 16.9603 29.2532H27.8152C29.1297 29.2532 29.5749 28.6333 30.0202 28.1936C30.4654 27.7539 30.8523 27.2771 31.2498 26.7102C32.0449 25.5818 32.8611 24.162 33.6243 22.7687C35.1508 19.9873 36.4229 17.2166 36.4229 17.2166C36.8681 16.549 36.884 15.6802 36.46 15.0021C36.0307 14.324 35.2462 13.9584 34.4459 14.0697C33.6508 14.1809 32.9989 14.7478 32.7763 15.5213C32.7763 15.5213 31.5148 18.1755 30.0626 20.8191C29.3364 22.1382 28.5361 23.4309 27.9001 24.3368C27.6244 24.7341 27.3859 25.0096 27.2216 25.1845H16.9603C14.9621 25.1845 13.8809 24.4534 13.5257 22.7263C13.1017 20.6548 11.289 11.7704 10.812 9.20627C10.5523 7.81825 9.96927 6.29778 8.6919 5.17994C7.41454 4.0621 5.57535 3.48464 3.39164 3.48464C3.32274 3.47934 3.24853 3.47934 3.17963 3.48464C3.11073 3.47934 3.03652 3.47934 2.96762 3.48464ZM15.6034 30.6094C13.7325 30.6094 12.2113 32.1299 12.2113 34C12.2113 35.8701 13.7325 37.3906 15.6034 37.3906C17.4744 37.3906 18.9956 35.8701 18.9956 34C18.9956 32.1299 17.4744 30.6094 15.6034 30.6094ZM27.8152 30.6094C25.9443 30.6094 24.4231 32.1299 24.4231 34C24.4231 35.8701 25.9443 37.3906 27.8152 37.3906C29.6862 37.3906 31.2074 35.8701 31.2074 34C31.2074 32.1299 29.6862 30.6094 27.8152 30.6094Z" fill="#02ADC9"/>
<path d="M27.1373 15.278C27.1373 18.5021 24.7074 21.1157 21.7099 21.1157C18.7124 21.1157 16.2824 18.5021 16.2824 15.278C16.2824 11.3862 18.7124 6.19711 21.7099 6.19711C24.7074 6.19711 27.1373 11.3862 27.1373 15.278Z" fill="#02ADC9"/>
</svg>
