<svg width="41" height="42" viewBox="0 0 41 42" fill="none" xmlns="http://www.w3.org/2000/svg">
<path d="M14.9943 1.31645C14.3232 1.31645 13.7785 1.86086 13.7785 2.53164V7.3924C13.7785 8.06319 14.3232 8.60759 14.9943 8.60759H25.5308C26.2019 8.60759 26.7466 8.06319 26.7466 7.3924V2.53164C26.7466 1.86086 26.2019 1.31645 25.5308 1.31645H14.9943ZM7.29451 2.9367C5.95394 2.9367 4.86301 4.02714 4.86301 5.36708V36.1519C4.86301 37.4918 5.95394 38.5823 7.29451 38.5823H33.2306C34.1691 38.5823 34.9845 38.0491 35.3898 37.269C35.5632 36.9344 35.6621 36.5537 35.6621 36.1519V5.36708C35.6621 4.02714 34.5711 2.9367 33.2306 2.9367H28.3676V6.98734H31.6096V34.5316H8.91552V6.98734H12.1575V2.9367H7.29451Z" fill="#02ADC9"/>
<path d="M23.7771 16.2841C24.0048 16.0472 24.3148 15.9091 24.6415 15.8993C24.8948 15.8917 25.1444 15.9617 25.3577 16.1001C25.5709 16.2384 25.7379 16.4387 25.8366 16.6746C25.9354 16.9105 25.9613 17.1711 25.9111 17.4222C25.8608 17.6733 25.7367 17.9032 25.555 18.0818L19.2683 24.4379C19.0325 24.6763 18.7127 24.8101 18.3793 24.8101C18.0459 24.8101 17.7261 24.6763 17.4903 24.4379L14.9756 21.8955C14.8549 21.7783 14.7586 21.638 14.6922 21.4828C14.6259 21.3275 14.5908 21.1604 14.5891 20.9913C14.5874 20.8222 14.6191 20.6544 14.6823 20.4978C14.7455 20.3412 14.839 20.199 14.9573 20.0794C15.0756 19.9598 15.2163 19.8652 15.3712 19.8013C15.5261 19.7374 15.692 19.7053 15.8593 19.7071C16.0266 19.7088 16.1918 19.7442 16.3454 19.8113C16.4989 19.8784 16.6377 19.9759 16.7536 20.0979L18.3793 21.7415L23.7771 16.2841Z" fill="#02ADC9"/>
<path fill-rule="evenodd" clip-rule="evenodd" d="M24.6294 15.4944C24.9654 15.4844 25.2961 15.5773 25.5783 15.7603C25.8604 15.9433 26.0805 16.2077 26.2105 16.5182C26.3404 16.8288 26.3745 17.1715 26.3085 17.5016C26.2426 17.8308 26.0801 18.133 25.8414 18.3684L19.5565 24.7227C19.245 25.0375 18.8217 25.2152 18.3793 25.2152C17.9369 25.2152 17.5136 25.0375 17.2022 24.7228L14.6901 22.183C14.5322 22.0289 14.4064 21.845 14.3196 21.6419C14.2322 21.4375 14.1861 21.2177 14.1839 20.9954C14.1816 20.773 14.2233 20.5523 14.3065 20.3462C14.3898 20.1401 14.513 19.9525 14.6691 19.7946C14.8253 19.6367 15.0114 19.5116 15.2165 19.4269L15.3712 19.8013C15.2163 19.8652 15.0756 19.9598 14.9573 20.0794C14.839 20.199 14.7455 20.3412 14.6823 20.4978C14.6191 20.6544 14.5874 20.8222 14.5891 20.9913C14.5908 21.1604 14.6259 21.3275 14.6922 21.4828C14.7586 21.638 14.8549 21.7783 14.9756 21.8955L17.4903 24.4379C17.7261 24.6763 18.0459 24.8101 18.3793 24.8101C18.7127 24.8101 19.0325 24.6763 19.2683 24.4379L25.5551 18.0817C25.7367 17.9032 25.8608 17.6733 25.9111 17.4222C25.9613 17.1711 25.9354 16.9105 25.8366 16.6746C25.7379 16.4387 25.5709 16.2384 25.3577 16.1001C25.1444 15.9617 24.8948 15.8917 24.6415 15.8993C24.3148 15.9091 24.0048 16.0472 23.7771 16.2841L18.3793 21.7415L16.7536 20.0978C16.6377 19.9758 16.499 19.8784 16.3454 19.8113C16.1918 19.7442 16.0266 19.7088 15.8593 19.7071C15.692 19.7053 15.5261 19.7374 15.3712 19.8013L15.2165 19.4269C15.4217 19.3422 15.6416 19.2997 15.8635 19.302C16.0853 19.3043 16.3044 19.3513 16.5077 19.4402C16.7098 19.5285 16.8921 19.6562 17.0445 19.8158L18.3793 21.1654L23.487 16.0013C23.7875 15.6897 24.1971 15.5074 24.6294 15.4944Z" fill="#02ADC9"/>
</svg>
