<svg width="35" height="35" viewBox="0 0 35 35" fill="none" xmlns="http://www.w3.org/2000/svg">
<circle cx="17.5" cy="17.5" r="16.5" stroke="#001424" stroke-width="2"/>
<g clip-path="url(#clip0)">
<path d="M19.2144 16.91L13.2702 22.9785C13.0052 23.249 13.0079 23.6817 13.2757 23.9521L14.3385 25.0149C14.6116 25.2853 15.0497 25.2853 15.3201 25.0122L22.8841 17.3995C23.0193 17.2643 23.087 17.0885 23.087 16.91C23.087 16.7316 23.0193 16.5558 22.8841 16.4206L15.3201 8.80787C15.0497 8.53474 14.6116 8.53474 14.3385 8.80517L13.2757 9.86797C13.0079 10.1384 13.0052 10.5711 13.2702 10.8415L19.2144 16.91Z" fill="#001424"/>
</g>
<defs>
<clipPath id="clip0">
<rect width="18" height="18" fill="white" transform="translate(27 26) rotate(-180)"/>
</clipPath>
</defs>
</svg>
