<svg width="16" height="16" viewBox="0 0 16 16" fill="none" xmlns="http://www.w3.org/2000/svg">
<path d="M14.5616 7.34293L14.0768 7.05226C13.8704 6.92853 13.7307 6.72426 13.6677 6.49226C13.6667 6.48799 13.6656 6.48373 13.664 6.47946C13.5995 6.24533 13.6187 5.99573 13.7365 5.78293L14.0112 5.28853C14.2917 4.78293 13.9323 4.16053 13.3541 4.15093L12.7835 4.14133C12.5419 4.13706 12.3179 4.02986 12.1472 3.85919C12.1456 3.85759 12.1435 3.85546 12.1419 3.85386C11.9707 3.68319 11.8635 3.45919 11.8597 3.21759L11.8501 2.64693C11.84 2.06773 11.2176 1.70826 10.712 1.98933L10.2176 2.26399C10.0053 2.38186 9.75573 2.40106 9.52106 2.33653C9.51679 2.33546 9.51253 2.33439 9.50826 2.33279C9.27626 2.26933 9.07199 2.13013 8.94826 1.92373L8.65759 1.43893C8.35999 0.942925 7.64159 0.942925 7.34399 1.43893L7.05439 1.92159C6.92959 2.12959 6.72373 2.26986 6.49013 2.33386C6.48746 2.33439 6.48533 2.33546 6.48266 2.33599C6.24639 2.40106 5.99519 2.38186 5.78079 2.26293L5.28799 1.98933C4.78239 1.70826 4.15999 2.06773 4.15039 2.64586L4.14079 3.21653C4.13653 3.45813 4.02933 3.68213 3.85866 3.85279C3.85706 3.85439 3.85493 3.85653 3.85333 3.85813C3.68266 4.02933 3.45866 4.13653 3.21706 4.14026L2.64639 4.14986C2.06773 4.15999 1.70826 4.78239 1.98933 5.28799L2.26399 5.78239C2.38186 5.99519 2.40106 6.24426 2.33653 6.47893C2.33546 6.48319 2.33439 6.48746 2.33279 6.49173C2.26933 6.72373 2.13013 6.92799 1.92373 7.05173L1.43893 7.34239C0.942925 7.63999 0.942925 8.35893 1.43893 8.65599L1.92373 8.94719C2.13013 9.07092 2.26986 9.27519 2.33279 9.50719C2.33386 9.51146 2.33493 9.51573 2.33653 9.51999C2.40106 9.75466 2.38186 10.0037 2.26399 10.2165L1.98933 10.712C1.70879 11.2176 2.06826 11.84 2.64639 11.8496L3.21706 11.8592C3.45866 11.8635 3.68266 11.9707 3.85333 12.1413C3.85493 12.1429 3.85706 12.1451 3.85866 12.1467C4.02986 12.3173 4.13706 12.5413 4.14079 12.7829L4.15039 13.3531C4.15999 13.9312 4.78239 14.2907 5.28799 14.0101L5.78239 13.7355C5.99466 13.6176 6.24426 13.5984 6.47893 13.6629C6.48319 13.664 6.48746 13.6651 6.49173 13.6667C6.72373 13.7301 6.92799 13.8693 7.05173 14.0757L7.34239 14.5605C7.63999 15.0565 8.35839 15.0565 8.65599 14.5605L8.94666 14.0757C9.07039 13.8693 9.27466 13.7296 9.50666 13.6667C9.51093 13.6656 9.51519 13.6645 9.51946 13.6629C9.75359 13.5984 10.0032 13.6176 10.216 13.7355L10.7104 14.0101C11.216 14.2907 11.8384 13.9312 11.848 13.3531L11.8576 12.7829C11.8619 12.5413 11.9691 12.3173 12.1397 12.1467C12.1413 12.1451 12.1435 12.1429 12.1451 12.1413C12.3157 11.9701 12.5397 11.8629 12.7813 11.8592L13.352 11.8496C13.9301 11.84 14.2896 11.2176 14.0091 10.712L13.7344 10.2176C13.6165 10.0048 13.5973 9.75572 13.6619 9.52106C13.6629 9.51679 13.664 9.51253 13.6656 9.50826C13.7291 9.27626 13.8683 9.07199 14.0747 8.94826L14.5595 8.65706C15.0571 8.35946 15.0571 7.64053 14.5616 7.34293ZM11.0437 6.77706L7.54506 10.2757C7.44479 10.376 7.30933 10.432 7.16799 10.432C7.02666 10.432 6.89066 10.376 6.79093 10.2757L4.94933 8.43413C4.74079 8.22559 4.74079 7.88853 4.94933 7.67999C5.15786 7.47146 5.49493 7.47146 5.70346 7.67999L7.16799 9.14453L10.2896 6.02293C10.4981 5.81439 10.8352 5.81439 11.0437 6.02293C11.2523 6.23146 11.2523 6.56853 11.0437 6.77706Z" fill="#02ACC8"/>
</svg>
