<svg width="9" height="11" viewBox="0 0 9 11" fill="none" xmlns="http://www.w3.org/2000/svg">
<path d="M3.58333 0.458328C3.5226 0.457469 3.4623 0.46869 3.40594 0.491338C3.34958 0.513986 3.29828 0.54761 3.25503 0.590255C3.21178 0.6329 3.17743 0.683717 3.15399 0.739751C3.13054 0.795786 3.11847 0.855921 3.11847 0.916662C3.11847 0.977402 3.13054 1.03754 3.15399 1.09357C3.17743 1.14961 3.21178 1.20042 3.25503 1.24307C3.29828 1.28571 3.34958 1.31934 3.40594 1.34199C3.4623 1.36463 3.5226 1.37585 3.58333 1.37499H5.41667C5.4774 1.37585 5.5377 1.36463 5.59406 1.34199C5.65042 1.31934 5.70172 1.28571 5.74497 1.24307C5.78822 1.20042 5.82257 1.14961 5.84601 1.09357C5.86946 1.03754 5.88153 0.977402 5.88153 0.916662C5.88153 0.855921 5.86946 0.795786 5.84601 0.739751C5.82257 0.683717 5.78822 0.6329 5.74497 0.590255C5.70172 0.54761 5.65042 0.513986 5.59406 0.491338C5.5377 0.46869 5.4774 0.457469 5.41667 0.458328H3.58333ZM7.94645 1.82796C7.87963 1.82824 7.81368 1.84313 7.75322 1.87158C7.69275 1.90003 7.63925 1.94136 7.59644 1.99267L7.00114 2.68554C6.30629 2.15312 5.44089 1.83333 4.5 1.83333C2.22575 1.83333 0.375 3.68362 0.375 5.95833C0.375 8.23304 2.22575 10.0833 4.5 10.0833C6.77425 10.0833 8.625 8.23304 8.625 5.95833C8.625 4.95494 8.26398 4.03428 7.66626 3.31844L8.29199 2.59065C8.3508 2.52441 8.38916 2.44255 8.40242 2.35498C8.41569 2.2674 8.40329 2.17785 8.36674 2.09717C8.33019 2.01648 8.27104 1.94812 8.19645 1.90034C8.12186 1.85257 8.03503 1.82742 7.94645 1.82796ZM4.5 3.20833C4.753 3.20833 4.95833 3.41366 4.95833 3.66666V5.16878C5.23104 5.32736 5.41667 5.61962 5.41667 5.95833C5.41667 6.52941 4.89389 6.97818 4.30127 6.85351C3.96898 6.78384 3.69219 6.51793 3.61198 6.18839C3.5061 5.75572 3.70846 5.36265 4.04167 5.16878V3.66666C4.04167 3.41366 4.247 3.20833 4.5 3.20833Z" fill="#76A2A9"/>
</svg>
