<svg xmlns="http://www.w3.org/2000/svg" xmlns:xlink="http://www.w3.org/1999/xlink" width="34" height="34" viewBox="0 0 34 34">
    <defs>
        <rect id="prefix__a" width="32" height="32" x="0" y="0" rx="3.368"/>
    </defs>
    <g fill="none" fill-rule="evenodd" transform="translate(1 1)">
        <rect width="28.632" height="28.632" x="1.684" y="1.684" stroke="#C3F6FF" stroke-linejoin="square" stroke-width="3.368" rx="3.368"/>
        <use stroke="#02ACC8" stroke-width=".842" xlink:href="#prefix__a"/>
        <g fill-rule="nonzero">
            <path fill="#02ACC8" d="M15.918 6.399c-.127-.39-.49-.56-.822-.651.216-.269.41-.62.283-1.01-.12-.37-.468-.687-.98-.894-.503-.203-1.127-.285-1.804-.237-.65.046-1.243.243-1.714.455.061-.486.075-1.107-.088-1.764-.163-.659-.434-1.226-.782-1.642C9.655.233 9.246 0 8.857 0c-.41 0-.684.293-.873.58C7.795.294 7.522 0 7.112 0c-.389 0-.799.233-1.154.656-.348.416-.62.983-.782 1.642-.156.627-.157 1.241-.1 1.759-.47-.21-1.059-.404-1.702-.45-.677-.048-1.3.034-1.804.237-.512.207-.86.525-.98.894-.127.39.067.741.283 1.01-.333.09-.696.26-.822.65-.12.37-.025.832.267 1.3.288.46.744.893 1.32 1.252.547.341 1.13.532 1.639.638-.35.385-.709.882-.951 1.48-.255.629-.37 1.247-.332 1.788.039.551.233.98.548 1.209.332.241.725.165 1.047.043-.016.344.033.742.365.983.314.228.783.28 1.319.147.526-.131 1.078-.431 1.598-.868.506-.426.857-.95 1.097-1.39.26.458.626.966 1.13 1.39.52.437 1.072.737 1.598.868.195.049.38.073.553.073.303 0 .566-.075.766-.22.332-.241.38-.639.365-.983.322.122.715.198 1.047-.043.314-.228.509-.658.548-1.209.038-.54-.077-1.16-.332-1.788-.245-.603-.615-1.107-.963-1.49.481-.092 1.077-.27 1.651-.628.576-.359 1.032-.792 1.32-1.252.292-.468.387-.93.267-1.3z" transform="translate(8 8)"/>
            <path fill="#02ACC8" d="M15.918 6.399c-.127-.39-.49-.56-.822-.651.216-.269.41-.62.283-1.01-.12-.37-.468-.687-.98-.894-.503-.203-1.127-.285-1.804-.237-.65.046-1.243.243-1.714.455.061-.486.075-1.107-.088-1.764-.163-.659-.434-1.226-.782-1.642C9.655.233 9.246 0 8.857 0c-.41 0-.684.293-.873.58v12.427c.258.451.62.948 1.114 1.363.52.437 1.072.737 1.598.868.195.049.38.073.553.073.303 0 .566-.075.766-.22.332-.241.38-.639.365-.983.322.122.715.198 1.047-.043.314-.228.509-.658.548-1.209.038-.54-.077-1.16-.332-1.788-.245-.603-.615-1.107-.963-1.49.481-.092 1.077-.27 1.651-.628.576-.359 1.032-.792 1.32-1.252.292-.468.387-.93.267-1.3z" transform="translate(8 8)"/>
            <path fill="#FFF" d="M9.042 8.852c.048.016.097.023.144.023.198 0 .381-.126.445-.323.08-.246-.054-.51-.3-.59l-.59-.191.365-.502c.152-.209.105-.501-.104-.653-.209-.152-.501-.106-.653.103l-.364.502-.365-.502c-.152-.209-.444-.255-.653-.103-.21.151-.256.444-.104.653l.365.502-.59.191c-.246.08-.38.344-.3.59.064.197.247.323.445.323.047 0 .096-.007.144-.023l.59-.192v.62c0 .259.21.468.468.468s.467-.21.467-.468v-.62l.59.192z" transform="translate(8 8)"/>
            <path fill="#FFF" d="M9.33 7.962l-.589-.191.365-.502c.152-.209.105-.501-.104-.653-.209-.152-.501-.106-.653.103l-.364.502v2.527c.258 0 .467-.21.467-.468v-.62l.59.192c.048.016.097.023.144.023.198 0 .381-.126.445-.323.08-.246-.054-.51-.3-.59zM9.621 9.479c-.152-.209-.444-.255-.653-.104-.21.152-.256.445-.104.654l.57.784c.092.126.234.193.379.193.095 0 .192-.029.275-.09.209-.15.255-.444.103-.652l-.57-.785zM10.798 6.616l-.922.3c-.246.08-.38.344-.3.59.064.197.247.323.444.323.048 0 .097-.008.145-.023l.922-.3c.246-.08.38-.344.3-.59-.08-.245-.343-.38-.59-.3zM7.984 6.35c.259 0 .468-.21.468-.468v-.97c0-.258-.21-.468-.468-.468s-.467.21-.467.468v.97c0 .258.209.467.467.467z" transform="translate(8 8)"/>
            <path fill="#FFF" d="M8.452 5.882v-.97c0-.258-.21-.468-.468-.468V6.35c.259 0 .468-.209.468-.467zM5.949 7.829c.197 0 .38-.126.445-.324.08-.245-.055-.51-.3-.59l-.923-.299c-.246-.08-.51.055-.59.3-.08.246.055.51.3.59l.923.3c.048.015.097.023.145.023zM7.001 9.375c-.209-.151-.501-.105-.653.104l-.57.784c-.152.21-.106.502.103.654.083.06.18.09.275.09.145 0 .287-.068.379-.194l.57-.784c.152-.21.105-.502-.104-.654z" transform="translate(8 8)"/>
        </g>
    </g>
</svg>
