<svg width="40" height="26" viewBox="0 0 40 26" fill="none" xmlns="http://www.w3.org/2000/svg">
<path d="M2.5 0.709961C1.11875 0.709961 0 1.82871 0 3.20996V9.68945C1.45375 10.2057 2.5 11.58 2.5 13.21C2.5 14.84 1.45375 16.2142 0 16.7305V23.21C0 24.5912 1.11875 25.71 2.5 25.71L37.5 25.5C38.8812 25.5 40 24.3813 40 23V16.5205C38.5462 16.0043 37.5 14.63 37.5 13C37.5 11.37 38.5462 9.99574 40 9.47949V3C40 1.61875 38.8812 0.5 37.5 0.5L2.5 0.709961ZM15.7495 6.14941C17.7158 6.14941 18.999 7.49971 18.999 9.57471C18.999 11.641 17.7158 13 15.7495 13C13.7945 13 12.5 11.641 12.5 9.57471C12.5 7.50846 13.7858 6.14941 15.7495 6.14941ZM22.8198 6.48145H25.874L20.8154 13.4663L17.2729 19.7285H14.2065L19.1846 12.7778L22.8198 6.48145ZM15.7495 8.12451C15.1895 8.12451 14.8511 8.65863 14.8511 9.56738C14.8511 10.4674 15.1895 11.0078 15.7495 11.0078C16.3008 11.0078 16.6406 10.4661 16.6406 9.56738C16.6406 8.64988 16.3195 8.12451 15.7495 8.12451ZM24.2603 13.21C26.2153 13.21 27.5 14.5605 27.5 16.6255C27.5 18.7017 26.2153 20.0581 24.2603 20.0581C22.3053 20.0581 21.0205 18.7005 21.0205 16.6255C21.0205 14.5605 22.3053 13.21 24.2603 13.21ZM24.2603 15.1851C23.7003 15.1851 23.3594 15.7167 23.3594 16.6255C23.3594 17.5255 23.7003 18.0684 24.2603 18.0684C24.8115 18.0684 25.1489 17.5255 25.1489 16.6255C25.1489 15.7067 24.819 15.1851 24.2603 15.1851Z" fill="#D8D8D8"/>
</svg>
