<svg width="41" height="41" viewBox="0 0 41 41" fill="none" xmlns="http://www.w3.org/2000/svg">
<path d="M11.0384 0C8.42666 0 6.30767 2.11899 6.30767 4.73077V12.6154H9.46152V4.73077C9.46152 3.86223 10.1699 3.15385 11.0384 3.15385H33.1154C33.9839 3.15385 34.6923 3.86223 34.6923 4.73077V36.2692C34.6923 37.1378 33.9839 37.8462 33.1154 37.8462H11.0384C10.1699 37.8462 9.46152 37.1378 9.46152 36.2692V28.3846H6.30767V36.2692C6.30767 38.881 8.42666 41 11.0384 41H33.1154C35.7271 41 37.8461 38.881 37.8461 36.2692V4.73077C37.8461 2.11899 35.7271 0 33.1154 0H11.0384ZM13.4038 10.2007C13.0096 10.3178 12.6154 10.7181 12.6154 11.7776V15.7692H3.15383C2.28529 15.7692 1.5769 16.4776 1.5769 17.3462V23.6538C1.5769 24.5224 2.28529 25.2308 3.15383 25.2308H12.6154V29.1731C12.6154 31.1935 14.1923 30.75 14.1923 30.75L26.0192 20.5L14.1923 10.25C14.1923 10.25 13.7981 10.0837 13.4038 10.2007Z" fill="#04B5D2"/>
</svg>
