<svg width="33" height="32" viewBox="0 0 33 32" fill="none" xmlns="http://www.w3.org/2000/svg">
<rect x="2" y="2" width="28" height="28" rx="2" stroke="#E9E8FF" stroke-width="4"/>
<rect x="2" y="2" width="28" height="28" rx="2" stroke="#02ACC8" stroke-width="4"/>
<path d="M21.8333 8.5H10.1667C9.24583 8.5 8.5 9.24583 8.5 10.1667V21.8333C8.5 22.7542 9.24583 23.5 10.1667 23.5H21.8333C22.7542 23.5 23.5 22.7542 23.5 21.8333V10.1667C23.5 9.24583 22.7542 8.5 21.8333 8.5ZM22.4225 16.5892L19.6725 19.3392C19.51 19.5017 19.2967 19.5833 19.0833 19.5833C18.87 19.5833 18.6567 19.5017 18.4942 19.3392C18.1683 19.0133 18.1683 18.4867 18.4942 18.1608L19.8217 16.8333H13.5C13.0392 16.8333 12.6667 16.4608 12.6667 16C12.6667 15.5392 13.0392 15.1667 13.5 15.1667H19.8217L18.4942 13.8392C18.1683 13.5133 18.1683 12.9867 18.4942 12.6608C18.82 12.335 19.3467 12.335 19.6725 12.6608L22.4225 15.4108C22.7483 15.7367 22.7483 16.2633 22.4225 16.5892Z" fill="#02ACC8"/>
</svg>
