<svg width="26" height="28" viewBox="0 0 26 28" fill="none" xmlns="http://www.w3.org/2000/svg">
<path d="M23.2212 0.185079L11.2572 3.84493C9.80589 4.25719 8.63221 5.76741 8.63221 7.21873V19.6664C8.63221 19.6664 8.63221 19.8347 8.63221 19.8389C8.63221 19.8389 7.76563 19.2542 5.83474 19.5276C2.9994 19.9315 0.698318 22.1064 0.698318 24.3906C0.698318 26.6749 2.9994 28.0715 5.83474 27.6677C8.67428 27.268 10.7524 25.1604 10.7524 22.8762C10.7524 22.8762 10.7524 13.1124 10.7524 12.0985C10.7524 11.0889 11.9681 10.6514 11.9681 10.6514L22.5481 7.33652C22.5481 7.33652 23.7175 6.94529 23.7175 8.02642C23.7175 9.11176 23.7175 16.6755 23.7175 16.6755C23.7175 16.6755 23.7175 16.6797 23.7175 16.6839C23.7175 16.6839 22.6406 16.0613 20.7097 16.2969C17.8744 16.6418 15.5733 18.7704 15.5733 21.0547C15.5733 23.3389 17.8744 24.7818 20.7097 24.4369C23.5451 24.0961 25.8462 21.9633 25.8462 19.6791V2.05707C25.8462 0.609958 24.6683 -0.231388 23.2212 0.185079Z" fill="#EB0E0E"/>
</svg>
