<svg width="24" height="26" viewBox="0 0 24 26" fill="none" xmlns="http://www.w3.org/2000/svg">
<path d="M21.5625 0.171728L10.4531 3.57017C9.10547 3.95298 8.01563 5.35532 8.01563 6.70298V18.2616C8.01563 18.2616 8.01563 18.4178 8.01563 18.4217C8.01563 18.4217 7.21094 17.8788 5.41797 18.1327C2.78516 18.5077 0.648438 20.5272 0.648438 22.6483C0.648438 24.7694 2.78516 26.0663 5.41797 25.6913C8.05469 25.3202 9.98438 23.3631 9.98438 21.242C9.98438 21.242 9.98438 12.1756 9.98438 11.2342C9.98438 10.2967 11.1133 9.89048 11.1133 9.89048L20.9375 6.81235C20.9375 6.81235 22.0234 6.44907 22.0234 7.45298C22.0234 8.46079 22.0234 15.4842 22.0234 15.4842C22.0234 15.4842 22.0234 15.4881 22.0234 15.492C22.0234 15.492 21.0234 14.9139 19.2305 15.1327C16.5977 15.453 14.4609 17.4295 14.4609 19.5506C14.4609 21.6717 16.5977 23.0116 19.2305 22.6913C21.8633 22.3749 24 20.3944 24 18.2733V1.91001C24 0.566259 22.9063 -0.214991 21.5625 0.171728Z" fill="#02ACC8"/>
</svg>
