<svg width="26" height="26" viewBox="0 0 26 26" fill="none" xmlns="http://www.w3.org/2000/svg">
<path d="M21.5625 0.17185L10.4531 3.57029C9.10547 3.9531 8.01563 5.35544 8.01563 6.7031V18.2617C8.01563 18.2617 8.01563 18.4179 8.01563 18.4219C8.01563 18.4219 7.21094 17.8789 5.41797 18.1328C2.78516 18.5078 0.648438 20.5273 0.648438 22.6484C0.648438 24.7695 2.78516 26.0664 5.41797 25.6914C8.05469 25.3203 9.98438 23.3633 9.98438 21.2422C9.98438 21.2422 9.98438 12.1758 9.98438 11.2344C9.98438 10.2969 11.1133 9.8906 11.1133 9.8906L20.9375 6.81248C20.9375 6.81248 22.0234 6.44919 22.0234 7.4531C22.0234 8.46091 22.0234 15.4844 22.0234 15.4844C22.0234 15.4844 22.0234 15.4883 22.0234 15.4922C22.0234 15.4922 21.0234 14.914 19.2305 15.1328C16.5977 15.4531 14.4609 17.4297 14.4609 19.5508C14.4609 21.6719 16.5977 23.0117 19.2305 22.6914C21.8633 22.375 24 20.3945 24 18.2734V1.91013C24 0.566381 22.9063 -0.214869 21.5625 0.17185Z" fill="#BBC1C7"/>
</svg>
