<svg width="32" height="32" viewBox="0 0 32 32" fill="none" xmlns="http://www.w3.org/2000/svg">
<rect x="1" y="1" width="30" height="30" rx="3" stroke="#E9E8FF" stroke-width="2"/>
<rect x="1" y="1" width="30" height="30" rx="3" stroke="#BBC1C7" stroke-width="2"/>
<path d="M16 7.75C13.5071 7.75 11.5 9.75714 11.5 12.25V14.2905C10.5689 15.3477 10 16.7307 10 18.25C10 21.5635 12.6865 24.25 16 24.25C19.3135 24.25 22 21.5635 22 18.25C22 16.7307 21.4311 15.3477 20.5 14.2905V12.25C20.5 9.75714 18.4929 7.75 16 7.75ZM16 9.25C17.7071 9.25 19 10.5429 19 12.25V13.0601C18.1166 12.5481 17.0944 12.25 16 12.25C14.9056 12.25 13.8834 12.5481 13 13.0601V12.25C13 10.5429 14.2929 9.25 16 9.25ZM16 16C16.825 16 17.5 16.675 17.5 17.5C17.5 18.0513 17.1955 18.5295 16.75 18.7905V21.25H15.25V18.7905C14.8045 18.5295 14.5 18.0513 14.5 17.5C14.5 16.675 15.175 16 16 16Z" fill="#BBC1C7"/>
</svg>
