<svg width="75" height="90" viewBox="0 0 75 90" fill="none" xmlns="http://www.w3.org/2000/svg">
<g filter="url(#filter0_d)">
<path d="M10 16C10 10.4771 14.4772 6 20 6H55C60.5228 6 65 10.4772 65 16V55.328C65 58.8287 63.1695 62.0745 60.1738 63.8856L43.4759 73.9809C40.3902 75.8464 36.5391 75.9063 33.3969 74.1376L15.0948 63.8356C11.9475 62.064 10 58.7329 10 55.1212V16Z" fill="white"/>
</g>
<path d="M27.9892 25.7625C23.6588 25.7625 17.345 33.1564 17.345 42.463C17.345 45.3786 19.6919 49.4138 22.2729 49.4138C27.441 49.4138 28.4142 41.9032 37.5 41.9032C46.5858 41.9032 47.5591 49.4138 52.7272 49.4138C55.3082 49.4138 57.6551 45.3786 57.6551 42.463C57.6551 33.1564 51.3412 25.7625 47.0108 25.7625C42.6805 25.7625 41.8304 30.1942 37.5 30.1942C33.1696 30.1942 32.3196 25.7625 27.9892 25.7625ZM46.5673 31.2205C46.6967 31.1971 46.826 31.2205 46.9616 31.2205C48.058 31.2205 48.9327 32.0427 48.9327 33.0864C48.9327 34.1302 48.058 34.9524 46.9616 34.9524C45.8651 34.9524 44.9904 34.1302 44.9904 33.0864C44.9904 32.1768 45.6618 31.3954 46.5673 31.2205ZM26.4616 31.5937H29.6154V34.5792H32.7692V37.5648H29.6154V40.5504H26.4616V37.5648H23.3077V34.5792H26.4616V31.5937ZM43.4135 34.206C43.5428 34.1827 43.6722 34.206 43.8077 34.206C44.9103 34.206 45.7789 35.0282 45.7789 36.072C45.7789 37.1158 44.9103 37.938 43.8077 37.938C42.7051 37.938 41.8366 37.11 41.8366 36.072C41.8366 35.1624 42.5018 34.381 43.4135 34.206ZM49.7212 34.206C49.8505 34.1827 49.9799 34.206 50.1154 34.206C51.218 34.206 52.0866 35.0282 52.0866 36.072C52.0866 37.1158 51.218 37.938 50.1154 37.938C49.0128 37.938 48.1443 37.1158 48.1443 36.072C48.1443 35.1624 48.8095 34.381 49.7212 34.206ZM46.5673 37.1916C46.6967 37.1683 46.826 37.1916 46.9616 37.1916C48.0642 37.1916 48.9327 38.0138 48.9327 39.0576C48.9327 40.1014 48.058 40.9236 46.9616 40.9236C45.8651 40.9236 44.9904 40.1014 44.9904 39.0576C44.9904 38.1421 45.6618 37.3665 46.5673 37.1916Z" fill="#E03131"/>
<defs>
<filter id="filter0_d" x="0" y="0" width="75" height="89.4233" filterUnits="userSpaceOnUse" color-interpolation-filters="sRGB">
<feFlood flood-opacity="0" result="BackgroundImageFix"/>
<feColorMatrix in="SourceAlpha" type="matrix" values="0 0 0 0 0 0 0 0 0 0 0 0 0 0 0 0 0 0 127 0"/>
<feOffset dy="4"/>
<feGaussianBlur stdDeviation="5"/>
<feColorMatrix type="matrix" values="0 0 0 0 0 0 0 0 0 0 0 0 0 0 0 0 0 0 0.15 0"/>
<feBlend mode="normal" in2="BackgroundImageFix" result="effect1_dropShadow"/>
<feBlend mode="normal" in="SourceGraphic" in2="effect1_dropShadow" result="shape"/>
</filter>
</defs>
</svg>
