<svg width="32" height="32" viewBox="0 0 32 32" fill="none" xmlns="http://www.w3.org/2000/svg">
<path d="M2 6.16797C0.895 6.16797 0 7.06297 0 8.16797V13.3516C1.163 13.7646 2 14.864 2 16.168C2 17.472 1.163 18.5714 0 18.9844V24.168C0 25.273 0.895 26.168 2 26.168L30 26C31.105 26 32 25.105 32 24V18.8164C30.837 18.4034 30 17.304 30 16C30 14.696 30.837 13.5966 32 13.1836V8C32 6.895 31.105 6 30 6L2 6.16797ZM12.5996 10.5195C14.1726 10.5195 15.1992 11.5998 15.1992 13.2598C15.1992 14.9128 14.1726 16 12.5996 16C11.0356 16 10 14.9128 10 13.2598C10 11.6068 11.0286 10.5195 12.5996 10.5195ZM18.2559 10.7852H20.6992L16.6523 16.373L13.8184 21.3828H11.3652L15.3477 15.8223L18.2559 10.7852ZM12.5996 12.0996C12.1516 12.0996 11.8809 12.5269 11.8809 13.2539C11.8809 13.9739 12.1516 14.4062 12.5996 14.4062C13.0406 14.4062 13.3125 13.9729 13.3125 13.2539C13.3125 12.5199 13.0556 12.0996 12.5996 12.0996ZM19.4082 16.168C20.9722 16.168 22 17.2484 22 18.9004C22 20.5614 20.9722 21.6465 19.4082 21.6465C17.8442 21.6465 16.8164 20.5604 16.8164 18.9004C16.8164 17.2484 17.8442 16.168 19.4082 16.168ZM19.4082 17.748C18.9602 17.748 18.6875 18.1734 18.6875 18.9004C18.6875 19.6204 18.9602 20.0547 19.4082 20.0547C19.8492 20.0547 20.1191 19.6204 20.1191 18.9004C20.1191 18.1654 19.8552 17.748 19.4082 17.748Z" fill="#EB0E0E"/>
</svg>
