<svg width="59" height="57" viewBox="0 0 59 57" fill="none" xmlns="http://www.w3.org/2000/svg">
<path d="M57.5152 4.94242C57.9824 3.44758 56.8656 1.92857 55.2995 1.92857L19.0952 1.92857C18.0798 1.92857 17.1823 2.58844 16.8794 3.55757L1.48418 52.8223C1.01704 54.3171 2.1338 55.8361 3.69994 55.8361H39.9042C40.9196 55.8361 41.8171 55.1763 42.12 54.2071L57.5152 4.94242Z" fill="url(#paint0_linear)" stroke="url(#paint1_linear)" stroke-width="2.14286"/>
<path d="M33.0498 35.7222L38.992 27.8098L44.9728 35.7222H41.0166V43.0232C41.0166 43.3609 40.7429 43.6346 40.4052 43.6346H17.8908C17.5532 43.6346 17.2794 43.3609 17.2794 43.0232V35.7222H21.2356V39.067C21.2356 39.4047 21.5094 39.6784 21.847 39.6784H36.449C36.7867 39.6784 37.0604 39.4047 37.0604 39.067V35.7222H33.0498Z" fill="white"/>
<path d="M25.2462 23.8536L19.304 31.766L13.3232 23.8536H17.2794V16.5526C17.2794 16.2149 17.5532 15.9412 17.8908 15.9412L40.4052 15.9412C40.7429 15.9412 41.0166 16.2149 41.0166 16.5526V23.8536H37.0604V20.5088C37.0604 20.1711 36.7867 19.8974 36.449 19.8974H21.2356V23.8536H25.2462Z" fill="white"/>
<defs>
<linearGradient id="paint0_linear" x1="56.9997" y1="3.48502" x2="3.03036" y2="3.48502" gradientUnits="userSpaceOnUse">
<stop stop-color="#00C4E4"/>
<stop offset="0.490551" stop-color="#04C7E7"/>
<stop offset="0.811128" stop-color="#0CB4D0"/>
<stop offset="1" stop-color="#02ACC8"/>
</linearGradient>
<linearGradient id="paint1_linear" x1="56.6299" y1="3.20134" x2="2.05776" y2="3.20134" gradientUnits="userSpaceOnUse">
<stop stop-color="#03ADC9"/>
<stop offset="1" stop-color="#02C5E5"/>
</linearGradient>
</defs>
</svg>
