<svg width="26" height="26" viewBox="0 0 26 26" fill="none" xmlns="http://www.w3.org/2000/svg">
<path d="M12.0312 1.06253C11.7109 1.06643 11.3555 1.20706 11.0312 1.53128L5.3125 8.00003H1C0.449219 8.00003 0 8.44925 0 9.00003V17C0 17.5508 0.449219 18 1 18H5.3125L11 24.4375C12 25.4375 13 24.9258 13 23.5625V2.28128C13 1.48831 12.5664 1.05862 12.0312 1.06253ZM19.2812 3.06253C18.8438 3.13675 18.5078 3.49221 18.457 3.93362C18.4102 4.37503 18.6523 4.7969 19.0625 4.96878C22 6.44925 24 9.47659 24 13C24 16.5235 22 19.5508 19.0625 21.0313C18.6953 21.1563 18.4375 21.4844 18.3945 21.8672C18.3516 22.2539 18.5352 22.6289 18.8672 22.8321C19.1953 23.0313 19.6133 23.0235 19.9375 22.8125C23.5273 21 26 17.2891 26 13C26 8.71096 23.5273 5.00003 19.9375 3.18753C19.7656 3.08987 19.5703 3.0469 19.375 3.06253C19.3438 3.06253 19.3125 3.06253 19.2812 3.06253ZM16.9062 6.93753C16.4648 6.96878 16.0977 7.28909 16.0039 7.72268C15.9102 8.15628 16.1094 8.60159 16.5 8.81253C18.043 9.76956 19 11.2891 19 13C19 14.7227 18.0273 16.2617 16.4688 17.2188C16.1367 17.3946 15.9297 17.7422 15.9336 18.1172C15.9375 18.4922 16.1523 18.8321 16.4922 19C16.8281 19.168 17.2305 19.1289 17.5312 18.9063C19.6016 17.6367 21 15.4766 21 13C21 10.5391 19.6133 8.36721 17.5625 7.09378C17.3945 6.98831 17.1992 6.93362 17 6.93753C16.9688 6.93753 16.9375 6.93753 16.9062 6.93753Z" fill="#BBC1C7"/>
</svg>
