<svg width="26" height="24" viewBox="0 0 26 24" fill="none" xmlns="http://www.w3.org/2000/svg">
<path d="M12.0312 0.0625264C11.7109 0.0664324 11.3555 0.207057 11.0312 0.531276L5.3125 7.00003H1C0.449219 7.00003 0 7.44925 0 8.00003V16C0 16.5508 0.449219 17 1 17H5.3125L11 23.4375C12 24.4375 13 23.9258 13 22.5625V1.28128C13 0.488307 12.5664 0.0586204 12.0312 0.0625264ZM19.2812 2.06253C18.8438 2.13675 18.5078 2.49221 18.457 2.93362C18.4102 3.37503 18.6523 3.7969 19.0625 3.96878C22 5.44925 24 8.47659 24 12C24 15.5235 22 18.5508 19.0625 20.0313C18.6953 20.1563 18.4375 20.4844 18.3945 20.8672C18.3516 21.2539 18.5352 21.6289 18.8672 21.8321C19.1953 22.0313 19.6133 22.0235 19.9375 21.8125C23.5273 20 26 16.2891 26 12C26 7.71096 23.5273 4.00003 19.9375 2.18753C19.7656 2.08987 19.5703 2.0469 19.375 2.06253C19.3438 2.06253 19.3125 2.06253 19.2812 2.06253ZM16.9062 5.93753C16.4648 5.96878 16.0977 6.28909 16.0039 6.72268C15.9102 7.15628 16.1094 7.60159 16.5 7.81253C18.043 8.76956 19 10.2891 19 12C19 13.7227 18.0273 15.2617 16.4688 16.2188C16.1367 16.3946 15.9297 16.7422 15.9336 17.1172C15.9375 17.4922 16.1523 17.8321 16.4922 18C16.8281 18.168 17.2305 18.1289 17.5312 17.9063C19.6016 16.6367 21 14.4766 21 12C21 9.53909 19.6133 7.36721 17.5625 6.09378C17.3945 5.98831 17.1992 5.93362 17 5.93753C16.9688 5.93753 16.9375 5.93753 16.9062 5.93753Z" fill="#02ACC8"/>
</svg>
