<svg xmlns="http://www.w3.org/2000/svg" width="28" height="26" viewBox="0 0 28 26">
    <defs>
        <linearGradient id="prefix__b" x1="91.482%" x2="8.579%" y1="50%" y2="50%">
            <stop offset="0%" stop-color="#03ADC9"/>
            <stop offset="100%" stop-color="#02C5E5"/>
        </linearGradient>
        <linearGradient id="prefix__a" x1="6.384%" x2="44.578%" y1="29.136%" y2="55.627%">
            <stop offset="0%" stop-color="#00C4E4"/>
            <stop offset="49.055%" stop-color="#04C7E7"/>
            <stop offset="81.113%" stop-color="#0CB4D0"/>
            <stop offset="100%" stop-color="#02ACC8"/>
        </linearGradient>
    </defs>
    <g fill="none" fill-rule="evenodd">
        <path fill="url(#prefix__b)" stroke="url(#prefix__a)" stroke-width="1.4" d="M14 .808L2.576 7.404v13.192L14 27.192l11.424-6.596V7.404L14 .808z" transform="translate(0 -1) rotate(90 14 14)"/>
        <path fill="#FFF" d="M8.4 15.35c0 3.161 1.729 6.35 5.6 6.35 3.868 0 5.6-3.189 5.6-6.35 0-2.16-.71-4.647-1.896-6.656C16.551 6.754 15.165 5.6 14 5.6c-1.169 0-2.555 1.154-3.698 3.094C9.111 10.703 8.4 13.19 8.4 15.35" transform="translate(0 -1)"/>
    </g>
</svg>
