<svg xmlns="http://www.w3.org/2000/svg" xmlns:xlink="http://www.w3.org/1999/xlink" width="27" height="27" viewBox="0 0 27 27">
    <defs>
        <path id="prefix__a" d="M.364 8.56c0 2.63 1.47 5.282 4.761 5.282 3.289 0 4.761-2.652 4.761-5.282 0-1.796-.603-3.865-1.612-5.536C7.294 1.411 6.116.451 5.125.451c-.994 0-2.172.96-3.144 2.573C.968 4.695.364 6.764.364 8.56"/>
    </defs>
    <g fill="none" fill-rule="evenodd">
        <g>
            <path fill="#5EDFFC" d="M27.552 13.167c0 7.272-5.896 13.168-13.167 13.168-7.273 0-13.168-5.896-13.168-13.168C1.217 5.895 7.112 0 14.385 0c7.271 0 13.167 5.895 13.167 13.167" transform="translate(-1) translate(0 .067)"/>
            <path fill="#B5F1FF" d="M24.459 4.824C22.2 1.793 18.428 0 14.385 0 7.112 0 1.017 6.077 1.217 13.358c.042 1.527.264 2.993.742 4.358 7.425-4.408 14.92-8.698 22.5-12.833" transform="translate(-1) translate(0 .067)"/>
            <path fill="#03ADC9" d="M24.186 13.15c0 5.528-4.481 10.01-10.01 10.01s-10.01-4.482-10.01-10.01c0-5.53 4.481-10.01 10.01-10.01s10.01 4.48 10.01 10.01" transform="translate(-1) translate(0 .067)"/>
            <path fill="#2BC3E0" d="M24.468 13.566c0 5.454-4.42 9.876-9.875 9.876-5.454 0-9.875-4.422-9.875-9.876s4.42-9.875 9.875-9.875c5.454 0 9.875 4.421 9.875 9.875" transform="translate(-1) translate(0 .067)"/>
        </g>
        <g>
            <path fill="#03ADC9" d="M6.233 14.847c3.288 0 4.761-2.89 4.761-5.52 0-1.796-.604-3.865-1.612-5.536-.98-1.613-2.158-2.336-3.15-2.336-.993 0-2.171.723-3.143 2.336-1.013 1.671-1.617 3.74-1.617 5.536 0 2.63 1.47 5.52 4.76 5.52z" transform="translate(-1) translate(8.718 4.891)"/>
            <g transform="translate(-1) translate(8.718 4.891) translate(.328 1.004)">
                <mask id="prefix__b" fill="#fff">
                    <use xlink:href="#prefix__a"/>
                </mask>
                <use fill="#5EDFFC" xlink:href="#prefix__a"/>
                <path fill="#B5F1FF" d="M-10.957 -3.652L10.957 -3.652 10.957 7.304 -10.957 7.304z" mask="url(#prefix__b)" transform="scale(-1 1) rotate(29 0 1.826)"/>
            </g>
        </g>
    </g>
</svg>
