<svg xmlns="http://www.w3.org/2000/svg" width="52" height="36" viewBox="0 0 52 36">
    <g fill="none" fill-rule="evenodd">
        <g>
            <path fill="#16CAE7" stroke="#02ADC9" stroke-width="1.2" d="M-.603 26.356L-.475-.625.147-.6c11.37.471 20.611.702 27.723.693C32.762.087 38.007-.114 43.605-.51l.64-.045.108 26.87-.54.055c-5.282.547-10.596.82-15.942.82-7.979 0-17.28-.268-27.901-.805l-.573-.03z" transform="translate(-.87 -.97) rotate(-10 58.79 -12.075)"/>
            <path stroke="#ECFCFF" stroke-width="1.2" d="M3.235 22.97c9.27.613 17.482.803 24.636.567 7.153-.235 11.373-.51 12.657-.823l.005-19.424c-4.56.174-8.78.26-12.662.26-6.51 0-14.723-.114-24.636-.344V22.97z" transform="translate(-.87 -.97) rotate(-10 58.79 -12.075)"/>
            <path fill="#ECFCFF" d="M31.87 13.47c0 5.799-4.7 10.5-10.5 10.5-5.798 0-10.5-4.701-10.5-10.5 0-5.8 4.702-10.5 10.5-10.5 5.8 0 10.5 4.7 10.5 10.5" transform="translate(-.87 -.97) rotate(-10 58.79 -12.075)"/>
            <path fill="#02ADC9" d="M15.87 14.659c0 3.142 1.699 6.31 5.5 6.31 3.8 0 5.5-3.168 5.5-6.31 0-2.147-.697-4.619-1.862-6.614-1.131-1.929-2.493-3.075-3.637-3.075-1.148 0-2.509 1.146-3.632 3.075-1.17 1.995-1.868 4.467-1.868 6.614" transform="translate(-.87 -.97) rotate(-10 58.79 -12.075)"/>
        </g>
        <g>
            <path fill="#16CAE7" stroke="#02ADC9" stroke-width="1.2" d="M-.603 26.356L-.475-.625.147-.6c11.37.471 20.611.702 27.723.693C32.762.087 38.007-.114 43.605-.51l.64-.045.108 26.87-.54.055c-5.282.547-10.596.82-15.942.82-7.979 0-17.28-.268-27.901-.805l-.573-.03z" transform="translate(-.87 -.97) translate(5 6)"/>
            <path stroke="#ECFCFF" stroke-width="1.2" d="M3.235 22.97c9.27.613 17.482.803 24.636.567 7.153-.235 11.373-.51 12.657-.823l.005-19.424c-4.56.174-8.78.26-12.662.26-6.51 0-14.723-.114-24.636-.344V22.97z" transform="translate(-.87 -.97) translate(5 6)"/>
            <path fill="#ECFCFF" fill-rule="nonzero" d="M21.37 2.97c-5.798 0-10.5 4.7-10.5 10.5 0 5.799 4.702 10.5 10.5 10.5 5.8 0 10.5-4.701 10.5-10.5 0-5.8-4.7-10.5-10.5-10.5z" transform="translate(-.87 -.97) translate(5 6)"/>
            <path fill="#02ADC9" fill-rule="nonzero" stroke="#10AAC4" d="M28.065 13.033L16.854 13.033 19.816 10.072 18.713 8.97 13.871 13.813 18.713 18.655 19.816 17.553 16.854 14.592 28.065 14.592z" transform="translate(-.87 -.97) translate(5 6) rotate(180 20.968 13.813)"/>
        </g>
    </g>
</svg>
