<svg xmlns="http://www.w3.org/2000/svg" width="55" height="39" viewBox="0 0 55 39">
    <g fill="none" fill-rule="evenodd">
        <path fill="#87C040" fill-rule="nonzero" stroke="#499E31" stroke-width="1.2" d="M5.103 35.116L.543 8.522l.618-.083C12.44 6.929 21.58 5.55 28.583 4.307c4.816-.855 9.947-1.964 15.39-3.326l.623-.155 4.773 26.443-.523.148c-5.106 1.456-10.292 2.647-15.557 3.576-7.858 1.385-17.064 2.736-27.617 4.052l-.57.07h0z" transform="translate(2.13 1.03)"/>
        <path stroke="#ECFCFF" stroke-width="1.2" d="M8.295 31.115c9.235-1.006 17.355-2.245 24.36-3.72 7.003-1.474 11.111-2.477 12.321-3.008l-3.368-19.13c-4.46.963-8.601 1.78-12.424 2.455-6.411 1.13-14.52 2.444-24.321 3.939l3.432 19.464z" transform="translate(2.13 1.03)"/>
        <path fill="#ECFCFF" fill-rule="nonzero" d="M34.845 16.787c1.007 5.71-2.805 11.156-8.517 12.163-5.71 1.007-11.157-2.806-12.164-8.517C13.157 14.721 16.97 9.276 22.68 8.27c5.712-1.007 11.157 2.806 12.164 8.518" transform="translate(2.13 1.03)"/>
        <path fill="#02ADC9" fill-rule="nonzero" d="M19.294 20.736c.546 3.094 2.77 5.919 6.513 5.259 3.742-.66 4.866-4.075 4.32-7.17-.373-2.114-1.488-4.427-2.982-6.19-1.449-1.703-2.99-2.595-4.116-2.396-1.13.2-2.272 1.564-3.043 3.659-.805 2.168-1.063 4.723-.69 6.838" transform="translate(2.13 1.03)"/>
        <g>
            <path fill="#87C040" fill-rule="nonzero" stroke="#499E31" stroke-width="1.2" d="M.527 27.386L.655.405l.622.025c11.37.471 20.611.702 27.723.693C33.892 1.117 39.137.916 44.735.52l.64-.045.108 26.87-.54.055c-5.282.547-10.596.82-15.942.82-7.979 0-17.28-.268-27.901-.805l-.573-.03v.001z" transform="translate(2.13 1.03) translate(2 4)"/>
            <path stroke="#DEE683" stroke-width="1.2" d="M4.365 24c9.27.613 17.482.803 24.636.567 7.153-.235 11.373-.51 12.657-.823l.005-19.424c-4.56.174-8.78.26-12.662.26-6.51 0-14.723-.114-24.636-.344V24z" transform="translate(2.13 1.03) translate(2 4)"/>
            <path fill="#DEE683" fill-rule="nonzero" d="M22.5 4C16.702 4 12 8.7 12 14.5 12 20.299 16.702 25 22.5 25 28.3 25 33 20.299 33 14.5 33 8.7 28.3 4 22.5 4z" transform="translate(2.13 1.03) translate(2 4)"/>
            <path fill="#499E31" fill-rule="nonzero" stroke="#499E31" d="M29.195 14.064L17.984 14.064 20.946 11.103 19.843 10.001 15.001 14.844 19.843 19.686 20.946 18.584 17.984 15.623 29.195 15.623z" transform="translate(2.13 1.03) translate(2 4) rotate(180 22.098 14.844)"/>
        </g>
    </g>
</svg>
