<svg width="64" height="64" viewBox="0 0 64 64" fill="none" xmlns="http://www.w3.org/2000/svg">
<circle cx="32" cy="32" r="32" fill="#D6F0F4"/>
<path d="M21.6104 14.5455H42.3896L46.5455 42.6667H17.4546L21.6104 14.5455Z" fill="#21507C"/>
<path fill-rule="evenodd" clip-rule="evenodd" d="M31.6843 54.303C41.1498 54.303 48.8231 46.6297 48.8231 37.1642C48.8231 23.2727 41.1498 7.75757 31.6843 7.75757C22.2188 7.75757 14.5454 23.2727 14.5454 37.1642C14.5454 46.6297 22.2188 54.303 31.6843 54.303ZM31.6979 41.3136C42.3019 41.3136 45.537 36.7985 43.9195 29.437C42.3019 22.0755 37.8986 15.6956 31.6979 15.6956C25.4973 15.6956 20.9142 22.0755 19.8358 29.437C18.7575 36.7985 21.0939 41.3136 31.6979 41.3136Z" fill="white"/>
<path fill-rule="evenodd" clip-rule="evenodd" d="M26.7846 31.9996C27.6316 33.9381 29.5659 35.2928 31.8166 35.2928C34.0673 35.2928 36.0015 33.9381 36.8485 31.9996H26.7846Z" fill="#68DDFB"/>
<path fill-rule="evenodd" clip-rule="evenodd" d="M26.3397 26.475C25.3648 26.475 24.5356 27.3012 24.5356 28.3692H23.2727C23.2727 26.6474 24.6244 25.2121 26.3397 25.2121C28.055 25.2121 29.4066 26.6474 29.4066 28.3692H28.1438C28.1438 27.3012 27.3146 26.475 26.3397 26.475Z" fill="#68DDFB"/>
<path fill-rule="evenodd" clip-rule="evenodd" d="M37.0064 26.475C36.0314 26.475 35.2023 27.3012 35.2023 28.3692H33.9394C33.9394 26.6474 35.2911 25.2121 37.0064 25.2121C38.7216 25.2121 40.0733 26.6474 40.0733 28.3692H38.8105C38.8105 27.3012 37.9813 26.475 37.0064 26.475Z" fill="#68DDFB"/>
<path d="M53.8071 35.2808C54.2317 40.6936 53.0292 45.2029 51.7103 45.3064C50.3914 45.4099 50.4108 40.9934 49.9861 35.5806C49.5614 30.1678 49.6144 29.3817 50.9333 29.2783C52.2522 29.1748 53.3824 29.868 53.8071 35.2808Z" fill="white"/>
<path d="M9.49621 35.2808C9.07154 40.6936 10.2741 45.2029 11.593 45.3064C12.9119 45.4099 12.8925 40.9934 13.3172 35.5806C13.7418 30.1678 13.6889 29.3817 12.37 29.2783C11.051 29.1748 9.92088 29.868 9.49621 35.2808Z" fill="white"/>
</svg>
