<svg enable-background="new 0 0 776 456" viewBox="0 0 776 456" xmlns="http://www.w3.org/2000/svg"><path clip-rule="evenodd" d="m0 426.5v29.5h753c1 0 2-.4 2.8-1.2l19.1-19.7c.7-.8 1.1-1.8 1.1-2.8v-209.9c0-1.2-.5-2.3-1.4-3.1l-18.6-15.6c-.9-.8-1.4-1.9-1.4-3.1v-177.9c0-1.1-.4-2.1-1.2-2.9l-18.1-18.3c-.7-.7-1.7-1.1-2.7-1.1l-732.6-.4z" fill="#fff" fill-rule="evenodd"/><g fill="#cdedfb"><path d="m67.6 77.9c-11.3-21.9-27-41.3-46.1-56.8-6.8-5.5-14-10.5-21.5-15v7.4c50.4 31.3 81 86.4 80.9 145.7.1 59-30.6 113.9-80.9 144.6v6.2c54-31.3 87.1-89 87-151.4 0-28-6.6-55.7-19.4-80.7z"/><path d="m11.9 0h-5.8c7.5 4.5 14.6 9.5 21.4 14.9 19.8 16 36.2 35.9 48 58.5 13.9 26.5 21.1 56.1 21.1 86 0 70.2-39 130.6-96.5 161.8v3.1c61.1-32.7 99.2-96.4 99.2-165.6-.1-64.4-33-124.3-87.4-158.7z"/><path d="m0 26.4v3.1c42.6 29.1 68 77.4 68 129 .1 51.4-25.4 99.5-68 128.2v2.7c43.9-29.3 70.3-78.7 70.3-131.5s-26.3-102.2-70.3-131.5z"/><path d="m0 33.8v3c39 28.3 62 73.5 62 121.7.1 48-23 93-62 120.9v2.6c40.3-28.5 64.3-74.8 64.2-124.1.1-49.3-23.9-95.6-64.2-124.1z"/><path d="m0 118.2v3.9c4.4 11.1 6.6 22.8 6.6 34.7 0 11.8-2.2 23.6-6.6 34.6v3.2c5.3-12.1 8-25.1 8-38.2 0-13.2-2.7-26.2-8-38.2z"/><path d="m118.5 112.8c-5.3-24-14.8-46.9-28-67.6-10.5-16.8-23.5-32-38.3-45.2h-5.3c29.7 25.3 51.8 58.5 63.7 95.7v.1c1.8 5.8 3.4 11.7 4.8 17.7 3.4 15.1 5.1 30.6 5.1 46.1.2 55.9-22.4 109.4-62.4 148.4-17 16.5-36.6 30-58.1 40v3.5c75.3-34.6 123.5-109.9 123.5-192.8 0-15.5-1.6-30.9-5-45.9z"/><path d="m0 62.4v11.6c3.6 3.8 7 7.9 10.1 12.2 1.4 1.9 2.7 3.8 3.9 5.8 2.7 4.3 5.2 8.7 7.4 13.3.5.9.9 1.9 1.3 2.8 4 9 6.9 18.5 8.7 28.2.1.7.2 1.3.4 2 1.1 6.6 1.6 13.3 1.6 20 0 3.8-.2 7.6-.5 11.3-.3 3.1-.7 6.1-1.2 9.1s-1.1 5.8-1.8 8.6-1.4 5.6-2.3 8.3c-3.4 10.7-8.2 20.8-14.3 30.1-1.4 2.1-2.8 4.1-4.3 6.1-2.8 3.8-5.8 7.4-9 10.8v10.8c26.5-24.7 41.5-59.3 41.4-95.5.1-36.2-14.9-70.8-41.4-95.5z"/><path d="m134.1 256.9c-1.9 4.3-3.8 8.5-5.9 12.6l13.6 6.5c2.2-4.3 4.3-8.7 6.2-13.2z"/><path d="m165.9 121.2-15.4 2.7c.7 4.4 1.3 8.8 1.8 13.3l15.5-1.2c-.5-5-1.1-9.9-1.9-14.8z"/><path d="m126.8 272.2c-2 3.9-4.2 7.8-6.4 11.5l12.7 8c2.6-4.2 5-8.6 7.3-13z"/><path d="m142.7 91.1c1.4 4.6 2.7 9.2 3.9 13.9l15.3-3.5c-1.2-5.2-2.7-10.3-4.3-15.3z"/><path d="m147.3 107.9c1 4.3 1.9 8.6 2.7 13l15.4-2.7c-.8-4.6-1.7-9.2-2.8-13.8z"/><path d="m153.6 162.5c0 3-.1 6.1-.2 9.1h15.5c.1-3.3.2-6.6.2-9.9 0-1.3 0-2.5 0-3.8h-15.5z"/><path d="m118.7 286.3c-2.4 4-5 7.8-7.7 11.7l12.3 8.4c2.8-4 5.5-8 8-12.1z"/><path d="m100.3 334.6c3.3-3.5 6.6-7.1 9.7-10.9l-11.1-9.7c-3 3.6-6.1 7.1-9.3 10.5z"/><path d="m109.3 300.5c-2.7 3.8-5.5 7.5-8.5 11.1l11.1 9.9c3.3-4.1 6.6-8.3 9.7-12.6z"/><path d="m73.4 359.3c4.3-3.3 8.4-6.8 12.4-10.5l-10.6-10.2c-3.5 3.1-7.1 6.2-10.7 9.1z"/><path d="m153.3 174.6c-.2 4.4-.6 8.7-1 13l15.4 1.3c.5-4.7.9-9.5 1.1-14.2z"/><path d="m152.6 140.2c.5 4.9.8 9.7.9 14.7h15.5c-.1-5.4-.5-10.6-.9-15.9z"/><path d="m87.6 326.6c-3.3 3.4-6.7 6.7-10.1 9.9l10.5 10.2c3.5-3.2 6.8-6.5 10.1-9.9z"/><path d="m145.4 224.5c-1.2 4.5-2.5 8.9-4 13.2l14.6 4.6c1.5-4.4 2.9-8.9 4.1-13.5z"/><path d="m152 190.7c-.6 5-1.3 9.9-2.2 14.7l15.1 2.4c1-5.2 1.8-10.6 2.4-15.9z"/><path d="m140.4 240.6c-1.6 4.5-3.3 9-5.1 13.4l13.9 6c2.1-4.9 4-9.8 5.7-14.9z"/><path d="m137 75.1c1.7 4.3 3.3 8.7 4.8 13.2l14.9-5c-1.5-4.5-3-8.9-4.7-13.2z"/><path d="m149.2 208.4c-.9 4.4-1.9 8.9-3 13.2l14.6 4.3c1.3-5 2.5-10 3.5-15.1z"/><path d="m3.7 42.3-3.4 5-.3-.2v-7.4c1.3.8 2.5 1.7 3.7 2.6z"/><path d="m1.3 48c1.4 1.1 2.8 2.2 4.2 3.3l4-4.6c-1.6-1.3-3.2-2.5-4.8-3.7z"/><path d="m6.4 52.1c1.4 1.2 2.8 2.5 4.2 3.8l4.1-4.4c-1.4-1.3-2.9-2.7-4.3-4z"/><path d="m24.6 62.5c-1.2-1.5-2.4-3.1-3.7-4.5l-4.6 3.8c1.2 1.4 2.5 2.9 3.6 4.4z"/><path d="m11.5 56.7c1.4 1.3 2.7 2.7 3.9 4.1l4.6-3.8c-1.4-1.6-2.9-3.1-4.4-4.7z"/><path d="m32.7 74.8c-1.1-1.9-2.2-3.8-3.4-5.6l-4.7 3.6 3 4.8z"/><path d="m20.6 67.1c1.2 1.5 2.3 3.1 3.3 4.7l4.7-3.6c-1.1-1.6-2.2-3.2-3.3-4.7z"/><path d="m739.7 123.3 3.5 7.9c2.3-1 4.6-1.9 6.9-2.8l-2.8-8.2c-2.5.9-5.1 2-7.6 3.1z"/><path d="m726.7 139.8c2.3-1.4 4.6-2.7 6.9-4l-3.9-7.7c-2.6 1.4-5.2 2.8-7.7 4.4z"/><path d="m735.1 135c2.2-1.1 4.4-2.2 6.6-3.2l-3.5-7.9c-2.4 1.1-4.7 2.2-7 3.4z"/><path d="m754.4 117.9v9c-.9.3-1.8.6-2.7.9l-2.8-8.2c1.8-.6 3.7-1.2 5.5-1.7z"/><path d="m718.9 145.1c2.1-1.5 4.2-3 6.4-4.4l-4.7-7.3c-2.2 1.4-4.4 2.8-6.5 4.3z"/><path d="m743.4 179.3c2.2-1 4.4-2 6.7-2.9l-2.8-7.5c-2.5 1-5 2.1-7.4 3.2z"/><path d="m754.5 166.3v8.4c-1 .4-2 .7-3 1.1l-2.8-7.5c1.9-.7 3.8-1.3 5.8-2z"/><path d="m735.7 183.3c2.1-1.2 4.2-2.3 6.3-3.3l-3.5-7.2c-2.2 1-4.3 2.1-6.3 3.3z"/><path d="m82.8 0-6.4 6.2-1.5 1.4c-2.7-2.6-5.3-5.1-8-7.6z"/><path d="m108.9 25.4c-3.2-4.4-6.5-8.7-10-12.9l-10.5 10.2c3 3.6 5.9 7.3 8.6 11.1z"/><path d="m97 10.2-9.5 9.1-1.1 1.1c-3.1-3.6-6.2-7.1-9.5-10.5l1.4-1.4 8.8-8.5h.8c3.1 3.3 6.2 6.7 9.1 10.2z"/><path d="m100.3 39.8-12 6.6c12.9 20.6 21.9 43.3 26.8 67.1l13.2-2.9c-5.1-25.1-14.6-49.1-28-70.8z"/><path d="m59.2 309.2c-17.4 16.4-37.4 29.8-59.2 39.7v-15c18.4-9.1 35.4-20.9 50.3-35.1l.3.4 7.4 8.7z"/><path d="m29 13.3-9.5 9.8c18.3 15.9 33.7 35 45.3 56.3l11.8-6.7c-12.3-22.4-28.4-42.5-47.6-59.4z"/><path d="m21 170.3v7.4l13 1.2.5-9.4z"/><path d="m29 195.9-11.3-3.4 2.4-7.2 13.2 2.6z"/><path d="m10.8 233-7.4-5.1 3.7-5.3 9.1 4.5z"/><path d="m33.4 138.2-17.8 1.5v-1.5l19.9-2.3z"/><path d="m16.2 90.9-11.3 6.2-3.2-6.3 10.8-5.9z"/><path d="m23.8 104.2-10.3 5 1 2.7 11-4.9z"/></g><path d="m23.1 139.1c-.1-.6-.2-1.1-.3-1.7-1.5-8.9-3.9-17.6-7.3-26-.4-.9-.7-1.8-1.1-2.7-1.9-4.5-4.1-9-6.5-13.3-1.1-2-2.3-4-3.6-6-1.3-2.2-2.8-4.3-4.3-6.4v15c10.9 18.8 16.7 40.1 16.6 61.8 0 21.7-5.7 43.1-16.6 61.8v14.2c1.7-2.3 3.3-4.7 4.8-7.1 1.2-1.8 2.3-3.8 3.4-5.7 5.2-9.4 9.3-19.4 12.1-29.8.7-2.5 1.3-5.1 1.8-7.6s1-5.2 1.3-7.8c.4-2.6.7-5.2.9-7.8.3-3.5.4-7.1.4-10.7 0-6.7-.5-13.5-1.6-20.2z" fill="#fff"/><path d="m27 231.9 1.5 1c-7.8 12-17.4 22.8-28.5 31.9v-2.5c10.5-8.7 19.6-18.9 27-30.4z" fill="#cdedfb"/><path d="m38.9 102.4-2 .8c-8.4-19-21-35.8-36.9-49.3v-2.9c16.8 13.8 30.2 31.5 38.9 51.4z" fill="#cdedfb"/><path d="m79.4 264.2c-8.2 12.7-17.9 24.5-28.8 35-14.9 14.4-32 26.3-50.6 35.3v-3.2c31.5-15.4 58.3-39.1 77.3-68.5z" fill="#cdedfb"/><path d="m94.3 79.2-2.9 1.1c-14.2-32.2-37.1-60-65.9-80.3h5.5c27.6 20.4 49.5 47.7 63.3 79.2z" fill="#cdedfb"/><path d="m31 343.5 1.4 2.9c-10.3 6.6-21.2 12.3-32.4 17.1v-3.6c10.8-4.6 21.1-10.1 31-16.4z" fill="#cdedfb"/><path d="m135.7 157.9c0 3.6-.1 7.1-.2 10.6h-3.2c.1-3.2.2-6.5.2-9.8 0-16.1-1.7-32.2-5.2-48-5.5-24.8-15.3-48.5-28.9-70-9.4-14.8-20.6-28.5-33.2-40.7h5.2c2 2 4 4.1 6 6.2.7.7 1.4 1.5 2 2.2 3.2 3.5 6.2 7.1 9.2 10.8.6.8 1.3 1.6 1.9 2.4 2.9 3.8 5.7 7.6 8.3 11.6 24.7 36.9 38 80.3 37.9 124.7z" fill="#cdedfb"/><path d="m14.4 283.5 1.2 2c-5 4.1-10.2 7.8-15.6 11.2v-2.9c5-3.2 9.8-6.6 14.4-10.3z" fill="#cdedfb"/><path d="m76 147.1-2.3.3c-.2-2.4-.4-4.8-.6-7.1-5.5-48.4-32.3-91.6-73.1-118v-3.2c42 26.6 69.7 70.7 75.3 120.1.3 2.7.5 5.3.7 7.9z" fill="#cdedfb"/><path d="m143.3 158.7c0 96.7-59.2 179.5-143.3 214.3v-3.8c82.3-34.2 140-114.7 140-209.6 0-5.3-.2-10.5-.6-15.7h3.4c.3 4.9.5 9.8.5 14.8z" fill="#cdedfb"/><path d="m105.7 100c5.9 19.3 8.8 39.3 8.8 59.5.1 45.2-15.1 89.2-43.1 124.7l2.2 1.6c28.5-36.2 43.9-81 43.8-127.1 0-20-2.9-40-8.6-59.2z" fill="#cdedfb"/><path d="m679.7 452.6c.9 1.1 1.9 2.2 2.9 3.4h-3c-.6-.7-1.2-1.3-1.7-2-12.9-15.5-22.3-33.5-27.5-53l2.1-.5c5.2 19.2 14.4 36.9 27.2 52.1z" fill="#cdedfb"/><path d="m670.8 456h-2.9c-12.5-15.2-21.5-33-26.6-52l2.1-.5c5.2 19.3 14.5 37.2 27.4 52.5z" fill="#cdedfb"/><path d="m600.3 400.2c4 20.3 12.6 39.3 25 55.8h-2.8c-12.1-16.5-20.4-35.4-24.3-55.5z" fill="#cdedfb"/><path d="m47.8 108.8c5.5 15.5 8.3 31.8 8.2 48.2.1 37.3-14.5 73.1-40.7 99.7l1.3 1.4c26.6-27.2 41.5-63.7 41.5-101.7 0-16.5-2.8-32.9-8.3-48.5z" fill="#cdedfb"/><path d="m713.2 424.9c4.2 5.4 8.4 10.6 12.8 15.7l17.9-14c-4.4-5.1-8.7-10.3-12.9-15.6z" fill="#cdedfb"/><path d="m624.1 349.5c0 8.1.2 16.3.7 24.5l25.3-1.6c-.5-7.8-.7-15.7-.7-23.5z" fill="#cdedfb"/><path d="m693.8 456h-18.7l2.7-2 1.8-1.3 7.6-5.6c2.2 2.9 4.4 5.9 6.6 8.9z" fill="#cdedfb"/></svg>