<svg viewBox="0 0 776 456" xmlns="http://www.w3.org/2000/svg"><g fill="#cdedfb"><path d="m67.57 77.9a177.77 177.77 0 0 0 -46.1-56.81 176.71 176.71 0 0 0 -21.47-14.96v7.38a171.49 171.49 0 0 1 80.94 145.73 169 169 0 0 1 -80.94 144.61v6.25a174.67 174.67 0 0 0 87-151.42 176.41 176.41 0 0 0 -19.43-80.78z"/><path d="m11.88 0h-5.82a185.92 185.92 0 0 1 21.39 14.93 186.5 186.5 0 0 1 48 58.53 184.88 184.88 0 0 1 21.06 86c0 70.23-39 130.64-96.5 161.76v3.1a187.75 187.75 0 0 0 99.18-165.64 187.65 187.65 0 0 0 -87.31-158.68z"/><path d="m0 26.4v3.11a156.2 156.2 0 0 1 68 129 154.11 154.11 0 0 1 -68 128.21v2.71a158 158 0 0 0 70.3-131.51 158 158 0 0 0 -70.3-131.52z"/><path d="m0 33.78v3a150.16 150.16 0 0 1 62 121.7 148.16 148.16 0 0 1 -62 120.94v2.63a151.86 151.86 0 0 0 64.22-124.13 151.88 151.88 0 0 0 -64.22-124.14z"/><path d="m0 118.18v3.9a94.35 94.35 0 0 1 6.57 34.7 93.49 93.49 0 0 1 -6.57 34.59v3.24a95.18 95.18 0 0 0 8-38.22 95.13 95.13 0 0 0 -8-38.21z"/><path d="m118.54 112.75a211.07 211.07 0 0 0 -27.95-67.64 213.22 213.22 0 0 0 -38.4-45.11h-5.28a209.9 209.9 0 0 1 63.67 95.66v.09c1.84 5.79 3.45 11.69 4.79 17.69a210.12 210.12 0 0 1 5.08 46.08 206.32 206.32 0 0 1 -62.39 148.42 209 209 0 0 1 -58.06 40.06v3.46a212.14 212.14 0 0 0 123.52-192.78 213.19 213.19 0 0 0 -4.98-45.93z"/><path d="m0 62.44v11.61a122.81 122.81 0 0 1 10.08 12.21q2.05 2.84 3.92 5.79a121.23 121.23 0 0 1 7.39 13.3c.45.94.89 1.88 1.31 2.83a122.2 122.2 0 0 1 8.68 28.15c.12.66.24 1.33.35 2a124.25 124.25 0 0 1 1.61 20c0 3.8-.17 7.57-.51 11.28q-.42 4.58-1.16 9.06t-1.75 8.57q-1 4.22-2.31 8.31a122.14 122.14 0 0 1 -14.31 30.13c-1.36 2.08-2.79 4.12-4.27 6.12a122.87 122.87 0 0 1 -9 10.8v10.8a130.38 130.38 0 0 0 41.41-95.47 130.39 130.39 0 0 0 -41.44-95.49z"/><path d="m134.1 256.85q-2.79 6.42-5.94 12.64l13.59 6.5q3.31-6.48 6.23-13.17z"/><path d="m165.88 121.23-15.38 2.66c.72 4.4 1.33 8.82 1.8 13.29l15.53-1.25c-.5-4.93-1.16-9.84-1.95-14.7z"/><path d="m126.76 272.19q-3.06 5.87-6.45 11.53l12.71 8q3.85-6.37 7.32-13z"/><path d="m142.71 91.14q2.14 6.86 3.89 13.86l15.27-3.46q-1.87-7.78-4.27-15.35z"/><path d="m147.32 107.92q1.52 6.42 2.69 13l15.37-2.66q-1.2-6.95-2.79-13.76z"/><path d="m153.65 162.49c0 3-.08 6.09-.19 9.11h15.47c.12-3.28.21-6.57.21-9.88 0-1.27 0-2.54 0-3.8h-15.5c-.02 1.52.01 3.08.01 4.57z"/><path d="m118.74 286.33q-3.64 5.94-7.65 11.66l12.3 8.43q4.19-6 8-12.15z"/><path d="m100.3 334.65q5-5.29 9.7-10.87l-11.08-9.78q-4.48 5.39-9.28 10.49z"/><path d="m109.34 300.48q-4.08 5.68-8.49 11.11l11.1 9.86q5-6.12 9.67-12.56z"/><path d="m73.36 359.29q6.39-5 12.44-10.5l-10.61-10.17q-5.22 4.71-10.72 9.09z"/><path d="m153.34 174.64q-.33 6.56-1 13l15.35 1.26c.51-4.71.9-9.46 1.14-14.25z"/><path d="m152.6 140.21q.68 7.28.92 14.66h15.48c-.14-5.35-.47-10.65-.94-15.91z"/><path d="m87.56 326.65q-4.92 5.12-10.12 9.92l10.61 10.17q5.2-4.82 10.14-9.9z"/><path d="m145.43 224.53q-1.81 6.71-4 13.23l14.57 4.56q2.25-6.66 4.12-13.49z"/><path d="m152 190.66q-.89 7.44-2.21 14.73l15.14 2.44q1.46-7.87 2.42-15.92z"/><path d="m140.44 240.64q-2.37 6.8-5.14 13.41l13.9 6q3.11-7.31 5.74-14.85z"/><path d="m137 75.08c1.72 4.33 3.3 8.72 4.77 13.17l14.89-5q-2.19-6.69-4.73-13.21z"/><path d="m149.19 208.38c-.87 4.45-1.85 8.86-3 13.22l14.65 4.29q1.95-7.44 3.47-15.08z"/><path d="m3.71 42.26-3.44 5-.27-.17v-7.38q1.89 1.23 3.71 2.55z"/><path d="m1.26 48c1.43 1.06 2.84 2.16 4.21 3.29l4-4.58q-2.34-1.92-4.77-3.71z"/><path d="m6.41 52.09q2.14 1.84 4.18 3.79l4.13-4.39q-2.12-2-4.35-4z"/><path d="m24.56 62.48q-1.8-2.32-3.74-4.55l-4.61 3.81c1.25 1.41 2.45 2.87 3.61 4.36z"/><path d="m11.47 56.73c1.35 1.33 2.65 2.69 3.92 4.09l4.61-3.82c-1.42-1.6-2.9-3.14-4.42-4.65z"/><path d="m32.73 74.78q-1.62-2.86-3.42-5.63l-4.73 3.61q1.56 2.37 3 4.85z"/><path d="m20.57 67.07q1.74 2.28 3.33 4.66l4.73-3.6c-1.07-1.59-2.17-3.15-3.32-4.67z"/><path d="m737.82 123.15 3.52 7.9c2.27-1 4.56-1.91 6.9-2.77l-2.79-8.18c-2.58.95-5.13 1.97-7.63 3.05z"/><path d="m724.8 139.7q3.38-2.08 6.9-4l-3.93-7.7q-3.91 2.07-7.66 4.38z"/><path d="m733.19 134.93c2.16-1.12 4.37-2.19 6.61-3.2l-3.52-7.9q-3.57 1.59-7 3.37z"/><path d="m752.5 117.76v9c-.9.29-1.79.6-2.67.91l-2.78-8.16c1.8-.59 3.61-1.19 5.45-1.75z"/><path d="m717 145q3.13-2.26 6.42-4.36l-4.68-7.32q-3.3 2.08-6.46 4.33z"/><path d="m741.37 179.28c2.19-1 4.43-2 6.7-2.9l-2.78-7.46q-3.78 1.49-7.44 3.2z"/><path d="m752.5 166.32v8.39c-1 .35-2 .72-3 1.1l-2.78-7.46c1.9-.72 3.83-1.35 5.78-2.03z"/><path d="m733.66 183.26c2.06-1.17 4.17-2.26 6.31-3.31l-3.51-7.16q-3.23 1.56-6.33 3.28z"/><path d="m82.75 0-6.45 6.2-1.5 1.44q-3.85-3.91-7.86-7.64z"/><path d="m108.94 25.36q-4.78-6.6-10-12.87l-10.58 10.18q4.49 5.42 8.64 11.09z"/><path d="m97 10.16-9.5 9.12-1.1 1.06q-4.59-5.4-9.48-10.52l1.43-1.37 8.79-8.45h.76q4.68 4.95 9.1 10.16z"/><path d="m100.3 39.76-12 6.61a204.1 204.1 0 0 1 26.78 67.14l13.23-2.91a216.77 216.77 0 0 0 -28.01-70.84z"/><path d="m59.17 309.24a217.26 217.26 0 0 1 -59.17 39.68v-15a204.29 204.29 0 0 0 50.28-35.1l.34.4 7.44 8.73z"/><path d="m29 13.31-9.54 9.84a204.13 204.13 0 0 1 45.29 56.35l11.8-6.67a216.71 216.71 0 0 0 -47.55-59.52z"/><path d="m21.02 170.34v7.36l12.99 1.17.5-9.37z"/><path d="m28.99 195.95-11.29-3.41 2.42-7.25 13.24 2.62z"/><path d="m10.77 232.99-7.38-5.13 3.69-5.29 9.09 4.52z"/><path d="m33.36 138.19-17.8 1.48v-1.48l19.94-2.34z"/><path d="m16.17 90.86-11.31 6.28-3.15-6.28 10.81-5.93z"/><path d="m23.84 104.17-10.3 4.99 1.01 2.66 10.98-4.89z"/></g><path d="m23.09 139.05q-.12-.86-.27-1.71a129.33 129.33 0 0 0 -7.26-26c-.35-.89-.71-1.78-1.09-2.66a127.69 127.69 0 0 0 -6.47-13.26q-1.71-3.06-3.59-6c-1.41-2.21-2.89-4.36-4.41-6.42v15a122.61 122.61 0 0 1 16.63 61.84 122.61 122.61 0 0 1 -16.63 61.84v14.23q2.51-3.47 4.77-7.09c1.23-1.82 2.31-3.82 3.39-5.71a130.08 130.08 0 0 0 12.09-29.8q1-3.76 1.79-7.64t1.34-7.76q.56-3.85.87-7.78c.28-3.53.43-7.09.43-10.69a130.48 130.48 0 0 0 -1.59-20.39z" fill="#fff"/><path d="m27 231.91 1.48 1a139.07 139.07 0 0 1 -28.48 31.92v-2.47a135.33 135.33 0 0 0 27-30.45z" fill="#cdedfb"/><path d="m38.94 102.41-2 .8a137.32 137.32 0 0 0 -36.94-49.27v-2.94a138.87 138.87 0 0 1 38.94 51.41z" fill="#cdedfb"/><path d="m79.45 264.22a197 197 0 0 1 -28.83 35 196.33 196.33 0 0 1 -50.62 35.32v-3.22a193 193 0 0 0 77.34-68.5z" fill="#cdedfb"/><path d="m94.3 79.23-2.86 1.14a194.51 194.51 0 0 0 -65.97-80.37h5.47a196.75 196.75 0 0 1 63.36 79.23z" fill="#cdedfb"/><path d="m31 343.48 1.37 2.91a222.71 222.71 0 0 1 -32.37 17.12v-3.62a220 220 0 0 0 31-16.41z" fill="#cdedfb"/><path d="m135.68 157.92c0 3.56-.09 7.11-.25 10.64h-3.17c.14-3.23.22-6.48.22-9.75a221.14 221.14 0 0 0 -5.23-48 219.43 219.43 0 0 0 -28.87-70 221.64 221.64 0 0 0 -33.2-40.81h5.17q3 3 6 6.2c.69.74 1.38 1.49 2 2.25q4.75 5.27 9.15 10.83c.64.8 1.26 1.6 1.88 2.41q4.35 5.64 8.33 11.57a222.41 222.41 0 0 1 37.97 124.66z" fill="#cdedfb"/><path d="m14.38 283.46 1.25 2a162.38 162.38 0 0 1 -15.63 11.25v-2.87a161.11 161.11 0 0 0 14.38-10.38z" fill="#cdedfb"/><path d="m76 147.07-2.32.26q-.24-3.56-.64-7.14a162 162 0 0 0 -73.04-117.86v-3.18a163.93 163.93 0 0 1 75.32 120.12c.3 2.61.52 5.21.68 7.8z" fill="#cdedfb"/><path d="m143.29 158.68c0 96.69-59.18 179.56-143.29 214.32v-3.76c82.26-34.24 140-114.69 140-209.64 0-5.29-.2-10.53-.55-15.73h3.38c.28 4.9.46 9.83.46 14.81z" fill="#cdedfb"/><path d="m105.66 100a203.79 203.79 0 0 1 8.83 59.47 200.34 200.34 0 0 1 -43.08 124.69l2.19 1.59a205.19 205.19 0 0 0 43.84-127.07 205.94 205.94 0 0 0 -8.64-59.16z" fill="#cdedfb"/><path d="m679.66 452.65c.94 1.14 1.9 2.25 2.89 3.35h-3c-.58-.66-1.15-1.33-1.7-2a138.72 138.72 0 0 1 -27.49-53l2.11-.49a137 137 0 0 0 27.19 52.14z" fill="#cdedfb"/><path d="m773.26 232.16-.47-2.13q1.61 0 3.21 0v2.13z" fill="#cdedfb"/><path d="m670.8 456h-2.92a138.84 138.84 0 0 1 -26.64-52l2.12-.49a137.09 137.09 0 0 0 27.44 52.49z" fill="#cdedfb"/><path d="m776 244.4q-1.26-.41-2.55-.78l.36-2.05c.73.22 1.46.44 2.19.68z" fill="#cdedfb"/><path d="m600.28 400.16a137.18 137.18 0 0 0 25 55.84h-2.8a138.9 138.9 0 0 1 -24.33-55.5z" fill="#cdedfb"/><path d="m47.76 108.84a143.52 143.52 0 0 1 8.24 48.16 141.63 141.63 0 0 1 -40.72 99.7l1.32 1.43a145.1 145.1 0 0 0 41.5-101.72 145 145 0 0 0 -8.31-48.52z" fill="#cdedfb"/><path d="m713.18 424.85q6.23 8.06 12.84 15.7l17.92-14q-6.66-7.59-12.87-15.62z" fill="#cdedfb"/><path d="m624.07 349.47q0 12.21.65 24.47l25.35-1.57q-.69-11.75-.69-23.46z" fill="#cdedfb"/><path d="m693.8 456h-18.65l2.71-2 1.8-1.34 7.6-5.64q3.21 4.52 6.54 8.98z" fill="#cdedfb"/></svg>