<svg width="9" height="9" viewBox="0 0 9 9" fill="none" xmlns="http://www.w3.org/2000/svg">
<path fill-rule="evenodd" clip-rule="evenodd" d="M4.5 7.5C6.15685 7.5 7.5 6.15685 7.5 4.5C7.5 2.84315 6.15685 1.5 4.5 1.5C2.84315 1.5 1.5 2.84315 1.5 4.5C1.5 6.15685 2.84315 7.5 4.5 7.5ZM4.5 9C6.98528 9 9 6.98528 9 4.5C9 2.01472 6.98528 0 4.5 0C2.01472 0 0 2.01472 0 4.5C0 6.98528 2.01472 9 4.5 9Z" fill="#76A2A9"/>
<path fill-rule="evenodd" clip-rule="evenodd" d="M7.33634 2.36997L1.83634 7.36997L1.16366 6.63003L6.66366 1.63003L7.33634 2.36997Z" fill="#76A2A9"/>
</svg>
